%TF.GenerationSoftware,KiCad,Pcbnew,9.0.5*%
%TF.CreationDate,2026-03-31T17:20:33-04:00*%
%TF.ProjectId,SeedMultiFX,53656564-4d75-46c7-9469-46582e6b6963,rev?*%
%TF.SameCoordinates,Original*%
%TF.FileFunction,Soldermask,Bot*%
%TF.FilePolarity,Negative*%
%FSLAX46Y46*%
G04 Gerber Fmt 4.6, Leading zero omitted, Abs format (unit mm)*
G04 Created by KiCad (PCBNEW 9.0.5) date 2026-03-31 17:20:33*
%MOMM*%
%LPD*%
G01*
G04 APERTURE LIST*
G04 Aperture macros list*
%AMRoundRect*
0 Rectangle with rounded corners*
0 $1 Rounding radius*
0 $2 $3 $4 $5 $6 $7 $8 $9 X,Y pos of 4 corners*
0 Add a 4 corners polygon primitive as box body*
4,1,4,$2,$3,$4,$5,$6,$7,$8,$9,$2,$3,0*
0 Add four circle primitives for the rounded corners*
1,1,$1+$1,$2,$3*
1,1,$1+$1,$4,$5*
1,1,$1+$1,$6,$7*
1,1,$1+$1,$8,$9*
0 Add four rect primitives between the rounded corners*
20,1,$1+$1,$2,$3,$4,$5,0*
20,1,$1+$1,$4,$5,$6,$7,0*
20,1,$1+$1,$6,$7,$8,$9,0*
20,1,$1+$1,$8,$9,$2,$3,0*%
G04 Aperture macros list end*
%ADD10RoundRect,0.249999X0.850001X-0.850001X0.850001X0.850001X-0.850001X0.850001X-0.850001X-0.850001X0*%
%ADD11C,2.200000*%
%ADD12C,1.400000*%
%ADD13C,1.600000*%
%ADD14O,2.000000X3.500000*%
%ADD15R,1.700000X1.700000*%
%ADD16C,1.700000*%
%ADD17O,4.000000X1.800000*%
%ADD18O,1.800000X4.000000*%
%ADD19R,1.905000X2.000000*%
%ADD20O,1.905000X2.000000*%
%ADD21RoundRect,0.250000X-0.550000X-0.550000X0.550000X-0.550000X0.550000X0.550000X-0.550000X0.550000X0*%
%ADD22R,1.800000X1.800000*%
%ADD23C,1.800000*%
%ADD24R,2.000000X2.000000*%
%ADD25C,2.000000*%
%ADD26R,2.000000X3.200000*%
%ADD27O,2.500000X2.000000*%
G04 APERTURE END LIST*
D10*
%TO.C,D7*%
X151000000Y-59810000D03*
D11*
X151000000Y-52190000D03*
%TD*%
D12*
%TO.C,R8*%
X100500000Y-82460000D03*
X100500000Y-87540000D03*
%TD*%
D13*
%TO.C,JI1*%
X85000000Y-110000000D03*
%TD*%
%TO.C,C12*%
X155000000Y-109000000D03*
X157000000Y-109000000D03*
%TD*%
%TO.C,C10*%
X157000000Y-96000000D03*
X155000000Y-96000000D03*
%TD*%
D12*
%TO.C,R22*%
X180960000Y-93000000D03*
X186040000Y-93000000D03*
%TD*%
D13*
%TO.C,C9*%
X105500000Y-86250000D03*
X105500000Y-83750000D03*
%TD*%
%TO.C,C2*%
X120500000Y-104000000D03*
X125500000Y-104000000D03*
%TD*%
%TO.C,C8*%
X103000000Y-83750000D03*
X103000000Y-86250000D03*
%TD*%
%TO.C,C1*%
X119000000Y-96000000D03*
X121000000Y-96000000D03*
%TD*%
%TO.C,R2*%
X124190000Y-94000000D03*
X131810000Y-94000000D03*
%TD*%
%TO.C,FXI2*%
X162000000Y-110500000D03*
%TD*%
%TO.C,R14*%
X151810000Y-100000000D03*
X144190000Y-100000000D03*
%TD*%
%TO.C,R25*%
X124190000Y-97000000D03*
X131810000Y-97000000D03*
%TD*%
D12*
%TO.C,R24*%
X168000000Y-82460000D03*
X168000000Y-87540000D03*
%TD*%
D13*
%TO.C,JP1*%
X144000000Y-69000000D03*
X138000000Y-102000000D03*
%TD*%
D14*
%TO.C,J1*%
X97500000Y-54500000D03*
X95000000Y-62000000D03*
X95000000Y-69500000D03*
%TD*%
D13*
%TO.C,GND1*%
X138005000Y-110000000D03*
%TD*%
%TO.C,LED2*%
X170000000Y-110500000D03*
%TD*%
%TO.C,C11*%
X147000000Y-105000000D03*
X145000000Y-105000000D03*
%TD*%
D14*
%TO.C,J4*%
X178500000Y-54500000D03*
X176000000Y-62000000D03*
X176000000Y-69500000D03*
%TD*%
D15*
%TO.C,SEED1*%
X114495000Y-89620000D03*
D16*
X117035000Y-89620000D03*
X119575000Y-89620000D03*
X122115000Y-89620000D03*
X124655000Y-89620000D03*
X127195000Y-89620000D03*
X129735000Y-89620000D03*
X132275000Y-89620000D03*
X134815000Y-89620000D03*
X137355000Y-89620000D03*
X139895000Y-89620000D03*
X142435000Y-89620000D03*
X144975000Y-89620000D03*
X147515000Y-89620000D03*
X150055000Y-89620000D03*
X152595000Y-89620000D03*
X155135000Y-89620000D03*
X157675000Y-89620000D03*
X160215000Y-89620000D03*
X162755000Y-89620000D03*
X162755000Y-74380000D03*
X160215000Y-74380000D03*
X157675000Y-74380000D03*
X155135000Y-74380000D03*
X152595000Y-74380000D03*
X150055000Y-74380000D03*
X147515000Y-74380000D03*
X144975000Y-74380000D03*
X142435000Y-74380000D03*
X139895000Y-74380000D03*
X137355000Y-74380000D03*
X134815000Y-74380000D03*
X132275000Y-74380000D03*
X129735000Y-74380000D03*
X127195000Y-74380000D03*
X124655000Y-74380000D03*
X122115000Y-74380000D03*
X119575000Y-74380000D03*
X117035000Y-74380000D03*
X114495000Y-74380000D03*
%TD*%
D17*
%TO.C,J5*%
X133000000Y-58000000D03*
D18*
X128200000Y-55400000D03*
D17*
X133000000Y-51900000D03*
%TD*%
D13*
%TO.C,R6*%
X117810000Y-104000000D03*
X110190000Y-104000000D03*
%TD*%
D19*
%TO.C,U2*%
X140460000Y-51000000D03*
D20*
X143000000Y-51000000D03*
X145540000Y-51000000D03*
%TD*%
D14*
%TO.C,J3*%
X158500000Y-54500000D03*
X156000000Y-62000000D03*
X156000000Y-69500000D03*
%TD*%
D12*
%TO.C,R7*%
X108000000Y-82460000D03*
X108000000Y-87540000D03*
%TD*%
D13*
%TO.C,R20*%
X140000000Y-59190000D03*
X140000000Y-66810000D03*
%TD*%
%TO.C,JO2*%
X191000000Y-110000000D03*
%TD*%
%TO.C,R3*%
X115000000Y-100810000D03*
X115000000Y-93190000D03*
%TD*%
%TO.C,JI2*%
X189000000Y-107000000D03*
%TD*%
%TO.C,C5*%
X144000000Y-64000000D03*
X146500000Y-64000000D03*
%TD*%
%TO.C,R4*%
X124190000Y-100000000D03*
X131810000Y-100000000D03*
%TD*%
%TO.C,R19*%
X97190000Y-97000000D03*
X104810000Y-97000000D03*
%TD*%
%TO.C,FX02*%
X166000000Y-110500000D03*
%TD*%
%TO.C,R21*%
X135810000Y-70000000D03*
X128190000Y-70000000D03*
%TD*%
%TO.C,J7*%
X148000000Y-94000000D03*
X138000000Y-69000000D03*
X128000000Y-94000000D03*
%TD*%
%TO.C,C4*%
X121000000Y-109000000D03*
X119000000Y-109000000D03*
%TD*%
%TO.C,JO1*%
X87000000Y-107000000D03*
%TD*%
%TO.C,R10*%
X108190000Y-107000000D03*
X115810000Y-107000000D03*
%TD*%
%TO.C,R16*%
X144190000Y-109500000D03*
X151810000Y-109500000D03*
%TD*%
%TO.C,R28*%
X97190000Y-105000000D03*
X104810000Y-105000000D03*
%TD*%
%TO.C,FXI1*%
X110000000Y-110500000D03*
%TD*%
%TO.C,C13*%
X155500000Y-104000000D03*
X150500000Y-104000000D03*
%TD*%
%TO.C,R27*%
X178810000Y-105000000D03*
X171190000Y-105000000D03*
%TD*%
%TO.C,R12*%
X151810000Y-94000000D03*
X144190000Y-94000000D03*
%TD*%
%TO.C,C6*%
X146000000Y-54000000D03*
X146000000Y-59000000D03*
%TD*%
%TO.C,C17*%
X170500000Y-83750000D03*
X170500000Y-86250000D03*
%TD*%
D12*
%TO.C,R9*%
X89960000Y-93000000D03*
X95040000Y-93000000D03*
%TD*%
D14*
%TO.C,J2*%
X117500000Y-54500000D03*
X115000000Y-62000000D03*
X115000000Y-69500000D03*
%TD*%
D13*
%TO.C,C15*%
X132000000Y-63000000D03*
X129500000Y-63000000D03*
%TD*%
%TO.C,R18*%
X178810000Y-97000000D03*
X171190000Y-97000000D03*
%TD*%
%TO.C,R26*%
X151810000Y-97000000D03*
X144190000Y-97000000D03*
%TD*%
%TO.C,C16*%
X173000000Y-83750000D03*
X173000000Y-86250000D03*
%TD*%
%TO.C,LED1*%
X106000000Y-110500000D03*
%TD*%
%TO.C,R13*%
X164000000Y-100810000D03*
X164000000Y-93190000D03*
%TD*%
D12*
%TO.C,R23*%
X175500000Y-82460000D03*
X175500000Y-87540000D03*
%TD*%
D13*
%TO.C,R1*%
X112000000Y-100810000D03*
X112000000Y-93190000D03*
%TD*%
%TO.C,R11*%
X167810000Y-107000000D03*
X160190000Y-107000000D03*
%TD*%
%TO.C,C3*%
X129000000Y-105000000D03*
X131000000Y-105000000D03*
%TD*%
%TO.C,R5*%
X124190000Y-109500000D03*
X131810000Y-109500000D03*
%TD*%
D21*
%TO.C,U1*%
X134195000Y-94380000D03*
D13*
X134195000Y-96920000D03*
X134195000Y-99460000D03*
X134195000Y-102000000D03*
X134195000Y-104540000D03*
X134195000Y-107080000D03*
X134195000Y-109620000D03*
X141815000Y-109620000D03*
X141815000Y-107080000D03*
X141815000Y-104540000D03*
X141815000Y-102000000D03*
X141815000Y-99460000D03*
X141815000Y-96920000D03*
X141815000Y-94380000D03*
%TD*%
%TO.C,R15*%
X161000000Y-100810000D03*
X161000000Y-93190000D03*
%TD*%
%TO.C,R17*%
X158190000Y-104000000D03*
X165810000Y-104000000D03*
%TD*%
%TO.C,FX01*%
X114000000Y-110500000D03*
%TD*%
%TO.C,R29*%
X137000000Y-59190000D03*
X137000000Y-66810000D03*
%TD*%
%TO.C,C7*%
X151000000Y-63500000D03*
X151000000Y-68500000D03*
%TD*%
D22*
%TO.C,D4*%
X97500000Y-101000000D03*
D23*
X100040000Y-101000000D03*
%TD*%
D24*
%TO.C,SW6*%
X181000000Y-74000000D03*
D25*
X186000000Y-74000000D03*
X183500000Y-74000000D03*
D26*
X189100000Y-81500000D03*
X177900000Y-81500000D03*
D25*
X186000000Y-88500000D03*
X181000000Y-88500000D03*
%TD*%
D22*
%TO.C,D5*%
X97500000Y-109000000D03*
D23*
X100040000Y-109000000D03*
%TD*%
D27*
%TO.C,SW4*%
X183500000Y-109700000D03*
X183500000Y-105000000D03*
X183500000Y-100300000D03*
%TD*%
D22*
%TO.C,D6*%
X178500000Y-101000000D03*
D23*
X175960000Y-101000000D03*
%TD*%
D15*
%TO.C,J6*%
X171525000Y-78100000D03*
D16*
X171525000Y-75560000D03*
X171525000Y-73020000D03*
X171525000Y-70480000D03*
X171525000Y-67940000D03*
X171525000Y-65400000D03*
X171525000Y-62860000D03*
%TD*%
D22*
%TO.C,D3*%
X178500000Y-109000000D03*
D23*
X175960000Y-109000000D03*
%TD*%
D27*
%TO.C,SW5*%
X92500000Y-100300000D03*
X92500000Y-105000000D03*
X92500000Y-109700000D03*
%TD*%
D24*
%TO.C,SW1*%
X90000000Y-74000000D03*
D25*
X95000000Y-74000000D03*
X92500000Y-74000000D03*
D26*
X98100000Y-81500000D03*
X86900000Y-81500000D03*
D25*
X95000000Y-88500000D03*
X90000000Y-88500000D03*
%TD*%
M02*
