%TF.GenerationSoftware,KiCad,Pcbnew,9.0.5*%
%TF.CreationDate,2026-03-31T17:20:33-04:00*%
%TF.ProjectId,SeedMultiFX,53656564-4d75-46c7-9469-46582e6b6963,rev?*%
%TF.SameCoordinates,Original*%
%TF.FileFunction,Legend,Top*%
%TF.FilePolarity,Positive*%
%FSLAX46Y46*%
G04 Gerber Fmt 4.6, Leading zero omitted, Abs format (unit mm)*
G04 Created by KiCad (PCBNEW 9.0.5) date 2026-03-31 17:20:33*
%MOMM*%
%LPD*%
G01*
G04 APERTURE LIST*
G04 Aperture macros list*
%AMRoundRect*
0 Rectangle with rounded corners*
0 $1 Rounding radius*
0 $2 $3 $4 $5 $6 $7 $8 $9 X,Y pos of 4 corners*
0 Add a 4 corners polygon primitive as box body*
4,1,4,$2,$3,$4,$5,$6,$7,$8,$9,$2,$3,0*
0 Add four circle primitives for the rounded corners*
1,1,$1+$1,$2,$3*
1,1,$1+$1,$4,$5*
1,1,$1+$1,$6,$7*
1,1,$1+$1,$8,$9*
0 Add four rect primitives between the rounded corners*
20,1,$1+$1,$2,$3,$4,$5,0*
20,1,$1+$1,$4,$5,$6,$7,0*
20,1,$1+$1,$6,$7,$8,$9,0*
20,1,$1+$1,$8,$9,$2,$3,0*%
G04 Aperture macros list end*
%ADD10C,0.300000*%
%ADD11C,0.250000*%
%ADD12C,0.150000*%
%ADD13C,0.100000*%
%ADD14C,0.120000*%
%ADD15RoundRect,0.249999X0.850001X-0.850001X0.850001X0.850001X-0.850001X0.850001X-0.850001X-0.850001X0*%
%ADD16C,2.200000*%
%ADD17C,1.400000*%
%ADD18C,1.600000*%
%ADD19RoundRect,0.200000X-0.750000X-0.200000X0.750000X-0.200000X0.750000X0.200000X-0.750000X0.200000X0*%
%ADD20O,2.000000X3.500000*%
%ADD21R,1.700000X1.700000*%
%ADD22C,1.700000*%
%ADD23O,4.000000X1.800000*%
%ADD24O,1.800000X4.000000*%
%ADD25R,1.905000X2.000000*%
%ADD26O,1.905000X2.000000*%
%ADD27RoundRect,0.250000X-0.550000X-0.550000X0.550000X-0.550000X0.550000X0.550000X-0.550000X0.550000X0*%
%ADD28R,1.800000X1.800000*%
%ADD29C,1.800000*%
%ADD30R,2.000000X2.000000*%
%ADD31C,2.000000*%
%ADD32R,2.000000X3.200000*%
%ADD33O,2.500000X2.000000*%
G04 APERTURE END LIST*
D10*
X189178328Y-71928571D02*
X190249757Y-71928571D01*
X190249757Y-71928571D02*
X190464042Y-72000000D01*
X190464042Y-72000000D02*
X190606900Y-72142857D01*
X190606900Y-72142857D02*
X190678328Y-72357143D01*
X190678328Y-72357143D02*
X190678328Y-72500000D01*
X190678328Y-70500000D02*
X190678328Y-71214286D01*
X190678328Y-71214286D02*
X189178328Y-71214286D01*
X190535471Y-69142857D02*
X190606900Y-69214285D01*
X190606900Y-69214285D02*
X190678328Y-69428571D01*
X190678328Y-69428571D02*
X190678328Y-69571428D01*
X190678328Y-69571428D02*
X190606900Y-69785714D01*
X190606900Y-69785714D02*
X190464042Y-69928571D01*
X190464042Y-69928571D02*
X190321185Y-70000000D01*
X190321185Y-70000000D02*
X190035471Y-70071428D01*
X190035471Y-70071428D02*
X189821185Y-70071428D01*
X189821185Y-70071428D02*
X189535471Y-70000000D01*
X189535471Y-70000000D02*
X189392614Y-69928571D01*
X189392614Y-69928571D02*
X189249757Y-69785714D01*
X189249757Y-69785714D02*
X189178328Y-69571428D01*
X189178328Y-69571428D02*
X189178328Y-69428571D01*
X189178328Y-69428571D02*
X189249757Y-69214285D01*
X189249757Y-69214285D02*
X189321185Y-69142857D01*
X189178328Y-68071428D02*
X190249757Y-68071428D01*
X190249757Y-68071428D02*
X190464042Y-68142857D01*
X190464042Y-68142857D02*
X190606900Y-68285714D01*
X190606900Y-68285714D02*
X190678328Y-68500000D01*
X190678328Y-68500000D02*
X190678328Y-68642857D01*
X190678328Y-66642857D02*
X190678328Y-67357143D01*
X190678328Y-67357143D02*
X189178328Y-67357143D01*
X190535471Y-65285714D02*
X190606900Y-65357142D01*
X190606900Y-65357142D02*
X190678328Y-65571428D01*
X190678328Y-65571428D02*
X190678328Y-65714285D01*
X190678328Y-65714285D02*
X190606900Y-65928571D01*
X190606900Y-65928571D02*
X190464042Y-66071428D01*
X190464042Y-66071428D02*
X190321185Y-66142857D01*
X190321185Y-66142857D02*
X190035471Y-66214285D01*
X190035471Y-66214285D02*
X189821185Y-66214285D01*
X189821185Y-66214285D02*
X189535471Y-66142857D01*
X189535471Y-66142857D02*
X189392614Y-66071428D01*
X189392614Y-66071428D02*
X189249757Y-65928571D01*
X189249757Y-65928571D02*
X189178328Y-65714285D01*
X189178328Y-65714285D02*
X189178328Y-65571428D01*
X189178328Y-65571428D02*
X189249757Y-65357142D01*
X189249757Y-65357142D02*
X189321185Y-65285714D01*
X189178328Y-64214285D02*
X190249757Y-64214285D01*
X190249757Y-64214285D02*
X190464042Y-64285714D01*
X190464042Y-64285714D02*
X190606900Y-64428571D01*
X190606900Y-64428571D02*
X190678328Y-64642857D01*
X190678328Y-64642857D02*
X190678328Y-64785714D01*
X190678328Y-62785714D02*
X190678328Y-63500000D01*
X190678328Y-63500000D02*
X189178328Y-63500000D01*
X190535471Y-61428571D02*
X190606900Y-61499999D01*
X190606900Y-61499999D02*
X190678328Y-61714285D01*
X190678328Y-61714285D02*
X190678328Y-61857142D01*
X190678328Y-61857142D02*
X190606900Y-62071428D01*
X190606900Y-62071428D02*
X190464042Y-62214285D01*
X190464042Y-62214285D02*
X190321185Y-62285714D01*
X190321185Y-62285714D02*
X190035471Y-62357142D01*
X190035471Y-62357142D02*
X189821185Y-62357142D01*
X189821185Y-62357142D02*
X189535471Y-62285714D01*
X189535471Y-62285714D02*
X189392614Y-62214285D01*
X189392614Y-62214285D02*
X189249757Y-62071428D01*
X189249757Y-62071428D02*
X189178328Y-61857142D01*
X189178328Y-61857142D02*
X189178328Y-61714285D01*
X189178328Y-61714285D02*
X189249757Y-61499999D01*
X189249757Y-61499999D02*
X189321185Y-61428571D01*
X189178328Y-60357142D02*
X190249757Y-60357142D01*
X190249757Y-60357142D02*
X190464042Y-60428571D01*
X190464042Y-60428571D02*
X190606900Y-60571428D01*
X190606900Y-60571428D02*
X190678328Y-60785714D01*
X190678328Y-60785714D02*
X190678328Y-60928571D01*
X190678328Y-58928571D02*
X190678328Y-59642857D01*
X190678328Y-59642857D02*
X189178328Y-59642857D01*
X190535471Y-57571428D02*
X190606900Y-57642856D01*
X190606900Y-57642856D02*
X190678328Y-57857142D01*
X190678328Y-57857142D02*
X190678328Y-57999999D01*
X190678328Y-57999999D02*
X190606900Y-58214285D01*
X190606900Y-58214285D02*
X190464042Y-58357142D01*
X190464042Y-58357142D02*
X190321185Y-58428571D01*
X190321185Y-58428571D02*
X190035471Y-58499999D01*
X190035471Y-58499999D02*
X189821185Y-58499999D01*
X189821185Y-58499999D02*
X189535471Y-58428571D01*
X189535471Y-58428571D02*
X189392614Y-58357142D01*
X189392614Y-58357142D02*
X189249757Y-58214285D01*
X189249757Y-58214285D02*
X189178328Y-57999999D01*
X189178328Y-57999999D02*
X189178328Y-57857142D01*
X189178328Y-57857142D02*
X189249757Y-57642856D01*
X189249757Y-57642856D02*
X189321185Y-57571428D01*
D11*
X84839675Y-78666666D02*
X83839675Y-78666666D01*
X83839675Y-78666666D02*
X83839675Y-78428571D01*
X83839675Y-78428571D02*
X83887294Y-78285714D01*
X83887294Y-78285714D02*
X83982532Y-78190476D01*
X83982532Y-78190476D02*
X84077770Y-78142857D01*
X84077770Y-78142857D02*
X84268246Y-78095238D01*
X84268246Y-78095238D02*
X84411103Y-78095238D01*
X84411103Y-78095238D02*
X84601579Y-78142857D01*
X84601579Y-78142857D02*
X84696817Y-78190476D01*
X84696817Y-78190476D02*
X84792056Y-78285714D01*
X84792056Y-78285714D02*
X84839675Y-78428571D01*
X84839675Y-78428571D02*
X84839675Y-78666666D01*
X84553960Y-77714285D02*
X84553960Y-77238095D01*
X84839675Y-77809523D02*
X83839675Y-77476190D01*
X83839675Y-77476190D02*
X84839675Y-77142857D01*
X84839675Y-76809523D02*
X83839675Y-76809523D01*
X84792056Y-76380952D02*
X84839675Y-76238095D01*
X84839675Y-76238095D02*
X84839675Y-76000000D01*
X84839675Y-76000000D02*
X84792056Y-75904762D01*
X84792056Y-75904762D02*
X84744436Y-75857143D01*
X84744436Y-75857143D02*
X84649198Y-75809524D01*
X84649198Y-75809524D02*
X84553960Y-75809524D01*
X84553960Y-75809524D02*
X84458722Y-75857143D01*
X84458722Y-75857143D02*
X84411103Y-75904762D01*
X84411103Y-75904762D02*
X84363484Y-76000000D01*
X84363484Y-76000000D02*
X84315865Y-76190476D01*
X84315865Y-76190476D02*
X84268246Y-76285714D01*
X84268246Y-76285714D02*
X84220627Y-76333333D01*
X84220627Y-76333333D02*
X84125389Y-76380952D01*
X84125389Y-76380952D02*
X84030151Y-76380952D01*
X84030151Y-76380952D02*
X83934913Y-76333333D01*
X83934913Y-76333333D02*
X83887294Y-76285714D01*
X83887294Y-76285714D02*
X83839675Y-76190476D01*
X83839675Y-76190476D02*
X83839675Y-75952381D01*
X83839675Y-75952381D02*
X83887294Y-75809524D01*
X84363484Y-75190476D02*
X84839675Y-75190476D01*
X83839675Y-75523809D02*
X84363484Y-75190476D01*
X84363484Y-75190476D02*
X83839675Y-74857143D01*
X84792056Y-73809523D02*
X84839675Y-73666666D01*
X84839675Y-73666666D02*
X84839675Y-73428571D01*
X84839675Y-73428571D02*
X84792056Y-73333333D01*
X84792056Y-73333333D02*
X84744436Y-73285714D01*
X84744436Y-73285714D02*
X84649198Y-73238095D01*
X84649198Y-73238095D02*
X84553960Y-73238095D01*
X84553960Y-73238095D02*
X84458722Y-73285714D01*
X84458722Y-73285714D02*
X84411103Y-73333333D01*
X84411103Y-73333333D02*
X84363484Y-73428571D01*
X84363484Y-73428571D02*
X84315865Y-73619047D01*
X84315865Y-73619047D02*
X84268246Y-73714285D01*
X84268246Y-73714285D02*
X84220627Y-73761904D01*
X84220627Y-73761904D02*
X84125389Y-73809523D01*
X84125389Y-73809523D02*
X84030151Y-73809523D01*
X84030151Y-73809523D02*
X83934913Y-73761904D01*
X83934913Y-73761904D02*
X83887294Y-73714285D01*
X83887294Y-73714285D02*
X83839675Y-73619047D01*
X83839675Y-73619047D02*
X83839675Y-73380952D01*
X83839675Y-73380952D02*
X83887294Y-73238095D01*
X84315865Y-72809523D02*
X84315865Y-72476190D01*
X84839675Y-72333333D02*
X84839675Y-72809523D01*
X84839675Y-72809523D02*
X83839675Y-72809523D01*
X83839675Y-72809523D02*
X83839675Y-72333333D01*
X84315865Y-71904761D02*
X84315865Y-71571428D01*
X84839675Y-71428571D02*
X84839675Y-71904761D01*
X84839675Y-71904761D02*
X83839675Y-71904761D01*
X83839675Y-71904761D02*
X83839675Y-71428571D01*
X84839675Y-70999999D02*
X83839675Y-70999999D01*
X83839675Y-70999999D02*
X83839675Y-70761904D01*
X83839675Y-70761904D02*
X83887294Y-70619047D01*
X83887294Y-70619047D02*
X83982532Y-70523809D01*
X83982532Y-70523809D02*
X84077770Y-70476190D01*
X84077770Y-70476190D02*
X84268246Y-70428571D01*
X84268246Y-70428571D02*
X84411103Y-70428571D01*
X84411103Y-70428571D02*
X84601579Y-70476190D01*
X84601579Y-70476190D02*
X84696817Y-70523809D01*
X84696817Y-70523809D02*
X84792056Y-70619047D01*
X84792056Y-70619047D02*
X84839675Y-70761904D01*
X84839675Y-70761904D02*
X84839675Y-70999999D01*
X84792056Y-69285713D02*
X84839675Y-69142856D01*
X84839675Y-69142856D02*
X84839675Y-68904761D01*
X84839675Y-68904761D02*
X84792056Y-68809523D01*
X84792056Y-68809523D02*
X84744436Y-68761904D01*
X84744436Y-68761904D02*
X84649198Y-68714285D01*
X84649198Y-68714285D02*
X84553960Y-68714285D01*
X84553960Y-68714285D02*
X84458722Y-68761904D01*
X84458722Y-68761904D02*
X84411103Y-68809523D01*
X84411103Y-68809523D02*
X84363484Y-68904761D01*
X84363484Y-68904761D02*
X84315865Y-69095237D01*
X84315865Y-69095237D02*
X84268246Y-69190475D01*
X84268246Y-69190475D02*
X84220627Y-69238094D01*
X84220627Y-69238094D02*
X84125389Y-69285713D01*
X84125389Y-69285713D02*
X84030151Y-69285713D01*
X84030151Y-69285713D02*
X83934913Y-69238094D01*
X83934913Y-69238094D02*
X83887294Y-69190475D01*
X83887294Y-69190475D02*
X83839675Y-69095237D01*
X83839675Y-69095237D02*
X83839675Y-68857142D01*
X83839675Y-68857142D02*
X83887294Y-68714285D01*
X83839675Y-68428570D02*
X83839675Y-67857142D01*
X84839675Y-68142856D02*
X83839675Y-68142856D01*
X84315865Y-67523808D02*
X84315865Y-67190475D01*
X84839675Y-67047618D02*
X84839675Y-67523808D01*
X84839675Y-67523808D02*
X83839675Y-67523808D01*
X83839675Y-67523808D02*
X83839675Y-67047618D01*
X84839675Y-66047618D02*
X84363484Y-66380951D01*
X84839675Y-66619046D02*
X83839675Y-66619046D01*
X83839675Y-66619046D02*
X83839675Y-66238094D01*
X83839675Y-66238094D02*
X83887294Y-66142856D01*
X83887294Y-66142856D02*
X83934913Y-66095237D01*
X83934913Y-66095237D02*
X84030151Y-66047618D01*
X84030151Y-66047618D02*
X84173008Y-66047618D01*
X84173008Y-66047618D02*
X84268246Y-66095237D01*
X84268246Y-66095237D02*
X84315865Y-66142856D01*
X84315865Y-66142856D02*
X84363484Y-66238094D01*
X84363484Y-66238094D02*
X84363484Y-66619046D01*
X84315865Y-65619046D02*
X84315865Y-65285713D01*
X84839675Y-65142856D02*
X84839675Y-65619046D01*
X84839675Y-65619046D02*
X83839675Y-65619046D01*
X83839675Y-65619046D02*
X83839675Y-65142856D01*
X83839675Y-64523808D02*
X83839675Y-64333332D01*
X83839675Y-64333332D02*
X83887294Y-64238094D01*
X83887294Y-64238094D02*
X83982532Y-64142856D01*
X83982532Y-64142856D02*
X84173008Y-64095237D01*
X84173008Y-64095237D02*
X84506341Y-64095237D01*
X84506341Y-64095237D02*
X84696817Y-64142856D01*
X84696817Y-64142856D02*
X84792056Y-64238094D01*
X84792056Y-64238094D02*
X84839675Y-64333332D01*
X84839675Y-64333332D02*
X84839675Y-64523808D01*
X84839675Y-64523808D02*
X84792056Y-64619046D01*
X84792056Y-64619046D02*
X84696817Y-64714284D01*
X84696817Y-64714284D02*
X84506341Y-64761903D01*
X84506341Y-64761903D02*
X84173008Y-64761903D01*
X84173008Y-64761903D02*
X83982532Y-64714284D01*
X83982532Y-64714284D02*
X83887294Y-64619046D01*
X83887294Y-64619046D02*
X83839675Y-64523808D01*
X84839675Y-62904760D02*
X83839675Y-62904760D01*
X83839675Y-62904760D02*
X84553960Y-62571427D01*
X84553960Y-62571427D02*
X83839675Y-62238094D01*
X83839675Y-62238094D02*
X84839675Y-62238094D01*
X83839675Y-61761903D02*
X84649198Y-61761903D01*
X84649198Y-61761903D02*
X84744436Y-61714284D01*
X84744436Y-61714284D02*
X84792056Y-61666665D01*
X84792056Y-61666665D02*
X84839675Y-61571427D01*
X84839675Y-61571427D02*
X84839675Y-61380951D01*
X84839675Y-61380951D02*
X84792056Y-61285713D01*
X84792056Y-61285713D02*
X84744436Y-61238094D01*
X84744436Y-61238094D02*
X84649198Y-61190475D01*
X84649198Y-61190475D02*
X83839675Y-61190475D01*
X84839675Y-60238094D02*
X84839675Y-60714284D01*
X84839675Y-60714284D02*
X83839675Y-60714284D01*
X83839675Y-60047617D02*
X83839675Y-59476189D01*
X84839675Y-59761903D02*
X83839675Y-59761903D01*
X84839675Y-59142855D02*
X83839675Y-59142855D01*
X84315865Y-58333332D02*
X84315865Y-58666665D01*
X84839675Y-58666665D02*
X83839675Y-58666665D01*
X83839675Y-58666665D02*
X83839675Y-58190475D01*
X83839675Y-57904760D02*
X84839675Y-57238094D01*
X83839675Y-57238094D02*
X84839675Y-57904760D01*
X85925809Y-74499999D02*
X85973428Y-74357142D01*
X85973428Y-74357142D02*
X86021047Y-74309523D01*
X86021047Y-74309523D02*
X86116285Y-74261904D01*
X86116285Y-74261904D02*
X86259142Y-74261904D01*
X86259142Y-74261904D02*
X86354380Y-74309523D01*
X86354380Y-74309523D02*
X86402000Y-74357142D01*
X86402000Y-74357142D02*
X86449619Y-74452380D01*
X86449619Y-74452380D02*
X86449619Y-74833332D01*
X86449619Y-74833332D02*
X85449619Y-74833332D01*
X85449619Y-74833332D02*
X85449619Y-74499999D01*
X85449619Y-74499999D02*
X85497238Y-74404761D01*
X85497238Y-74404761D02*
X85544857Y-74357142D01*
X85544857Y-74357142D02*
X85640095Y-74309523D01*
X85640095Y-74309523D02*
X85735333Y-74309523D01*
X85735333Y-74309523D02*
X85830571Y-74357142D01*
X85830571Y-74357142D02*
X85878190Y-74404761D01*
X85878190Y-74404761D02*
X85925809Y-74499999D01*
X85925809Y-74499999D02*
X85925809Y-74833332D01*
X85449619Y-73642856D02*
X85449619Y-73452380D01*
X85449619Y-73452380D02*
X85497238Y-73357142D01*
X85497238Y-73357142D02*
X85592476Y-73261904D01*
X85592476Y-73261904D02*
X85782952Y-73214285D01*
X85782952Y-73214285D02*
X86116285Y-73214285D01*
X86116285Y-73214285D02*
X86306761Y-73261904D01*
X86306761Y-73261904D02*
X86402000Y-73357142D01*
X86402000Y-73357142D02*
X86449619Y-73452380D01*
X86449619Y-73452380D02*
X86449619Y-73642856D01*
X86449619Y-73642856D02*
X86402000Y-73738094D01*
X86402000Y-73738094D02*
X86306761Y-73833332D01*
X86306761Y-73833332D02*
X86116285Y-73880951D01*
X86116285Y-73880951D02*
X85782952Y-73880951D01*
X85782952Y-73880951D02*
X85592476Y-73833332D01*
X85592476Y-73833332D02*
X85497238Y-73738094D01*
X85497238Y-73738094D02*
X85449619Y-73642856D01*
X86163904Y-72833332D02*
X86163904Y-72357142D01*
X86449619Y-72928570D02*
X85449619Y-72595237D01*
X85449619Y-72595237D02*
X86449619Y-72261904D01*
X86449619Y-71357142D02*
X85973428Y-71690475D01*
X86449619Y-71928570D02*
X85449619Y-71928570D01*
X85449619Y-71928570D02*
X85449619Y-71547618D01*
X85449619Y-71547618D02*
X85497238Y-71452380D01*
X85497238Y-71452380D02*
X85544857Y-71404761D01*
X85544857Y-71404761D02*
X85640095Y-71357142D01*
X85640095Y-71357142D02*
X85782952Y-71357142D01*
X85782952Y-71357142D02*
X85878190Y-71404761D01*
X85878190Y-71404761D02*
X85925809Y-71452380D01*
X85925809Y-71452380D02*
X85973428Y-71547618D01*
X85973428Y-71547618D02*
X85973428Y-71928570D01*
X86449619Y-70928570D02*
X85449619Y-70928570D01*
X85449619Y-70928570D02*
X85449619Y-70690475D01*
X85449619Y-70690475D02*
X85497238Y-70547618D01*
X85497238Y-70547618D02*
X85592476Y-70452380D01*
X85592476Y-70452380D02*
X85687714Y-70404761D01*
X85687714Y-70404761D02*
X85878190Y-70357142D01*
X85878190Y-70357142D02*
X86021047Y-70357142D01*
X86021047Y-70357142D02*
X86211523Y-70404761D01*
X86211523Y-70404761D02*
X86306761Y-70452380D01*
X86306761Y-70452380D02*
X86402000Y-70547618D01*
X86402000Y-70547618D02*
X86449619Y-70690475D01*
X86449619Y-70690475D02*
X86449619Y-70928570D01*
X86449619Y-68595237D02*
X85973428Y-68928570D01*
X86449619Y-69166665D02*
X85449619Y-69166665D01*
X85449619Y-69166665D02*
X85449619Y-68785713D01*
X85449619Y-68785713D02*
X85497238Y-68690475D01*
X85497238Y-68690475D02*
X85544857Y-68642856D01*
X85544857Y-68642856D02*
X85640095Y-68595237D01*
X85640095Y-68595237D02*
X85782952Y-68595237D01*
X85782952Y-68595237D02*
X85878190Y-68642856D01*
X85878190Y-68642856D02*
X85925809Y-68690475D01*
X85925809Y-68690475D02*
X85973428Y-68785713D01*
X85973428Y-68785713D02*
X85973428Y-69166665D01*
X85925809Y-68166665D02*
X85925809Y-67833332D01*
X86449619Y-67690475D02*
X86449619Y-68166665D01*
X86449619Y-68166665D02*
X85449619Y-68166665D01*
X85449619Y-68166665D02*
X85449619Y-67690475D01*
X85449619Y-67404760D02*
X86449619Y-67071427D01*
X86449619Y-67071427D02*
X85449619Y-66738094D01*
X86449619Y-66404760D02*
X85449619Y-66404760D01*
X86402000Y-65976189D02*
X86449619Y-65833332D01*
X86449619Y-65833332D02*
X86449619Y-65595237D01*
X86449619Y-65595237D02*
X86402000Y-65499999D01*
X86402000Y-65499999D02*
X86354380Y-65452380D01*
X86354380Y-65452380D02*
X86259142Y-65404761D01*
X86259142Y-65404761D02*
X86163904Y-65404761D01*
X86163904Y-65404761D02*
X86068666Y-65452380D01*
X86068666Y-65452380D02*
X86021047Y-65499999D01*
X86021047Y-65499999D02*
X85973428Y-65595237D01*
X85973428Y-65595237D02*
X85925809Y-65785713D01*
X85925809Y-65785713D02*
X85878190Y-65880951D01*
X85878190Y-65880951D02*
X85830571Y-65928570D01*
X85830571Y-65928570D02*
X85735333Y-65976189D01*
X85735333Y-65976189D02*
X85640095Y-65976189D01*
X85640095Y-65976189D02*
X85544857Y-65928570D01*
X85544857Y-65928570D02*
X85497238Y-65880951D01*
X85497238Y-65880951D02*
X85449619Y-65785713D01*
X85449619Y-65785713D02*
X85449619Y-65547618D01*
X85449619Y-65547618D02*
X85497238Y-65404761D01*
X86449619Y-64976189D02*
X85449619Y-64976189D01*
X85449619Y-64309523D02*
X85449619Y-64119047D01*
X85449619Y-64119047D02*
X85497238Y-64023809D01*
X85497238Y-64023809D02*
X85592476Y-63928571D01*
X85592476Y-63928571D02*
X85782952Y-63880952D01*
X85782952Y-63880952D02*
X86116285Y-63880952D01*
X86116285Y-63880952D02*
X86306761Y-63928571D01*
X86306761Y-63928571D02*
X86402000Y-64023809D01*
X86402000Y-64023809D02*
X86449619Y-64119047D01*
X86449619Y-64119047D02*
X86449619Y-64309523D01*
X86449619Y-64309523D02*
X86402000Y-64404761D01*
X86402000Y-64404761D02*
X86306761Y-64499999D01*
X86306761Y-64499999D02*
X86116285Y-64547618D01*
X86116285Y-64547618D02*
X85782952Y-64547618D01*
X85782952Y-64547618D02*
X85592476Y-64499999D01*
X85592476Y-64499999D02*
X85497238Y-64404761D01*
X85497238Y-64404761D02*
X85449619Y-64309523D01*
X86449619Y-63452380D02*
X85449619Y-63452380D01*
X85449619Y-63452380D02*
X86449619Y-62880952D01*
X86449619Y-62880952D02*
X85449619Y-62880952D01*
X86449619Y-61119047D02*
X86449619Y-61690475D01*
X86449619Y-61404761D02*
X85449619Y-61404761D01*
X85449619Y-61404761D02*
X85592476Y-61499999D01*
X85592476Y-61499999D02*
X85687714Y-61595237D01*
X85687714Y-61595237D02*
X85735333Y-61690475D01*
X87059563Y-77190476D02*
X87773848Y-77190476D01*
X87773848Y-77190476D02*
X87916705Y-77238095D01*
X87916705Y-77238095D02*
X88011944Y-77333333D01*
X88011944Y-77333333D02*
X88059563Y-77476190D01*
X88059563Y-77476190D02*
X88059563Y-77571428D01*
X87773848Y-76761904D02*
X87773848Y-76285714D01*
X88059563Y-76857142D02*
X87059563Y-76523809D01*
X87059563Y-76523809D02*
X88059563Y-76190476D01*
X88059563Y-75857142D02*
X87059563Y-75857142D01*
X88059563Y-75285714D02*
X87488134Y-75714285D01*
X87059563Y-75285714D02*
X87630991Y-75857142D01*
X87535753Y-74857142D02*
X87535753Y-74523809D01*
X88059563Y-74380952D02*
X88059563Y-74857142D01*
X88059563Y-74857142D02*
X87059563Y-74857142D01*
X87059563Y-74857142D02*
X87059563Y-74380952D01*
X88059563Y-73190475D02*
X87059563Y-73190475D01*
X87535753Y-73190475D02*
X87535753Y-72619047D01*
X88059563Y-72619047D02*
X87059563Y-72619047D01*
X87773848Y-72190475D02*
X87773848Y-71714285D01*
X88059563Y-72285713D02*
X87059563Y-71952380D01*
X87059563Y-71952380D02*
X88059563Y-71619047D01*
X88059563Y-70714285D02*
X87583372Y-71047618D01*
X88059563Y-71285713D02*
X87059563Y-71285713D01*
X87059563Y-71285713D02*
X87059563Y-70904761D01*
X87059563Y-70904761D02*
X87107182Y-70809523D01*
X87107182Y-70809523D02*
X87154801Y-70761904D01*
X87154801Y-70761904D02*
X87250039Y-70714285D01*
X87250039Y-70714285D02*
X87392896Y-70714285D01*
X87392896Y-70714285D02*
X87488134Y-70761904D01*
X87488134Y-70761904D02*
X87535753Y-70809523D01*
X87535753Y-70809523D02*
X87583372Y-70904761D01*
X87583372Y-70904761D02*
X87583372Y-71285713D01*
X87059563Y-70428570D02*
X87059563Y-69857142D01*
X88059563Y-70142856D02*
X87059563Y-70142856D01*
X88059563Y-69523808D02*
X87059563Y-69523808D01*
X87059563Y-69523808D02*
X88059563Y-68952380D01*
X88059563Y-68952380D02*
X87059563Y-68952380D01*
X87535753Y-68476189D02*
X87535753Y-68142856D01*
X88059563Y-67999999D02*
X88059563Y-68476189D01*
X88059563Y-68476189D02*
X87059563Y-68476189D01*
X87059563Y-68476189D02*
X87059563Y-67999999D01*
X88011944Y-67619046D02*
X88059563Y-67476189D01*
X88059563Y-67476189D02*
X88059563Y-67238094D01*
X88059563Y-67238094D02*
X88011944Y-67142856D01*
X88011944Y-67142856D02*
X87964324Y-67095237D01*
X87964324Y-67095237D02*
X87869086Y-67047618D01*
X87869086Y-67047618D02*
X87773848Y-67047618D01*
X87773848Y-67047618D02*
X87678610Y-67095237D01*
X87678610Y-67095237D02*
X87630991Y-67142856D01*
X87630991Y-67142856D02*
X87583372Y-67238094D01*
X87583372Y-67238094D02*
X87535753Y-67428570D01*
X87535753Y-67428570D02*
X87488134Y-67523808D01*
X87488134Y-67523808D02*
X87440515Y-67571427D01*
X87440515Y-67571427D02*
X87345277Y-67619046D01*
X87345277Y-67619046D02*
X87250039Y-67619046D01*
X87250039Y-67619046D02*
X87154801Y-67571427D01*
X87154801Y-67571427D02*
X87107182Y-67523808D01*
X87107182Y-67523808D02*
X87059563Y-67428570D01*
X87059563Y-67428570D02*
X87059563Y-67190475D01*
X87059563Y-67190475D02*
X87107182Y-67047618D01*
X88011944Y-66666665D02*
X88059563Y-66523808D01*
X88059563Y-66523808D02*
X88059563Y-66285713D01*
X88059563Y-66285713D02*
X88011944Y-66190475D01*
X88011944Y-66190475D02*
X87964324Y-66142856D01*
X87964324Y-66142856D02*
X87869086Y-66095237D01*
X87869086Y-66095237D02*
X87773848Y-66095237D01*
X87773848Y-66095237D02*
X87678610Y-66142856D01*
X87678610Y-66142856D02*
X87630991Y-66190475D01*
X87630991Y-66190475D02*
X87583372Y-66285713D01*
X87583372Y-66285713D02*
X87535753Y-66476189D01*
X87535753Y-66476189D02*
X87488134Y-66571427D01*
X87488134Y-66571427D02*
X87440515Y-66619046D01*
X87440515Y-66619046D02*
X87345277Y-66666665D01*
X87345277Y-66666665D02*
X87250039Y-66666665D01*
X87250039Y-66666665D02*
X87154801Y-66619046D01*
X87154801Y-66619046D02*
X87107182Y-66571427D01*
X87107182Y-66571427D02*
X87059563Y-66476189D01*
X87059563Y-66476189D02*
X87059563Y-66238094D01*
X87059563Y-66238094D02*
X87107182Y-66095237D01*
X87059563Y-64999998D02*
X87059563Y-64380951D01*
X87059563Y-64380951D02*
X87440515Y-64714284D01*
X87440515Y-64714284D02*
X87440515Y-64571427D01*
X87440515Y-64571427D02*
X87488134Y-64476189D01*
X87488134Y-64476189D02*
X87535753Y-64428570D01*
X87535753Y-64428570D02*
X87630991Y-64380951D01*
X87630991Y-64380951D02*
X87869086Y-64380951D01*
X87869086Y-64380951D02*
X87964324Y-64428570D01*
X87964324Y-64428570D02*
X88011944Y-64476189D01*
X88011944Y-64476189D02*
X88059563Y-64571427D01*
X88059563Y-64571427D02*
X88059563Y-64857141D01*
X88059563Y-64857141D02*
X88011944Y-64952379D01*
X88011944Y-64952379D02*
X87964324Y-64999998D01*
X87011944Y-63238094D02*
X88297658Y-64095236D01*
X87059563Y-62999998D02*
X87059563Y-62380951D01*
X87059563Y-62380951D02*
X87440515Y-62714284D01*
X87440515Y-62714284D02*
X87440515Y-62571427D01*
X87440515Y-62571427D02*
X87488134Y-62476189D01*
X87488134Y-62476189D02*
X87535753Y-62428570D01*
X87535753Y-62428570D02*
X87630991Y-62380951D01*
X87630991Y-62380951D02*
X87869086Y-62380951D01*
X87869086Y-62380951D02*
X87964324Y-62428570D01*
X87964324Y-62428570D02*
X88011944Y-62476189D01*
X88011944Y-62476189D02*
X88059563Y-62571427D01*
X88059563Y-62571427D02*
X88059563Y-62857141D01*
X88059563Y-62857141D02*
X88011944Y-62952379D01*
X88011944Y-62952379D02*
X87964324Y-62999998D01*
X88059563Y-61428570D02*
X88059563Y-61999998D01*
X88059563Y-61714284D02*
X87059563Y-61714284D01*
X87059563Y-61714284D02*
X87202420Y-61809522D01*
X87202420Y-61809522D02*
X87297658Y-61904760D01*
X87297658Y-61904760D02*
X87345277Y-61999998D01*
X87011944Y-60285713D02*
X88297658Y-61142855D01*
X87154801Y-59999998D02*
X87107182Y-59952379D01*
X87107182Y-59952379D02*
X87059563Y-59857141D01*
X87059563Y-59857141D02*
X87059563Y-59619046D01*
X87059563Y-59619046D02*
X87107182Y-59523808D01*
X87107182Y-59523808D02*
X87154801Y-59476189D01*
X87154801Y-59476189D02*
X87250039Y-59428570D01*
X87250039Y-59428570D02*
X87345277Y-59428570D01*
X87345277Y-59428570D02*
X87488134Y-59476189D01*
X87488134Y-59476189D02*
X88059563Y-60047617D01*
X88059563Y-60047617D02*
X88059563Y-59428570D01*
X87059563Y-58571427D02*
X87059563Y-58761903D01*
X87059563Y-58761903D02*
X87107182Y-58857141D01*
X87107182Y-58857141D02*
X87154801Y-58904760D01*
X87154801Y-58904760D02*
X87297658Y-58999998D01*
X87297658Y-58999998D02*
X87488134Y-59047617D01*
X87488134Y-59047617D02*
X87869086Y-59047617D01*
X87869086Y-59047617D02*
X87964324Y-58999998D01*
X87964324Y-58999998D02*
X88011944Y-58952379D01*
X88011944Y-58952379D02*
X88059563Y-58857141D01*
X88059563Y-58857141D02*
X88059563Y-58666665D01*
X88059563Y-58666665D02*
X88011944Y-58571427D01*
X88011944Y-58571427D02*
X87964324Y-58523808D01*
X87964324Y-58523808D02*
X87869086Y-58476189D01*
X87869086Y-58476189D02*
X87630991Y-58476189D01*
X87630991Y-58476189D02*
X87535753Y-58523808D01*
X87535753Y-58523808D02*
X87488134Y-58571427D01*
X87488134Y-58571427D02*
X87440515Y-58666665D01*
X87440515Y-58666665D02*
X87440515Y-58857141D01*
X87440515Y-58857141D02*
X87488134Y-58952379D01*
X87488134Y-58952379D02*
X87535753Y-58999998D01*
X87535753Y-58999998D02*
X87630991Y-59047617D01*
D12*
X148921905Y-49954819D02*
X148921905Y-48954819D01*
X148921905Y-48954819D02*
X149160000Y-48954819D01*
X149160000Y-48954819D02*
X149302857Y-49002438D01*
X149302857Y-49002438D02*
X149398095Y-49097676D01*
X149398095Y-49097676D02*
X149445714Y-49192914D01*
X149445714Y-49192914D02*
X149493333Y-49383390D01*
X149493333Y-49383390D02*
X149493333Y-49526247D01*
X149493333Y-49526247D02*
X149445714Y-49716723D01*
X149445714Y-49716723D02*
X149398095Y-49811961D01*
X149398095Y-49811961D02*
X149302857Y-49907200D01*
X149302857Y-49907200D02*
X149160000Y-49954819D01*
X149160000Y-49954819D02*
X148921905Y-49954819D01*
X149826667Y-48954819D02*
X150493333Y-48954819D01*
X150493333Y-48954819D02*
X150064762Y-49954819D01*
X100954819Y-89666666D02*
X100478628Y-89999999D01*
X100954819Y-90238094D02*
X99954819Y-90238094D01*
X99954819Y-90238094D02*
X99954819Y-89857142D01*
X99954819Y-89857142D02*
X100002438Y-89761904D01*
X100002438Y-89761904D02*
X100050057Y-89714285D01*
X100050057Y-89714285D02*
X100145295Y-89666666D01*
X100145295Y-89666666D02*
X100288152Y-89666666D01*
X100288152Y-89666666D02*
X100383390Y-89714285D01*
X100383390Y-89714285D02*
X100431009Y-89761904D01*
X100431009Y-89761904D02*
X100478628Y-89857142D01*
X100478628Y-89857142D02*
X100478628Y-90238094D01*
X100383390Y-89095237D02*
X100335771Y-89190475D01*
X100335771Y-89190475D02*
X100288152Y-89238094D01*
X100288152Y-89238094D02*
X100192914Y-89285713D01*
X100192914Y-89285713D02*
X100145295Y-89285713D01*
X100145295Y-89285713D02*
X100050057Y-89238094D01*
X100050057Y-89238094D02*
X100002438Y-89190475D01*
X100002438Y-89190475D02*
X99954819Y-89095237D01*
X99954819Y-89095237D02*
X99954819Y-88904761D01*
X99954819Y-88904761D02*
X100002438Y-88809523D01*
X100002438Y-88809523D02*
X100050057Y-88761904D01*
X100050057Y-88761904D02*
X100145295Y-88714285D01*
X100145295Y-88714285D02*
X100192914Y-88714285D01*
X100192914Y-88714285D02*
X100288152Y-88761904D01*
X100288152Y-88761904D02*
X100335771Y-88809523D01*
X100335771Y-88809523D02*
X100383390Y-88904761D01*
X100383390Y-88904761D02*
X100383390Y-89095237D01*
X100383390Y-89095237D02*
X100431009Y-89190475D01*
X100431009Y-89190475D02*
X100478628Y-89238094D01*
X100478628Y-89238094D02*
X100573866Y-89285713D01*
X100573866Y-89285713D02*
X100764342Y-89285713D01*
X100764342Y-89285713D02*
X100859580Y-89238094D01*
X100859580Y-89238094D02*
X100907200Y-89190475D01*
X100907200Y-89190475D02*
X100954819Y-89095237D01*
X100954819Y-89095237D02*
X100954819Y-88904761D01*
X100954819Y-88904761D02*
X100907200Y-88809523D01*
X100907200Y-88809523D02*
X100859580Y-88761904D01*
X100859580Y-88761904D02*
X100764342Y-88714285D01*
X100764342Y-88714285D02*
X100573866Y-88714285D01*
X100573866Y-88714285D02*
X100478628Y-88761904D01*
X100478628Y-88761904D02*
X100431009Y-88809523D01*
X100431009Y-88809523D02*
X100383390Y-88904761D01*
D13*
X84428571Y-107957419D02*
X84428571Y-108671704D01*
X84428571Y-108671704D02*
X84380952Y-108814561D01*
X84380952Y-108814561D02*
X84285714Y-108909800D01*
X84285714Y-108909800D02*
X84142857Y-108957419D01*
X84142857Y-108957419D02*
X84047619Y-108957419D01*
X84904762Y-108957419D02*
X84904762Y-107957419D01*
X85904761Y-108957419D02*
X85333333Y-108957419D01*
X85619047Y-108957419D02*
X85619047Y-107957419D01*
X85619047Y-107957419D02*
X85523809Y-108100276D01*
X85523809Y-108100276D02*
X85428571Y-108195514D01*
X85428571Y-108195514D02*
X85333333Y-108243133D01*
D12*
X160359580Y-110642857D02*
X160407200Y-110690476D01*
X160407200Y-110690476D02*
X160454819Y-110833333D01*
X160454819Y-110833333D02*
X160454819Y-110928571D01*
X160454819Y-110928571D02*
X160407200Y-111071428D01*
X160407200Y-111071428D02*
X160311961Y-111166666D01*
X160311961Y-111166666D02*
X160216723Y-111214285D01*
X160216723Y-111214285D02*
X160026247Y-111261904D01*
X160026247Y-111261904D02*
X159883390Y-111261904D01*
X159883390Y-111261904D02*
X159692914Y-111214285D01*
X159692914Y-111214285D02*
X159597676Y-111166666D01*
X159597676Y-111166666D02*
X159502438Y-111071428D01*
X159502438Y-111071428D02*
X159454819Y-110928571D01*
X159454819Y-110928571D02*
X159454819Y-110833333D01*
X159454819Y-110833333D02*
X159502438Y-110690476D01*
X159502438Y-110690476D02*
X159550057Y-110642857D01*
X160454819Y-109690476D02*
X160454819Y-110261904D01*
X160454819Y-109976190D02*
X159454819Y-109976190D01*
X159454819Y-109976190D02*
X159597676Y-110071428D01*
X159597676Y-110071428D02*
X159692914Y-110166666D01*
X159692914Y-110166666D02*
X159740533Y-110261904D01*
X159550057Y-109309523D02*
X159502438Y-109261904D01*
X159502438Y-109261904D02*
X159454819Y-109166666D01*
X159454819Y-109166666D02*
X159454819Y-108928571D01*
X159454819Y-108928571D02*
X159502438Y-108833333D01*
X159502438Y-108833333D02*
X159550057Y-108785714D01*
X159550057Y-108785714D02*
X159645295Y-108738095D01*
X159645295Y-108738095D02*
X159740533Y-108738095D01*
X159740533Y-108738095D02*
X159883390Y-108785714D01*
X159883390Y-108785714D02*
X160454819Y-109357142D01*
X160454819Y-109357142D02*
X160454819Y-108738095D01*
X155357142Y-92359580D02*
X155309523Y-92407200D01*
X155309523Y-92407200D02*
X155166666Y-92454819D01*
X155166666Y-92454819D02*
X155071428Y-92454819D01*
X155071428Y-92454819D02*
X154928571Y-92407200D01*
X154928571Y-92407200D02*
X154833333Y-92311961D01*
X154833333Y-92311961D02*
X154785714Y-92216723D01*
X154785714Y-92216723D02*
X154738095Y-92026247D01*
X154738095Y-92026247D02*
X154738095Y-91883390D01*
X154738095Y-91883390D02*
X154785714Y-91692914D01*
X154785714Y-91692914D02*
X154833333Y-91597676D01*
X154833333Y-91597676D02*
X154928571Y-91502438D01*
X154928571Y-91502438D02*
X155071428Y-91454819D01*
X155071428Y-91454819D02*
X155166666Y-91454819D01*
X155166666Y-91454819D02*
X155309523Y-91502438D01*
X155309523Y-91502438D02*
X155357142Y-91550057D01*
X156309523Y-92454819D02*
X155738095Y-92454819D01*
X156023809Y-92454819D02*
X156023809Y-91454819D01*
X156023809Y-91454819D02*
X155928571Y-91597676D01*
X155928571Y-91597676D02*
X155833333Y-91692914D01*
X155833333Y-91692914D02*
X155738095Y-91740533D01*
X156928571Y-91454819D02*
X157023809Y-91454819D01*
X157023809Y-91454819D02*
X157119047Y-91502438D01*
X157119047Y-91502438D02*
X157166666Y-91550057D01*
X157166666Y-91550057D02*
X157214285Y-91645295D01*
X157214285Y-91645295D02*
X157261904Y-91835771D01*
X157261904Y-91835771D02*
X157261904Y-92073866D01*
X157261904Y-92073866D02*
X157214285Y-92264342D01*
X157214285Y-92264342D02*
X157166666Y-92359580D01*
X157166666Y-92359580D02*
X157119047Y-92407200D01*
X157119047Y-92407200D02*
X157023809Y-92454819D01*
X157023809Y-92454819D02*
X156928571Y-92454819D01*
X156928571Y-92454819D02*
X156833333Y-92407200D01*
X156833333Y-92407200D02*
X156785714Y-92359580D01*
X156785714Y-92359580D02*
X156738095Y-92264342D01*
X156738095Y-92264342D02*
X156690476Y-92073866D01*
X156690476Y-92073866D02*
X156690476Y-91835771D01*
X156690476Y-91835771D02*
X156738095Y-91645295D01*
X156738095Y-91645295D02*
X156785714Y-91550057D01*
X156785714Y-91550057D02*
X156833333Y-91502438D01*
X156833333Y-91502438D02*
X156928571Y-91454819D01*
X182857142Y-91454819D02*
X182523809Y-90978628D01*
X182285714Y-91454819D02*
X182285714Y-90454819D01*
X182285714Y-90454819D02*
X182666666Y-90454819D01*
X182666666Y-90454819D02*
X182761904Y-90502438D01*
X182761904Y-90502438D02*
X182809523Y-90550057D01*
X182809523Y-90550057D02*
X182857142Y-90645295D01*
X182857142Y-90645295D02*
X182857142Y-90788152D01*
X182857142Y-90788152D02*
X182809523Y-90883390D01*
X182809523Y-90883390D02*
X182761904Y-90931009D01*
X182761904Y-90931009D02*
X182666666Y-90978628D01*
X182666666Y-90978628D02*
X182285714Y-90978628D01*
X183238095Y-90550057D02*
X183285714Y-90502438D01*
X183285714Y-90502438D02*
X183380952Y-90454819D01*
X183380952Y-90454819D02*
X183619047Y-90454819D01*
X183619047Y-90454819D02*
X183714285Y-90502438D01*
X183714285Y-90502438D02*
X183761904Y-90550057D01*
X183761904Y-90550057D02*
X183809523Y-90645295D01*
X183809523Y-90645295D02*
X183809523Y-90740533D01*
X183809523Y-90740533D02*
X183761904Y-90883390D01*
X183761904Y-90883390D02*
X183190476Y-91454819D01*
X183190476Y-91454819D02*
X183809523Y-91454819D01*
X184190476Y-90550057D02*
X184238095Y-90502438D01*
X184238095Y-90502438D02*
X184333333Y-90454819D01*
X184333333Y-90454819D02*
X184571428Y-90454819D01*
X184571428Y-90454819D02*
X184666666Y-90502438D01*
X184666666Y-90502438D02*
X184714285Y-90550057D01*
X184714285Y-90550057D02*
X184761904Y-90645295D01*
X184761904Y-90645295D02*
X184761904Y-90740533D01*
X184761904Y-90740533D02*
X184714285Y-90883390D01*
X184714285Y-90883390D02*
X184142857Y-91454819D01*
X184142857Y-91454819D02*
X184761904Y-91454819D01*
X105333333Y-88359580D02*
X105285714Y-88407200D01*
X105285714Y-88407200D02*
X105142857Y-88454819D01*
X105142857Y-88454819D02*
X105047619Y-88454819D01*
X105047619Y-88454819D02*
X104904762Y-88407200D01*
X104904762Y-88407200D02*
X104809524Y-88311961D01*
X104809524Y-88311961D02*
X104761905Y-88216723D01*
X104761905Y-88216723D02*
X104714286Y-88026247D01*
X104714286Y-88026247D02*
X104714286Y-87883390D01*
X104714286Y-87883390D02*
X104761905Y-87692914D01*
X104761905Y-87692914D02*
X104809524Y-87597676D01*
X104809524Y-87597676D02*
X104904762Y-87502438D01*
X104904762Y-87502438D02*
X105047619Y-87454819D01*
X105047619Y-87454819D02*
X105142857Y-87454819D01*
X105142857Y-87454819D02*
X105285714Y-87502438D01*
X105285714Y-87502438D02*
X105333333Y-87550057D01*
X105809524Y-88454819D02*
X106000000Y-88454819D01*
X106000000Y-88454819D02*
X106095238Y-88407200D01*
X106095238Y-88407200D02*
X106142857Y-88359580D01*
X106142857Y-88359580D02*
X106238095Y-88216723D01*
X106238095Y-88216723D02*
X106285714Y-88026247D01*
X106285714Y-88026247D02*
X106285714Y-87645295D01*
X106285714Y-87645295D02*
X106238095Y-87550057D01*
X106238095Y-87550057D02*
X106190476Y-87502438D01*
X106190476Y-87502438D02*
X106095238Y-87454819D01*
X106095238Y-87454819D02*
X105904762Y-87454819D01*
X105904762Y-87454819D02*
X105809524Y-87502438D01*
X105809524Y-87502438D02*
X105761905Y-87550057D01*
X105761905Y-87550057D02*
X105714286Y-87645295D01*
X105714286Y-87645295D02*
X105714286Y-87883390D01*
X105714286Y-87883390D02*
X105761905Y-87978628D01*
X105761905Y-87978628D02*
X105809524Y-88026247D01*
X105809524Y-88026247D02*
X105904762Y-88073866D01*
X105904762Y-88073866D02*
X106095238Y-88073866D01*
X106095238Y-88073866D02*
X106190476Y-88026247D01*
X106190476Y-88026247D02*
X106238095Y-87978628D01*
X106238095Y-87978628D02*
X106285714Y-87883390D01*
X122833333Y-101859580D02*
X122785714Y-101907200D01*
X122785714Y-101907200D02*
X122642857Y-101954819D01*
X122642857Y-101954819D02*
X122547619Y-101954819D01*
X122547619Y-101954819D02*
X122404762Y-101907200D01*
X122404762Y-101907200D02*
X122309524Y-101811961D01*
X122309524Y-101811961D02*
X122261905Y-101716723D01*
X122261905Y-101716723D02*
X122214286Y-101526247D01*
X122214286Y-101526247D02*
X122214286Y-101383390D01*
X122214286Y-101383390D02*
X122261905Y-101192914D01*
X122261905Y-101192914D02*
X122309524Y-101097676D01*
X122309524Y-101097676D02*
X122404762Y-101002438D01*
X122404762Y-101002438D02*
X122547619Y-100954819D01*
X122547619Y-100954819D02*
X122642857Y-100954819D01*
X122642857Y-100954819D02*
X122785714Y-101002438D01*
X122785714Y-101002438D02*
X122833333Y-101050057D01*
X123214286Y-101050057D02*
X123261905Y-101002438D01*
X123261905Y-101002438D02*
X123357143Y-100954819D01*
X123357143Y-100954819D02*
X123595238Y-100954819D01*
X123595238Y-100954819D02*
X123690476Y-101002438D01*
X123690476Y-101002438D02*
X123738095Y-101050057D01*
X123738095Y-101050057D02*
X123785714Y-101145295D01*
X123785714Y-101145295D02*
X123785714Y-101240533D01*
X123785714Y-101240533D02*
X123738095Y-101383390D01*
X123738095Y-101383390D02*
X123166667Y-101954819D01*
X123166667Y-101954819D02*
X123785714Y-101954819D01*
X103359580Y-88666666D02*
X103407200Y-88714285D01*
X103407200Y-88714285D02*
X103454819Y-88857142D01*
X103454819Y-88857142D02*
X103454819Y-88952380D01*
X103454819Y-88952380D02*
X103407200Y-89095237D01*
X103407200Y-89095237D02*
X103311961Y-89190475D01*
X103311961Y-89190475D02*
X103216723Y-89238094D01*
X103216723Y-89238094D02*
X103026247Y-89285713D01*
X103026247Y-89285713D02*
X102883390Y-89285713D01*
X102883390Y-89285713D02*
X102692914Y-89238094D01*
X102692914Y-89238094D02*
X102597676Y-89190475D01*
X102597676Y-89190475D02*
X102502438Y-89095237D01*
X102502438Y-89095237D02*
X102454819Y-88952380D01*
X102454819Y-88952380D02*
X102454819Y-88857142D01*
X102454819Y-88857142D02*
X102502438Y-88714285D01*
X102502438Y-88714285D02*
X102550057Y-88666666D01*
X102883390Y-88095237D02*
X102835771Y-88190475D01*
X102835771Y-88190475D02*
X102788152Y-88238094D01*
X102788152Y-88238094D02*
X102692914Y-88285713D01*
X102692914Y-88285713D02*
X102645295Y-88285713D01*
X102645295Y-88285713D02*
X102550057Y-88238094D01*
X102550057Y-88238094D02*
X102502438Y-88190475D01*
X102502438Y-88190475D02*
X102454819Y-88095237D01*
X102454819Y-88095237D02*
X102454819Y-87904761D01*
X102454819Y-87904761D02*
X102502438Y-87809523D01*
X102502438Y-87809523D02*
X102550057Y-87761904D01*
X102550057Y-87761904D02*
X102645295Y-87714285D01*
X102645295Y-87714285D02*
X102692914Y-87714285D01*
X102692914Y-87714285D02*
X102788152Y-87761904D01*
X102788152Y-87761904D02*
X102835771Y-87809523D01*
X102835771Y-87809523D02*
X102883390Y-87904761D01*
X102883390Y-87904761D02*
X102883390Y-88095237D01*
X102883390Y-88095237D02*
X102931009Y-88190475D01*
X102931009Y-88190475D02*
X102978628Y-88238094D01*
X102978628Y-88238094D02*
X103073866Y-88285713D01*
X103073866Y-88285713D02*
X103264342Y-88285713D01*
X103264342Y-88285713D02*
X103359580Y-88238094D01*
X103359580Y-88238094D02*
X103407200Y-88190475D01*
X103407200Y-88190475D02*
X103454819Y-88095237D01*
X103454819Y-88095237D02*
X103454819Y-87904761D01*
X103454819Y-87904761D02*
X103407200Y-87809523D01*
X103407200Y-87809523D02*
X103359580Y-87761904D01*
X103359580Y-87761904D02*
X103264342Y-87714285D01*
X103264342Y-87714285D02*
X103073866Y-87714285D01*
X103073866Y-87714285D02*
X102978628Y-87761904D01*
X102978628Y-87761904D02*
X102931009Y-87809523D01*
X102931009Y-87809523D02*
X102883390Y-87904761D01*
X139904761Y-58050057D02*
X139809523Y-58002438D01*
X139809523Y-58002438D02*
X139714285Y-57907200D01*
X139714285Y-57907200D02*
X139571428Y-57764342D01*
X139571428Y-57764342D02*
X139476190Y-57716723D01*
X139476190Y-57716723D02*
X139380952Y-57716723D01*
X139428571Y-57954819D02*
X139333333Y-57907200D01*
X139333333Y-57907200D02*
X139238095Y-57811961D01*
X139238095Y-57811961D02*
X139190476Y-57621485D01*
X139190476Y-57621485D02*
X139190476Y-57288152D01*
X139190476Y-57288152D02*
X139238095Y-57097676D01*
X139238095Y-57097676D02*
X139333333Y-57002438D01*
X139333333Y-57002438D02*
X139428571Y-56954819D01*
X139428571Y-56954819D02*
X139619047Y-56954819D01*
X139619047Y-56954819D02*
X139714285Y-57002438D01*
X139714285Y-57002438D02*
X139809523Y-57097676D01*
X139809523Y-57097676D02*
X139857142Y-57288152D01*
X139857142Y-57288152D02*
X139857142Y-57621485D01*
X139857142Y-57621485D02*
X139809523Y-57811961D01*
X139809523Y-57811961D02*
X139714285Y-57907200D01*
X139714285Y-57907200D02*
X139619047Y-57954819D01*
X139619047Y-57954819D02*
X139428571Y-57954819D01*
X140809523Y-57954819D02*
X140238095Y-57954819D01*
X140523809Y-57954819D02*
X140523809Y-56954819D01*
X140523809Y-56954819D02*
X140428571Y-57097676D01*
X140428571Y-57097676D02*
X140333333Y-57192914D01*
X140333333Y-57192914D02*
X140238095Y-57240533D01*
X119833333Y-92359580D02*
X119785714Y-92407200D01*
X119785714Y-92407200D02*
X119642857Y-92454819D01*
X119642857Y-92454819D02*
X119547619Y-92454819D01*
X119547619Y-92454819D02*
X119404762Y-92407200D01*
X119404762Y-92407200D02*
X119309524Y-92311961D01*
X119309524Y-92311961D02*
X119261905Y-92216723D01*
X119261905Y-92216723D02*
X119214286Y-92026247D01*
X119214286Y-92026247D02*
X119214286Y-91883390D01*
X119214286Y-91883390D02*
X119261905Y-91692914D01*
X119261905Y-91692914D02*
X119309524Y-91597676D01*
X119309524Y-91597676D02*
X119404762Y-91502438D01*
X119404762Y-91502438D02*
X119547619Y-91454819D01*
X119547619Y-91454819D02*
X119642857Y-91454819D01*
X119642857Y-91454819D02*
X119785714Y-91502438D01*
X119785714Y-91502438D02*
X119833333Y-91550057D01*
X120785714Y-92454819D02*
X120214286Y-92454819D01*
X120500000Y-92454819D02*
X120500000Y-91454819D01*
X120500000Y-91454819D02*
X120404762Y-91597676D01*
X120404762Y-91597676D02*
X120309524Y-91692914D01*
X120309524Y-91692914D02*
X120214286Y-91740533D01*
X127833333Y-92454819D02*
X127500000Y-91978628D01*
X127261905Y-92454819D02*
X127261905Y-91454819D01*
X127261905Y-91454819D02*
X127642857Y-91454819D01*
X127642857Y-91454819D02*
X127738095Y-91502438D01*
X127738095Y-91502438D02*
X127785714Y-91550057D01*
X127785714Y-91550057D02*
X127833333Y-91645295D01*
X127833333Y-91645295D02*
X127833333Y-91788152D01*
X127833333Y-91788152D02*
X127785714Y-91883390D01*
X127785714Y-91883390D02*
X127738095Y-91931009D01*
X127738095Y-91931009D02*
X127642857Y-91978628D01*
X127642857Y-91978628D02*
X127261905Y-91978628D01*
X128214286Y-91550057D02*
X128261905Y-91502438D01*
X128261905Y-91502438D02*
X128357143Y-91454819D01*
X128357143Y-91454819D02*
X128595238Y-91454819D01*
X128595238Y-91454819D02*
X128690476Y-91502438D01*
X128690476Y-91502438D02*
X128738095Y-91550057D01*
X128738095Y-91550057D02*
X128785714Y-91645295D01*
X128785714Y-91645295D02*
X128785714Y-91740533D01*
X128785714Y-91740533D02*
X128738095Y-91883390D01*
X128738095Y-91883390D02*
X128166667Y-92454819D01*
X128166667Y-92454819D02*
X128785714Y-92454819D01*
D13*
X160952381Y-108933609D02*
X160619048Y-108933609D01*
X160619048Y-109457419D02*
X160619048Y-108457419D01*
X160619048Y-108457419D02*
X161095238Y-108457419D01*
X161380953Y-108457419D02*
X162047619Y-109457419D01*
X162047619Y-108457419D02*
X161380953Y-109457419D01*
X162428572Y-109457419D02*
X162428572Y-108457419D01*
X162857143Y-108552657D02*
X162904762Y-108505038D01*
X162904762Y-108505038D02*
X163000000Y-108457419D01*
X163000000Y-108457419D02*
X163238095Y-108457419D01*
X163238095Y-108457419D02*
X163333333Y-108505038D01*
X163333333Y-108505038D02*
X163380952Y-108552657D01*
X163380952Y-108552657D02*
X163428571Y-108647895D01*
X163428571Y-108647895D02*
X163428571Y-108743133D01*
X163428571Y-108743133D02*
X163380952Y-108885990D01*
X163380952Y-108885990D02*
X162809524Y-109457419D01*
X162809524Y-109457419D02*
X163428571Y-109457419D01*
D12*
X147357142Y-102454819D02*
X147023809Y-101978628D01*
X146785714Y-102454819D02*
X146785714Y-101454819D01*
X146785714Y-101454819D02*
X147166666Y-101454819D01*
X147166666Y-101454819D02*
X147261904Y-101502438D01*
X147261904Y-101502438D02*
X147309523Y-101550057D01*
X147309523Y-101550057D02*
X147357142Y-101645295D01*
X147357142Y-101645295D02*
X147357142Y-101788152D01*
X147357142Y-101788152D02*
X147309523Y-101883390D01*
X147309523Y-101883390D02*
X147261904Y-101931009D01*
X147261904Y-101931009D02*
X147166666Y-101978628D01*
X147166666Y-101978628D02*
X146785714Y-101978628D01*
X148309523Y-102454819D02*
X147738095Y-102454819D01*
X148023809Y-102454819D02*
X148023809Y-101454819D01*
X148023809Y-101454819D02*
X147928571Y-101597676D01*
X147928571Y-101597676D02*
X147833333Y-101692914D01*
X147833333Y-101692914D02*
X147738095Y-101740533D01*
X149166666Y-101788152D02*
X149166666Y-102454819D01*
X148928571Y-101407200D02*
X148690476Y-102121485D01*
X148690476Y-102121485D02*
X149309523Y-102121485D01*
X122357142Y-98954819D02*
X122023809Y-98478628D01*
X121785714Y-98954819D02*
X121785714Y-97954819D01*
X121785714Y-97954819D02*
X122166666Y-97954819D01*
X122166666Y-97954819D02*
X122261904Y-98002438D01*
X122261904Y-98002438D02*
X122309523Y-98050057D01*
X122309523Y-98050057D02*
X122357142Y-98145295D01*
X122357142Y-98145295D02*
X122357142Y-98288152D01*
X122357142Y-98288152D02*
X122309523Y-98383390D01*
X122309523Y-98383390D02*
X122261904Y-98431009D01*
X122261904Y-98431009D02*
X122166666Y-98478628D01*
X122166666Y-98478628D02*
X121785714Y-98478628D01*
X122738095Y-98050057D02*
X122785714Y-98002438D01*
X122785714Y-98002438D02*
X122880952Y-97954819D01*
X122880952Y-97954819D02*
X123119047Y-97954819D01*
X123119047Y-97954819D02*
X123214285Y-98002438D01*
X123214285Y-98002438D02*
X123261904Y-98050057D01*
X123261904Y-98050057D02*
X123309523Y-98145295D01*
X123309523Y-98145295D02*
X123309523Y-98240533D01*
X123309523Y-98240533D02*
X123261904Y-98383390D01*
X123261904Y-98383390D02*
X122690476Y-98954819D01*
X122690476Y-98954819D02*
X123309523Y-98954819D01*
X124214285Y-97954819D02*
X123738095Y-97954819D01*
X123738095Y-97954819D02*
X123690476Y-98431009D01*
X123690476Y-98431009D02*
X123738095Y-98383390D01*
X123738095Y-98383390D02*
X123833333Y-98335771D01*
X123833333Y-98335771D02*
X124071428Y-98335771D01*
X124071428Y-98335771D02*
X124166666Y-98383390D01*
X124166666Y-98383390D02*
X124214285Y-98431009D01*
X124214285Y-98431009D02*
X124261904Y-98526247D01*
X124261904Y-98526247D02*
X124261904Y-98764342D01*
X124261904Y-98764342D02*
X124214285Y-98859580D01*
X124214285Y-98859580D02*
X124166666Y-98907200D01*
X124166666Y-98907200D02*
X124071428Y-98954819D01*
X124071428Y-98954819D02*
X123833333Y-98954819D01*
X123833333Y-98954819D02*
X123738095Y-98907200D01*
X123738095Y-98907200D02*
X123690476Y-98859580D01*
X168454819Y-90642857D02*
X167978628Y-90976190D01*
X168454819Y-91214285D02*
X167454819Y-91214285D01*
X167454819Y-91214285D02*
X167454819Y-90833333D01*
X167454819Y-90833333D02*
X167502438Y-90738095D01*
X167502438Y-90738095D02*
X167550057Y-90690476D01*
X167550057Y-90690476D02*
X167645295Y-90642857D01*
X167645295Y-90642857D02*
X167788152Y-90642857D01*
X167788152Y-90642857D02*
X167883390Y-90690476D01*
X167883390Y-90690476D02*
X167931009Y-90738095D01*
X167931009Y-90738095D02*
X167978628Y-90833333D01*
X167978628Y-90833333D02*
X167978628Y-91214285D01*
X167550057Y-90261904D02*
X167502438Y-90214285D01*
X167502438Y-90214285D02*
X167454819Y-90119047D01*
X167454819Y-90119047D02*
X167454819Y-89880952D01*
X167454819Y-89880952D02*
X167502438Y-89785714D01*
X167502438Y-89785714D02*
X167550057Y-89738095D01*
X167550057Y-89738095D02*
X167645295Y-89690476D01*
X167645295Y-89690476D02*
X167740533Y-89690476D01*
X167740533Y-89690476D02*
X167883390Y-89738095D01*
X167883390Y-89738095D02*
X168454819Y-90309523D01*
X168454819Y-90309523D02*
X168454819Y-89690476D01*
X167788152Y-88833333D02*
X168454819Y-88833333D01*
X167407200Y-89071428D02*
X168121485Y-89309523D01*
X168121485Y-89309523D02*
X168121485Y-88690476D01*
D13*
X137166666Y-99957419D02*
X137166666Y-100671704D01*
X137166666Y-100671704D02*
X137119047Y-100814561D01*
X137119047Y-100814561D02*
X137023809Y-100909800D01*
X137023809Y-100909800D02*
X136880952Y-100957419D01*
X136880952Y-100957419D02*
X136785714Y-100957419D01*
X137642857Y-100957419D02*
X137642857Y-99957419D01*
X137642857Y-99957419D02*
X138023809Y-99957419D01*
X138023809Y-99957419D02*
X138119047Y-100005038D01*
X138119047Y-100005038D02*
X138166666Y-100052657D01*
X138166666Y-100052657D02*
X138214285Y-100147895D01*
X138214285Y-100147895D02*
X138214285Y-100290752D01*
X138214285Y-100290752D02*
X138166666Y-100385990D01*
X138166666Y-100385990D02*
X138119047Y-100433609D01*
X138119047Y-100433609D02*
X138023809Y-100481228D01*
X138023809Y-100481228D02*
X137642857Y-100481228D01*
X139166666Y-100957419D02*
X138595238Y-100957419D01*
X138880952Y-100957419D02*
X138880952Y-99957419D01*
X138880952Y-99957419D02*
X138785714Y-100100276D01*
X138785714Y-100100276D02*
X138690476Y-100195514D01*
X138690476Y-100195514D02*
X138595238Y-100243133D01*
X97166666Y-48457419D02*
X97166666Y-49171704D01*
X97166666Y-49171704D02*
X97119047Y-49314561D01*
X97119047Y-49314561D02*
X97023809Y-49409800D01*
X97023809Y-49409800D02*
X96880952Y-49457419D01*
X96880952Y-49457419D02*
X96785714Y-49457419D01*
X98166666Y-49457419D02*
X97595238Y-49457419D01*
X97880952Y-49457419D02*
X97880952Y-48457419D01*
X97880952Y-48457419D02*
X97785714Y-48600276D01*
X97785714Y-48600276D02*
X97690476Y-48695514D01*
X97690476Y-48695514D02*
X97595238Y-48743133D01*
X136766904Y-108005038D02*
X136671666Y-107957419D01*
X136671666Y-107957419D02*
X136528809Y-107957419D01*
X136528809Y-107957419D02*
X136385952Y-108005038D01*
X136385952Y-108005038D02*
X136290714Y-108100276D01*
X136290714Y-108100276D02*
X136243095Y-108195514D01*
X136243095Y-108195514D02*
X136195476Y-108385990D01*
X136195476Y-108385990D02*
X136195476Y-108528847D01*
X136195476Y-108528847D02*
X136243095Y-108719323D01*
X136243095Y-108719323D02*
X136290714Y-108814561D01*
X136290714Y-108814561D02*
X136385952Y-108909800D01*
X136385952Y-108909800D02*
X136528809Y-108957419D01*
X136528809Y-108957419D02*
X136624047Y-108957419D01*
X136624047Y-108957419D02*
X136766904Y-108909800D01*
X136766904Y-108909800D02*
X136814523Y-108862180D01*
X136814523Y-108862180D02*
X136814523Y-108528847D01*
X136814523Y-108528847D02*
X136624047Y-108528847D01*
X137243095Y-108957419D02*
X137243095Y-107957419D01*
X137243095Y-107957419D02*
X137814523Y-108957419D01*
X137814523Y-108957419D02*
X137814523Y-107957419D01*
X138290714Y-108957419D02*
X138290714Y-107957419D01*
X138290714Y-107957419D02*
X138528809Y-107957419D01*
X138528809Y-107957419D02*
X138671666Y-108005038D01*
X138671666Y-108005038D02*
X138766904Y-108100276D01*
X138766904Y-108100276D02*
X138814523Y-108195514D01*
X138814523Y-108195514D02*
X138862142Y-108385990D01*
X138862142Y-108385990D02*
X138862142Y-108528847D01*
X138862142Y-108528847D02*
X138814523Y-108719323D01*
X138814523Y-108719323D02*
X138766904Y-108814561D01*
X138766904Y-108814561D02*
X138671666Y-108909800D01*
X138671666Y-108909800D02*
X138528809Y-108957419D01*
X138528809Y-108957419D02*
X138290714Y-108957419D01*
X139814523Y-108957419D02*
X139243095Y-108957419D01*
X139528809Y-108957419D02*
X139528809Y-107957419D01*
X139528809Y-107957419D02*
X139433571Y-108100276D01*
X139433571Y-108100276D02*
X139338333Y-108195514D01*
X139338333Y-108195514D02*
X139243095Y-108243133D01*
X168880952Y-109457419D02*
X168404762Y-109457419D01*
X168404762Y-109457419D02*
X168404762Y-108457419D01*
X169214286Y-108933609D02*
X169547619Y-108933609D01*
X169690476Y-109457419D02*
X169214286Y-109457419D01*
X169214286Y-109457419D02*
X169214286Y-108457419D01*
X169214286Y-108457419D02*
X169690476Y-108457419D01*
X170119048Y-109457419D02*
X170119048Y-108457419D01*
X170119048Y-108457419D02*
X170357143Y-108457419D01*
X170357143Y-108457419D02*
X170500000Y-108505038D01*
X170500000Y-108505038D02*
X170595238Y-108600276D01*
X170595238Y-108600276D02*
X170642857Y-108695514D01*
X170642857Y-108695514D02*
X170690476Y-108885990D01*
X170690476Y-108885990D02*
X170690476Y-109028847D01*
X170690476Y-109028847D02*
X170642857Y-109219323D01*
X170642857Y-109219323D02*
X170595238Y-109314561D01*
X170595238Y-109314561D02*
X170500000Y-109409800D01*
X170500000Y-109409800D02*
X170357143Y-109457419D01*
X170357143Y-109457419D02*
X170119048Y-109457419D01*
X171071429Y-108552657D02*
X171119048Y-108505038D01*
X171119048Y-108505038D02*
X171214286Y-108457419D01*
X171214286Y-108457419D02*
X171452381Y-108457419D01*
X171452381Y-108457419D02*
X171547619Y-108505038D01*
X171547619Y-108505038D02*
X171595238Y-108552657D01*
X171595238Y-108552657D02*
X171642857Y-108647895D01*
X171642857Y-108647895D02*
X171642857Y-108743133D01*
X171642857Y-108743133D02*
X171595238Y-108885990D01*
X171595238Y-108885990D02*
X171023810Y-109457419D01*
X171023810Y-109457419D02*
X171642857Y-109457419D01*
D12*
X149357142Y-106859580D02*
X149309523Y-106907200D01*
X149309523Y-106907200D02*
X149166666Y-106954819D01*
X149166666Y-106954819D02*
X149071428Y-106954819D01*
X149071428Y-106954819D02*
X148928571Y-106907200D01*
X148928571Y-106907200D02*
X148833333Y-106811961D01*
X148833333Y-106811961D02*
X148785714Y-106716723D01*
X148785714Y-106716723D02*
X148738095Y-106526247D01*
X148738095Y-106526247D02*
X148738095Y-106383390D01*
X148738095Y-106383390D02*
X148785714Y-106192914D01*
X148785714Y-106192914D02*
X148833333Y-106097676D01*
X148833333Y-106097676D02*
X148928571Y-106002438D01*
X148928571Y-106002438D02*
X149071428Y-105954819D01*
X149071428Y-105954819D02*
X149166666Y-105954819D01*
X149166666Y-105954819D02*
X149309523Y-106002438D01*
X149309523Y-106002438D02*
X149357142Y-106050057D01*
X150309523Y-106954819D02*
X149738095Y-106954819D01*
X150023809Y-106954819D02*
X150023809Y-105954819D01*
X150023809Y-105954819D02*
X149928571Y-106097676D01*
X149928571Y-106097676D02*
X149833333Y-106192914D01*
X149833333Y-106192914D02*
X149738095Y-106240533D01*
X151261904Y-106954819D02*
X150690476Y-106954819D01*
X150976190Y-106954819D02*
X150976190Y-105954819D01*
X150976190Y-105954819D02*
X150880952Y-106097676D01*
X150880952Y-106097676D02*
X150785714Y-106192914D01*
X150785714Y-106192914D02*
X150690476Y-106240533D01*
D13*
X178166666Y-48457419D02*
X178166666Y-49171704D01*
X178166666Y-49171704D02*
X178119047Y-49314561D01*
X178119047Y-49314561D02*
X178023809Y-49409800D01*
X178023809Y-49409800D02*
X177880952Y-49457419D01*
X177880952Y-49457419D02*
X177785714Y-49457419D01*
X179071428Y-48790752D02*
X179071428Y-49457419D01*
X178833333Y-48409800D02*
X178595238Y-49124085D01*
X178595238Y-49124085D02*
X179214285Y-49124085D01*
D12*
X111302200Y-84166666D02*
X111349819Y-84023809D01*
X111349819Y-84023809D02*
X111349819Y-83785714D01*
X111349819Y-83785714D02*
X111302200Y-83690476D01*
X111302200Y-83690476D02*
X111254580Y-83642857D01*
X111254580Y-83642857D02*
X111159342Y-83595238D01*
X111159342Y-83595238D02*
X111064104Y-83595238D01*
X111064104Y-83595238D02*
X110968866Y-83642857D01*
X110968866Y-83642857D02*
X110921247Y-83690476D01*
X110921247Y-83690476D02*
X110873628Y-83785714D01*
X110873628Y-83785714D02*
X110826009Y-83976190D01*
X110826009Y-83976190D02*
X110778390Y-84071428D01*
X110778390Y-84071428D02*
X110730771Y-84119047D01*
X110730771Y-84119047D02*
X110635533Y-84166666D01*
X110635533Y-84166666D02*
X110540295Y-84166666D01*
X110540295Y-84166666D02*
X110445057Y-84119047D01*
X110445057Y-84119047D02*
X110397438Y-84071428D01*
X110397438Y-84071428D02*
X110349819Y-83976190D01*
X110349819Y-83976190D02*
X110349819Y-83738095D01*
X110349819Y-83738095D02*
X110397438Y-83595238D01*
X110826009Y-83166666D02*
X110826009Y-82833333D01*
X111349819Y-82690476D02*
X111349819Y-83166666D01*
X111349819Y-83166666D02*
X110349819Y-83166666D01*
X110349819Y-83166666D02*
X110349819Y-82690476D01*
X110826009Y-82261904D02*
X110826009Y-81928571D01*
X111349819Y-81785714D02*
X111349819Y-82261904D01*
X111349819Y-82261904D02*
X110349819Y-82261904D01*
X110349819Y-82261904D02*
X110349819Y-81785714D01*
X111349819Y-81357142D02*
X110349819Y-81357142D01*
X110349819Y-81357142D02*
X110349819Y-81119047D01*
X110349819Y-81119047D02*
X110397438Y-80976190D01*
X110397438Y-80976190D02*
X110492676Y-80880952D01*
X110492676Y-80880952D02*
X110587914Y-80833333D01*
X110587914Y-80833333D02*
X110778390Y-80785714D01*
X110778390Y-80785714D02*
X110921247Y-80785714D01*
X110921247Y-80785714D02*
X111111723Y-80833333D01*
X111111723Y-80833333D02*
X111206961Y-80880952D01*
X111206961Y-80880952D02*
X111302200Y-80976190D01*
X111302200Y-80976190D02*
X111349819Y-81119047D01*
X111349819Y-81119047D02*
X111349819Y-81357142D01*
X111349819Y-79833333D02*
X111349819Y-80404761D01*
X111349819Y-80119047D02*
X110349819Y-80119047D01*
X110349819Y-80119047D02*
X110492676Y-80214285D01*
X110492676Y-80214285D02*
X110587914Y-80309523D01*
X110587914Y-80309523D02*
X110635533Y-80404761D01*
D13*
X132666666Y-49357419D02*
X132666666Y-50071704D01*
X132666666Y-50071704D02*
X132619047Y-50214561D01*
X132619047Y-50214561D02*
X132523809Y-50309800D01*
X132523809Y-50309800D02*
X132380952Y-50357419D01*
X132380952Y-50357419D02*
X132285714Y-50357419D01*
X133619047Y-49357419D02*
X133142857Y-49357419D01*
X133142857Y-49357419D02*
X133095238Y-49833609D01*
X133095238Y-49833609D02*
X133142857Y-49785990D01*
X133142857Y-49785990D02*
X133238095Y-49738371D01*
X133238095Y-49738371D02*
X133476190Y-49738371D01*
X133476190Y-49738371D02*
X133571428Y-49785990D01*
X133571428Y-49785990D02*
X133619047Y-49833609D01*
X133619047Y-49833609D02*
X133666666Y-49928847D01*
X133666666Y-49928847D02*
X133666666Y-50166942D01*
X133666666Y-50166942D02*
X133619047Y-50262180D01*
X133619047Y-50262180D02*
X133571428Y-50309800D01*
X133571428Y-50309800D02*
X133476190Y-50357419D01*
X133476190Y-50357419D02*
X133238095Y-50357419D01*
X133238095Y-50357419D02*
X133142857Y-50309800D01*
X133142857Y-50309800D02*
X133095238Y-50262180D01*
D12*
X109833333Y-102454819D02*
X109500000Y-101978628D01*
X109261905Y-102454819D02*
X109261905Y-101454819D01*
X109261905Y-101454819D02*
X109642857Y-101454819D01*
X109642857Y-101454819D02*
X109738095Y-101502438D01*
X109738095Y-101502438D02*
X109785714Y-101550057D01*
X109785714Y-101550057D02*
X109833333Y-101645295D01*
X109833333Y-101645295D02*
X109833333Y-101788152D01*
X109833333Y-101788152D02*
X109785714Y-101883390D01*
X109785714Y-101883390D02*
X109738095Y-101931009D01*
X109738095Y-101931009D02*
X109642857Y-101978628D01*
X109642857Y-101978628D02*
X109261905Y-101978628D01*
X110690476Y-101454819D02*
X110500000Y-101454819D01*
X110500000Y-101454819D02*
X110404762Y-101502438D01*
X110404762Y-101502438D02*
X110357143Y-101550057D01*
X110357143Y-101550057D02*
X110261905Y-101692914D01*
X110261905Y-101692914D02*
X110214286Y-101883390D01*
X110214286Y-101883390D02*
X110214286Y-102264342D01*
X110214286Y-102264342D02*
X110261905Y-102359580D01*
X110261905Y-102359580D02*
X110309524Y-102407200D01*
X110309524Y-102407200D02*
X110404762Y-102454819D01*
X110404762Y-102454819D02*
X110595238Y-102454819D01*
X110595238Y-102454819D02*
X110690476Y-102407200D01*
X110690476Y-102407200D02*
X110738095Y-102359580D01*
X110738095Y-102359580D02*
X110785714Y-102264342D01*
X110785714Y-102264342D02*
X110785714Y-102026247D01*
X110785714Y-102026247D02*
X110738095Y-101931009D01*
X110738095Y-101931009D02*
X110690476Y-101883390D01*
X110690476Y-101883390D02*
X110595238Y-101835771D01*
X110595238Y-101835771D02*
X110404762Y-101835771D01*
X110404762Y-101835771D02*
X110309524Y-101883390D01*
X110309524Y-101883390D02*
X110261905Y-101931009D01*
X110261905Y-101931009D02*
X110214286Y-102026247D01*
X142238095Y-47884819D02*
X142238095Y-48694342D01*
X142238095Y-48694342D02*
X142285714Y-48789580D01*
X142285714Y-48789580D02*
X142333333Y-48837200D01*
X142333333Y-48837200D02*
X142428571Y-48884819D01*
X142428571Y-48884819D02*
X142619047Y-48884819D01*
X142619047Y-48884819D02*
X142714285Y-48837200D01*
X142714285Y-48837200D02*
X142761904Y-48789580D01*
X142761904Y-48789580D02*
X142809523Y-48694342D01*
X142809523Y-48694342D02*
X142809523Y-47884819D01*
X143238095Y-47980057D02*
X143285714Y-47932438D01*
X143285714Y-47932438D02*
X143380952Y-47884819D01*
X143380952Y-47884819D02*
X143619047Y-47884819D01*
X143619047Y-47884819D02*
X143714285Y-47932438D01*
X143714285Y-47932438D02*
X143761904Y-47980057D01*
X143761904Y-47980057D02*
X143809523Y-48075295D01*
X143809523Y-48075295D02*
X143809523Y-48170533D01*
X143809523Y-48170533D02*
X143761904Y-48313390D01*
X143761904Y-48313390D02*
X143190476Y-48884819D01*
X143190476Y-48884819D02*
X143809523Y-48884819D01*
D13*
X158166666Y-48457419D02*
X158166666Y-49171704D01*
X158166666Y-49171704D02*
X158119047Y-49314561D01*
X158119047Y-49314561D02*
X158023809Y-49409800D01*
X158023809Y-49409800D02*
X157880952Y-49457419D01*
X157880952Y-49457419D02*
X157785714Y-49457419D01*
X158547619Y-48457419D02*
X159166666Y-48457419D01*
X159166666Y-48457419D02*
X158833333Y-48838371D01*
X158833333Y-48838371D02*
X158976190Y-48838371D01*
X158976190Y-48838371D02*
X159071428Y-48885990D01*
X159071428Y-48885990D02*
X159119047Y-48933609D01*
X159119047Y-48933609D02*
X159166666Y-49028847D01*
X159166666Y-49028847D02*
X159166666Y-49266942D01*
X159166666Y-49266942D02*
X159119047Y-49362180D01*
X159119047Y-49362180D02*
X159071428Y-49409800D01*
X159071428Y-49409800D02*
X158976190Y-49457419D01*
X158976190Y-49457419D02*
X158690476Y-49457419D01*
X158690476Y-49457419D02*
X158595238Y-49409800D01*
X158595238Y-49409800D02*
X158547619Y-49362180D01*
D12*
X108454819Y-89666666D02*
X107978628Y-89999999D01*
X108454819Y-90238094D02*
X107454819Y-90238094D01*
X107454819Y-90238094D02*
X107454819Y-89857142D01*
X107454819Y-89857142D02*
X107502438Y-89761904D01*
X107502438Y-89761904D02*
X107550057Y-89714285D01*
X107550057Y-89714285D02*
X107645295Y-89666666D01*
X107645295Y-89666666D02*
X107788152Y-89666666D01*
X107788152Y-89666666D02*
X107883390Y-89714285D01*
X107883390Y-89714285D02*
X107931009Y-89761904D01*
X107931009Y-89761904D02*
X107978628Y-89857142D01*
X107978628Y-89857142D02*
X107978628Y-90238094D01*
X107454819Y-89333332D02*
X107454819Y-88666666D01*
X107454819Y-88666666D02*
X108454819Y-89095237D01*
X140454819Y-70142857D02*
X139978628Y-70476190D01*
X140454819Y-70714285D02*
X139454819Y-70714285D01*
X139454819Y-70714285D02*
X139454819Y-70333333D01*
X139454819Y-70333333D02*
X139502438Y-70238095D01*
X139502438Y-70238095D02*
X139550057Y-70190476D01*
X139550057Y-70190476D02*
X139645295Y-70142857D01*
X139645295Y-70142857D02*
X139788152Y-70142857D01*
X139788152Y-70142857D02*
X139883390Y-70190476D01*
X139883390Y-70190476D02*
X139931009Y-70238095D01*
X139931009Y-70238095D02*
X139978628Y-70333333D01*
X139978628Y-70333333D02*
X139978628Y-70714285D01*
X139550057Y-69761904D02*
X139502438Y-69714285D01*
X139502438Y-69714285D02*
X139454819Y-69619047D01*
X139454819Y-69619047D02*
X139454819Y-69380952D01*
X139454819Y-69380952D02*
X139502438Y-69285714D01*
X139502438Y-69285714D02*
X139550057Y-69238095D01*
X139550057Y-69238095D02*
X139645295Y-69190476D01*
X139645295Y-69190476D02*
X139740533Y-69190476D01*
X139740533Y-69190476D02*
X139883390Y-69238095D01*
X139883390Y-69238095D02*
X140454819Y-69809523D01*
X140454819Y-69809523D02*
X140454819Y-69190476D01*
X139454819Y-68571428D02*
X139454819Y-68476190D01*
X139454819Y-68476190D02*
X139502438Y-68380952D01*
X139502438Y-68380952D02*
X139550057Y-68333333D01*
X139550057Y-68333333D02*
X139645295Y-68285714D01*
X139645295Y-68285714D02*
X139835771Y-68238095D01*
X139835771Y-68238095D02*
X140073866Y-68238095D01*
X140073866Y-68238095D02*
X140264342Y-68285714D01*
X140264342Y-68285714D02*
X140359580Y-68333333D01*
X140359580Y-68333333D02*
X140407200Y-68380952D01*
X140407200Y-68380952D02*
X140454819Y-68476190D01*
X140454819Y-68476190D02*
X140454819Y-68571428D01*
X140454819Y-68571428D02*
X140407200Y-68666666D01*
X140407200Y-68666666D02*
X140359580Y-68714285D01*
X140359580Y-68714285D02*
X140264342Y-68761904D01*
X140264342Y-68761904D02*
X140073866Y-68809523D01*
X140073866Y-68809523D02*
X139835771Y-68809523D01*
X139835771Y-68809523D02*
X139645295Y-68761904D01*
X139645295Y-68761904D02*
X139550057Y-68714285D01*
X139550057Y-68714285D02*
X139502438Y-68666666D01*
X139502438Y-68666666D02*
X139454819Y-68571428D01*
D13*
X190142857Y-107957419D02*
X190142857Y-108671704D01*
X190142857Y-108671704D02*
X190095238Y-108814561D01*
X190095238Y-108814561D02*
X190000000Y-108909800D01*
X190000000Y-108909800D02*
X189857143Y-108957419D01*
X189857143Y-108957419D02*
X189761905Y-108957419D01*
X190809524Y-107957419D02*
X191000000Y-107957419D01*
X191000000Y-107957419D02*
X191095238Y-108005038D01*
X191095238Y-108005038D02*
X191190476Y-108100276D01*
X191190476Y-108100276D02*
X191238095Y-108290752D01*
X191238095Y-108290752D02*
X191238095Y-108624085D01*
X191238095Y-108624085D02*
X191190476Y-108814561D01*
X191190476Y-108814561D02*
X191095238Y-108909800D01*
X191095238Y-108909800D02*
X191000000Y-108957419D01*
X191000000Y-108957419D02*
X190809524Y-108957419D01*
X190809524Y-108957419D02*
X190714286Y-108909800D01*
X190714286Y-108909800D02*
X190619048Y-108814561D01*
X190619048Y-108814561D02*
X190571429Y-108624085D01*
X190571429Y-108624085D02*
X190571429Y-108290752D01*
X190571429Y-108290752D02*
X190619048Y-108100276D01*
X190619048Y-108100276D02*
X190714286Y-108005038D01*
X190714286Y-108005038D02*
X190809524Y-107957419D01*
X191619048Y-108052657D02*
X191666667Y-108005038D01*
X191666667Y-108005038D02*
X191761905Y-107957419D01*
X191761905Y-107957419D02*
X192000000Y-107957419D01*
X192000000Y-107957419D02*
X192095238Y-108005038D01*
X192095238Y-108005038D02*
X192142857Y-108052657D01*
X192142857Y-108052657D02*
X192190476Y-108147895D01*
X192190476Y-108147895D02*
X192190476Y-108243133D01*
X192190476Y-108243133D02*
X192142857Y-108385990D01*
X192142857Y-108385990D02*
X191571429Y-108957419D01*
X191571429Y-108957419D02*
X192190476Y-108957419D01*
D12*
X117954819Y-99166666D02*
X117478628Y-99499999D01*
X117954819Y-99738094D02*
X116954819Y-99738094D01*
X116954819Y-99738094D02*
X116954819Y-99357142D01*
X116954819Y-99357142D02*
X117002438Y-99261904D01*
X117002438Y-99261904D02*
X117050057Y-99214285D01*
X117050057Y-99214285D02*
X117145295Y-99166666D01*
X117145295Y-99166666D02*
X117288152Y-99166666D01*
X117288152Y-99166666D02*
X117383390Y-99214285D01*
X117383390Y-99214285D02*
X117431009Y-99261904D01*
X117431009Y-99261904D02*
X117478628Y-99357142D01*
X117478628Y-99357142D02*
X117478628Y-99738094D01*
X116954819Y-98833332D02*
X116954819Y-98214285D01*
X116954819Y-98214285D02*
X117335771Y-98547618D01*
X117335771Y-98547618D02*
X117335771Y-98404761D01*
X117335771Y-98404761D02*
X117383390Y-98309523D01*
X117383390Y-98309523D02*
X117431009Y-98261904D01*
X117431009Y-98261904D02*
X117526247Y-98214285D01*
X117526247Y-98214285D02*
X117764342Y-98214285D01*
X117764342Y-98214285D02*
X117859580Y-98261904D01*
X117859580Y-98261904D02*
X117907200Y-98309523D01*
X117907200Y-98309523D02*
X117954819Y-98404761D01*
X117954819Y-98404761D02*
X117954819Y-98690475D01*
X117954819Y-98690475D02*
X117907200Y-98785713D01*
X117907200Y-98785713D02*
X117859580Y-98833332D01*
D13*
X188428571Y-104957419D02*
X188428571Y-105671704D01*
X188428571Y-105671704D02*
X188380952Y-105814561D01*
X188380952Y-105814561D02*
X188285714Y-105909800D01*
X188285714Y-105909800D02*
X188142857Y-105957419D01*
X188142857Y-105957419D02*
X188047619Y-105957419D01*
X188904762Y-105957419D02*
X188904762Y-104957419D01*
X189333333Y-105052657D02*
X189380952Y-105005038D01*
X189380952Y-105005038D02*
X189476190Y-104957419D01*
X189476190Y-104957419D02*
X189714285Y-104957419D01*
X189714285Y-104957419D02*
X189809523Y-105005038D01*
X189809523Y-105005038D02*
X189857142Y-105052657D01*
X189857142Y-105052657D02*
X189904761Y-105147895D01*
X189904761Y-105147895D02*
X189904761Y-105243133D01*
X189904761Y-105243133D02*
X189857142Y-105385990D01*
X189857142Y-105385990D02*
X189285714Y-105957419D01*
X189285714Y-105957419D02*
X189904761Y-105957419D01*
D12*
X146333333Y-68359580D02*
X146285714Y-68407200D01*
X146285714Y-68407200D02*
X146142857Y-68454819D01*
X146142857Y-68454819D02*
X146047619Y-68454819D01*
X146047619Y-68454819D02*
X145904762Y-68407200D01*
X145904762Y-68407200D02*
X145809524Y-68311961D01*
X145809524Y-68311961D02*
X145761905Y-68216723D01*
X145761905Y-68216723D02*
X145714286Y-68026247D01*
X145714286Y-68026247D02*
X145714286Y-67883390D01*
X145714286Y-67883390D02*
X145761905Y-67692914D01*
X145761905Y-67692914D02*
X145809524Y-67597676D01*
X145809524Y-67597676D02*
X145904762Y-67502438D01*
X145904762Y-67502438D02*
X146047619Y-67454819D01*
X146047619Y-67454819D02*
X146142857Y-67454819D01*
X146142857Y-67454819D02*
X146285714Y-67502438D01*
X146285714Y-67502438D02*
X146333333Y-67550057D01*
X147238095Y-67454819D02*
X146761905Y-67454819D01*
X146761905Y-67454819D02*
X146714286Y-67931009D01*
X146714286Y-67931009D02*
X146761905Y-67883390D01*
X146761905Y-67883390D02*
X146857143Y-67835771D01*
X146857143Y-67835771D02*
X147095238Y-67835771D01*
X147095238Y-67835771D02*
X147190476Y-67883390D01*
X147190476Y-67883390D02*
X147238095Y-67931009D01*
X147238095Y-67931009D02*
X147285714Y-68026247D01*
X147285714Y-68026247D02*
X147285714Y-68264342D01*
X147285714Y-68264342D02*
X147238095Y-68359580D01*
X147238095Y-68359580D02*
X147190476Y-68407200D01*
X147190476Y-68407200D02*
X147095238Y-68454819D01*
X147095238Y-68454819D02*
X146857143Y-68454819D01*
X146857143Y-68454819D02*
X146761905Y-68407200D01*
X146761905Y-68407200D02*
X146714286Y-68359580D01*
X127833333Y-102454819D02*
X127500000Y-101978628D01*
X127261905Y-102454819D02*
X127261905Y-101454819D01*
X127261905Y-101454819D02*
X127642857Y-101454819D01*
X127642857Y-101454819D02*
X127738095Y-101502438D01*
X127738095Y-101502438D02*
X127785714Y-101550057D01*
X127785714Y-101550057D02*
X127833333Y-101645295D01*
X127833333Y-101645295D02*
X127833333Y-101788152D01*
X127833333Y-101788152D02*
X127785714Y-101883390D01*
X127785714Y-101883390D02*
X127738095Y-101931009D01*
X127738095Y-101931009D02*
X127642857Y-101978628D01*
X127642857Y-101978628D02*
X127261905Y-101978628D01*
X128690476Y-101788152D02*
X128690476Y-102454819D01*
X128452381Y-101407200D02*
X128214286Y-102121485D01*
X128214286Y-102121485D02*
X128833333Y-102121485D01*
X100357142Y-94954819D02*
X100023809Y-94478628D01*
X99785714Y-94954819D02*
X99785714Y-93954819D01*
X99785714Y-93954819D02*
X100166666Y-93954819D01*
X100166666Y-93954819D02*
X100261904Y-94002438D01*
X100261904Y-94002438D02*
X100309523Y-94050057D01*
X100309523Y-94050057D02*
X100357142Y-94145295D01*
X100357142Y-94145295D02*
X100357142Y-94288152D01*
X100357142Y-94288152D02*
X100309523Y-94383390D01*
X100309523Y-94383390D02*
X100261904Y-94431009D01*
X100261904Y-94431009D02*
X100166666Y-94478628D01*
X100166666Y-94478628D02*
X99785714Y-94478628D01*
X101309523Y-94954819D02*
X100738095Y-94954819D01*
X101023809Y-94954819D02*
X101023809Y-93954819D01*
X101023809Y-93954819D02*
X100928571Y-94097676D01*
X100928571Y-94097676D02*
X100833333Y-94192914D01*
X100833333Y-94192914D02*
X100738095Y-94240533D01*
X101785714Y-94954819D02*
X101976190Y-94954819D01*
X101976190Y-94954819D02*
X102071428Y-94907200D01*
X102071428Y-94907200D02*
X102119047Y-94859580D01*
X102119047Y-94859580D02*
X102214285Y-94716723D01*
X102214285Y-94716723D02*
X102261904Y-94526247D01*
X102261904Y-94526247D02*
X102261904Y-94145295D01*
X102261904Y-94145295D02*
X102214285Y-94050057D01*
X102214285Y-94050057D02*
X102166666Y-94002438D01*
X102166666Y-94002438D02*
X102071428Y-93954819D01*
X102071428Y-93954819D02*
X101880952Y-93954819D01*
X101880952Y-93954819D02*
X101785714Y-94002438D01*
X101785714Y-94002438D02*
X101738095Y-94050057D01*
X101738095Y-94050057D02*
X101690476Y-94145295D01*
X101690476Y-94145295D02*
X101690476Y-94383390D01*
X101690476Y-94383390D02*
X101738095Y-94478628D01*
X101738095Y-94478628D02*
X101785714Y-94526247D01*
X101785714Y-94526247D02*
X101880952Y-94573866D01*
X101880952Y-94573866D02*
X102071428Y-94573866D01*
X102071428Y-94573866D02*
X102166666Y-94526247D01*
X102166666Y-94526247D02*
X102214285Y-94478628D01*
X102214285Y-94478628D02*
X102261904Y-94383390D01*
D13*
X164714285Y-108933609D02*
X164380952Y-108933609D01*
X164380952Y-109457419D02*
X164380952Y-108457419D01*
X164380952Y-108457419D02*
X164857142Y-108457419D01*
X165142857Y-108457419D02*
X165809523Y-109457419D01*
X165809523Y-108457419D02*
X165142857Y-109457419D01*
X166380952Y-108457419D02*
X166476190Y-108457419D01*
X166476190Y-108457419D02*
X166571428Y-108505038D01*
X166571428Y-108505038D02*
X166619047Y-108552657D01*
X166619047Y-108552657D02*
X166666666Y-108647895D01*
X166666666Y-108647895D02*
X166714285Y-108838371D01*
X166714285Y-108838371D02*
X166714285Y-109076466D01*
X166714285Y-109076466D02*
X166666666Y-109266942D01*
X166666666Y-109266942D02*
X166619047Y-109362180D01*
X166619047Y-109362180D02*
X166571428Y-109409800D01*
X166571428Y-109409800D02*
X166476190Y-109457419D01*
X166476190Y-109457419D02*
X166380952Y-109457419D01*
X166380952Y-109457419D02*
X166285714Y-109409800D01*
X166285714Y-109409800D02*
X166238095Y-109362180D01*
X166238095Y-109362180D02*
X166190476Y-109266942D01*
X166190476Y-109266942D02*
X166142857Y-109076466D01*
X166142857Y-109076466D02*
X166142857Y-108838371D01*
X166142857Y-108838371D02*
X166190476Y-108647895D01*
X166190476Y-108647895D02*
X166238095Y-108552657D01*
X166238095Y-108552657D02*
X166285714Y-108505038D01*
X166285714Y-108505038D02*
X166380952Y-108457419D01*
X167095238Y-108552657D02*
X167142857Y-108505038D01*
X167142857Y-108505038D02*
X167238095Y-108457419D01*
X167238095Y-108457419D02*
X167476190Y-108457419D01*
X167476190Y-108457419D02*
X167571428Y-108505038D01*
X167571428Y-108505038D02*
X167619047Y-108552657D01*
X167619047Y-108552657D02*
X167666666Y-108647895D01*
X167666666Y-108647895D02*
X167666666Y-108743133D01*
X167666666Y-108743133D02*
X167619047Y-108885990D01*
X167619047Y-108885990D02*
X167047619Y-109457419D01*
X167047619Y-109457419D02*
X167666666Y-109457419D01*
D12*
X131357142Y-67954819D02*
X131023809Y-67478628D01*
X130785714Y-67954819D02*
X130785714Y-66954819D01*
X130785714Y-66954819D02*
X131166666Y-66954819D01*
X131166666Y-66954819D02*
X131261904Y-67002438D01*
X131261904Y-67002438D02*
X131309523Y-67050057D01*
X131309523Y-67050057D02*
X131357142Y-67145295D01*
X131357142Y-67145295D02*
X131357142Y-67288152D01*
X131357142Y-67288152D02*
X131309523Y-67383390D01*
X131309523Y-67383390D02*
X131261904Y-67431009D01*
X131261904Y-67431009D02*
X131166666Y-67478628D01*
X131166666Y-67478628D02*
X130785714Y-67478628D01*
X131738095Y-67050057D02*
X131785714Y-67002438D01*
X131785714Y-67002438D02*
X131880952Y-66954819D01*
X131880952Y-66954819D02*
X132119047Y-66954819D01*
X132119047Y-66954819D02*
X132214285Y-67002438D01*
X132214285Y-67002438D02*
X132261904Y-67050057D01*
X132261904Y-67050057D02*
X132309523Y-67145295D01*
X132309523Y-67145295D02*
X132309523Y-67240533D01*
X132309523Y-67240533D02*
X132261904Y-67383390D01*
X132261904Y-67383390D02*
X131690476Y-67954819D01*
X131690476Y-67954819D02*
X132309523Y-67954819D01*
X133261904Y-67954819D02*
X132690476Y-67954819D01*
X132976190Y-67954819D02*
X132976190Y-66954819D01*
X132976190Y-66954819D02*
X132880952Y-67097676D01*
X132880952Y-67097676D02*
X132785714Y-67192914D01*
X132785714Y-67192914D02*
X132690476Y-67240533D01*
X116333333Y-111359580D02*
X116285714Y-111407200D01*
X116285714Y-111407200D02*
X116142857Y-111454819D01*
X116142857Y-111454819D02*
X116047619Y-111454819D01*
X116047619Y-111454819D02*
X115904762Y-111407200D01*
X115904762Y-111407200D02*
X115809524Y-111311961D01*
X115809524Y-111311961D02*
X115761905Y-111216723D01*
X115761905Y-111216723D02*
X115714286Y-111026247D01*
X115714286Y-111026247D02*
X115714286Y-110883390D01*
X115714286Y-110883390D02*
X115761905Y-110692914D01*
X115761905Y-110692914D02*
X115809524Y-110597676D01*
X115809524Y-110597676D02*
X115904762Y-110502438D01*
X115904762Y-110502438D02*
X116047619Y-110454819D01*
X116047619Y-110454819D02*
X116142857Y-110454819D01*
X116142857Y-110454819D02*
X116285714Y-110502438D01*
X116285714Y-110502438D02*
X116333333Y-110550057D01*
X117190476Y-110788152D02*
X117190476Y-111454819D01*
X116952381Y-110407200D02*
X116714286Y-111121485D01*
X116714286Y-111121485D02*
X117333333Y-111121485D01*
D13*
X86142857Y-104957419D02*
X86142857Y-105671704D01*
X86142857Y-105671704D02*
X86095238Y-105814561D01*
X86095238Y-105814561D02*
X86000000Y-105909800D01*
X86000000Y-105909800D02*
X85857143Y-105957419D01*
X85857143Y-105957419D02*
X85761905Y-105957419D01*
X86809524Y-104957419D02*
X87000000Y-104957419D01*
X87000000Y-104957419D02*
X87095238Y-105005038D01*
X87095238Y-105005038D02*
X87190476Y-105100276D01*
X87190476Y-105100276D02*
X87238095Y-105290752D01*
X87238095Y-105290752D02*
X87238095Y-105624085D01*
X87238095Y-105624085D02*
X87190476Y-105814561D01*
X87190476Y-105814561D02*
X87095238Y-105909800D01*
X87095238Y-105909800D02*
X87000000Y-105957419D01*
X87000000Y-105957419D02*
X86809524Y-105957419D01*
X86809524Y-105957419D02*
X86714286Y-105909800D01*
X86714286Y-105909800D02*
X86619048Y-105814561D01*
X86619048Y-105814561D02*
X86571429Y-105624085D01*
X86571429Y-105624085D02*
X86571429Y-105290752D01*
X86571429Y-105290752D02*
X86619048Y-105100276D01*
X86619048Y-105100276D02*
X86714286Y-105005038D01*
X86714286Y-105005038D02*
X86809524Y-104957419D01*
X88190476Y-105957419D02*
X87619048Y-105957419D01*
X87904762Y-105957419D02*
X87904762Y-104957419D01*
X87904762Y-104957419D02*
X87809524Y-105100276D01*
X87809524Y-105100276D02*
X87714286Y-105195514D01*
X87714286Y-105195514D02*
X87619048Y-105243133D01*
D12*
X107357142Y-105454819D02*
X107023809Y-104978628D01*
X106785714Y-105454819D02*
X106785714Y-104454819D01*
X106785714Y-104454819D02*
X107166666Y-104454819D01*
X107166666Y-104454819D02*
X107261904Y-104502438D01*
X107261904Y-104502438D02*
X107309523Y-104550057D01*
X107309523Y-104550057D02*
X107357142Y-104645295D01*
X107357142Y-104645295D02*
X107357142Y-104788152D01*
X107357142Y-104788152D02*
X107309523Y-104883390D01*
X107309523Y-104883390D02*
X107261904Y-104931009D01*
X107261904Y-104931009D02*
X107166666Y-104978628D01*
X107166666Y-104978628D02*
X106785714Y-104978628D01*
X108309523Y-105454819D02*
X107738095Y-105454819D01*
X108023809Y-105454819D02*
X108023809Y-104454819D01*
X108023809Y-104454819D02*
X107928571Y-104597676D01*
X107928571Y-104597676D02*
X107833333Y-104692914D01*
X107833333Y-104692914D02*
X107738095Y-104740533D01*
X108928571Y-104454819D02*
X109023809Y-104454819D01*
X109023809Y-104454819D02*
X109119047Y-104502438D01*
X109119047Y-104502438D02*
X109166666Y-104550057D01*
X109166666Y-104550057D02*
X109214285Y-104645295D01*
X109214285Y-104645295D02*
X109261904Y-104835771D01*
X109261904Y-104835771D02*
X109261904Y-105073866D01*
X109261904Y-105073866D02*
X109214285Y-105264342D01*
X109214285Y-105264342D02*
X109166666Y-105359580D01*
X109166666Y-105359580D02*
X109119047Y-105407200D01*
X109119047Y-105407200D02*
X109023809Y-105454819D01*
X109023809Y-105454819D02*
X108928571Y-105454819D01*
X108928571Y-105454819D02*
X108833333Y-105407200D01*
X108833333Y-105407200D02*
X108785714Y-105359580D01*
X108785714Y-105359580D02*
X108738095Y-105264342D01*
X108738095Y-105264342D02*
X108690476Y-105073866D01*
X108690476Y-105073866D02*
X108690476Y-104835771D01*
X108690476Y-104835771D02*
X108738095Y-104645295D01*
X108738095Y-104645295D02*
X108785714Y-104550057D01*
X108785714Y-104550057D02*
X108833333Y-104502438D01*
X108833333Y-104502438D02*
X108928571Y-104454819D01*
X152954819Y-107642857D02*
X152478628Y-107976190D01*
X152954819Y-108214285D02*
X151954819Y-108214285D01*
X151954819Y-108214285D02*
X151954819Y-107833333D01*
X151954819Y-107833333D02*
X152002438Y-107738095D01*
X152002438Y-107738095D02*
X152050057Y-107690476D01*
X152050057Y-107690476D02*
X152145295Y-107642857D01*
X152145295Y-107642857D02*
X152288152Y-107642857D01*
X152288152Y-107642857D02*
X152383390Y-107690476D01*
X152383390Y-107690476D02*
X152431009Y-107738095D01*
X152431009Y-107738095D02*
X152478628Y-107833333D01*
X152478628Y-107833333D02*
X152478628Y-108214285D01*
X152954819Y-106690476D02*
X152954819Y-107261904D01*
X152954819Y-106976190D02*
X151954819Y-106976190D01*
X151954819Y-106976190D02*
X152097676Y-107071428D01*
X152097676Y-107071428D02*
X152192914Y-107166666D01*
X152192914Y-107166666D02*
X152240533Y-107261904D01*
X151954819Y-105833333D02*
X151954819Y-106023809D01*
X151954819Y-106023809D02*
X152002438Y-106119047D01*
X152002438Y-106119047D02*
X152050057Y-106166666D01*
X152050057Y-106166666D02*
X152192914Y-106261904D01*
X152192914Y-106261904D02*
X152383390Y-106309523D01*
X152383390Y-106309523D02*
X152764342Y-106309523D01*
X152764342Y-106309523D02*
X152859580Y-106261904D01*
X152859580Y-106261904D02*
X152907200Y-106214285D01*
X152907200Y-106214285D02*
X152954819Y-106119047D01*
X152954819Y-106119047D02*
X152954819Y-105928571D01*
X152954819Y-105928571D02*
X152907200Y-105833333D01*
X152907200Y-105833333D02*
X152859580Y-105785714D01*
X152859580Y-105785714D02*
X152764342Y-105738095D01*
X152764342Y-105738095D02*
X152526247Y-105738095D01*
X152526247Y-105738095D02*
X152431009Y-105785714D01*
X152431009Y-105785714D02*
X152383390Y-105833333D01*
X152383390Y-105833333D02*
X152335771Y-105928571D01*
X152335771Y-105928571D02*
X152335771Y-106119047D01*
X152335771Y-106119047D02*
X152383390Y-106214285D01*
X152383390Y-106214285D02*
X152431009Y-106261904D01*
X152431009Y-106261904D02*
X152526247Y-106309523D01*
X101857142Y-102954819D02*
X101523809Y-102478628D01*
X101285714Y-102954819D02*
X101285714Y-101954819D01*
X101285714Y-101954819D02*
X101666666Y-101954819D01*
X101666666Y-101954819D02*
X101761904Y-102002438D01*
X101761904Y-102002438D02*
X101809523Y-102050057D01*
X101809523Y-102050057D02*
X101857142Y-102145295D01*
X101857142Y-102145295D02*
X101857142Y-102288152D01*
X101857142Y-102288152D02*
X101809523Y-102383390D01*
X101809523Y-102383390D02*
X101761904Y-102431009D01*
X101761904Y-102431009D02*
X101666666Y-102478628D01*
X101666666Y-102478628D02*
X101285714Y-102478628D01*
X102238095Y-102050057D02*
X102285714Y-102002438D01*
X102285714Y-102002438D02*
X102380952Y-101954819D01*
X102380952Y-101954819D02*
X102619047Y-101954819D01*
X102619047Y-101954819D02*
X102714285Y-102002438D01*
X102714285Y-102002438D02*
X102761904Y-102050057D01*
X102761904Y-102050057D02*
X102809523Y-102145295D01*
X102809523Y-102145295D02*
X102809523Y-102240533D01*
X102809523Y-102240533D02*
X102761904Y-102383390D01*
X102761904Y-102383390D02*
X102190476Y-102954819D01*
X102190476Y-102954819D02*
X102809523Y-102954819D01*
X103380952Y-102383390D02*
X103285714Y-102335771D01*
X103285714Y-102335771D02*
X103238095Y-102288152D01*
X103238095Y-102288152D02*
X103190476Y-102192914D01*
X103190476Y-102192914D02*
X103190476Y-102145295D01*
X103190476Y-102145295D02*
X103238095Y-102050057D01*
X103238095Y-102050057D02*
X103285714Y-102002438D01*
X103285714Y-102002438D02*
X103380952Y-101954819D01*
X103380952Y-101954819D02*
X103571428Y-101954819D01*
X103571428Y-101954819D02*
X103666666Y-102002438D01*
X103666666Y-102002438D02*
X103714285Y-102050057D01*
X103714285Y-102050057D02*
X103761904Y-102145295D01*
X103761904Y-102145295D02*
X103761904Y-102192914D01*
X103761904Y-102192914D02*
X103714285Y-102288152D01*
X103714285Y-102288152D02*
X103666666Y-102335771D01*
X103666666Y-102335771D02*
X103571428Y-102383390D01*
X103571428Y-102383390D02*
X103380952Y-102383390D01*
X103380952Y-102383390D02*
X103285714Y-102431009D01*
X103285714Y-102431009D02*
X103238095Y-102478628D01*
X103238095Y-102478628D02*
X103190476Y-102573866D01*
X103190476Y-102573866D02*
X103190476Y-102764342D01*
X103190476Y-102764342D02*
X103238095Y-102859580D01*
X103238095Y-102859580D02*
X103285714Y-102907200D01*
X103285714Y-102907200D02*
X103380952Y-102954819D01*
X103380952Y-102954819D02*
X103571428Y-102954819D01*
X103571428Y-102954819D02*
X103666666Y-102907200D01*
X103666666Y-102907200D02*
X103714285Y-102859580D01*
X103714285Y-102859580D02*
X103761904Y-102764342D01*
X103761904Y-102764342D02*
X103761904Y-102573866D01*
X103761904Y-102573866D02*
X103714285Y-102478628D01*
X103714285Y-102478628D02*
X103666666Y-102431009D01*
X103666666Y-102431009D02*
X103571428Y-102383390D01*
D13*
X108952381Y-108933609D02*
X108619048Y-108933609D01*
X108619048Y-109457419D02*
X108619048Y-108457419D01*
X108619048Y-108457419D02*
X109095238Y-108457419D01*
X109380953Y-108457419D02*
X110047619Y-109457419D01*
X110047619Y-108457419D02*
X109380953Y-109457419D01*
X110428572Y-109457419D02*
X110428572Y-108457419D01*
X111428571Y-109457419D02*
X110857143Y-109457419D01*
X111142857Y-109457419D02*
X111142857Y-108457419D01*
X111142857Y-108457419D02*
X111047619Y-108600276D01*
X111047619Y-108600276D02*
X110952381Y-108695514D01*
X110952381Y-108695514D02*
X110857143Y-108743133D01*
D12*
X152357142Y-101859580D02*
X152309523Y-101907200D01*
X152309523Y-101907200D02*
X152166666Y-101954819D01*
X152166666Y-101954819D02*
X152071428Y-101954819D01*
X152071428Y-101954819D02*
X151928571Y-101907200D01*
X151928571Y-101907200D02*
X151833333Y-101811961D01*
X151833333Y-101811961D02*
X151785714Y-101716723D01*
X151785714Y-101716723D02*
X151738095Y-101526247D01*
X151738095Y-101526247D02*
X151738095Y-101383390D01*
X151738095Y-101383390D02*
X151785714Y-101192914D01*
X151785714Y-101192914D02*
X151833333Y-101097676D01*
X151833333Y-101097676D02*
X151928571Y-101002438D01*
X151928571Y-101002438D02*
X152071428Y-100954819D01*
X152071428Y-100954819D02*
X152166666Y-100954819D01*
X152166666Y-100954819D02*
X152309523Y-101002438D01*
X152309523Y-101002438D02*
X152357142Y-101050057D01*
X153309523Y-101954819D02*
X152738095Y-101954819D01*
X153023809Y-101954819D02*
X153023809Y-100954819D01*
X153023809Y-100954819D02*
X152928571Y-101097676D01*
X152928571Y-101097676D02*
X152833333Y-101192914D01*
X152833333Y-101192914D02*
X152738095Y-101240533D01*
X153642857Y-100954819D02*
X154261904Y-100954819D01*
X154261904Y-100954819D02*
X153928571Y-101335771D01*
X153928571Y-101335771D02*
X154071428Y-101335771D01*
X154071428Y-101335771D02*
X154166666Y-101383390D01*
X154166666Y-101383390D02*
X154214285Y-101431009D01*
X154214285Y-101431009D02*
X154261904Y-101526247D01*
X154261904Y-101526247D02*
X154261904Y-101764342D01*
X154261904Y-101764342D02*
X154214285Y-101859580D01*
X154214285Y-101859580D02*
X154166666Y-101907200D01*
X154166666Y-101907200D02*
X154071428Y-101954819D01*
X154071428Y-101954819D02*
X153785714Y-101954819D01*
X153785714Y-101954819D02*
X153690476Y-101907200D01*
X153690476Y-101907200D02*
X153642857Y-101859580D01*
X172857142Y-102954819D02*
X172523809Y-102478628D01*
X172285714Y-102954819D02*
X172285714Y-101954819D01*
X172285714Y-101954819D02*
X172666666Y-101954819D01*
X172666666Y-101954819D02*
X172761904Y-102002438D01*
X172761904Y-102002438D02*
X172809523Y-102050057D01*
X172809523Y-102050057D02*
X172857142Y-102145295D01*
X172857142Y-102145295D02*
X172857142Y-102288152D01*
X172857142Y-102288152D02*
X172809523Y-102383390D01*
X172809523Y-102383390D02*
X172761904Y-102431009D01*
X172761904Y-102431009D02*
X172666666Y-102478628D01*
X172666666Y-102478628D02*
X172285714Y-102478628D01*
X173238095Y-102050057D02*
X173285714Y-102002438D01*
X173285714Y-102002438D02*
X173380952Y-101954819D01*
X173380952Y-101954819D02*
X173619047Y-101954819D01*
X173619047Y-101954819D02*
X173714285Y-102002438D01*
X173714285Y-102002438D02*
X173761904Y-102050057D01*
X173761904Y-102050057D02*
X173809523Y-102145295D01*
X173809523Y-102145295D02*
X173809523Y-102240533D01*
X173809523Y-102240533D02*
X173761904Y-102383390D01*
X173761904Y-102383390D02*
X173190476Y-102954819D01*
X173190476Y-102954819D02*
X173809523Y-102954819D01*
X174142857Y-101954819D02*
X174809523Y-101954819D01*
X174809523Y-101954819D02*
X174380952Y-102954819D01*
X147357142Y-92454819D02*
X147023809Y-91978628D01*
X146785714Y-92454819D02*
X146785714Y-91454819D01*
X146785714Y-91454819D02*
X147166666Y-91454819D01*
X147166666Y-91454819D02*
X147261904Y-91502438D01*
X147261904Y-91502438D02*
X147309523Y-91550057D01*
X147309523Y-91550057D02*
X147357142Y-91645295D01*
X147357142Y-91645295D02*
X147357142Y-91788152D01*
X147357142Y-91788152D02*
X147309523Y-91883390D01*
X147309523Y-91883390D02*
X147261904Y-91931009D01*
X147261904Y-91931009D02*
X147166666Y-91978628D01*
X147166666Y-91978628D02*
X146785714Y-91978628D01*
X148309523Y-92454819D02*
X147738095Y-92454819D01*
X148023809Y-92454819D02*
X148023809Y-91454819D01*
X148023809Y-91454819D02*
X147928571Y-91597676D01*
X147928571Y-91597676D02*
X147833333Y-91692914D01*
X147833333Y-91692914D02*
X147738095Y-91740533D01*
X148690476Y-91550057D02*
X148738095Y-91502438D01*
X148738095Y-91502438D02*
X148833333Y-91454819D01*
X148833333Y-91454819D02*
X149071428Y-91454819D01*
X149071428Y-91454819D02*
X149166666Y-91502438D01*
X149166666Y-91502438D02*
X149214285Y-91550057D01*
X149214285Y-91550057D02*
X149261904Y-91645295D01*
X149261904Y-91645295D02*
X149261904Y-91740533D01*
X149261904Y-91740533D02*
X149214285Y-91883390D01*
X149214285Y-91883390D02*
X148642857Y-92454819D01*
X148642857Y-92454819D02*
X149261904Y-92454819D01*
X143359580Y-56666666D02*
X143407200Y-56714285D01*
X143407200Y-56714285D02*
X143454819Y-56857142D01*
X143454819Y-56857142D02*
X143454819Y-56952380D01*
X143454819Y-56952380D02*
X143407200Y-57095237D01*
X143407200Y-57095237D02*
X143311961Y-57190475D01*
X143311961Y-57190475D02*
X143216723Y-57238094D01*
X143216723Y-57238094D02*
X143026247Y-57285713D01*
X143026247Y-57285713D02*
X142883390Y-57285713D01*
X142883390Y-57285713D02*
X142692914Y-57238094D01*
X142692914Y-57238094D02*
X142597676Y-57190475D01*
X142597676Y-57190475D02*
X142502438Y-57095237D01*
X142502438Y-57095237D02*
X142454819Y-56952380D01*
X142454819Y-56952380D02*
X142454819Y-56857142D01*
X142454819Y-56857142D02*
X142502438Y-56714285D01*
X142502438Y-56714285D02*
X142550057Y-56666666D01*
X142454819Y-55809523D02*
X142454819Y-55999999D01*
X142454819Y-55999999D02*
X142502438Y-56095237D01*
X142502438Y-56095237D02*
X142550057Y-56142856D01*
X142550057Y-56142856D02*
X142692914Y-56238094D01*
X142692914Y-56238094D02*
X142883390Y-56285713D01*
X142883390Y-56285713D02*
X143264342Y-56285713D01*
X143264342Y-56285713D02*
X143359580Y-56238094D01*
X143359580Y-56238094D02*
X143407200Y-56190475D01*
X143407200Y-56190475D02*
X143454819Y-56095237D01*
X143454819Y-56095237D02*
X143454819Y-55904761D01*
X143454819Y-55904761D02*
X143407200Y-55809523D01*
X143407200Y-55809523D02*
X143359580Y-55761904D01*
X143359580Y-55761904D02*
X143264342Y-55714285D01*
X143264342Y-55714285D02*
X143026247Y-55714285D01*
X143026247Y-55714285D02*
X142931009Y-55761904D01*
X142931009Y-55761904D02*
X142883390Y-55809523D01*
X142883390Y-55809523D02*
X142835771Y-55904761D01*
X142835771Y-55904761D02*
X142835771Y-56095237D01*
X142835771Y-56095237D02*
X142883390Y-56190475D01*
X142883390Y-56190475D02*
X142931009Y-56238094D01*
X142931009Y-56238094D02*
X143026247Y-56285713D01*
X170859580Y-89642857D02*
X170907200Y-89690476D01*
X170907200Y-89690476D02*
X170954819Y-89833333D01*
X170954819Y-89833333D02*
X170954819Y-89928571D01*
X170954819Y-89928571D02*
X170907200Y-90071428D01*
X170907200Y-90071428D02*
X170811961Y-90166666D01*
X170811961Y-90166666D02*
X170716723Y-90214285D01*
X170716723Y-90214285D02*
X170526247Y-90261904D01*
X170526247Y-90261904D02*
X170383390Y-90261904D01*
X170383390Y-90261904D02*
X170192914Y-90214285D01*
X170192914Y-90214285D02*
X170097676Y-90166666D01*
X170097676Y-90166666D02*
X170002438Y-90071428D01*
X170002438Y-90071428D02*
X169954819Y-89928571D01*
X169954819Y-89928571D02*
X169954819Y-89833333D01*
X169954819Y-89833333D02*
X170002438Y-89690476D01*
X170002438Y-89690476D02*
X170050057Y-89642857D01*
X170954819Y-88690476D02*
X170954819Y-89261904D01*
X170954819Y-88976190D02*
X169954819Y-88976190D01*
X169954819Y-88976190D02*
X170097676Y-89071428D01*
X170097676Y-89071428D02*
X170192914Y-89166666D01*
X170192914Y-89166666D02*
X170240533Y-89261904D01*
X169954819Y-88357142D02*
X169954819Y-87690476D01*
X169954819Y-87690476D02*
X170954819Y-88119047D01*
X92333333Y-91454819D02*
X92000000Y-90978628D01*
X91761905Y-91454819D02*
X91761905Y-90454819D01*
X91761905Y-90454819D02*
X92142857Y-90454819D01*
X92142857Y-90454819D02*
X92238095Y-90502438D01*
X92238095Y-90502438D02*
X92285714Y-90550057D01*
X92285714Y-90550057D02*
X92333333Y-90645295D01*
X92333333Y-90645295D02*
X92333333Y-90788152D01*
X92333333Y-90788152D02*
X92285714Y-90883390D01*
X92285714Y-90883390D02*
X92238095Y-90931009D01*
X92238095Y-90931009D02*
X92142857Y-90978628D01*
X92142857Y-90978628D02*
X91761905Y-90978628D01*
X92809524Y-91454819D02*
X93000000Y-91454819D01*
X93000000Y-91454819D02*
X93095238Y-91407200D01*
X93095238Y-91407200D02*
X93142857Y-91359580D01*
X93142857Y-91359580D02*
X93238095Y-91216723D01*
X93238095Y-91216723D02*
X93285714Y-91026247D01*
X93285714Y-91026247D02*
X93285714Y-90645295D01*
X93285714Y-90645295D02*
X93238095Y-90550057D01*
X93238095Y-90550057D02*
X93190476Y-90502438D01*
X93190476Y-90502438D02*
X93095238Y-90454819D01*
X93095238Y-90454819D02*
X92904762Y-90454819D01*
X92904762Y-90454819D02*
X92809524Y-90502438D01*
X92809524Y-90502438D02*
X92761905Y-90550057D01*
X92761905Y-90550057D02*
X92714286Y-90645295D01*
X92714286Y-90645295D02*
X92714286Y-90883390D01*
X92714286Y-90883390D02*
X92761905Y-90978628D01*
X92761905Y-90978628D02*
X92809524Y-91026247D01*
X92809524Y-91026247D02*
X92904762Y-91073866D01*
X92904762Y-91073866D02*
X93095238Y-91073866D01*
X93095238Y-91073866D02*
X93190476Y-91026247D01*
X93190476Y-91026247D02*
X93238095Y-90978628D01*
X93238095Y-90978628D02*
X93285714Y-90883390D01*
D13*
X117166666Y-48457419D02*
X117166666Y-49171704D01*
X117166666Y-49171704D02*
X117119047Y-49314561D01*
X117119047Y-49314561D02*
X117023809Y-49409800D01*
X117023809Y-49409800D02*
X116880952Y-49457419D01*
X116880952Y-49457419D02*
X116785714Y-49457419D01*
X117595238Y-48552657D02*
X117642857Y-48505038D01*
X117642857Y-48505038D02*
X117738095Y-48457419D01*
X117738095Y-48457419D02*
X117976190Y-48457419D01*
X117976190Y-48457419D02*
X118071428Y-48505038D01*
X118071428Y-48505038D02*
X118119047Y-48552657D01*
X118119047Y-48552657D02*
X118166666Y-48647895D01*
X118166666Y-48647895D02*
X118166666Y-48743133D01*
X118166666Y-48743133D02*
X118119047Y-48885990D01*
X118119047Y-48885990D02*
X117547619Y-49457419D01*
X117547619Y-49457419D02*
X118166666Y-49457419D01*
D12*
X124857142Y-63359580D02*
X124809523Y-63407200D01*
X124809523Y-63407200D02*
X124666666Y-63454819D01*
X124666666Y-63454819D02*
X124571428Y-63454819D01*
X124571428Y-63454819D02*
X124428571Y-63407200D01*
X124428571Y-63407200D02*
X124333333Y-63311961D01*
X124333333Y-63311961D02*
X124285714Y-63216723D01*
X124285714Y-63216723D02*
X124238095Y-63026247D01*
X124238095Y-63026247D02*
X124238095Y-62883390D01*
X124238095Y-62883390D02*
X124285714Y-62692914D01*
X124285714Y-62692914D02*
X124333333Y-62597676D01*
X124333333Y-62597676D02*
X124428571Y-62502438D01*
X124428571Y-62502438D02*
X124571428Y-62454819D01*
X124571428Y-62454819D02*
X124666666Y-62454819D01*
X124666666Y-62454819D02*
X124809523Y-62502438D01*
X124809523Y-62502438D02*
X124857142Y-62550057D01*
X125809523Y-63454819D02*
X125238095Y-63454819D01*
X125523809Y-63454819D02*
X125523809Y-62454819D01*
X125523809Y-62454819D02*
X125428571Y-62597676D01*
X125428571Y-62597676D02*
X125333333Y-62692914D01*
X125333333Y-62692914D02*
X125238095Y-62740533D01*
X126714285Y-62454819D02*
X126238095Y-62454819D01*
X126238095Y-62454819D02*
X126190476Y-62931009D01*
X126190476Y-62931009D02*
X126238095Y-62883390D01*
X126238095Y-62883390D02*
X126333333Y-62835771D01*
X126333333Y-62835771D02*
X126571428Y-62835771D01*
X126571428Y-62835771D02*
X126666666Y-62883390D01*
X126666666Y-62883390D02*
X126714285Y-62931009D01*
X126714285Y-62931009D02*
X126761904Y-63026247D01*
X126761904Y-63026247D02*
X126761904Y-63264342D01*
X126761904Y-63264342D02*
X126714285Y-63359580D01*
X126714285Y-63359580D02*
X126666666Y-63407200D01*
X126666666Y-63407200D02*
X126571428Y-63454819D01*
X126571428Y-63454819D02*
X126333333Y-63454819D01*
X126333333Y-63454819D02*
X126238095Y-63407200D01*
X126238095Y-63407200D02*
X126190476Y-63359580D01*
X174357142Y-94954819D02*
X174023809Y-94478628D01*
X173785714Y-94954819D02*
X173785714Y-93954819D01*
X173785714Y-93954819D02*
X174166666Y-93954819D01*
X174166666Y-93954819D02*
X174261904Y-94002438D01*
X174261904Y-94002438D02*
X174309523Y-94050057D01*
X174309523Y-94050057D02*
X174357142Y-94145295D01*
X174357142Y-94145295D02*
X174357142Y-94288152D01*
X174357142Y-94288152D02*
X174309523Y-94383390D01*
X174309523Y-94383390D02*
X174261904Y-94431009D01*
X174261904Y-94431009D02*
X174166666Y-94478628D01*
X174166666Y-94478628D02*
X173785714Y-94478628D01*
X175309523Y-94954819D02*
X174738095Y-94954819D01*
X175023809Y-94954819D02*
X175023809Y-93954819D01*
X175023809Y-93954819D02*
X174928571Y-94097676D01*
X174928571Y-94097676D02*
X174833333Y-94192914D01*
X174833333Y-94192914D02*
X174738095Y-94240533D01*
X175880952Y-94383390D02*
X175785714Y-94335771D01*
X175785714Y-94335771D02*
X175738095Y-94288152D01*
X175738095Y-94288152D02*
X175690476Y-94192914D01*
X175690476Y-94192914D02*
X175690476Y-94145295D01*
X175690476Y-94145295D02*
X175738095Y-94050057D01*
X175738095Y-94050057D02*
X175785714Y-94002438D01*
X175785714Y-94002438D02*
X175880952Y-93954819D01*
X175880952Y-93954819D02*
X176071428Y-93954819D01*
X176071428Y-93954819D02*
X176166666Y-94002438D01*
X176166666Y-94002438D02*
X176214285Y-94050057D01*
X176214285Y-94050057D02*
X176261904Y-94145295D01*
X176261904Y-94145295D02*
X176261904Y-94192914D01*
X176261904Y-94192914D02*
X176214285Y-94288152D01*
X176214285Y-94288152D02*
X176166666Y-94335771D01*
X176166666Y-94335771D02*
X176071428Y-94383390D01*
X176071428Y-94383390D02*
X175880952Y-94383390D01*
X175880952Y-94383390D02*
X175785714Y-94431009D01*
X175785714Y-94431009D02*
X175738095Y-94478628D01*
X175738095Y-94478628D02*
X175690476Y-94573866D01*
X175690476Y-94573866D02*
X175690476Y-94764342D01*
X175690476Y-94764342D02*
X175738095Y-94859580D01*
X175738095Y-94859580D02*
X175785714Y-94907200D01*
X175785714Y-94907200D02*
X175880952Y-94954819D01*
X175880952Y-94954819D02*
X176071428Y-94954819D01*
X176071428Y-94954819D02*
X176166666Y-94907200D01*
X176166666Y-94907200D02*
X176214285Y-94859580D01*
X176214285Y-94859580D02*
X176261904Y-94764342D01*
X176261904Y-94764342D02*
X176261904Y-94573866D01*
X176261904Y-94573866D02*
X176214285Y-94478628D01*
X176214285Y-94478628D02*
X176166666Y-94431009D01*
X176166666Y-94431009D02*
X176071428Y-94383390D01*
X152357142Y-98954819D02*
X152023809Y-98478628D01*
X151785714Y-98954819D02*
X151785714Y-97954819D01*
X151785714Y-97954819D02*
X152166666Y-97954819D01*
X152166666Y-97954819D02*
X152261904Y-98002438D01*
X152261904Y-98002438D02*
X152309523Y-98050057D01*
X152309523Y-98050057D02*
X152357142Y-98145295D01*
X152357142Y-98145295D02*
X152357142Y-98288152D01*
X152357142Y-98288152D02*
X152309523Y-98383390D01*
X152309523Y-98383390D02*
X152261904Y-98431009D01*
X152261904Y-98431009D02*
X152166666Y-98478628D01*
X152166666Y-98478628D02*
X151785714Y-98478628D01*
X152738095Y-98050057D02*
X152785714Y-98002438D01*
X152785714Y-98002438D02*
X152880952Y-97954819D01*
X152880952Y-97954819D02*
X153119047Y-97954819D01*
X153119047Y-97954819D02*
X153214285Y-98002438D01*
X153214285Y-98002438D02*
X153261904Y-98050057D01*
X153261904Y-98050057D02*
X153309523Y-98145295D01*
X153309523Y-98145295D02*
X153309523Y-98240533D01*
X153309523Y-98240533D02*
X153261904Y-98383390D01*
X153261904Y-98383390D02*
X152690476Y-98954819D01*
X152690476Y-98954819D02*
X153309523Y-98954819D01*
X154166666Y-97954819D02*
X153976190Y-97954819D01*
X153976190Y-97954819D02*
X153880952Y-98002438D01*
X153880952Y-98002438D02*
X153833333Y-98050057D01*
X153833333Y-98050057D02*
X153738095Y-98192914D01*
X153738095Y-98192914D02*
X153690476Y-98383390D01*
X153690476Y-98383390D02*
X153690476Y-98764342D01*
X153690476Y-98764342D02*
X153738095Y-98859580D01*
X153738095Y-98859580D02*
X153785714Y-98907200D01*
X153785714Y-98907200D02*
X153880952Y-98954819D01*
X153880952Y-98954819D02*
X154071428Y-98954819D01*
X154071428Y-98954819D02*
X154166666Y-98907200D01*
X154166666Y-98907200D02*
X154214285Y-98859580D01*
X154214285Y-98859580D02*
X154261904Y-98764342D01*
X154261904Y-98764342D02*
X154261904Y-98526247D01*
X154261904Y-98526247D02*
X154214285Y-98431009D01*
X154214285Y-98431009D02*
X154166666Y-98383390D01*
X154166666Y-98383390D02*
X154071428Y-98335771D01*
X154071428Y-98335771D02*
X153880952Y-98335771D01*
X153880952Y-98335771D02*
X153785714Y-98383390D01*
X153785714Y-98383390D02*
X153738095Y-98431009D01*
X153738095Y-98431009D02*
X153690476Y-98526247D01*
X173359580Y-89642857D02*
X173407200Y-89690476D01*
X173407200Y-89690476D02*
X173454819Y-89833333D01*
X173454819Y-89833333D02*
X173454819Y-89928571D01*
X173454819Y-89928571D02*
X173407200Y-90071428D01*
X173407200Y-90071428D02*
X173311961Y-90166666D01*
X173311961Y-90166666D02*
X173216723Y-90214285D01*
X173216723Y-90214285D02*
X173026247Y-90261904D01*
X173026247Y-90261904D02*
X172883390Y-90261904D01*
X172883390Y-90261904D02*
X172692914Y-90214285D01*
X172692914Y-90214285D02*
X172597676Y-90166666D01*
X172597676Y-90166666D02*
X172502438Y-90071428D01*
X172502438Y-90071428D02*
X172454819Y-89928571D01*
X172454819Y-89928571D02*
X172454819Y-89833333D01*
X172454819Y-89833333D02*
X172502438Y-89690476D01*
X172502438Y-89690476D02*
X172550057Y-89642857D01*
X173454819Y-88690476D02*
X173454819Y-89261904D01*
X173454819Y-88976190D02*
X172454819Y-88976190D01*
X172454819Y-88976190D02*
X172597676Y-89071428D01*
X172597676Y-89071428D02*
X172692914Y-89166666D01*
X172692914Y-89166666D02*
X172740533Y-89261904D01*
X172454819Y-87833333D02*
X172454819Y-88023809D01*
X172454819Y-88023809D02*
X172502438Y-88119047D01*
X172502438Y-88119047D02*
X172550057Y-88166666D01*
X172550057Y-88166666D02*
X172692914Y-88261904D01*
X172692914Y-88261904D02*
X172883390Y-88309523D01*
X172883390Y-88309523D02*
X173264342Y-88309523D01*
X173264342Y-88309523D02*
X173359580Y-88261904D01*
X173359580Y-88261904D02*
X173407200Y-88214285D01*
X173407200Y-88214285D02*
X173454819Y-88119047D01*
X173454819Y-88119047D02*
X173454819Y-87928571D01*
X173454819Y-87928571D02*
X173407200Y-87833333D01*
X173407200Y-87833333D02*
X173359580Y-87785714D01*
X173359580Y-87785714D02*
X173264342Y-87738095D01*
X173264342Y-87738095D02*
X173026247Y-87738095D01*
X173026247Y-87738095D02*
X172931009Y-87785714D01*
X172931009Y-87785714D02*
X172883390Y-87833333D01*
X172883390Y-87833333D02*
X172835771Y-87928571D01*
X172835771Y-87928571D02*
X172835771Y-88119047D01*
X172835771Y-88119047D02*
X172883390Y-88214285D01*
X172883390Y-88214285D02*
X172931009Y-88261904D01*
X172931009Y-88261904D02*
X173026247Y-88309523D01*
D13*
X104880952Y-109457419D02*
X104404762Y-109457419D01*
X104404762Y-109457419D02*
X104404762Y-108457419D01*
X105214286Y-108933609D02*
X105547619Y-108933609D01*
X105690476Y-109457419D02*
X105214286Y-109457419D01*
X105214286Y-109457419D02*
X105214286Y-108457419D01*
X105214286Y-108457419D02*
X105690476Y-108457419D01*
X106119048Y-109457419D02*
X106119048Y-108457419D01*
X106119048Y-108457419D02*
X106357143Y-108457419D01*
X106357143Y-108457419D02*
X106500000Y-108505038D01*
X106500000Y-108505038D02*
X106595238Y-108600276D01*
X106595238Y-108600276D02*
X106642857Y-108695514D01*
X106642857Y-108695514D02*
X106690476Y-108885990D01*
X106690476Y-108885990D02*
X106690476Y-109028847D01*
X106690476Y-109028847D02*
X106642857Y-109219323D01*
X106642857Y-109219323D02*
X106595238Y-109314561D01*
X106595238Y-109314561D02*
X106500000Y-109409800D01*
X106500000Y-109409800D02*
X106357143Y-109457419D01*
X106357143Y-109457419D02*
X106119048Y-109457419D01*
X107642857Y-109457419D02*
X107071429Y-109457419D01*
X107357143Y-109457419D02*
X107357143Y-108457419D01*
X107357143Y-108457419D02*
X107261905Y-108600276D01*
X107261905Y-108600276D02*
X107166667Y-108695514D01*
X107166667Y-108695514D02*
X107071429Y-108743133D01*
D12*
X166954819Y-97642857D02*
X166478628Y-97976190D01*
X166954819Y-98214285D02*
X165954819Y-98214285D01*
X165954819Y-98214285D02*
X165954819Y-97833333D01*
X165954819Y-97833333D02*
X166002438Y-97738095D01*
X166002438Y-97738095D02*
X166050057Y-97690476D01*
X166050057Y-97690476D02*
X166145295Y-97642857D01*
X166145295Y-97642857D02*
X166288152Y-97642857D01*
X166288152Y-97642857D02*
X166383390Y-97690476D01*
X166383390Y-97690476D02*
X166431009Y-97738095D01*
X166431009Y-97738095D02*
X166478628Y-97833333D01*
X166478628Y-97833333D02*
X166478628Y-98214285D01*
X166954819Y-96690476D02*
X166954819Y-97261904D01*
X166954819Y-96976190D02*
X165954819Y-96976190D01*
X165954819Y-96976190D02*
X166097676Y-97071428D01*
X166097676Y-97071428D02*
X166192914Y-97166666D01*
X166192914Y-97166666D02*
X166240533Y-97261904D01*
X165954819Y-96357142D02*
X165954819Y-95738095D01*
X165954819Y-95738095D02*
X166335771Y-96071428D01*
X166335771Y-96071428D02*
X166335771Y-95928571D01*
X166335771Y-95928571D02*
X166383390Y-95833333D01*
X166383390Y-95833333D02*
X166431009Y-95785714D01*
X166431009Y-95785714D02*
X166526247Y-95738095D01*
X166526247Y-95738095D02*
X166764342Y-95738095D01*
X166764342Y-95738095D02*
X166859580Y-95785714D01*
X166859580Y-95785714D02*
X166907200Y-95833333D01*
X166907200Y-95833333D02*
X166954819Y-95928571D01*
X166954819Y-95928571D02*
X166954819Y-96214285D01*
X166954819Y-96214285D02*
X166907200Y-96309523D01*
X166907200Y-96309523D02*
X166859580Y-96357142D01*
X175954819Y-90642857D02*
X175478628Y-90976190D01*
X175954819Y-91214285D02*
X174954819Y-91214285D01*
X174954819Y-91214285D02*
X174954819Y-90833333D01*
X174954819Y-90833333D02*
X175002438Y-90738095D01*
X175002438Y-90738095D02*
X175050057Y-90690476D01*
X175050057Y-90690476D02*
X175145295Y-90642857D01*
X175145295Y-90642857D02*
X175288152Y-90642857D01*
X175288152Y-90642857D02*
X175383390Y-90690476D01*
X175383390Y-90690476D02*
X175431009Y-90738095D01*
X175431009Y-90738095D02*
X175478628Y-90833333D01*
X175478628Y-90833333D02*
X175478628Y-91214285D01*
X175050057Y-90261904D02*
X175002438Y-90214285D01*
X175002438Y-90214285D02*
X174954819Y-90119047D01*
X174954819Y-90119047D02*
X174954819Y-89880952D01*
X174954819Y-89880952D02*
X175002438Y-89785714D01*
X175002438Y-89785714D02*
X175050057Y-89738095D01*
X175050057Y-89738095D02*
X175145295Y-89690476D01*
X175145295Y-89690476D02*
X175240533Y-89690476D01*
X175240533Y-89690476D02*
X175383390Y-89738095D01*
X175383390Y-89738095D02*
X175954819Y-90309523D01*
X175954819Y-90309523D02*
X175954819Y-89690476D01*
X174954819Y-89357142D02*
X174954819Y-88738095D01*
X174954819Y-88738095D02*
X175335771Y-89071428D01*
X175335771Y-89071428D02*
X175335771Y-88928571D01*
X175335771Y-88928571D02*
X175383390Y-88833333D01*
X175383390Y-88833333D02*
X175431009Y-88785714D01*
X175431009Y-88785714D02*
X175526247Y-88738095D01*
X175526247Y-88738095D02*
X175764342Y-88738095D01*
X175764342Y-88738095D02*
X175859580Y-88785714D01*
X175859580Y-88785714D02*
X175907200Y-88833333D01*
X175907200Y-88833333D02*
X175954819Y-88928571D01*
X175954819Y-88928571D02*
X175954819Y-89214285D01*
X175954819Y-89214285D02*
X175907200Y-89309523D01*
X175907200Y-89309523D02*
X175859580Y-89357142D01*
X109954819Y-97166666D02*
X109478628Y-97499999D01*
X109954819Y-97738094D02*
X108954819Y-97738094D01*
X108954819Y-97738094D02*
X108954819Y-97357142D01*
X108954819Y-97357142D02*
X109002438Y-97261904D01*
X109002438Y-97261904D02*
X109050057Y-97214285D01*
X109050057Y-97214285D02*
X109145295Y-97166666D01*
X109145295Y-97166666D02*
X109288152Y-97166666D01*
X109288152Y-97166666D02*
X109383390Y-97214285D01*
X109383390Y-97214285D02*
X109431009Y-97261904D01*
X109431009Y-97261904D02*
X109478628Y-97357142D01*
X109478628Y-97357142D02*
X109478628Y-97738094D01*
X109954819Y-96214285D02*
X109954819Y-96785713D01*
X109954819Y-96499999D02*
X108954819Y-96499999D01*
X108954819Y-96499999D02*
X109097676Y-96595237D01*
X109097676Y-96595237D02*
X109192914Y-96690475D01*
X109192914Y-96690475D02*
X109240533Y-96785713D01*
X167357142Y-105454819D02*
X167023809Y-104978628D01*
X166785714Y-105454819D02*
X166785714Y-104454819D01*
X166785714Y-104454819D02*
X167166666Y-104454819D01*
X167166666Y-104454819D02*
X167261904Y-104502438D01*
X167261904Y-104502438D02*
X167309523Y-104550057D01*
X167309523Y-104550057D02*
X167357142Y-104645295D01*
X167357142Y-104645295D02*
X167357142Y-104788152D01*
X167357142Y-104788152D02*
X167309523Y-104883390D01*
X167309523Y-104883390D02*
X167261904Y-104931009D01*
X167261904Y-104931009D02*
X167166666Y-104978628D01*
X167166666Y-104978628D02*
X166785714Y-104978628D01*
X168309523Y-105454819D02*
X167738095Y-105454819D01*
X168023809Y-105454819D02*
X168023809Y-104454819D01*
X168023809Y-104454819D02*
X167928571Y-104597676D01*
X167928571Y-104597676D02*
X167833333Y-104692914D01*
X167833333Y-104692914D02*
X167738095Y-104740533D01*
X169261904Y-105454819D02*
X168690476Y-105454819D01*
X168976190Y-105454819D02*
X168976190Y-104454819D01*
X168976190Y-104454819D02*
X168880952Y-104597676D01*
X168880952Y-104597676D02*
X168785714Y-104692914D01*
X168785714Y-104692914D02*
X168690476Y-104740533D01*
X126333333Y-106859580D02*
X126285714Y-106907200D01*
X126285714Y-106907200D02*
X126142857Y-106954819D01*
X126142857Y-106954819D02*
X126047619Y-106954819D01*
X126047619Y-106954819D02*
X125904762Y-106907200D01*
X125904762Y-106907200D02*
X125809524Y-106811961D01*
X125809524Y-106811961D02*
X125761905Y-106716723D01*
X125761905Y-106716723D02*
X125714286Y-106526247D01*
X125714286Y-106526247D02*
X125714286Y-106383390D01*
X125714286Y-106383390D02*
X125761905Y-106192914D01*
X125761905Y-106192914D02*
X125809524Y-106097676D01*
X125809524Y-106097676D02*
X125904762Y-106002438D01*
X125904762Y-106002438D02*
X126047619Y-105954819D01*
X126047619Y-105954819D02*
X126142857Y-105954819D01*
X126142857Y-105954819D02*
X126285714Y-106002438D01*
X126285714Y-106002438D02*
X126333333Y-106050057D01*
X126666667Y-105954819D02*
X127285714Y-105954819D01*
X127285714Y-105954819D02*
X126952381Y-106335771D01*
X126952381Y-106335771D02*
X127095238Y-106335771D01*
X127095238Y-106335771D02*
X127190476Y-106383390D01*
X127190476Y-106383390D02*
X127238095Y-106431009D01*
X127238095Y-106431009D02*
X127285714Y-106526247D01*
X127285714Y-106526247D02*
X127285714Y-106764342D01*
X127285714Y-106764342D02*
X127238095Y-106859580D01*
X127238095Y-106859580D02*
X127190476Y-106907200D01*
X127190476Y-106907200D02*
X127095238Y-106954819D01*
X127095238Y-106954819D02*
X126809524Y-106954819D01*
X126809524Y-106954819D02*
X126714286Y-106907200D01*
X126714286Y-106907200D02*
X126666667Y-106859580D01*
X124333333Y-107454819D02*
X124000000Y-106978628D01*
X123761905Y-107454819D02*
X123761905Y-106454819D01*
X123761905Y-106454819D02*
X124142857Y-106454819D01*
X124142857Y-106454819D02*
X124238095Y-106502438D01*
X124238095Y-106502438D02*
X124285714Y-106550057D01*
X124285714Y-106550057D02*
X124333333Y-106645295D01*
X124333333Y-106645295D02*
X124333333Y-106788152D01*
X124333333Y-106788152D02*
X124285714Y-106883390D01*
X124285714Y-106883390D02*
X124238095Y-106931009D01*
X124238095Y-106931009D02*
X124142857Y-106978628D01*
X124142857Y-106978628D02*
X123761905Y-106978628D01*
X125238095Y-106454819D02*
X124761905Y-106454819D01*
X124761905Y-106454819D02*
X124714286Y-106931009D01*
X124714286Y-106931009D02*
X124761905Y-106883390D01*
X124761905Y-106883390D02*
X124857143Y-106835771D01*
X124857143Y-106835771D02*
X125095238Y-106835771D01*
X125095238Y-106835771D02*
X125190476Y-106883390D01*
X125190476Y-106883390D02*
X125238095Y-106931009D01*
X125238095Y-106931009D02*
X125285714Y-107026247D01*
X125285714Y-107026247D02*
X125285714Y-107264342D01*
X125285714Y-107264342D02*
X125238095Y-107359580D01*
X125238095Y-107359580D02*
X125190476Y-107407200D01*
X125190476Y-107407200D02*
X125095238Y-107454819D01*
X125095238Y-107454819D02*
X124857143Y-107454819D01*
X124857143Y-107454819D02*
X124761905Y-107407200D01*
X124761905Y-107407200D02*
X124714286Y-107359580D01*
X137243095Y-91504819D02*
X137243095Y-92314342D01*
X137243095Y-92314342D02*
X137290714Y-92409580D01*
X137290714Y-92409580D02*
X137338333Y-92457200D01*
X137338333Y-92457200D02*
X137433571Y-92504819D01*
X137433571Y-92504819D02*
X137624047Y-92504819D01*
X137624047Y-92504819D02*
X137719285Y-92457200D01*
X137719285Y-92457200D02*
X137766904Y-92409580D01*
X137766904Y-92409580D02*
X137814523Y-92314342D01*
X137814523Y-92314342D02*
X137814523Y-91504819D01*
X138814523Y-92504819D02*
X138243095Y-92504819D01*
X138528809Y-92504819D02*
X138528809Y-91504819D01*
X138528809Y-91504819D02*
X138433571Y-91647676D01*
X138433571Y-91647676D02*
X138338333Y-91742914D01*
X138338333Y-91742914D02*
X138243095Y-91790533D01*
X158954819Y-99642857D02*
X158478628Y-99976190D01*
X158954819Y-100214285D02*
X157954819Y-100214285D01*
X157954819Y-100214285D02*
X157954819Y-99833333D01*
X157954819Y-99833333D02*
X158002438Y-99738095D01*
X158002438Y-99738095D02*
X158050057Y-99690476D01*
X158050057Y-99690476D02*
X158145295Y-99642857D01*
X158145295Y-99642857D02*
X158288152Y-99642857D01*
X158288152Y-99642857D02*
X158383390Y-99690476D01*
X158383390Y-99690476D02*
X158431009Y-99738095D01*
X158431009Y-99738095D02*
X158478628Y-99833333D01*
X158478628Y-99833333D02*
X158478628Y-100214285D01*
X158954819Y-98690476D02*
X158954819Y-99261904D01*
X158954819Y-98976190D02*
X157954819Y-98976190D01*
X157954819Y-98976190D02*
X158097676Y-99071428D01*
X158097676Y-99071428D02*
X158192914Y-99166666D01*
X158192914Y-99166666D02*
X158240533Y-99261904D01*
X157954819Y-97785714D02*
X157954819Y-98261904D01*
X157954819Y-98261904D02*
X158431009Y-98309523D01*
X158431009Y-98309523D02*
X158383390Y-98261904D01*
X158383390Y-98261904D02*
X158335771Y-98166666D01*
X158335771Y-98166666D02*
X158335771Y-97928571D01*
X158335771Y-97928571D02*
X158383390Y-97833333D01*
X158383390Y-97833333D02*
X158431009Y-97785714D01*
X158431009Y-97785714D02*
X158526247Y-97738095D01*
X158526247Y-97738095D02*
X158764342Y-97738095D01*
X158764342Y-97738095D02*
X158859580Y-97785714D01*
X158859580Y-97785714D02*
X158907200Y-97833333D01*
X158907200Y-97833333D02*
X158954819Y-97928571D01*
X158954819Y-97928571D02*
X158954819Y-98166666D01*
X158954819Y-98166666D02*
X158907200Y-98261904D01*
X158907200Y-98261904D02*
X158859580Y-98309523D01*
X165857142Y-102454819D02*
X165523809Y-101978628D01*
X165285714Y-102454819D02*
X165285714Y-101454819D01*
X165285714Y-101454819D02*
X165666666Y-101454819D01*
X165666666Y-101454819D02*
X165761904Y-101502438D01*
X165761904Y-101502438D02*
X165809523Y-101550057D01*
X165809523Y-101550057D02*
X165857142Y-101645295D01*
X165857142Y-101645295D02*
X165857142Y-101788152D01*
X165857142Y-101788152D02*
X165809523Y-101883390D01*
X165809523Y-101883390D02*
X165761904Y-101931009D01*
X165761904Y-101931009D02*
X165666666Y-101978628D01*
X165666666Y-101978628D02*
X165285714Y-101978628D01*
X166809523Y-102454819D02*
X166238095Y-102454819D01*
X166523809Y-102454819D02*
X166523809Y-101454819D01*
X166523809Y-101454819D02*
X166428571Y-101597676D01*
X166428571Y-101597676D02*
X166333333Y-101692914D01*
X166333333Y-101692914D02*
X166238095Y-101740533D01*
X167142857Y-101454819D02*
X167809523Y-101454819D01*
X167809523Y-101454819D02*
X167380952Y-102454819D01*
D13*
X112714285Y-108933609D02*
X112380952Y-108933609D01*
X112380952Y-109457419D02*
X112380952Y-108457419D01*
X112380952Y-108457419D02*
X112857142Y-108457419D01*
X113142857Y-108457419D02*
X113809523Y-109457419D01*
X113809523Y-108457419D02*
X113142857Y-109457419D01*
X114380952Y-108457419D02*
X114476190Y-108457419D01*
X114476190Y-108457419D02*
X114571428Y-108505038D01*
X114571428Y-108505038D02*
X114619047Y-108552657D01*
X114619047Y-108552657D02*
X114666666Y-108647895D01*
X114666666Y-108647895D02*
X114714285Y-108838371D01*
X114714285Y-108838371D02*
X114714285Y-109076466D01*
X114714285Y-109076466D02*
X114666666Y-109266942D01*
X114666666Y-109266942D02*
X114619047Y-109362180D01*
X114619047Y-109362180D02*
X114571428Y-109409800D01*
X114571428Y-109409800D02*
X114476190Y-109457419D01*
X114476190Y-109457419D02*
X114380952Y-109457419D01*
X114380952Y-109457419D02*
X114285714Y-109409800D01*
X114285714Y-109409800D02*
X114238095Y-109362180D01*
X114238095Y-109362180D02*
X114190476Y-109266942D01*
X114190476Y-109266942D02*
X114142857Y-109076466D01*
X114142857Y-109076466D02*
X114142857Y-108838371D01*
X114142857Y-108838371D02*
X114190476Y-108647895D01*
X114190476Y-108647895D02*
X114238095Y-108552657D01*
X114238095Y-108552657D02*
X114285714Y-108505038D01*
X114285714Y-108505038D02*
X114380952Y-108457419D01*
X115666666Y-109457419D02*
X115095238Y-109457419D01*
X115380952Y-109457419D02*
X115380952Y-108457419D01*
X115380952Y-108457419D02*
X115285714Y-108600276D01*
X115285714Y-108600276D02*
X115190476Y-108695514D01*
X115190476Y-108695514D02*
X115095238Y-108743133D01*
D12*
X135454819Y-63642857D02*
X134978628Y-63976190D01*
X135454819Y-64214285D02*
X134454819Y-64214285D01*
X134454819Y-64214285D02*
X134454819Y-63833333D01*
X134454819Y-63833333D02*
X134502438Y-63738095D01*
X134502438Y-63738095D02*
X134550057Y-63690476D01*
X134550057Y-63690476D02*
X134645295Y-63642857D01*
X134645295Y-63642857D02*
X134788152Y-63642857D01*
X134788152Y-63642857D02*
X134883390Y-63690476D01*
X134883390Y-63690476D02*
X134931009Y-63738095D01*
X134931009Y-63738095D02*
X134978628Y-63833333D01*
X134978628Y-63833333D02*
X134978628Y-64214285D01*
X134550057Y-63261904D02*
X134502438Y-63214285D01*
X134502438Y-63214285D02*
X134454819Y-63119047D01*
X134454819Y-63119047D02*
X134454819Y-62880952D01*
X134454819Y-62880952D02*
X134502438Y-62785714D01*
X134502438Y-62785714D02*
X134550057Y-62738095D01*
X134550057Y-62738095D02*
X134645295Y-62690476D01*
X134645295Y-62690476D02*
X134740533Y-62690476D01*
X134740533Y-62690476D02*
X134883390Y-62738095D01*
X134883390Y-62738095D02*
X135454819Y-63309523D01*
X135454819Y-63309523D02*
X135454819Y-62690476D01*
X135454819Y-62214285D02*
X135454819Y-62023809D01*
X135454819Y-62023809D02*
X135407200Y-61928571D01*
X135407200Y-61928571D02*
X135359580Y-61880952D01*
X135359580Y-61880952D02*
X135216723Y-61785714D01*
X135216723Y-61785714D02*
X135026247Y-61738095D01*
X135026247Y-61738095D02*
X134645295Y-61738095D01*
X134645295Y-61738095D02*
X134550057Y-61785714D01*
X134550057Y-61785714D02*
X134502438Y-61833333D01*
X134502438Y-61833333D02*
X134454819Y-61928571D01*
X134454819Y-61928571D02*
X134454819Y-62119047D01*
X134454819Y-62119047D02*
X134502438Y-62214285D01*
X134502438Y-62214285D02*
X134550057Y-62261904D01*
X134550057Y-62261904D02*
X134645295Y-62309523D01*
X134645295Y-62309523D02*
X134883390Y-62309523D01*
X134883390Y-62309523D02*
X134978628Y-62261904D01*
X134978628Y-62261904D02*
X135026247Y-62214285D01*
X135026247Y-62214285D02*
X135073866Y-62119047D01*
X135073866Y-62119047D02*
X135073866Y-61928571D01*
X135073866Y-61928571D02*
X135026247Y-61833333D01*
X135026247Y-61833333D02*
X134978628Y-61785714D01*
X134978628Y-61785714D02*
X134883390Y-61738095D01*
X151359580Y-66166666D02*
X151407200Y-66214285D01*
X151407200Y-66214285D02*
X151454819Y-66357142D01*
X151454819Y-66357142D02*
X151454819Y-66452380D01*
X151454819Y-66452380D02*
X151407200Y-66595237D01*
X151407200Y-66595237D02*
X151311961Y-66690475D01*
X151311961Y-66690475D02*
X151216723Y-66738094D01*
X151216723Y-66738094D02*
X151026247Y-66785713D01*
X151026247Y-66785713D02*
X150883390Y-66785713D01*
X150883390Y-66785713D02*
X150692914Y-66738094D01*
X150692914Y-66738094D02*
X150597676Y-66690475D01*
X150597676Y-66690475D02*
X150502438Y-66595237D01*
X150502438Y-66595237D02*
X150454819Y-66452380D01*
X150454819Y-66452380D02*
X150454819Y-66357142D01*
X150454819Y-66357142D02*
X150502438Y-66214285D01*
X150502438Y-66214285D02*
X150550057Y-66166666D01*
X150454819Y-65833332D02*
X150454819Y-65166666D01*
X150454819Y-65166666D02*
X151454819Y-65595237D01*
D14*
%TO.C,D7*%
X149530000Y-58720000D02*
X149530000Y-53280000D01*
X149660000Y-58720000D02*
X149530000Y-58720000D01*
X152340000Y-58720000D02*
X152470000Y-58720000D01*
X152470000Y-58720000D02*
X152470000Y-53280000D01*
X149530000Y-57940000D02*
X152470000Y-57940000D01*
X149530000Y-57820000D02*
X152470000Y-57820000D01*
X149530000Y-57700000D02*
X152470000Y-57700000D01*
X149530000Y-53280000D02*
X149660000Y-53280000D01*
X152470000Y-53280000D02*
X152340000Y-53280000D01*
%TO.C,R8*%
X99580000Y-83080000D02*
X99580000Y-86920000D01*
X101420000Y-83080000D02*
X101420000Y-86920000D01*
%TO.C,C12*%
X158620000Y-109000000D02*
G75*
G02*
X153380000Y-109000000I-2620000J0D01*
G01*
X153380000Y-109000000D02*
G75*
G02*
X158620000Y-109000000I2620000J0D01*
G01*
%TO.C,C10*%
X158620000Y-96000000D02*
G75*
G02*
X153380000Y-96000000I-2620000J0D01*
G01*
X153380000Y-96000000D02*
G75*
G02*
X158620000Y-96000000I2620000J0D01*
G01*
%TO.C,R22*%
X181580000Y-92080000D02*
X185420000Y-92080000D01*
X181580000Y-93920000D02*
X185420000Y-93920000D01*
%TO.C,C9*%
X104580000Y-85765000D02*
X104580000Y-84235000D01*
X106420000Y-84235000D02*
X106420000Y-85765000D01*
%TO.C,C2*%
X119280000Y-102630000D02*
X126720000Y-102630000D01*
X119280000Y-105370000D02*
X119280000Y-102630000D01*
X126720000Y-102630000D02*
X126720000Y-105370000D01*
X126720000Y-105370000D02*
X119280000Y-105370000D01*
%TO.C,C8*%
X102080000Y-85765000D02*
X102080000Y-84235000D01*
X103920000Y-84235000D02*
X103920000Y-85765000D01*
%TO.C,Q1*%
X140960000Y-53420000D02*
X140160000Y-53420000D01*
X140960000Y-53420000D02*
X141760000Y-53420000D01*
X141760000Y-53420000D02*
X141760000Y-54350000D01*
X141760000Y-56580000D02*
X140300000Y-56580000D01*
X141760000Y-56580000D02*
X141760000Y-55650000D01*
X139660000Y-53390000D02*
X139420000Y-53060000D01*
X139900000Y-53060000D01*
X139660000Y-53390000D01*
G36*
X139660000Y-53390000D02*
G01*
X139420000Y-53060000D01*
X139900000Y-53060000D01*
X139660000Y-53390000D01*
G37*
%TO.C,C1*%
X122620000Y-96000000D02*
G75*
G02*
X117380000Y-96000000I-2620000J0D01*
G01*
X117380000Y-96000000D02*
G75*
G02*
X122620000Y-96000000I2620000J0D01*
G01*
%TO.C,R2*%
X124730000Y-92630000D02*
X131270000Y-92630000D01*
X124730000Y-92960000D02*
X124730000Y-92630000D01*
X124730000Y-95040000D02*
X124730000Y-95370000D01*
X124730000Y-95370000D02*
X131270000Y-95370000D01*
X131270000Y-92630000D02*
X131270000Y-92960000D01*
X131270000Y-95370000D02*
X131270000Y-95040000D01*
%TO.C,R14*%
X144730000Y-98630000D02*
X144730000Y-98960000D01*
X144730000Y-101370000D02*
X144730000Y-101040000D01*
X151270000Y-98630000D02*
X144730000Y-98630000D01*
X151270000Y-98960000D02*
X151270000Y-98630000D01*
X151270000Y-101040000D02*
X151270000Y-101370000D01*
X151270000Y-101370000D02*
X144730000Y-101370000D01*
%TO.C,R25*%
X124730000Y-95630000D02*
X131270000Y-95630000D01*
X124730000Y-95960000D02*
X124730000Y-95630000D01*
X124730000Y-98040000D02*
X124730000Y-98370000D01*
X124730000Y-98370000D02*
X131270000Y-98370000D01*
X131270000Y-95630000D02*
X131270000Y-95960000D01*
X131270000Y-98370000D02*
X131270000Y-98040000D01*
%TO.C,R24*%
X167080000Y-83080000D02*
X167080000Y-86920000D01*
X168920000Y-83080000D02*
X168920000Y-86920000D01*
D13*
%TO.C,J1*%
X90500000Y-50000000D02*
X90500000Y-47500000D01*
X92500000Y-50000000D02*
X90500000Y-50000000D01*
X92500000Y-50000000D02*
X92500000Y-72000000D01*
X102500000Y-50000000D02*
X102500000Y-72000000D01*
X102500000Y-72000000D02*
X92500000Y-72000000D01*
X104500000Y-47500000D02*
X104500000Y-50000000D01*
X104500000Y-50000000D02*
X102500000Y-50000000D01*
D14*
%TO.C,C11*%
X148620000Y-105000000D02*
G75*
G02*
X143380000Y-105000000I-2620000J0D01*
G01*
X143380000Y-105000000D02*
G75*
G02*
X148620000Y-105000000I2620000J0D01*
G01*
D13*
%TO.C,J4*%
X171500000Y-50000000D02*
X171500000Y-47500000D01*
X173500000Y-50000000D02*
X171500000Y-50000000D01*
X173500000Y-50000000D02*
X173500000Y-72000000D01*
X183500000Y-50000000D02*
X183500000Y-72000000D01*
X183500000Y-72000000D02*
X173500000Y-72000000D01*
X185500000Y-47500000D02*
X185500000Y-50000000D01*
X185500000Y-50000000D02*
X183500000Y-50000000D01*
D14*
%TO.C,SEED1*%
X111895000Y-78000000D02*
X113095000Y-78000000D01*
X111895000Y-86000000D02*
X111895000Y-78000000D01*
X112795000Y-88900000D02*
X112795000Y-91200000D01*
X112795000Y-91200000D02*
X115195000Y-91200000D01*
X113095000Y-73100000D02*
X164095000Y-73100000D01*
X113095000Y-75620000D02*
X164095000Y-75620000D01*
X113095000Y-86000000D02*
X111895000Y-86000000D01*
X113095000Y-88420000D02*
X164095000Y-88420000D01*
X113095000Y-90900000D02*
X113095000Y-73100000D01*
X164095000Y-73100000D02*
X164095000Y-90900000D01*
X164095000Y-90900000D02*
X113095000Y-90900000D01*
D13*
%TO.C,J5*%
X128500000Y-45900000D02*
X128500000Y-52900000D01*
X128500000Y-45900000D02*
X137500000Y-45900000D01*
X128500000Y-57900000D02*
X128500000Y-57900000D01*
X128500000Y-57900000D02*
X130500000Y-57900000D01*
X137500000Y-45900000D02*
X137500000Y-57900000D01*
X137500000Y-57900000D02*
X135500000Y-57900000D01*
D14*
%TO.C,R6*%
X110730000Y-102630000D02*
X110730000Y-102960000D01*
X110730000Y-105370000D02*
X110730000Y-105040000D01*
X117270000Y-102630000D02*
X110730000Y-102630000D01*
X117270000Y-102960000D02*
X117270000Y-102630000D01*
X117270000Y-105040000D02*
X117270000Y-105370000D01*
X117270000Y-105370000D02*
X110730000Y-105370000D01*
%TO.C,U2*%
X137890000Y-47740000D02*
X148110000Y-47740000D01*
X137890000Y-49120000D02*
X148110000Y-49120000D01*
X137890000Y-52360000D02*
X137890000Y-47740000D01*
X141150000Y-47740000D02*
X141150000Y-49120000D01*
X144850000Y-47740000D02*
X144850000Y-49120000D01*
X148110000Y-47740000D02*
X148110000Y-52360000D01*
X148110000Y-52360000D02*
X137890000Y-52360000D01*
D13*
%TO.C,J3*%
X151500000Y-50000000D02*
X151500000Y-47500000D01*
X153500000Y-50000000D02*
X151500000Y-50000000D01*
X153500000Y-50000000D02*
X153500000Y-72000000D01*
X163500000Y-50000000D02*
X163500000Y-72000000D01*
X163500000Y-72000000D02*
X153500000Y-72000000D01*
X165500000Y-47500000D02*
X165500000Y-50000000D01*
X165500000Y-50000000D02*
X163500000Y-50000000D01*
D14*
%TO.C,R7*%
X107080000Y-83080000D02*
X107080000Y-86920000D01*
X108920000Y-83080000D02*
X108920000Y-86920000D01*
%TO.C,R20*%
X138630000Y-59730000D02*
X138630000Y-66270000D01*
X138630000Y-66270000D02*
X138960000Y-66270000D01*
X138960000Y-59730000D02*
X138630000Y-59730000D01*
X141040000Y-59730000D02*
X141370000Y-59730000D01*
X141370000Y-59730000D02*
X141370000Y-66270000D01*
X141370000Y-66270000D02*
X141040000Y-66270000D01*
%TO.C,R3*%
X113630000Y-93730000D02*
X113960000Y-93730000D01*
X113630000Y-100270000D02*
X113630000Y-93730000D01*
X113960000Y-100270000D02*
X113630000Y-100270000D01*
X116040000Y-100270000D02*
X116370000Y-100270000D01*
X116370000Y-93730000D02*
X116040000Y-93730000D01*
X116370000Y-100270000D02*
X116370000Y-93730000D01*
%TO.C,C5*%
X148520000Y-64000000D02*
G75*
G02*
X141980000Y-64000000I-3270000J0D01*
G01*
X141980000Y-64000000D02*
G75*
G02*
X148520000Y-64000000I3270000J0D01*
G01*
%TO.C,R4*%
X124730000Y-98630000D02*
X131270000Y-98630000D01*
X124730000Y-98960000D02*
X124730000Y-98630000D01*
X124730000Y-101040000D02*
X124730000Y-101370000D01*
X124730000Y-101370000D02*
X131270000Y-101370000D01*
X131270000Y-98630000D02*
X131270000Y-98960000D01*
X131270000Y-101370000D02*
X131270000Y-101040000D01*
%TO.C,R19*%
X97730000Y-95630000D02*
X104270000Y-95630000D01*
X97730000Y-95960000D02*
X97730000Y-95630000D01*
X97730000Y-98040000D02*
X97730000Y-98370000D01*
X97730000Y-98370000D02*
X104270000Y-98370000D01*
X104270000Y-95630000D02*
X104270000Y-95960000D01*
X104270000Y-98370000D02*
X104270000Y-98040000D01*
%TO.C,R21*%
X128730000Y-68630000D02*
X128730000Y-68960000D01*
X128730000Y-71370000D02*
X128730000Y-71040000D01*
X135270000Y-68630000D02*
X128730000Y-68630000D01*
X135270000Y-68960000D02*
X135270000Y-68630000D01*
X135270000Y-71040000D02*
X135270000Y-71370000D01*
X135270000Y-71370000D02*
X128730000Y-71370000D01*
%TO.C,C4*%
X122620000Y-109000000D02*
G75*
G02*
X117380000Y-109000000I-2620000J0D01*
G01*
X117380000Y-109000000D02*
G75*
G02*
X122620000Y-109000000I2620000J0D01*
G01*
%TO.C,R10*%
X108730000Y-105630000D02*
X115270000Y-105630000D01*
X108730000Y-105960000D02*
X108730000Y-105630000D01*
X108730000Y-108040000D02*
X108730000Y-108370000D01*
X108730000Y-108370000D02*
X115270000Y-108370000D01*
X115270000Y-105630000D02*
X115270000Y-105960000D01*
X115270000Y-108370000D02*
X115270000Y-108040000D01*
%TO.C,R16*%
X144730000Y-108130000D02*
X151270000Y-108130000D01*
X144730000Y-108460000D02*
X144730000Y-108130000D01*
X144730000Y-110540000D02*
X144730000Y-110870000D01*
X144730000Y-110870000D02*
X151270000Y-110870000D01*
X151270000Y-108130000D02*
X151270000Y-108460000D01*
X151270000Y-110870000D02*
X151270000Y-110540000D01*
%TO.C,R28*%
X97730000Y-103630000D02*
X104270000Y-103630000D01*
X97730000Y-103960000D02*
X97730000Y-103630000D01*
X97730000Y-106040000D02*
X97730000Y-106370000D01*
X97730000Y-106370000D02*
X104270000Y-106370000D01*
X104270000Y-103630000D02*
X104270000Y-103960000D01*
X104270000Y-106370000D02*
X104270000Y-106040000D01*
%TO.C,C13*%
X149280000Y-102630000D02*
X156720000Y-102630000D01*
X149280000Y-105370000D02*
X149280000Y-102630000D01*
X156720000Y-102630000D02*
X156720000Y-105370000D01*
X156720000Y-105370000D02*
X149280000Y-105370000D01*
%TO.C,R27*%
X171730000Y-103630000D02*
X171730000Y-103960000D01*
X171730000Y-106370000D02*
X171730000Y-106040000D01*
X178270000Y-103630000D02*
X171730000Y-103630000D01*
X178270000Y-103960000D02*
X178270000Y-103630000D01*
X178270000Y-106040000D02*
X178270000Y-106370000D01*
X178270000Y-106370000D02*
X171730000Y-106370000D01*
%TO.C,R12*%
X144730000Y-92630000D02*
X144730000Y-92960000D01*
X144730000Y-95370000D02*
X144730000Y-95040000D01*
X151270000Y-92630000D02*
X144730000Y-92630000D01*
X151270000Y-92960000D02*
X151270000Y-92630000D01*
X151270000Y-95040000D02*
X151270000Y-95370000D01*
X151270000Y-95370000D02*
X144730000Y-95370000D01*
%TO.C,C6*%
X144130000Y-52780000D02*
X147870000Y-52780000D01*
X144130000Y-60220000D02*
X144130000Y-52780000D01*
X147870000Y-52780000D02*
X147870000Y-60220000D01*
X147870000Y-60220000D02*
X144130000Y-60220000D01*
%TO.C,C17*%
X169580000Y-85765000D02*
X169580000Y-84235000D01*
X171420000Y-84235000D02*
X171420000Y-85765000D01*
%TO.C,R9*%
X90580000Y-92080000D02*
X94420000Y-92080000D01*
X90580000Y-93920000D02*
X94420000Y-93920000D01*
D13*
%TO.C,J2*%
X110500000Y-50000000D02*
X110500000Y-47500000D01*
X112500000Y-50000000D02*
X110500000Y-50000000D01*
X112500000Y-50000000D02*
X112500000Y-72000000D01*
X122500000Y-50000000D02*
X122500000Y-72000000D01*
X122500000Y-72000000D02*
X112500000Y-72000000D01*
X124500000Y-47500000D02*
X124500000Y-50000000D01*
X124500000Y-50000000D02*
X122500000Y-50000000D01*
D14*
%TO.C,C15*%
X134020000Y-63000000D02*
G75*
G02*
X127480000Y-63000000I-3270000J0D01*
G01*
X127480000Y-63000000D02*
G75*
G02*
X134020000Y-63000000I3270000J0D01*
G01*
%TO.C,R18*%
X171730000Y-95630000D02*
X171730000Y-95960000D01*
X171730000Y-98370000D02*
X171730000Y-98040000D01*
X178270000Y-95630000D02*
X171730000Y-95630000D01*
X178270000Y-95960000D02*
X178270000Y-95630000D01*
X178270000Y-98040000D02*
X178270000Y-98370000D01*
X178270000Y-98370000D02*
X171730000Y-98370000D01*
%TO.C,R26*%
X144730000Y-95630000D02*
X144730000Y-95960000D01*
X144730000Y-98370000D02*
X144730000Y-98040000D01*
X151270000Y-95630000D02*
X144730000Y-95630000D01*
X151270000Y-95960000D02*
X151270000Y-95630000D01*
X151270000Y-98040000D02*
X151270000Y-98370000D01*
X151270000Y-98370000D02*
X144730000Y-98370000D01*
%TO.C,C16*%
X172080000Y-85765000D02*
X172080000Y-84235000D01*
X173920000Y-84235000D02*
X173920000Y-85765000D01*
%TO.C,R13*%
X162630000Y-93730000D02*
X162960000Y-93730000D01*
X162630000Y-100270000D02*
X162630000Y-93730000D01*
X162960000Y-100270000D02*
X162630000Y-100270000D01*
X165040000Y-100270000D02*
X165370000Y-100270000D01*
X165370000Y-93730000D02*
X165040000Y-93730000D01*
X165370000Y-100270000D02*
X165370000Y-93730000D01*
%TO.C,R23*%
X174580000Y-83080000D02*
X174580000Y-86920000D01*
X176420000Y-83080000D02*
X176420000Y-86920000D01*
%TO.C,R1*%
X110630000Y-93730000D02*
X110960000Y-93730000D01*
X110630000Y-100270000D02*
X110630000Y-93730000D01*
X110960000Y-100270000D02*
X110630000Y-100270000D01*
X113040000Y-100270000D02*
X113370000Y-100270000D01*
X113370000Y-93730000D02*
X113040000Y-93730000D01*
X113370000Y-100270000D02*
X113370000Y-93730000D01*
%TO.C,R11*%
X160730000Y-105630000D02*
X160730000Y-105960000D01*
X160730000Y-108370000D02*
X160730000Y-108040000D01*
X167270000Y-105630000D02*
X160730000Y-105630000D01*
X167270000Y-105960000D02*
X167270000Y-105630000D01*
X167270000Y-108040000D02*
X167270000Y-108370000D01*
X167270000Y-108370000D02*
X160730000Y-108370000D01*
%TO.C,C3*%
X132620000Y-105000000D02*
G75*
G02*
X127380000Y-105000000I-2620000J0D01*
G01*
X127380000Y-105000000D02*
G75*
G02*
X132620000Y-105000000I2620000J0D01*
G01*
%TO.C,R5*%
X124730000Y-108130000D02*
X131270000Y-108130000D01*
X124730000Y-108460000D02*
X124730000Y-108130000D01*
X124730000Y-110540000D02*
X124730000Y-110870000D01*
X124730000Y-110870000D02*
X131270000Y-110870000D01*
X131270000Y-108130000D02*
X131270000Y-108460000D01*
X131270000Y-110870000D02*
X131270000Y-110540000D01*
%TO.C,U1*%
X135355000Y-93050000D02*
X135355000Y-110950000D01*
X135355000Y-110950000D02*
X140655000Y-110950000D01*
X137005000Y-93050000D02*
X135355000Y-93050000D01*
X140655000Y-93050000D02*
X139005000Y-93050000D01*
X140655000Y-110950000D02*
X140655000Y-93050000D01*
X139005000Y-93050000D02*
G75*
G02*
X137005000Y-93050000I-1000000J0D01*
G01*
%TO.C,R15*%
X159630000Y-93730000D02*
X159960000Y-93730000D01*
X159630000Y-100270000D02*
X159630000Y-93730000D01*
X159960000Y-100270000D02*
X159630000Y-100270000D01*
X162040000Y-100270000D02*
X162370000Y-100270000D01*
X162370000Y-93730000D02*
X162040000Y-93730000D01*
X162370000Y-100270000D02*
X162370000Y-93730000D01*
%TO.C,R17*%
X158730000Y-102630000D02*
X165270000Y-102630000D01*
X158730000Y-102960000D02*
X158730000Y-102630000D01*
X158730000Y-105040000D02*
X158730000Y-105370000D01*
X158730000Y-105370000D02*
X165270000Y-105370000D01*
X165270000Y-102630000D02*
X165270000Y-102960000D01*
X165270000Y-105370000D02*
X165270000Y-105040000D01*
%TO.C,R29*%
X138370000Y-59730000D02*
X138370000Y-66270000D01*
X138370000Y-66270000D02*
X138040000Y-66270000D01*
X138040000Y-59730000D02*
X138370000Y-59730000D01*
X135960000Y-59730000D02*
X135630000Y-59730000D01*
X135630000Y-59730000D02*
X135630000Y-66270000D01*
X135630000Y-66270000D02*
X135960000Y-66270000D01*
%TO.C,C7*%
X152370000Y-62280000D02*
X152370000Y-69720000D01*
X152370000Y-69720000D02*
X149630000Y-69720000D01*
X149630000Y-62280000D02*
X152370000Y-62280000D01*
X149630000Y-69720000D02*
X149630000Y-62280000D01*
%TD*%
%LPC*%
D15*
%TO.C,D7*%
X151000000Y-59810000D03*
D16*
X151000000Y-52190000D03*
%TD*%
D17*
%TO.C,R8*%
X100500000Y-82460000D03*
X100500000Y-87540000D03*
%TD*%
D18*
%TO.C,JI1*%
X85000000Y-110000000D03*
%TD*%
%TO.C,C12*%
X155000000Y-109000000D03*
X157000000Y-109000000D03*
%TD*%
%TO.C,C10*%
X157000000Y-96000000D03*
X155000000Y-96000000D03*
%TD*%
D17*
%TO.C,R22*%
X180960000Y-93000000D03*
X186040000Y-93000000D03*
%TD*%
D18*
%TO.C,C9*%
X105500000Y-86250000D03*
X105500000Y-83750000D03*
%TD*%
%TO.C,C2*%
X120500000Y-104000000D03*
X125500000Y-104000000D03*
%TD*%
%TO.C,C8*%
X103000000Y-83750000D03*
X103000000Y-86250000D03*
%TD*%
D19*
%TO.C,Q1*%
X139500000Y-54050000D03*
X139500000Y-55950000D03*
X142500000Y-55000000D03*
%TD*%
D18*
%TO.C,C1*%
X119000000Y-96000000D03*
X121000000Y-96000000D03*
%TD*%
%TO.C,R2*%
X124190000Y-94000000D03*
X131810000Y-94000000D03*
%TD*%
%TO.C,FXI2*%
X162000000Y-110500000D03*
%TD*%
%TO.C,R14*%
X151810000Y-100000000D03*
X144190000Y-100000000D03*
%TD*%
%TO.C,R25*%
X124190000Y-97000000D03*
X131810000Y-97000000D03*
%TD*%
D17*
%TO.C,R24*%
X168000000Y-82460000D03*
X168000000Y-87540000D03*
%TD*%
D18*
%TO.C,JP1*%
X144000000Y-69000000D03*
X138000000Y-102000000D03*
%TD*%
D20*
%TO.C,J1*%
X97500000Y-54500000D03*
X95000000Y-62000000D03*
X95000000Y-69500000D03*
%TD*%
D18*
%TO.C,GND1*%
X138005000Y-110000000D03*
%TD*%
%TO.C,LED2*%
X170000000Y-110500000D03*
%TD*%
%TO.C,C11*%
X147000000Y-105000000D03*
X145000000Y-105000000D03*
%TD*%
D20*
%TO.C,J4*%
X178500000Y-54500000D03*
X176000000Y-62000000D03*
X176000000Y-69500000D03*
%TD*%
D21*
%TO.C,SEED1*%
X114495000Y-89620000D03*
D22*
X117035000Y-89620000D03*
X119575000Y-89620000D03*
X122115000Y-89620000D03*
X124655000Y-89620000D03*
X127195000Y-89620000D03*
X129735000Y-89620000D03*
X132275000Y-89620000D03*
X134815000Y-89620000D03*
X137355000Y-89620000D03*
X139895000Y-89620000D03*
X142435000Y-89620000D03*
X144975000Y-89620000D03*
X147515000Y-89620000D03*
X150055000Y-89620000D03*
X152595000Y-89620000D03*
X155135000Y-89620000D03*
X157675000Y-89620000D03*
X160215000Y-89620000D03*
X162755000Y-89620000D03*
X162755000Y-74380000D03*
X160215000Y-74380000D03*
X157675000Y-74380000D03*
X155135000Y-74380000D03*
X152595000Y-74380000D03*
X150055000Y-74380000D03*
X147515000Y-74380000D03*
X144975000Y-74380000D03*
X142435000Y-74380000D03*
X139895000Y-74380000D03*
X137355000Y-74380000D03*
X134815000Y-74380000D03*
X132275000Y-74380000D03*
X129735000Y-74380000D03*
X127195000Y-74380000D03*
X124655000Y-74380000D03*
X122115000Y-74380000D03*
X119575000Y-74380000D03*
X117035000Y-74380000D03*
X114495000Y-74380000D03*
%TD*%
D23*
%TO.C,J5*%
X133000000Y-58000000D03*
D24*
X128200000Y-55400000D03*
D23*
X133000000Y-51900000D03*
%TD*%
D18*
%TO.C,R6*%
X117810000Y-104000000D03*
X110190000Y-104000000D03*
%TD*%
D25*
%TO.C,U2*%
X140460000Y-51000000D03*
D26*
X143000000Y-51000000D03*
X145540000Y-51000000D03*
%TD*%
D20*
%TO.C,J3*%
X158500000Y-54500000D03*
X156000000Y-62000000D03*
X156000000Y-69500000D03*
%TD*%
D17*
%TO.C,R7*%
X108000000Y-82460000D03*
X108000000Y-87540000D03*
%TD*%
D18*
%TO.C,R20*%
X140000000Y-59190000D03*
X140000000Y-66810000D03*
%TD*%
%TO.C,JO2*%
X191000000Y-110000000D03*
%TD*%
%TO.C,R3*%
X115000000Y-100810000D03*
X115000000Y-93190000D03*
%TD*%
%TO.C,JI2*%
X189000000Y-107000000D03*
%TD*%
%TO.C,C5*%
X144000000Y-64000000D03*
X146500000Y-64000000D03*
%TD*%
%TO.C,R4*%
X124190000Y-100000000D03*
X131810000Y-100000000D03*
%TD*%
%TO.C,R19*%
X97190000Y-97000000D03*
X104810000Y-97000000D03*
%TD*%
%TO.C,FX02*%
X166000000Y-110500000D03*
%TD*%
%TO.C,R21*%
X135810000Y-70000000D03*
X128190000Y-70000000D03*
%TD*%
%TO.C,J7*%
X148000000Y-94000000D03*
X138000000Y-69000000D03*
X128000000Y-94000000D03*
%TD*%
%TO.C,C4*%
X121000000Y-109000000D03*
X119000000Y-109000000D03*
%TD*%
%TO.C,JO1*%
X87000000Y-107000000D03*
%TD*%
%TO.C,R10*%
X108190000Y-107000000D03*
X115810000Y-107000000D03*
%TD*%
%TO.C,R16*%
X144190000Y-109500000D03*
X151810000Y-109500000D03*
%TD*%
%TO.C,R28*%
X97190000Y-105000000D03*
X104810000Y-105000000D03*
%TD*%
%TO.C,FXI1*%
X110000000Y-110500000D03*
%TD*%
%TO.C,C13*%
X155500000Y-104000000D03*
X150500000Y-104000000D03*
%TD*%
%TO.C,R27*%
X178810000Y-105000000D03*
X171190000Y-105000000D03*
%TD*%
%TO.C,R12*%
X151810000Y-94000000D03*
X144190000Y-94000000D03*
%TD*%
%TO.C,C6*%
X146000000Y-54000000D03*
X146000000Y-59000000D03*
%TD*%
%TO.C,C17*%
X170500000Y-83750000D03*
X170500000Y-86250000D03*
%TD*%
D17*
%TO.C,R9*%
X89960000Y-93000000D03*
X95040000Y-93000000D03*
%TD*%
D20*
%TO.C,J2*%
X117500000Y-54500000D03*
X115000000Y-62000000D03*
X115000000Y-69500000D03*
%TD*%
D18*
%TO.C,C15*%
X132000000Y-63000000D03*
X129500000Y-63000000D03*
%TD*%
%TO.C,R18*%
X178810000Y-97000000D03*
X171190000Y-97000000D03*
%TD*%
%TO.C,R26*%
X151810000Y-97000000D03*
X144190000Y-97000000D03*
%TD*%
%TO.C,C16*%
X173000000Y-83750000D03*
X173000000Y-86250000D03*
%TD*%
%TO.C,LED1*%
X106000000Y-110500000D03*
%TD*%
%TO.C,R13*%
X164000000Y-100810000D03*
X164000000Y-93190000D03*
%TD*%
D17*
%TO.C,R23*%
X175500000Y-82460000D03*
X175500000Y-87540000D03*
%TD*%
D18*
%TO.C,R1*%
X112000000Y-100810000D03*
X112000000Y-93190000D03*
%TD*%
%TO.C,R11*%
X167810000Y-107000000D03*
X160190000Y-107000000D03*
%TD*%
%TO.C,C3*%
X129000000Y-105000000D03*
X131000000Y-105000000D03*
%TD*%
%TO.C,R5*%
X124190000Y-109500000D03*
X131810000Y-109500000D03*
%TD*%
D27*
%TO.C,U1*%
X134195000Y-94380000D03*
D18*
X134195000Y-96920000D03*
X134195000Y-99460000D03*
X134195000Y-102000000D03*
X134195000Y-104540000D03*
X134195000Y-107080000D03*
X134195000Y-109620000D03*
X141815000Y-109620000D03*
X141815000Y-107080000D03*
X141815000Y-104540000D03*
X141815000Y-102000000D03*
X141815000Y-99460000D03*
X141815000Y-96920000D03*
X141815000Y-94380000D03*
%TD*%
%TO.C,R15*%
X161000000Y-100810000D03*
X161000000Y-93190000D03*
%TD*%
%TO.C,R17*%
X158190000Y-104000000D03*
X165810000Y-104000000D03*
%TD*%
%TO.C,FX01*%
X114000000Y-110500000D03*
%TD*%
%TO.C,R29*%
X137000000Y-59190000D03*
X137000000Y-66810000D03*
%TD*%
%TO.C,C7*%
X151000000Y-63500000D03*
X151000000Y-68500000D03*
%TD*%
D28*
%TO.C,D4*%
X97500000Y-101000000D03*
D29*
X100040000Y-101000000D03*
%TD*%
D30*
%TO.C,SW6*%
X181000000Y-74000000D03*
D31*
X186000000Y-74000000D03*
X183500000Y-74000000D03*
D32*
X189100000Y-81500000D03*
X177900000Y-81500000D03*
D31*
X186000000Y-88500000D03*
X181000000Y-88500000D03*
%TD*%
D28*
%TO.C,D5*%
X97500000Y-109000000D03*
D29*
X100040000Y-109000000D03*
%TD*%
D33*
%TO.C,SW4*%
X183500000Y-109700000D03*
X183500000Y-105000000D03*
X183500000Y-100300000D03*
%TD*%
D28*
%TO.C,D6*%
X178500000Y-101000000D03*
D29*
X175960000Y-101000000D03*
%TD*%
D21*
%TO.C,J6*%
X171525000Y-78100000D03*
D22*
X171525000Y-75560000D03*
X171525000Y-73020000D03*
X171525000Y-70480000D03*
X171525000Y-67940000D03*
X171525000Y-65400000D03*
X171525000Y-62860000D03*
%TD*%
D28*
%TO.C,D3*%
X178500000Y-109000000D03*
D29*
X175960000Y-109000000D03*
%TD*%
D33*
%TO.C,SW5*%
X92500000Y-100300000D03*
X92500000Y-105000000D03*
X92500000Y-109700000D03*
%TD*%
D30*
%TO.C,SW1*%
X90000000Y-74000000D03*
D31*
X95000000Y-74000000D03*
X92500000Y-74000000D03*
D32*
X98100000Y-81500000D03*
X86900000Y-81500000D03*
D31*
X95000000Y-88500000D03*
X90000000Y-88500000D03*
%TD*%
%LPD*%
M02*
