%TF.GenerationSoftware,KiCad,Pcbnew,9.0.5*%
%TF.CreationDate,2026-03-31T17:20:41-04:00*%
%TF.ProjectId,SeedMultiFX,53656564-4d75-46c7-9469-46582e6b6963,rev?*%
%TF.SameCoordinates,Original*%
%TF.FileFunction,Drillmap*%
%TF.FilePolarity,Positive*%
%FSLAX45Y45*%
G04 Gerber Fmt 4.5, Leading zero omitted, Abs format (unit mm)*
G04 Created by KiCad (PCBNEW 9.0.5) date 2026-03-31 17:20:41*
%MOMM*%
%LPD*%
G01*
G04 APERTURE LIST*
%ADD10C,0.100000*%
%ADD11C,0.200000*%
%ADD12C,0.110000*%
%ADD13C,0.150000*%
G04 APERTURE END LIST*
D10*
X19300000Y-5600000D02*
X18700000Y-5600000D01*
X8900000Y-5600000D02*
X8300000Y-5600000D01*
X18700000Y-5600000D02*
X18700000Y-4700000D01*
X8300000Y-5600000D02*
X8300000Y-11200000D01*
X8300000Y-11200000D02*
X19300000Y-11200000D01*
X8900000Y-4700000D02*
X8900000Y-5600000D01*
X18700000Y-4700000D02*
X8900000Y-4700000D01*
X19300000Y-11200000D02*
X19300000Y-5600000D01*
D11*
D10*
X9080000Y-6380000D02*
X9120000Y-6420000D01*
X9120000Y-6380000D02*
X9080000Y-6420000D01*
X9080000Y-7880000D02*
X9120000Y-7920000D01*
X9120000Y-7880000D02*
X9080000Y-7920000D01*
X9280000Y-6580000D02*
X9320000Y-6620000D01*
X9320000Y-6580000D02*
X9280000Y-6620000D01*
X9380000Y-8180000D02*
X9420000Y-8220000D01*
X9420000Y-8180000D02*
X9380000Y-8220000D01*
X10530000Y-9180000D02*
X10570000Y-9220000D01*
X10570000Y-9180000D02*
X10530000Y-9220000D01*
X10730000Y-9180000D02*
X10770000Y-9220000D01*
X10770000Y-9180000D02*
X10730000Y-9220000D01*
X11180000Y-8530000D02*
X11220000Y-8570000D01*
X11220000Y-8530000D02*
X11180000Y-8570000D01*
X11280000Y-8630000D02*
X11320000Y-8670000D01*
X11320000Y-8630000D02*
X11280000Y-8670000D01*
X11730000Y-7180000D02*
X11770000Y-7220000D01*
X11770000Y-7180000D02*
X11730000Y-7220000D01*
X13180000Y-7680000D02*
X13220000Y-7720000D01*
X13220000Y-7680000D02*
X13180000Y-7720000D01*
X14030000Y-9180000D02*
X14070000Y-9220000D01*
X14070000Y-9180000D02*
X14030000Y-9220000D01*
X14780000Y-7180000D02*
X14820000Y-7220000D01*
X14820000Y-7180000D02*
X14780000Y-7220000D01*
X15080000Y-7680000D02*
X15120000Y-7720000D01*
X15120000Y-7680000D02*
X15080000Y-7720000D01*
X15580000Y-8580000D02*
X15620000Y-8620000D01*
X15620000Y-8580000D02*
X15580000Y-8620000D01*
X15580000Y-8780000D02*
X15620000Y-8820000D01*
X15620000Y-8780000D02*
X15580000Y-8820000D01*
X15880000Y-8680000D02*
X15920000Y-8720000D01*
X15920000Y-8680000D02*
X15880000Y-8720000D01*
X16080000Y-8680000D02*
X16120000Y-8720000D01*
X16120000Y-8680000D02*
X16080000Y-8720000D01*
X16480000Y-7730000D02*
X16520000Y-7770000D01*
X16520000Y-7730000D02*
X16480000Y-7770000D01*
X16580000Y-7830000D02*
X16620000Y-7870000D01*
X16620000Y-7830000D02*
X16580000Y-7870000D01*
X16680000Y-7930000D02*
X16720000Y-7970000D01*
X16720000Y-7930000D02*
X16680000Y-7970000D01*
X17330000Y-8030000D02*
X17370000Y-8070000D01*
X17370000Y-8030000D02*
X17330000Y-8070000D01*
X18080000Y-9080000D02*
X18120000Y-9120000D01*
X18120000Y-9080000D02*
X18080000Y-9120000D01*
X18180000Y-7580000D02*
X18220000Y-7620000D01*
X18220000Y-7580000D02*
X18180000Y-7620000D01*
X18230000Y-6930000D02*
X18270000Y-6970000D01*
X18270000Y-6930000D02*
X18230000Y-6970000D01*
X19080000Y-6830000D02*
X19120000Y-6870000D01*
X19120000Y-6830000D02*
X19080000Y-6870000D01*
X19080000Y-7080000D02*
X19120000Y-7120000D01*
X19120000Y-7080000D02*
X19080000Y-7120000D01*
X9031000Y-9300000D02*
G75*
G02*
X8961000Y-9300000I-35000J0D01*
G01*
X8961000Y-9300000D02*
G75*
G02*
X9031000Y-9300000I35000J0D01*
G01*
X9539000Y-9300000D02*
G75*
G02*
X9469000Y-9300000I-35000J0D01*
G01*
X9469000Y-9300000D02*
G75*
G02*
X9539000Y-9300000I35000J0D01*
G01*
X10085000Y-8246000D02*
G75*
G02*
X10015000Y-8246000I-35000J0D01*
G01*
X10015000Y-8246000D02*
G75*
G02*
X10085000Y-8246000I35000J0D01*
G01*
X10085000Y-8754000D02*
G75*
G02*
X10015000Y-8754000I-35000J0D01*
G01*
X10015000Y-8754000D02*
G75*
G02*
X10085000Y-8754000I35000J0D01*
G01*
X10835000Y-8246000D02*
G75*
G02*
X10765000Y-8246000I-35000J0D01*
G01*
X10765000Y-8246000D02*
G75*
G02*
X10835000Y-8246000I35000J0D01*
G01*
X10835000Y-8754000D02*
G75*
G02*
X10765000Y-8754000I-35000J0D01*
G01*
X10765000Y-8754000D02*
G75*
G02*
X10835000Y-8754000I35000J0D01*
G01*
X16835000Y-8246000D02*
G75*
G02*
X16765000Y-8246000I-35000J0D01*
G01*
X16765000Y-8246000D02*
G75*
G02*
X16835000Y-8246000I35000J0D01*
G01*
X16835000Y-8754000D02*
G75*
G02*
X16765000Y-8754000I-35000J0D01*
G01*
X16765000Y-8754000D02*
G75*
G02*
X16835000Y-8754000I35000J0D01*
G01*
X17585000Y-8246000D02*
G75*
G02*
X17515000Y-8246000I-35000J0D01*
G01*
X17515000Y-8246000D02*
G75*
G02*
X17585000Y-8246000I35000J0D01*
G01*
X17585000Y-8754000D02*
G75*
G02*
X17515000Y-8754000I-35000J0D01*
G01*
X17515000Y-8754000D02*
G75*
G02*
X17585000Y-8754000I35000J0D01*
G01*
X18131000Y-9300000D02*
G75*
G02*
X18061000Y-9300000I-35000J0D01*
G01*
X18061000Y-9300000D02*
G75*
G02*
X18131000Y-9300000I35000J0D01*
G01*
X18639000Y-9300000D02*
G75*
G02*
X18569000Y-9300000I-35000J0D01*
G01*
X18569000Y-9300000D02*
G75*
G02*
X18639000Y-9300000I35000J0D01*
G01*
X8500000Y-10960000D02*
X8500000Y-11040000D01*
X8460000Y-11000000D02*
X8540000Y-11000000D01*
X8700000Y-10660000D02*
X8700000Y-10740000D01*
X8660000Y-10700000D02*
X8740000Y-10700000D01*
X9719000Y-9660000D02*
X9719000Y-9740000D01*
X9679000Y-9700000D02*
X9759000Y-9700000D01*
X9719000Y-10460000D02*
X9719000Y-10540000D01*
X9679000Y-10500000D02*
X9759000Y-10500000D01*
X10300000Y-8335000D02*
X10300000Y-8415000D01*
X10260000Y-8375000D02*
X10340000Y-8375000D01*
X10300000Y-8585000D02*
X10300000Y-8665000D01*
X10260000Y-8625000D02*
X10340000Y-8625000D01*
X10481000Y-9660000D02*
X10481000Y-9740000D01*
X10441000Y-9700000D02*
X10521000Y-9700000D01*
X10481000Y-10460000D02*
X10481000Y-10540000D01*
X10441000Y-10500000D02*
X10521000Y-10500000D01*
X10550000Y-8335000D02*
X10550000Y-8415000D01*
X10510000Y-8375000D02*
X10590000Y-8375000D01*
X10550000Y-8585000D02*
X10550000Y-8665000D01*
X10510000Y-8625000D02*
X10590000Y-8625000D01*
X10600000Y-11010000D02*
X10600000Y-11090000D01*
X10560000Y-11050000D02*
X10640000Y-11050000D01*
X10819000Y-10660000D02*
X10819000Y-10740000D01*
X10779000Y-10700000D02*
X10859000Y-10700000D01*
X11000000Y-11010000D02*
X11000000Y-11090000D01*
X10960000Y-11050000D02*
X11040000Y-11050000D01*
X11019000Y-10360000D02*
X11019000Y-10440000D01*
X10979000Y-10400000D02*
X11059000Y-10400000D01*
X11200000Y-9279000D02*
X11200000Y-9359000D01*
X11160000Y-9319000D02*
X11240000Y-9319000D01*
X11200000Y-10041000D02*
X11200000Y-10121000D01*
X11160000Y-10081000D02*
X11240000Y-10081000D01*
X11400000Y-11010000D02*
X11400000Y-11090000D01*
X11360000Y-11050000D02*
X11440000Y-11050000D01*
X11500000Y-9279000D02*
X11500000Y-9359000D01*
X11460000Y-9319000D02*
X11540000Y-9319000D01*
X11500000Y-10041000D02*
X11500000Y-10121000D01*
X11460000Y-10081000D02*
X11540000Y-10081000D01*
X11581000Y-10660000D02*
X11581000Y-10740000D01*
X11541000Y-10700000D02*
X11621000Y-10700000D01*
X11781000Y-10360000D02*
X11781000Y-10440000D01*
X11741000Y-10400000D02*
X11821000Y-10400000D01*
X11900000Y-9560000D02*
X11900000Y-9640000D01*
X11860000Y-9600000D02*
X11940000Y-9600000D01*
X11900000Y-10860000D02*
X11900000Y-10940000D01*
X11860000Y-10900000D02*
X11940000Y-10900000D01*
X12050000Y-10360000D02*
X12050000Y-10440000D01*
X12010000Y-10400000D02*
X12090000Y-10400000D01*
X12100000Y-9560000D02*
X12100000Y-9640000D01*
X12060000Y-9600000D02*
X12140000Y-9600000D01*
X12100000Y-10860000D02*
X12100000Y-10940000D01*
X12060000Y-10900000D02*
X12140000Y-10900000D01*
X12419000Y-9360000D02*
X12419000Y-9440000D01*
X12379000Y-9400000D02*
X12459000Y-9400000D01*
X12419000Y-9660000D02*
X12419000Y-9740000D01*
X12379000Y-9700000D02*
X12459000Y-9700000D01*
X12419000Y-9960000D02*
X12419000Y-10040000D01*
X12379000Y-10000000D02*
X12459000Y-10000000D01*
X12419000Y-10910000D02*
X12419000Y-10990000D01*
X12379000Y-10950000D02*
X12459000Y-10950000D01*
X12550000Y-10360000D02*
X12550000Y-10440000D01*
X12510000Y-10400000D02*
X12590000Y-10400000D01*
X12800000Y-9360000D02*
X12800000Y-9440000D01*
X12760000Y-9400000D02*
X12840000Y-9400000D01*
X12819000Y-6960000D02*
X12819000Y-7040000D01*
X12779000Y-7000000D02*
X12859000Y-7000000D01*
X12820000Y-5500000D02*
X12820000Y-5580000D01*
X12780000Y-5540000D02*
X12860000Y-5540000D01*
X12860000Y-5650000D02*
X12860000Y-5430000D01*
X12780000Y-5430000D02*
G75*
G02*
X12860000Y-5430000I40000J0D01*
G01*
X12780000Y-5430000D02*
X12780000Y-5650000D01*
X12780000Y-5650000D02*
G75*
G03*
X12860000Y-5650000I40000J0D01*
G01*
X12900000Y-10460000D02*
X12900000Y-10540000D01*
X12860000Y-10500000D02*
X12940000Y-10500000D01*
X12950000Y-6260000D02*
X12950000Y-6340000D01*
X12910000Y-6300000D02*
X12990000Y-6300000D01*
X13100000Y-10460000D02*
X13100000Y-10540000D01*
X13060000Y-10500000D02*
X13140000Y-10500000D01*
X13181000Y-9360000D02*
X13181000Y-9440000D01*
X13141000Y-9400000D02*
X13221000Y-9400000D01*
X13181000Y-9660000D02*
X13181000Y-9740000D01*
X13141000Y-9700000D02*
X13221000Y-9700000D01*
X13181000Y-9960000D02*
X13181000Y-10040000D01*
X13141000Y-10000000D02*
X13221000Y-10000000D01*
X13181000Y-10910000D02*
X13181000Y-10990000D01*
X13141000Y-10950000D02*
X13221000Y-10950000D01*
X13200000Y-6260000D02*
X13200000Y-6340000D01*
X13160000Y-6300000D02*
X13240000Y-6300000D01*
X13300000Y-5150000D02*
X13300000Y-5230000D01*
X13260000Y-5190000D02*
X13340000Y-5190000D01*
X13190000Y-5230000D02*
X13410000Y-5230000D01*
X13410000Y-5150000D02*
G75*
G02*
X13410000Y-5230000I0J-40000D01*
G01*
X13410000Y-5150000D02*
X13190000Y-5150000D01*
X13190000Y-5150000D02*
G75*
G03*
X13190000Y-5230000I0J-40000D01*
G01*
X13300000Y-5760000D02*
X13300000Y-5840000D01*
X13260000Y-5800000D02*
X13340000Y-5800000D01*
X13190000Y-5840000D02*
X13410000Y-5840000D01*
X13410000Y-5760000D02*
G75*
G02*
X13410000Y-5840000I0J-40000D01*
G01*
X13410000Y-5760000D02*
X13190000Y-5760000D01*
X13190000Y-5760000D02*
G75*
G03*
X13190000Y-5840000I0J-40000D01*
G01*
X13419500Y-9398000D02*
X13419500Y-9478000D01*
X13379500Y-9438000D02*
X13459500Y-9438000D01*
X13419500Y-9652000D02*
X13419500Y-9732000D01*
X13379500Y-9692000D02*
X13459500Y-9692000D01*
X13419500Y-9906000D02*
X13419500Y-9986000D01*
X13379500Y-9946000D02*
X13459500Y-9946000D01*
X13419500Y-10160000D02*
X13419500Y-10240000D01*
X13379500Y-10200000D02*
X13459500Y-10200000D01*
X13419500Y-10414000D02*
X13419500Y-10494000D01*
X13379500Y-10454000D02*
X13459500Y-10454000D01*
X13419500Y-10668000D02*
X13419500Y-10748000D01*
X13379500Y-10708000D02*
X13459500Y-10708000D01*
X13419500Y-10922000D02*
X13419500Y-11002000D01*
X13379500Y-10962000D02*
X13459500Y-10962000D01*
X13581000Y-6960000D02*
X13581000Y-7040000D01*
X13541000Y-7000000D02*
X13621000Y-7000000D01*
X13700000Y-5879000D02*
X13700000Y-5959000D01*
X13660000Y-5919000D02*
X13740000Y-5919000D01*
X13700000Y-6641000D02*
X13700000Y-6721000D01*
X13660000Y-6681000D02*
X13740000Y-6681000D01*
X13800000Y-6860000D02*
X13800000Y-6940000D01*
X13760000Y-6900000D02*
X13840000Y-6900000D01*
X13800000Y-10160000D02*
X13800000Y-10240000D01*
X13760000Y-10200000D02*
X13840000Y-10200000D01*
X13800500Y-10960000D02*
X13800500Y-11040000D01*
X13760500Y-11000000D02*
X13840500Y-11000000D01*
X14000000Y-5879000D02*
X14000000Y-5959000D01*
X13960000Y-5919000D02*
X14040000Y-5919000D01*
X14000000Y-6641000D02*
X14000000Y-6721000D01*
X13960000Y-6681000D02*
X14040000Y-6681000D01*
X14181500Y-9398000D02*
X14181500Y-9478000D01*
X14141500Y-9438000D02*
X14221500Y-9438000D01*
X14181500Y-9652000D02*
X14181500Y-9732000D01*
X14141500Y-9692000D02*
X14221500Y-9692000D01*
X14181500Y-9906000D02*
X14181500Y-9986000D01*
X14141500Y-9946000D02*
X14221500Y-9946000D01*
X14181500Y-10160000D02*
X14181500Y-10240000D01*
X14141500Y-10200000D02*
X14221500Y-10200000D01*
X14181500Y-10414000D02*
X14181500Y-10494000D01*
X14141500Y-10454000D02*
X14221500Y-10454000D01*
X14181500Y-10668000D02*
X14181500Y-10748000D01*
X14141500Y-10708000D02*
X14221500Y-10708000D01*
X14181500Y-10922000D02*
X14181500Y-11002000D01*
X14141500Y-10962000D02*
X14221500Y-10962000D01*
X14400000Y-6360000D02*
X14400000Y-6440000D01*
X14360000Y-6400000D02*
X14440000Y-6400000D01*
X14400000Y-6860000D02*
X14400000Y-6940000D01*
X14360000Y-6900000D02*
X14440000Y-6900000D01*
X14419000Y-9360000D02*
X14419000Y-9440000D01*
X14379000Y-9400000D02*
X14459000Y-9400000D01*
X14419000Y-9660000D02*
X14419000Y-9740000D01*
X14379000Y-9700000D02*
X14459000Y-9700000D01*
X14419000Y-9960000D02*
X14419000Y-10040000D01*
X14379000Y-10000000D02*
X14459000Y-10000000D01*
X14419000Y-10910000D02*
X14419000Y-10990000D01*
X14379000Y-10950000D02*
X14459000Y-10950000D01*
X14500000Y-10460000D02*
X14500000Y-10540000D01*
X14460000Y-10500000D02*
X14540000Y-10500000D01*
X14600000Y-5360000D02*
X14600000Y-5440000D01*
X14560000Y-5400000D02*
X14640000Y-5400000D01*
X14600000Y-5860000D02*
X14600000Y-5940000D01*
X14560000Y-5900000D02*
X14640000Y-5900000D01*
X14650000Y-6360000D02*
X14650000Y-6440000D01*
X14610000Y-6400000D02*
X14690000Y-6400000D01*
X14700000Y-10460000D02*
X14700000Y-10540000D01*
X14660000Y-10500000D02*
X14740000Y-10500000D01*
X14800000Y-9360000D02*
X14800000Y-9440000D01*
X14760000Y-9400000D02*
X14840000Y-9400000D01*
X15050000Y-10360000D02*
X15050000Y-10440000D01*
X15010000Y-10400000D02*
X15090000Y-10400000D01*
X15100000Y-6310000D02*
X15100000Y-6390000D01*
X15060000Y-6350000D02*
X15140000Y-6350000D01*
X15100000Y-6810000D02*
X15100000Y-6890000D01*
X15060000Y-6850000D02*
X15140000Y-6850000D01*
X15181000Y-9360000D02*
X15181000Y-9440000D01*
X15141000Y-9400000D02*
X15221000Y-9400000D01*
X15181000Y-9660000D02*
X15181000Y-9740000D01*
X15141000Y-9700000D02*
X15221000Y-9700000D01*
X15181000Y-9960000D02*
X15181000Y-10040000D01*
X15141000Y-10000000D02*
X15221000Y-10000000D01*
X15181000Y-10910000D02*
X15181000Y-10990000D01*
X15141000Y-10950000D02*
X15221000Y-10950000D01*
X15500000Y-9560000D02*
X15500000Y-9640000D01*
X15460000Y-9600000D02*
X15540000Y-9600000D01*
X15500000Y-10860000D02*
X15500000Y-10940000D01*
X15460000Y-10900000D02*
X15540000Y-10900000D01*
X15550000Y-10360000D02*
X15550000Y-10440000D01*
X15510000Y-10400000D02*
X15590000Y-10400000D01*
X15700000Y-9560000D02*
X15700000Y-9640000D01*
X15660000Y-9600000D02*
X15740000Y-9600000D01*
X15700000Y-10860000D02*
X15700000Y-10940000D01*
X15660000Y-10900000D02*
X15740000Y-10900000D01*
X15819000Y-10360000D02*
X15819000Y-10440000D01*
X15779000Y-10400000D02*
X15859000Y-10400000D01*
X16019000Y-10660000D02*
X16019000Y-10740000D01*
X15979000Y-10700000D02*
X16059000Y-10700000D01*
X16100000Y-9279000D02*
X16100000Y-9359000D01*
X16060000Y-9319000D02*
X16140000Y-9319000D01*
X16100000Y-10041000D02*
X16100000Y-10121000D01*
X16060000Y-10081000D02*
X16140000Y-10081000D01*
X16200000Y-11010000D02*
X16200000Y-11090000D01*
X16160000Y-11050000D02*
X16240000Y-11050000D01*
X16400000Y-9279000D02*
X16400000Y-9359000D01*
X16360000Y-9319000D02*
X16440000Y-9319000D01*
X16400000Y-10041000D02*
X16400000Y-10121000D01*
X16360000Y-10081000D02*
X16440000Y-10081000D01*
X16581000Y-10360000D02*
X16581000Y-10440000D01*
X16541000Y-10400000D02*
X16621000Y-10400000D01*
X16600000Y-11010000D02*
X16600000Y-11090000D01*
X16560000Y-11050000D02*
X16640000Y-11050000D01*
X16781000Y-10660000D02*
X16781000Y-10740000D01*
X16741000Y-10700000D02*
X16821000Y-10700000D01*
X17000000Y-11010000D02*
X17000000Y-11090000D01*
X16960000Y-11050000D02*
X17040000Y-11050000D01*
X17050000Y-8335000D02*
X17050000Y-8415000D01*
X17010000Y-8375000D02*
X17090000Y-8375000D01*
X17050000Y-8585000D02*
X17050000Y-8665000D01*
X17010000Y-8625000D02*
X17090000Y-8625000D01*
X17119000Y-9660000D02*
X17119000Y-9740000D01*
X17079000Y-9700000D02*
X17159000Y-9700000D01*
X17119000Y-10460000D02*
X17119000Y-10540000D01*
X17079000Y-10500000D02*
X17159000Y-10500000D01*
X17300000Y-8335000D02*
X17300000Y-8415000D01*
X17260000Y-8375000D02*
X17340000Y-8375000D01*
X17300000Y-8585000D02*
X17300000Y-8665000D01*
X17260000Y-8625000D02*
X17340000Y-8625000D01*
X17881000Y-9660000D02*
X17881000Y-9740000D01*
X17841000Y-9700000D02*
X17921000Y-9700000D01*
X17881000Y-10460000D02*
X17881000Y-10540000D01*
X17841000Y-10500000D02*
X17921000Y-10500000D01*
X18900000Y-10660000D02*
X18900000Y-10740000D01*
X18860000Y-10700000D02*
X18940000Y-10700000D01*
X19100000Y-10960000D02*
X19100000Y-11040000D01*
X19060000Y-11000000D02*
X19140000Y-11000000D01*
X9781820Y-10131820D02*
X9781820Y-10068180D01*
X9718180Y-10068180D01*
X9718180Y-10131820D01*
X9781820Y-10131820D01*
X9781820Y-10931820D02*
X9781820Y-10868180D01*
X9718180Y-10868180D01*
X9718180Y-10931820D01*
X9781820Y-10931820D01*
X10035820Y-10131820D02*
X10035820Y-10068180D01*
X9972180Y-10068180D01*
X9972180Y-10131820D01*
X10035820Y-10131820D01*
X10035820Y-10931820D02*
X10035820Y-10868180D01*
X9972180Y-10868180D01*
X9972180Y-10931820D01*
X10035820Y-10931820D01*
X17627820Y-10131820D02*
X17627820Y-10068180D01*
X17564180Y-10068180D01*
X17564180Y-10131820D01*
X17627820Y-10131820D01*
X17627820Y-10931820D02*
X17627820Y-10868180D01*
X17564180Y-10868180D01*
X17564180Y-10931820D01*
X17627820Y-10931820D01*
X17881820Y-10131820D02*
X17881820Y-10068180D01*
X17818180Y-10068180D01*
X17818180Y-10131820D01*
X17881820Y-10131820D01*
X17881820Y-10931820D02*
X17881820Y-10868180D01*
X17818180Y-10868180D01*
X17818180Y-10931820D01*
X17881820Y-10931820D01*
X9000000Y-7450000D02*
X9050000Y-7400000D01*
X9000000Y-7350000D01*
X8950000Y-7400000D01*
X9000000Y-7450000D01*
X9000000Y-8900000D02*
X9050000Y-8850000D01*
X9000000Y-8800000D01*
X8950000Y-8850000D01*
X9000000Y-8900000D01*
X9250000Y-7450000D02*
X9300000Y-7400000D01*
X9250000Y-7350000D01*
X9200000Y-7400000D01*
X9250000Y-7450000D01*
X9250000Y-10080000D02*
X9300000Y-10030000D01*
X9250000Y-9980000D01*
X9200000Y-10030000D01*
X9250000Y-10080000D01*
X9275000Y-9980000D02*
X9225000Y-9980000D01*
X9225000Y-10080000D02*
G75*
G02*
X9225000Y-9980000I0J50000D01*
G01*
X9225000Y-10080000D02*
X9275000Y-10080000D01*
X9275000Y-10080000D02*
G75*
G03*
X9275000Y-9980000I0J50000D01*
G01*
X9250000Y-10550000D02*
X9300000Y-10500000D01*
X9250000Y-10450000D01*
X9200000Y-10500000D01*
X9250000Y-10550000D01*
X9275000Y-10450000D02*
X9225000Y-10450000D01*
X9225000Y-10550000D02*
G75*
G02*
X9225000Y-10450000I0J50000D01*
G01*
X9225000Y-10550000D02*
X9275000Y-10550000D01*
X9275000Y-10550000D02*
G75*
G03*
X9275000Y-10450000I0J50000D01*
G01*
X9250000Y-11020000D02*
X9300000Y-10970000D01*
X9250000Y-10920000D01*
X9200000Y-10970000D01*
X9250000Y-11020000D01*
X9275000Y-10920000D02*
X9225000Y-10920000D01*
X9225000Y-11020000D02*
G75*
G02*
X9225000Y-10920000I0J50000D01*
G01*
X9225000Y-11020000D02*
X9275000Y-11020000D01*
X9275000Y-11020000D02*
G75*
G03*
X9275000Y-10920000I0J50000D01*
G01*
X9500000Y-6250000D02*
X9550000Y-6200000D01*
X9500000Y-6150000D01*
X9450000Y-6200000D01*
X9500000Y-6250000D01*
X9550000Y-6275000D02*
X9550000Y-6125000D01*
X9450000Y-6125000D02*
G75*
G02*
X9550000Y-6125000I50000J0D01*
G01*
X9450000Y-6125000D02*
X9450000Y-6275000D01*
X9450000Y-6275000D02*
G75*
G03*
X9550000Y-6275000I50000J0D01*
G01*
X9500000Y-7000000D02*
X9550000Y-6950000D01*
X9500000Y-6900000D01*
X9450000Y-6950000D01*
X9500000Y-7000000D01*
X9550000Y-7025000D02*
X9550000Y-6875000D01*
X9450000Y-6875000D02*
G75*
G02*
X9550000Y-6875000I50000J0D01*
G01*
X9450000Y-6875000D02*
X9450000Y-7025000D01*
X9450000Y-7025000D02*
G75*
G03*
X9550000Y-7025000I50000J0D01*
G01*
X9500000Y-7450000D02*
X9550000Y-7400000D01*
X9500000Y-7350000D01*
X9450000Y-7400000D01*
X9500000Y-7450000D01*
X9500000Y-8900000D02*
X9550000Y-8850000D01*
X9500000Y-8800000D01*
X9450000Y-8850000D01*
X9500000Y-8900000D01*
X9750000Y-5500000D02*
X9800000Y-5450000D01*
X9750000Y-5400000D01*
X9700000Y-5450000D01*
X9750000Y-5500000D01*
X9800000Y-5525000D02*
X9800000Y-5375000D01*
X9700000Y-5375000D02*
G75*
G02*
X9800000Y-5375000I50000J0D01*
G01*
X9700000Y-5375000D02*
X9700000Y-5525000D01*
X9700000Y-5525000D02*
G75*
G03*
X9800000Y-5525000I50000J0D01*
G01*
X11500000Y-6250000D02*
X11550000Y-6200000D01*
X11500000Y-6150000D01*
X11450000Y-6200000D01*
X11500000Y-6250000D01*
X11550000Y-6275000D02*
X11550000Y-6125000D01*
X11450000Y-6125000D02*
G75*
G02*
X11550000Y-6125000I50000J0D01*
G01*
X11450000Y-6125000D02*
X11450000Y-6275000D01*
X11450000Y-6275000D02*
G75*
G03*
X11550000Y-6275000I50000J0D01*
G01*
X11500000Y-7000000D02*
X11550000Y-6950000D01*
X11500000Y-6900000D01*
X11450000Y-6950000D01*
X11500000Y-7000000D01*
X11550000Y-7025000D02*
X11550000Y-6875000D01*
X11450000Y-6875000D02*
G75*
G02*
X11550000Y-6875000I50000J0D01*
G01*
X11450000Y-6875000D02*
X11450000Y-7025000D01*
X11450000Y-7025000D02*
G75*
G03*
X11550000Y-7025000I50000J0D01*
G01*
X11750000Y-5500000D02*
X11800000Y-5450000D01*
X11750000Y-5400000D01*
X11700000Y-5450000D01*
X11750000Y-5500000D01*
X11800000Y-5525000D02*
X11800000Y-5375000D01*
X11700000Y-5375000D02*
G75*
G02*
X11800000Y-5375000I50000J0D01*
G01*
X11700000Y-5375000D02*
X11700000Y-5525000D01*
X11700000Y-5525000D02*
G75*
G03*
X11800000Y-5525000I50000J0D01*
G01*
X15600000Y-6250000D02*
X15650000Y-6200000D01*
X15600000Y-6150000D01*
X15550000Y-6200000D01*
X15600000Y-6250000D01*
X15650000Y-6275000D02*
X15650000Y-6125000D01*
X15550000Y-6125000D02*
G75*
G02*
X15650000Y-6125000I50000J0D01*
G01*
X15550000Y-6125000D02*
X15550000Y-6275000D01*
X15550000Y-6275000D02*
G75*
G03*
X15650000Y-6275000I50000J0D01*
G01*
X15600000Y-7000000D02*
X15650000Y-6950000D01*
X15600000Y-6900000D01*
X15550000Y-6950000D01*
X15600000Y-7000000D01*
X15650000Y-7025000D02*
X15650000Y-6875000D01*
X15550000Y-6875000D02*
G75*
G02*
X15650000Y-6875000I50000J0D01*
G01*
X15550000Y-6875000D02*
X15550000Y-7025000D01*
X15550000Y-7025000D02*
G75*
G03*
X15650000Y-7025000I50000J0D01*
G01*
X15850000Y-5500000D02*
X15900000Y-5450000D01*
X15850000Y-5400000D01*
X15800000Y-5450000D01*
X15850000Y-5500000D01*
X15900000Y-5525000D02*
X15900000Y-5375000D01*
X15800000Y-5375000D02*
G75*
G02*
X15900000Y-5375000I50000J0D01*
G01*
X15800000Y-5375000D02*
X15800000Y-5525000D01*
X15800000Y-5525000D02*
G75*
G03*
X15900000Y-5525000I50000J0D01*
G01*
X17152500Y-6336000D02*
X17202500Y-6286000D01*
X17152500Y-6236000D01*
X17102500Y-6286000D01*
X17152500Y-6336000D01*
X17152500Y-6590000D02*
X17202500Y-6540000D01*
X17152500Y-6490000D01*
X17102500Y-6540000D01*
X17152500Y-6590000D01*
X17152500Y-6844000D02*
X17202500Y-6794000D01*
X17152500Y-6744000D01*
X17102500Y-6794000D01*
X17152500Y-6844000D01*
X17152500Y-7098000D02*
X17202500Y-7048000D01*
X17152500Y-6998000D01*
X17102500Y-7048000D01*
X17152500Y-7098000D01*
X17152500Y-7352000D02*
X17202500Y-7302000D01*
X17152500Y-7252000D01*
X17102500Y-7302000D01*
X17152500Y-7352000D01*
X17152500Y-7606000D02*
X17202500Y-7556000D01*
X17152500Y-7506000D01*
X17102500Y-7556000D01*
X17152500Y-7606000D01*
X17152500Y-7860000D02*
X17202500Y-7810000D01*
X17152500Y-7760000D01*
X17102500Y-7810000D01*
X17152500Y-7860000D01*
X17600000Y-6250000D02*
X17650000Y-6200000D01*
X17600000Y-6150000D01*
X17550000Y-6200000D01*
X17600000Y-6250000D01*
X17650000Y-6275000D02*
X17650000Y-6125000D01*
X17550000Y-6125000D02*
G75*
G02*
X17650000Y-6125000I50000J0D01*
G01*
X17550000Y-6125000D02*
X17550000Y-6275000D01*
X17550000Y-6275000D02*
G75*
G03*
X17650000Y-6275000I50000J0D01*
G01*
X17600000Y-7000000D02*
X17650000Y-6950000D01*
X17600000Y-6900000D01*
X17550000Y-6950000D01*
X17600000Y-7000000D01*
X17650000Y-7025000D02*
X17650000Y-6875000D01*
X17550000Y-6875000D02*
G75*
G02*
X17650000Y-6875000I50000J0D01*
G01*
X17550000Y-6875000D02*
X17550000Y-7025000D01*
X17550000Y-7025000D02*
G75*
G03*
X17650000Y-7025000I50000J0D01*
G01*
X17850000Y-5500000D02*
X17900000Y-5450000D01*
X17850000Y-5400000D01*
X17800000Y-5450000D01*
X17850000Y-5500000D01*
X17900000Y-5525000D02*
X17900000Y-5375000D01*
X17800000Y-5375000D02*
G75*
G02*
X17900000Y-5375000I50000J0D01*
G01*
X17800000Y-5375000D02*
X17800000Y-5525000D01*
X17800000Y-5525000D02*
G75*
G03*
X17900000Y-5525000I50000J0D01*
G01*
X18100000Y-7450000D02*
X18150000Y-7400000D01*
X18100000Y-7350000D01*
X18050000Y-7400000D01*
X18100000Y-7450000D01*
X18100000Y-8900000D02*
X18150000Y-8850000D01*
X18100000Y-8800000D01*
X18050000Y-8850000D01*
X18100000Y-8900000D01*
X18350000Y-7450000D02*
X18400000Y-7400000D01*
X18350000Y-7350000D01*
X18300000Y-7400000D01*
X18350000Y-7450000D01*
X18350000Y-10080000D02*
X18400000Y-10030000D01*
X18350000Y-9980000D01*
X18300000Y-10030000D01*
X18350000Y-10080000D01*
X18325000Y-10080000D02*
X18375000Y-10080000D01*
X18375000Y-9980000D02*
G75*
G02*
X18375000Y-10080000I0J-50000D01*
G01*
X18375000Y-9980000D02*
X18325000Y-9980000D01*
X18325000Y-9980000D02*
G75*
G03*
X18325000Y-10080000I0J-50000D01*
G01*
X18350000Y-10550000D02*
X18400000Y-10500000D01*
X18350000Y-10450000D01*
X18300000Y-10500000D01*
X18350000Y-10550000D01*
X18325000Y-10550000D02*
X18375000Y-10550000D01*
X18375000Y-10450000D02*
G75*
G02*
X18375000Y-10550000I0J-50000D01*
G01*
X18375000Y-10450000D02*
X18325000Y-10450000D01*
X18325000Y-10450000D02*
G75*
G03*
X18325000Y-10550000I0J-50000D01*
G01*
X18350000Y-11020000D02*
X18400000Y-10970000D01*
X18350000Y-10920000D01*
X18300000Y-10970000D01*
X18350000Y-11020000D01*
X18325000Y-11020000D02*
X18375000Y-11020000D01*
X18375000Y-10920000D02*
G75*
G02*
X18375000Y-11020000I0J-50000D01*
G01*
X18375000Y-10920000D02*
X18325000Y-10920000D01*
X18325000Y-10920000D02*
G75*
G03*
X18325000Y-11020000I0J-50000D01*
G01*
X18600000Y-7450000D02*
X18650000Y-7400000D01*
X18600000Y-7350000D01*
X18550000Y-7400000D01*
X18600000Y-7450000D01*
X18600000Y-8900000D02*
X18650000Y-8850000D01*
X18600000Y-8800000D01*
X18550000Y-8850000D01*
X18600000Y-8900000D01*
D12*
X11394500Y-7383000D02*
X11504500Y-7493000D01*
X11504500Y-7383000D02*
X11394500Y-7493000D01*
X11504500Y-7438000D02*
G75*
G02*
X11394500Y-7438000I-55000J0D01*
G01*
X11394500Y-7438000D02*
G75*
G02*
X11504500Y-7438000I55000J0D01*
G01*
X11394500Y-8907000D02*
X11504500Y-9017000D01*
X11504500Y-8907000D02*
X11394500Y-9017000D01*
X11504500Y-8962000D02*
G75*
G02*
X11394500Y-8962000I-55000J0D01*
G01*
X11394500Y-8962000D02*
G75*
G02*
X11504500Y-8962000I55000J0D01*
G01*
X11648500Y-7383000D02*
X11758500Y-7493000D01*
X11758500Y-7383000D02*
X11648500Y-7493000D01*
X11758500Y-7438000D02*
G75*
G02*
X11648500Y-7438000I-55000J0D01*
G01*
X11648500Y-7438000D02*
G75*
G02*
X11758500Y-7438000I55000J0D01*
G01*
X11648500Y-8907000D02*
X11758500Y-9017000D01*
X11758500Y-8907000D02*
X11648500Y-9017000D01*
X11758500Y-8962000D02*
G75*
G02*
X11648500Y-8962000I-55000J0D01*
G01*
X11648500Y-8962000D02*
G75*
G02*
X11758500Y-8962000I55000J0D01*
G01*
X11902500Y-7383000D02*
X12012500Y-7493000D01*
X12012500Y-7383000D02*
X11902500Y-7493000D01*
X12012500Y-7438000D02*
G75*
G02*
X11902500Y-7438000I-55000J0D01*
G01*
X11902500Y-7438000D02*
G75*
G02*
X12012500Y-7438000I55000J0D01*
G01*
X11902500Y-8907000D02*
X12012500Y-9017000D01*
X12012500Y-8907000D02*
X11902500Y-9017000D01*
X12012500Y-8962000D02*
G75*
G02*
X11902500Y-8962000I-55000J0D01*
G01*
X11902500Y-8962000D02*
G75*
G02*
X12012500Y-8962000I55000J0D01*
G01*
X12156500Y-7383000D02*
X12266500Y-7493000D01*
X12266500Y-7383000D02*
X12156500Y-7493000D01*
X12266500Y-7438000D02*
G75*
G02*
X12156500Y-7438000I-55000J0D01*
G01*
X12156500Y-7438000D02*
G75*
G02*
X12266500Y-7438000I55000J0D01*
G01*
X12156500Y-8907000D02*
X12266500Y-9017000D01*
X12266500Y-8907000D02*
X12156500Y-9017000D01*
X12266500Y-8962000D02*
G75*
G02*
X12156500Y-8962000I-55000J0D01*
G01*
X12156500Y-8962000D02*
G75*
G02*
X12266500Y-8962000I55000J0D01*
G01*
X12410500Y-7383000D02*
X12520500Y-7493000D01*
X12520500Y-7383000D02*
X12410500Y-7493000D01*
X12520500Y-7438000D02*
G75*
G02*
X12410500Y-7438000I-55000J0D01*
G01*
X12410500Y-7438000D02*
G75*
G02*
X12520500Y-7438000I55000J0D01*
G01*
X12410500Y-8907000D02*
X12520500Y-9017000D01*
X12520500Y-8907000D02*
X12410500Y-9017000D01*
X12520500Y-8962000D02*
G75*
G02*
X12410500Y-8962000I-55000J0D01*
G01*
X12410500Y-8962000D02*
G75*
G02*
X12520500Y-8962000I55000J0D01*
G01*
X12664500Y-7383000D02*
X12774500Y-7493000D01*
X12774500Y-7383000D02*
X12664500Y-7493000D01*
X12774500Y-7438000D02*
G75*
G02*
X12664500Y-7438000I-55000J0D01*
G01*
X12664500Y-7438000D02*
G75*
G02*
X12774500Y-7438000I55000J0D01*
G01*
X12664500Y-8907000D02*
X12774500Y-9017000D01*
X12774500Y-8907000D02*
X12664500Y-9017000D01*
X12774500Y-8962000D02*
G75*
G02*
X12664500Y-8962000I-55000J0D01*
G01*
X12664500Y-8962000D02*
G75*
G02*
X12774500Y-8962000I55000J0D01*
G01*
X12918500Y-7383000D02*
X13028500Y-7493000D01*
X13028500Y-7383000D02*
X12918500Y-7493000D01*
X13028500Y-7438000D02*
G75*
G02*
X12918500Y-7438000I-55000J0D01*
G01*
X12918500Y-7438000D02*
G75*
G02*
X13028500Y-7438000I55000J0D01*
G01*
X12918500Y-8907000D02*
X13028500Y-9017000D01*
X13028500Y-8907000D02*
X12918500Y-9017000D01*
X13028500Y-8962000D02*
G75*
G02*
X12918500Y-8962000I-55000J0D01*
G01*
X12918500Y-8962000D02*
G75*
G02*
X13028500Y-8962000I55000J0D01*
G01*
X13172500Y-7383000D02*
X13282500Y-7493000D01*
X13282500Y-7383000D02*
X13172500Y-7493000D01*
X13282500Y-7438000D02*
G75*
G02*
X13172500Y-7438000I-55000J0D01*
G01*
X13172500Y-7438000D02*
G75*
G02*
X13282500Y-7438000I55000J0D01*
G01*
X13172500Y-8907000D02*
X13282500Y-9017000D01*
X13282500Y-8907000D02*
X13172500Y-9017000D01*
X13282500Y-8962000D02*
G75*
G02*
X13172500Y-8962000I-55000J0D01*
G01*
X13172500Y-8962000D02*
G75*
G02*
X13282500Y-8962000I55000J0D01*
G01*
X13426500Y-7383000D02*
X13536500Y-7493000D01*
X13536500Y-7383000D02*
X13426500Y-7493000D01*
X13536500Y-7438000D02*
G75*
G02*
X13426500Y-7438000I-55000J0D01*
G01*
X13426500Y-7438000D02*
G75*
G02*
X13536500Y-7438000I55000J0D01*
G01*
X13426500Y-8907000D02*
X13536500Y-9017000D01*
X13536500Y-8907000D02*
X13426500Y-9017000D01*
X13536500Y-8962000D02*
G75*
G02*
X13426500Y-8962000I-55000J0D01*
G01*
X13426500Y-8962000D02*
G75*
G02*
X13536500Y-8962000I55000J0D01*
G01*
X13680500Y-7383000D02*
X13790500Y-7493000D01*
X13790500Y-7383000D02*
X13680500Y-7493000D01*
X13790500Y-7438000D02*
G75*
G02*
X13680500Y-7438000I-55000J0D01*
G01*
X13680500Y-7438000D02*
G75*
G02*
X13790500Y-7438000I55000J0D01*
G01*
X13680500Y-8907000D02*
X13790500Y-9017000D01*
X13790500Y-8907000D02*
X13680500Y-9017000D01*
X13790500Y-8962000D02*
G75*
G02*
X13680500Y-8962000I-55000J0D01*
G01*
X13680500Y-8962000D02*
G75*
G02*
X13790500Y-8962000I55000J0D01*
G01*
X13934500Y-7383000D02*
X14044500Y-7493000D01*
X14044500Y-7383000D02*
X13934500Y-7493000D01*
X14044500Y-7438000D02*
G75*
G02*
X13934500Y-7438000I-55000J0D01*
G01*
X13934500Y-7438000D02*
G75*
G02*
X14044500Y-7438000I55000J0D01*
G01*
X13934500Y-8907000D02*
X14044500Y-9017000D01*
X14044500Y-8907000D02*
X13934500Y-9017000D01*
X14044500Y-8962000D02*
G75*
G02*
X13934500Y-8962000I-55000J0D01*
G01*
X13934500Y-8962000D02*
G75*
G02*
X14044500Y-8962000I55000J0D01*
G01*
X13991000Y-5045000D02*
X14101000Y-5155000D01*
X14101000Y-5045000D02*
X13991000Y-5155000D01*
X14101000Y-5100000D02*
G75*
G02*
X13991000Y-5100000I-55000J0D01*
G01*
X13991000Y-5100000D02*
G75*
G02*
X14101000Y-5100000I55000J0D01*
G01*
X14188500Y-7383000D02*
X14298500Y-7493000D01*
X14298500Y-7383000D02*
X14188500Y-7493000D01*
X14298500Y-7438000D02*
G75*
G02*
X14188500Y-7438000I-55000J0D01*
G01*
X14188500Y-7438000D02*
G75*
G02*
X14298500Y-7438000I55000J0D01*
G01*
X14188500Y-8907000D02*
X14298500Y-9017000D01*
X14298500Y-8907000D02*
X14188500Y-9017000D01*
X14298500Y-8962000D02*
G75*
G02*
X14188500Y-8962000I-55000J0D01*
G01*
X14188500Y-8962000D02*
G75*
G02*
X14298500Y-8962000I55000J0D01*
G01*
X14245000Y-5045000D02*
X14355000Y-5155000D01*
X14355000Y-5045000D02*
X14245000Y-5155000D01*
X14355000Y-5100000D02*
G75*
G02*
X14245000Y-5100000I-55000J0D01*
G01*
X14245000Y-5100000D02*
G75*
G02*
X14355000Y-5100000I55000J0D01*
G01*
X14442500Y-7383000D02*
X14552500Y-7493000D01*
X14552500Y-7383000D02*
X14442500Y-7493000D01*
X14552500Y-7438000D02*
G75*
G02*
X14442500Y-7438000I-55000J0D01*
G01*
X14442500Y-7438000D02*
G75*
G02*
X14552500Y-7438000I55000J0D01*
G01*
X14442500Y-8907000D02*
X14552500Y-9017000D01*
X14552500Y-8907000D02*
X14442500Y-9017000D01*
X14552500Y-8962000D02*
G75*
G02*
X14442500Y-8962000I-55000J0D01*
G01*
X14442500Y-8962000D02*
G75*
G02*
X14552500Y-8962000I55000J0D01*
G01*
X14499000Y-5045000D02*
X14609000Y-5155000D01*
X14609000Y-5045000D02*
X14499000Y-5155000D01*
X14609000Y-5100000D02*
G75*
G02*
X14499000Y-5100000I-55000J0D01*
G01*
X14499000Y-5100000D02*
G75*
G02*
X14609000Y-5100000I55000J0D01*
G01*
X14696500Y-7383000D02*
X14806500Y-7493000D01*
X14806500Y-7383000D02*
X14696500Y-7493000D01*
X14806500Y-7438000D02*
G75*
G02*
X14696500Y-7438000I-55000J0D01*
G01*
X14696500Y-7438000D02*
G75*
G02*
X14806500Y-7438000I55000J0D01*
G01*
X14696500Y-8907000D02*
X14806500Y-9017000D01*
X14806500Y-8907000D02*
X14696500Y-9017000D01*
X14806500Y-8962000D02*
G75*
G02*
X14696500Y-8962000I-55000J0D01*
G01*
X14696500Y-8962000D02*
G75*
G02*
X14806500Y-8962000I55000J0D01*
G01*
X14950500Y-7383000D02*
X15060500Y-7493000D01*
X15060500Y-7383000D02*
X14950500Y-7493000D01*
X15060500Y-7438000D02*
G75*
G02*
X14950500Y-7438000I-55000J0D01*
G01*
X14950500Y-7438000D02*
G75*
G02*
X15060500Y-7438000I55000J0D01*
G01*
X14950500Y-8907000D02*
X15060500Y-9017000D01*
X15060500Y-8907000D02*
X14950500Y-9017000D01*
X15060500Y-8962000D02*
G75*
G02*
X14950500Y-8962000I-55000J0D01*
G01*
X14950500Y-8962000D02*
G75*
G02*
X15060500Y-8962000I55000J0D01*
G01*
X15045000Y-5164000D02*
X15155000Y-5274000D01*
X15155000Y-5164000D02*
X15045000Y-5274000D01*
X15155000Y-5219000D02*
G75*
G02*
X15045000Y-5219000I-55000J0D01*
G01*
X15045000Y-5219000D02*
G75*
G02*
X15155000Y-5219000I55000J0D01*
G01*
X15045000Y-5926000D02*
X15155000Y-6036000D01*
X15155000Y-5926000D02*
X15045000Y-6036000D01*
X15155000Y-5981000D02*
G75*
G02*
X15045000Y-5981000I-55000J0D01*
G01*
X15045000Y-5981000D02*
G75*
G02*
X15155000Y-5981000I55000J0D01*
G01*
X15204500Y-7383000D02*
X15314500Y-7493000D01*
X15314500Y-7383000D02*
X15204500Y-7493000D01*
X15314500Y-7438000D02*
G75*
G02*
X15204500Y-7438000I-55000J0D01*
G01*
X15204500Y-7438000D02*
G75*
G02*
X15314500Y-7438000I55000J0D01*
G01*
X15204500Y-8907000D02*
X15314500Y-9017000D01*
X15314500Y-8907000D02*
X15204500Y-9017000D01*
X15314500Y-8962000D02*
G75*
G02*
X15204500Y-8962000I-55000J0D01*
G01*
X15204500Y-8962000D02*
G75*
G02*
X15314500Y-8962000I55000J0D01*
G01*
X15458500Y-7383000D02*
X15568500Y-7493000D01*
X15568500Y-7383000D02*
X15458500Y-7493000D01*
X15568500Y-7438000D02*
G75*
G02*
X15458500Y-7438000I-55000J0D01*
G01*
X15458500Y-7438000D02*
G75*
G02*
X15568500Y-7438000I55000J0D01*
G01*
X15458500Y-8907000D02*
X15568500Y-9017000D01*
X15568500Y-8907000D02*
X15458500Y-9017000D01*
X15568500Y-8962000D02*
G75*
G02*
X15458500Y-8962000I-55000J0D01*
G01*
X15458500Y-8962000D02*
G75*
G02*
X15568500Y-8962000I55000J0D01*
G01*
X15712500Y-7383000D02*
X15822500Y-7493000D01*
X15822500Y-7383000D02*
X15712500Y-7493000D01*
X15822500Y-7438000D02*
G75*
G02*
X15712500Y-7438000I-55000J0D01*
G01*
X15712500Y-7438000D02*
G75*
G02*
X15822500Y-7438000I55000J0D01*
G01*
X15712500Y-8907000D02*
X15822500Y-9017000D01*
X15822500Y-8907000D02*
X15712500Y-9017000D01*
X15822500Y-8962000D02*
G75*
G02*
X15712500Y-8962000I-55000J0D01*
G01*
X15712500Y-8962000D02*
G75*
G02*
X15822500Y-8962000I55000J0D01*
G01*
X15966500Y-7383000D02*
X16076500Y-7493000D01*
X16076500Y-7383000D02*
X15966500Y-7493000D01*
X16076500Y-7438000D02*
G75*
G02*
X15966500Y-7438000I-55000J0D01*
G01*
X15966500Y-7438000D02*
G75*
G02*
X16076500Y-7438000I55000J0D01*
G01*
X15966500Y-8907000D02*
X16076500Y-9017000D01*
X16076500Y-8907000D02*
X15966500Y-9017000D01*
X16076500Y-8962000D02*
G75*
G02*
X15966500Y-8962000I-55000J0D01*
G01*
X15966500Y-8962000D02*
G75*
G02*
X16076500Y-8962000I55000J0D01*
G01*
X16220500Y-7383000D02*
X16330500Y-7493000D01*
X16330500Y-7383000D02*
X16220500Y-7493000D01*
X16330500Y-7438000D02*
G75*
G02*
X16220500Y-7438000I-55000J0D01*
G01*
X16220500Y-7438000D02*
G75*
G02*
X16330500Y-7438000I55000J0D01*
G01*
X16220500Y-8907000D02*
X16330500Y-9017000D01*
X16330500Y-8907000D02*
X16220500Y-9017000D01*
X16330500Y-8962000D02*
G75*
G02*
X16220500Y-8962000I-55000J0D01*
G01*
X16220500Y-8962000D02*
G75*
G02*
X16330500Y-8962000I55000J0D01*
G01*
D13*
X8615000Y-8075000D02*
X8765000Y-8225000D01*
X8765000Y-8075000D02*
X8615000Y-8225000D01*
X8690000Y-8075000D02*
X8690000Y-8225000D01*
X8615000Y-8150000D02*
X8765000Y-8150000D01*
D10*
X8615000Y-8085000D02*
X8615000Y-8215000D01*
X8765000Y-8215000D02*
G75*
G02*
X8615000Y-8215000I-75000J0D01*
G01*
X8765000Y-8215000D02*
X8765000Y-8085000D01*
X8765000Y-8085000D02*
G75*
G03*
X8615000Y-8085000I-75000J0D01*
G01*
D13*
X9735000Y-8075000D02*
X9885000Y-8225000D01*
X9885000Y-8075000D02*
X9735000Y-8225000D01*
X9810000Y-8075000D02*
X9810000Y-8225000D01*
X9735000Y-8150000D02*
X9885000Y-8150000D01*
D10*
X9735000Y-8085000D02*
X9735000Y-8215000D01*
X9885000Y-8215000D02*
G75*
G02*
X9735000Y-8215000I-75000J0D01*
G01*
X9885000Y-8215000D02*
X9885000Y-8085000D01*
X9885000Y-8085000D02*
G75*
G03*
X9735000Y-8085000I-75000J0D01*
G01*
D13*
X17715000Y-8075000D02*
X17865000Y-8225000D01*
X17865000Y-8075000D02*
X17715000Y-8225000D01*
X17790000Y-8075000D02*
X17790000Y-8225000D01*
X17715000Y-8150000D02*
X17865000Y-8150000D01*
D10*
X17715000Y-8085000D02*
X17715000Y-8215000D01*
X17865000Y-8215000D02*
G75*
G02*
X17715000Y-8215000I-75000J0D01*
G01*
X17865000Y-8215000D02*
X17865000Y-8085000D01*
X17865000Y-8085000D02*
G75*
G03*
X17715000Y-8085000I-75000J0D01*
G01*
D13*
X18835000Y-8075000D02*
X18985000Y-8225000D01*
X18985000Y-8075000D02*
X18835000Y-8225000D01*
X18910000Y-8075000D02*
X18910000Y-8225000D01*
X18835000Y-8150000D02*
X18985000Y-8150000D01*
D10*
X18835000Y-8085000D02*
X18835000Y-8215000D01*
X18985000Y-8215000D02*
G75*
G02*
X18835000Y-8215000I-75000J0D01*
G01*
X18985000Y-8215000D02*
X18985000Y-8085000D01*
X18985000Y-8085000D02*
G75*
G03*
X18835000Y-8085000I-75000J0D01*
G01*
D11*
X8555777Y-11516484D02*
X8555777Y-11316484D01*
X8555777Y-11316484D02*
X8603396Y-11316484D01*
X8603396Y-11316484D02*
X8631967Y-11326008D01*
X8631967Y-11326008D02*
X8651015Y-11345055D01*
X8651015Y-11345055D02*
X8660539Y-11364103D01*
X8660539Y-11364103D02*
X8670063Y-11402198D01*
X8670063Y-11402198D02*
X8670063Y-11430769D01*
X8670063Y-11430769D02*
X8660539Y-11468865D01*
X8660539Y-11468865D02*
X8651015Y-11487912D01*
X8651015Y-11487912D02*
X8631967Y-11506960D01*
X8631967Y-11506960D02*
X8603396Y-11516484D01*
X8603396Y-11516484D02*
X8555777Y-11516484D01*
X8755777Y-11516484D02*
X8755777Y-11383150D01*
X8755777Y-11421246D02*
X8765301Y-11402198D01*
X8765301Y-11402198D02*
X8774824Y-11392674D01*
X8774824Y-11392674D02*
X8793872Y-11383150D01*
X8793872Y-11383150D02*
X8812920Y-11383150D01*
X8879586Y-11516484D02*
X8879586Y-11383150D01*
X8879586Y-11316484D02*
X8870063Y-11326008D01*
X8870063Y-11326008D02*
X8879586Y-11335531D01*
X8879586Y-11335531D02*
X8889110Y-11326008D01*
X8889110Y-11326008D02*
X8879586Y-11316484D01*
X8879586Y-11316484D02*
X8879586Y-11335531D01*
X9003396Y-11516484D02*
X8984348Y-11506960D01*
X8984348Y-11506960D02*
X8974824Y-11487912D01*
X8974824Y-11487912D02*
X8974824Y-11316484D01*
X9108158Y-11516484D02*
X9089110Y-11506960D01*
X9089110Y-11506960D02*
X9079586Y-11487912D01*
X9079586Y-11487912D02*
X9079586Y-11316484D01*
X9336729Y-11516484D02*
X9336729Y-11316484D01*
X9336729Y-11316484D02*
X9403396Y-11459341D01*
X9403396Y-11459341D02*
X9470063Y-11316484D01*
X9470063Y-11316484D02*
X9470063Y-11516484D01*
X9651015Y-11516484D02*
X9651015Y-11411722D01*
X9651015Y-11411722D02*
X9641491Y-11392674D01*
X9641491Y-11392674D02*
X9622444Y-11383150D01*
X9622444Y-11383150D02*
X9584348Y-11383150D01*
X9584348Y-11383150D02*
X9565301Y-11392674D01*
X9651015Y-11506960D02*
X9631967Y-11516484D01*
X9631967Y-11516484D02*
X9584348Y-11516484D01*
X9584348Y-11516484D02*
X9565301Y-11506960D01*
X9565301Y-11506960D02*
X9555777Y-11487912D01*
X9555777Y-11487912D02*
X9555777Y-11468865D01*
X9555777Y-11468865D02*
X9565301Y-11449817D01*
X9565301Y-11449817D02*
X9584348Y-11440293D01*
X9584348Y-11440293D02*
X9631967Y-11440293D01*
X9631967Y-11440293D02*
X9651015Y-11430769D01*
X9746253Y-11383150D02*
X9746253Y-11583150D01*
X9746253Y-11392674D02*
X9765301Y-11383150D01*
X9765301Y-11383150D02*
X9803396Y-11383150D01*
X9803396Y-11383150D02*
X9822444Y-11392674D01*
X9822444Y-11392674D02*
X9831967Y-11402198D01*
X9831967Y-11402198D02*
X9841491Y-11421246D01*
X9841491Y-11421246D02*
X9841491Y-11478388D01*
X9841491Y-11478388D02*
X9831967Y-11497436D01*
X9831967Y-11497436D02*
X9822444Y-11506960D01*
X9822444Y-11506960D02*
X9803396Y-11516484D01*
X9803396Y-11516484D02*
X9765301Y-11516484D01*
X9765301Y-11516484D02*
X9746253Y-11506960D01*
X9927205Y-11497436D02*
X9936729Y-11506960D01*
X9936729Y-11506960D02*
X9927205Y-11516484D01*
X9927205Y-11516484D02*
X9917682Y-11506960D01*
X9917682Y-11506960D02*
X9927205Y-11497436D01*
X9927205Y-11497436D02*
X9927205Y-11516484D01*
X9927205Y-11392674D02*
X9936729Y-11402198D01*
X9936729Y-11402198D02*
X9927205Y-11411722D01*
X9927205Y-11411722D02*
X9917682Y-11402198D01*
X9917682Y-11402198D02*
X9927205Y-11392674D01*
X9927205Y-11392674D02*
X9927205Y-11411722D01*
D10*
X8255000Y-11825000D02*
X8295000Y-11865000D01*
X8295000Y-11825000D02*
X8255000Y-11865000D01*
D11*
X8593872Y-11736484D02*
X8612920Y-11736484D01*
X8612920Y-11736484D02*
X8631967Y-11746008D01*
X8631967Y-11746008D02*
X8641491Y-11755531D01*
X8641491Y-11755531D02*
X8651015Y-11774579D01*
X8651015Y-11774579D02*
X8660539Y-11812674D01*
X8660539Y-11812674D02*
X8660539Y-11860293D01*
X8660539Y-11860293D02*
X8651015Y-11898388D01*
X8651015Y-11898388D02*
X8641491Y-11917436D01*
X8641491Y-11917436D02*
X8631967Y-11926960D01*
X8631967Y-11926960D02*
X8612920Y-11936484D01*
X8612920Y-11936484D02*
X8593872Y-11936484D01*
X8593872Y-11936484D02*
X8574824Y-11926960D01*
X8574824Y-11926960D02*
X8565301Y-11917436D01*
X8565301Y-11917436D02*
X8555777Y-11898388D01*
X8555777Y-11898388D02*
X8546253Y-11860293D01*
X8546253Y-11860293D02*
X8546253Y-11812674D01*
X8546253Y-11812674D02*
X8555777Y-11774579D01*
X8555777Y-11774579D02*
X8565301Y-11755531D01*
X8565301Y-11755531D02*
X8574824Y-11746008D01*
X8574824Y-11746008D02*
X8593872Y-11736484D01*
X8746253Y-11917436D02*
X8755777Y-11926960D01*
X8755777Y-11926960D02*
X8746253Y-11936484D01*
X8746253Y-11936484D02*
X8736729Y-11926960D01*
X8736729Y-11926960D02*
X8746253Y-11917436D01*
X8746253Y-11917436D02*
X8746253Y-11936484D01*
X8927205Y-11803150D02*
X8927205Y-11936484D01*
X8879586Y-11726960D02*
X8831967Y-11869817D01*
X8831967Y-11869817D02*
X8955777Y-11869817D01*
X9070063Y-11736484D02*
X9089110Y-11736484D01*
X9089110Y-11736484D02*
X9108158Y-11746008D01*
X9108158Y-11746008D02*
X9117682Y-11755531D01*
X9117682Y-11755531D02*
X9127205Y-11774579D01*
X9127205Y-11774579D02*
X9136729Y-11812674D01*
X9136729Y-11812674D02*
X9136729Y-11860293D01*
X9136729Y-11860293D02*
X9127205Y-11898388D01*
X9127205Y-11898388D02*
X9117682Y-11917436D01*
X9117682Y-11917436D02*
X9108158Y-11926960D01*
X9108158Y-11926960D02*
X9089110Y-11936484D01*
X9089110Y-11936484D02*
X9070063Y-11936484D01*
X9070063Y-11936484D02*
X9051015Y-11926960D01*
X9051015Y-11926960D02*
X9041491Y-11917436D01*
X9041491Y-11917436D02*
X9031967Y-11898388D01*
X9031967Y-11898388D02*
X9022444Y-11860293D01*
X9022444Y-11860293D02*
X9022444Y-11812674D01*
X9022444Y-11812674D02*
X9031967Y-11774579D01*
X9031967Y-11774579D02*
X9041491Y-11755531D01*
X9041491Y-11755531D02*
X9051015Y-11746008D01*
X9051015Y-11746008D02*
X9070063Y-11736484D01*
X9260539Y-11736484D02*
X9279586Y-11736484D01*
X9279586Y-11736484D02*
X9298634Y-11746008D01*
X9298634Y-11746008D02*
X9308158Y-11755531D01*
X9308158Y-11755531D02*
X9317682Y-11774579D01*
X9317682Y-11774579D02*
X9327205Y-11812674D01*
X9327205Y-11812674D02*
X9327205Y-11860293D01*
X9327205Y-11860293D02*
X9317682Y-11898388D01*
X9317682Y-11898388D02*
X9308158Y-11917436D01*
X9308158Y-11917436D02*
X9298634Y-11926960D01*
X9298634Y-11926960D02*
X9279586Y-11936484D01*
X9279586Y-11936484D02*
X9260539Y-11936484D01*
X9260539Y-11936484D02*
X9241491Y-11926960D01*
X9241491Y-11926960D02*
X9231967Y-11917436D01*
X9231967Y-11917436D02*
X9222444Y-11898388D01*
X9222444Y-11898388D02*
X9212920Y-11860293D01*
X9212920Y-11860293D02*
X9212920Y-11812674D01*
X9212920Y-11812674D02*
X9222444Y-11774579D01*
X9222444Y-11774579D02*
X9231967Y-11755531D01*
X9231967Y-11755531D02*
X9241491Y-11746008D01*
X9241491Y-11746008D02*
X9260539Y-11736484D01*
X9412920Y-11936484D02*
X9412920Y-11803150D01*
X9412920Y-11822198D02*
X9422444Y-11812674D01*
X9422444Y-11812674D02*
X9441491Y-11803150D01*
X9441491Y-11803150D02*
X9470063Y-11803150D01*
X9470063Y-11803150D02*
X9489110Y-11812674D01*
X9489110Y-11812674D02*
X9498634Y-11831722D01*
X9498634Y-11831722D02*
X9498634Y-11936484D01*
X9498634Y-11831722D02*
X9508158Y-11812674D01*
X9508158Y-11812674D02*
X9527205Y-11803150D01*
X9527205Y-11803150D02*
X9555777Y-11803150D01*
X9555777Y-11803150D02*
X9574825Y-11812674D01*
X9574825Y-11812674D02*
X9584348Y-11831722D01*
X9584348Y-11831722D02*
X9584348Y-11936484D01*
X9679586Y-11936484D02*
X9679586Y-11803150D01*
X9679586Y-11822198D02*
X9689110Y-11812674D01*
X9689110Y-11812674D02*
X9708158Y-11803150D01*
X9708158Y-11803150D02*
X9736729Y-11803150D01*
X9736729Y-11803150D02*
X9755777Y-11812674D01*
X9755777Y-11812674D02*
X9765301Y-11831722D01*
X9765301Y-11831722D02*
X9765301Y-11936484D01*
X9765301Y-11831722D02*
X9774825Y-11812674D01*
X9774825Y-11812674D02*
X9793872Y-11803150D01*
X9793872Y-11803150D02*
X9822444Y-11803150D01*
X9822444Y-11803150D02*
X9841491Y-11812674D01*
X9841491Y-11812674D02*
X9851015Y-11831722D01*
X9851015Y-11831722D02*
X9851015Y-11936484D01*
X10241491Y-11726960D02*
X10070063Y-11984103D01*
X10498634Y-11736484D02*
X10517682Y-11736484D01*
X10517682Y-11736484D02*
X10536729Y-11746008D01*
X10536729Y-11746008D02*
X10546253Y-11755531D01*
X10546253Y-11755531D02*
X10555777Y-11774579D01*
X10555777Y-11774579D02*
X10565301Y-11812674D01*
X10565301Y-11812674D02*
X10565301Y-11860293D01*
X10565301Y-11860293D02*
X10555777Y-11898388D01*
X10555777Y-11898388D02*
X10546253Y-11917436D01*
X10546253Y-11917436D02*
X10536729Y-11926960D01*
X10536729Y-11926960D02*
X10517682Y-11936484D01*
X10517682Y-11936484D02*
X10498634Y-11936484D01*
X10498634Y-11936484D02*
X10479587Y-11926960D01*
X10479587Y-11926960D02*
X10470063Y-11917436D01*
X10470063Y-11917436D02*
X10460539Y-11898388D01*
X10460539Y-11898388D02*
X10451015Y-11860293D01*
X10451015Y-11860293D02*
X10451015Y-11812674D01*
X10451015Y-11812674D02*
X10460539Y-11774579D01*
X10460539Y-11774579D02*
X10470063Y-11755531D01*
X10470063Y-11755531D02*
X10479587Y-11746008D01*
X10479587Y-11746008D02*
X10498634Y-11736484D01*
X10651015Y-11917436D02*
X10660539Y-11926960D01*
X10660539Y-11926960D02*
X10651015Y-11936484D01*
X10651015Y-11936484D02*
X10641491Y-11926960D01*
X10641491Y-11926960D02*
X10651015Y-11917436D01*
X10651015Y-11917436D02*
X10651015Y-11936484D01*
X10784348Y-11736484D02*
X10803396Y-11736484D01*
X10803396Y-11736484D02*
X10822444Y-11746008D01*
X10822444Y-11746008D02*
X10831968Y-11755531D01*
X10831968Y-11755531D02*
X10841491Y-11774579D01*
X10841491Y-11774579D02*
X10851015Y-11812674D01*
X10851015Y-11812674D02*
X10851015Y-11860293D01*
X10851015Y-11860293D02*
X10841491Y-11898388D01*
X10841491Y-11898388D02*
X10831968Y-11917436D01*
X10831968Y-11917436D02*
X10822444Y-11926960D01*
X10822444Y-11926960D02*
X10803396Y-11936484D01*
X10803396Y-11936484D02*
X10784348Y-11936484D01*
X10784348Y-11936484D02*
X10765301Y-11926960D01*
X10765301Y-11926960D02*
X10755777Y-11917436D01*
X10755777Y-11917436D02*
X10746253Y-11898388D01*
X10746253Y-11898388D02*
X10736729Y-11860293D01*
X10736729Y-11860293D02*
X10736729Y-11812674D01*
X10736729Y-11812674D02*
X10746253Y-11774579D01*
X10746253Y-11774579D02*
X10755777Y-11755531D01*
X10755777Y-11755531D02*
X10765301Y-11746008D01*
X10765301Y-11746008D02*
X10784348Y-11736484D01*
X11041491Y-11936484D02*
X10927206Y-11936484D01*
X10984348Y-11936484D02*
X10984348Y-11736484D01*
X10984348Y-11736484D02*
X10965301Y-11765055D01*
X10965301Y-11765055D02*
X10946253Y-11784103D01*
X10946253Y-11784103D02*
X10927206Y-11793627D01*
X11222444Y-11736484D02*
X11127206Y-11736484D01*
X11127206Y-11736484D02*
X11117682Y-11831722D01*
X11117682Y-11831722D02*
X11127206Y-11822198D01*
X11127206Y-11822198D02*
X11146253Y-11812674D01*
X11146253Y-11812674D02*
X11193872Y-11812674D01*
X11193872Y-11812674D02*
X11212920Y-11822198D01*
X11212920Y-11822198D02*
X11222444Y-11831722D01*
X11222444Y-11831722D02*
X11231967Y-11850769D01*
X11231967Y-11850769D02*
X11231967Y-11898388D01*
X11231967Y-11898388D02*
X11222444Y-11917436D01*
X11222444Y-11917436D02*
X11212920Y-11926960D01*
X11212920Y-11926960D02*
X11193872Y-11936484D01*
X11193872Y-11936484D02*
X11146253Y-11936484D01*
X11146253Y-11936484D02*
X11127206Y-11926960D01*
X11127206Y-11926960D02*
X11117682Y-11917436D01*
X11298634Y-11736484D02*
X11431967Y-11736484D01*
X11431967Y-11736484D02*
X11346253Y-11936484D01*
X11498634Y-11736484D02*
X11498634Y-11774579D01*
X11574825Y-11736484D02*
X11574825Y-11774579D01*
X11870063Y-12012674D02*
X11860539Y-12003150D01*
X11860539Y-12003150D02*
X11841491Y-11974579D01*
X11841491Y-11974579D02*
X11831968Y-11955531D01*
X11831968Y-11955531D02*
X11822444Y-11926960D01*
X11822444Y-11926960D02*
X11812920Y-11879341D01*
X11812920Y-11879341D02*
X11812920Y-11841246D01*
X11812920Y-11841246D02*
X11822444Y-11793627D01*
X11822444Y-11793627D02*
X11831968Y-11765055D01*
X11831968Y-11765055D02*
X11841491Y-11746008D01*
X11841491Y-11746008D02*
X11860539Y-11717436D01*
X11860539Y-11717436D02*
X11870063Y-11707912D01*
X11936729Y-11755531D02*
X11946253Y-11746008D01*
X11946253Y-11746008D02*
X11965301Y-11736484D01*
X11965301Y-11736484D02*
X12012920Y-11736484D01*
X12012920Y-11736484D02*
X12031968Y-11746008D01*
X12031968Y-11746008D02*
X12041491Y-11755531D01*
X12041491Y-11755531D02*
X12051015Y-11774579D01*
X12051015Y-11774579D02*
X12051015Y-11793627D01*
X12051015Y-11793627D02*
X12041491Y-11822198D01*
X12041491Y-11822198D02*
X11927206Y-11936484D01*
X11927206Y-11936484D02*
X12051015Y-11936484D01*
X12222444Y-11736484D02*
X12184348Y-11736484D01*
X12184348Y-11736484D02*
X12165301Y-11746008D01*
X12165301Y-11746008D02*
X12155777Y-11755531D01*
X12155777Y-11755531D02*
X12136729Y-11784103D01*
X12136729Y-11784103D02*
X12127206Y-11822198D01*
X12127206Y-11822198D02*
X12127206Y-11898388D01*
X12127206Y-11898388D02*
X12136729Y-11917436D01*
X12136729Y-11917436D02*
X12146253Y-11926960D01*
X12146253Y-11926960D02*
X12165301Y-11936484D01*
X12165301Y-11936484D02*
X12203396Y-11936484D01*
X12203396Y-11936484D02*
X12222444Y-11926960D01*
X12222444Y-11926960D02*
X12231968Y-11917436D01*
X12231968Y-11917436D02*
X12241491Y-11898388D01*
X12241491Y-11898388D02*
X12241491Y-11850769D01*
X12241491Y-11850769D02*
X12231968Y-11831722D01*
X12231968Y-11831722D02*
X12222444Y-11822198D01*
X12222444Y-11822198D02*
X12203396Y-11812674D01*
X12203396Y-11812674D02*
X12165301Y-11812674D01*
X12165301Y-11812674D02*
X12146253Y-11822198D01*
X12146253Y-11822198D02*
X12136729Y-11831722D01*
X12136729Y-11831722D02*
X12127206Y-11850769D01*
X12479587Y-11936484D02*
X12479587Y-11736484D01*
X12565301Y-11936484D02*
X12565301Y-11831722D01*
X12565301Y-11831722D02*
X12555777Y-11812674D01*
X12555777Y-11812674D02*
X12536730Y-11803150D01*
X12536730Y-11803150D02*
X12508158Y-11803150D01*
X12508158Y-11803150D02*
X12489110Y-11812674D01*
X12489110Y-11812674D02*
X12479587Y-11822198D01*
X12689110Y-11936484D02*
X12670063Y-11926960D01*
X12670063Y-11926960D02*
X12660539Y-11917436D01*
X12660539Y-11917436D02*
X12651015Y-11898388D01*
X12651015Y-11898388D02*
X12651015Y-11841246D01*
X12651015Y-11841246D02*
X12660539Y-11822198D01*
X12660539Y-11822198D02*
X12670063Y-11812674D01*
X12670063Y-11812674D02*
X12689110Y-11803150D01*
X12689110Y-11803150D02*
X12717682Y-11803150D01*
X12717682Y-11803150D02*
X12736730Y-11812674D01*
X12736730Y-11812674D02*
X12746253Y-11822198D01*
X12746253Y-11822198D02*
X12755777Y-11841246D01*
X12755777Y-11841246D02*
X12755777Y-11898388D01*
X12755777Y-11898388D02*
X12746253Y-11917436D01*
X12746253Y-11917436D02*
X12736730Y-11926960D01*
X12736730Y-11926960D02*
X12717682Y-11936484D01*
X12717682Y-11936484D02*
X12689110Y-11936484D01*
X12870063Y-11936484D02*
X12851015Y-11926960D01*
X12851015Y-11926960D02*
X12841491Y-11907912D01*
X12841491Y-11907912D02*
X12841491Y-11736484D01*
X13022444Y-11926960D02*
X13003396Y-11936484D01*
X13003396Y-11936484D02*
X12965301Y-11936484D01*
X12965301Y-11936484D02*
X12946253Y-11926960D01*
X12946253Y-11926960D02*
X12936730Y-11907912D01*
X12936730Y-11907912D02*
X12936730Y-11831722D01*
X12936730Y-11831722D02*
X12946253Y-11812674D01*
X12946253Y-11812674D02*
X12965301Y-11803150D01*
X12965301Y-11803150D02*
X13003396Y-11803150D01*
X13003396Y-11803150D02*
X13022444Y-11812674D01*
X13022444Y-11812674D02*
X13031968Y-11831722D01*
X13031968Y-11831722D02*
X13031968Y-11850769D01*
X13031968Y-11850769D02*
X12936730Y-11869817D01*
X13108158Y-11926960D02*
X13127206Y-11936484D01*
X13127206Y-11936484D02*
X13165301Y-11936484D01*
X13165301Y-11936484D02*
X13184349Y-11926960D01*
X13184349Y-11926960D02*
X13193872Y-11907912D01*
X13193872Y-11907912D02*
X13193872Y-11898388D01*
X13193872Y-11898388D02*
X13184349Y-11879341D01*
X13184349Y-11879341D02*
X13165301Y-11869817D01*
X13165301Y-11869817D02*
X13136730Y-11869817D01*
X13136730Y-11869817D02*
X13117682Y-11860293D01*
X13117682Y-11860293D02*
X13108158Y-11841246D01*
X13108158Y-11841246D02*
X13108158Y-11831722D01*
X13108158Y-11831722D02*
X13117682Y-11812674D01*
X13117682Y-11812674D02*
X13136730Y-11803150D01*
X13136730Y-11803150D02*
X13165301Y-11803150D01*
X13165301Y-11803150D02*
X13184349Y-11812674D01*
X13260539Y-12012674D02*
X13270063Y-12003150D01*
X13270063Y-12003150D02*
X13289111Y-11974579D01*
X13289111Y-11974579D02*
X13298634Y-11955531D01*
X13298634Y-11955531D02*
X13308158Y-11926960D01*
X13308158Y-11926960D02*
X13317682Y-11879341D01*
X13317682Y-11879341D02*
X13317682Y-11841246D01*
X13317682Y-11841246D02*
X13308158Y-11793627D01*
X13308158Y-11793627D02*
X13298634Y-11765055D01*
X13298634Y-11765055D02*
X13289111Y-11746008D01*
X13289111Y-11746008D02*
X13270063Y-11717436D01*
X13270063Y-11717436D02*
X13260539Y-11707912D01*
D10*
X8295000Y-12109000D02*
G75*
G02*
X8225000Y-12109000I-35000J0D01*
G01*
X8225000Y-12109000D02*
G75*
G02*
X8295000Y-12109000I35000J0D01*
G01*
D11*
X8593872Y-12000484D02*
X8612920Y-12000484D01*
X8612920Y-12000484D02*
X8631967Y-12010008D01*
X8631967Y-12010008D02*
X8641491Y-12019531D01*
X8641491Y-12019531D02*
X8651015Y-12038579D01*
X8651015Y-12038579D02*
X8660539Y-12076674D01*
X8660539Y-12076674D02*
X8660539Y-12124293D01*
X8660539Y-12124293D02*
X8651015Y-12162388D01*
X8651015Y-12162388D02*
X8641491Y-12181436D01*
X8641491Y-12181436D02*
X8631967Y-12190960D01*
X8631967Y-12190960D02*
X8612920Y-12200484D01*
X8612920Y-12200484D02*
X8593872Y-12200484D01*
X8593872Y-12200484D02*
X8574824Y-12190960D01*
X8574824Y-12190960D02*
X8565301Y-12181436D01*
X8565301Y-12181436D02*
X8555777Y-12162388D01*
X8555777Y-12162388D02*
X8546253Y-12124293D01*
X8546253Y-12124293D02*
X8546253Y-12076674D01*
X8546253Y-12076674D02*
X8555777Y-12038579D01*
X8555777Y-12038579D02*
X8565301Y-12019531D01*
X8565301Y-12019531D02*
X8574824Y-12010008D01*
X8574824Y-12010008D02*
X8593872Y-12000484D01*
X8746253Y-12181436D02*
X8755777Y-12190960D01*
X8755777Y-12190960D02*
X8746253Y-12200484D01*
X8746253Y-12200484D02*
X8736729Y-12190960D01*
X8736729Y-12190960D02*
X8746253Y-12181436D01*
X8746253Y-12181436D02*
X8746253Y-12200484D01*
X8822444Y-12000484D02*
X8955777Y-12000484D01*
X8955777Y-12000484D02*
X8870063Y-12200484D01*
X9070063Y-12000484D02*
X9089110Y-12000484D01*
X9089110Y-12000484D02*
X9108158Y-12010008D01*
X9108158Y-12010008D02*
X9117682Y-12019531D01*
X9117682Y-12019531D02*
X9127205Y-12038579D01*
X9127205Y-12038579D02*
X9136729Y-12076674D01*
X9136729Y-12076674D02*
X9136729Y-12124293D01*
X9136729Y-12124293D02*
X9127205Y-12162388D01*
X9127205Y-12162388D02*
X9117682Y-12181436D01*
X9117682Y-12181436D02*
X9108158Y-12190960D01*
X9108158Y-12190960D02*
X9089110Y-12200484D01*
X9089110Y-12200484D02*
X9070063Y-12200484D01*
X9070063Y-12200484D02*
X9051015Y-12190960D01*
X9051015Y-12190960D02*
X9041491Y-12181436D01*
X9041491Y-12181436D02*
X9031967Y-12162388D01*
X9031967Y-12162388D02*
X9022444Y-12124293D01*
X9022444Y-12124293D02*
X9022444Y-12076674D01*
X9022444Y-12076674D02*
X9031967Y-12038579D01*
X9031967Y-12038579D02*
X9041491Y-12019531D01*
X9041491Y-12019531D02*
X9051015Y-12010008D01*
X9051015Y-12010008D02*
X9070063Y-12000484D01*
X9260539Y-12000484D02*
X9279586Y-12000484D01*
X9279586Y-12000484D02*
X9298634Y-12010008D01*
X9298634Y-12010008D02*
X9308158Y-12019531D01*
X9308158Y-12019531D02*
X9317682Y-12038579D01*
X9317682Y-12038579D02*
X9327205Y-12076674D01*
X9327205Y-12076674D02*
X9327205Y-12124293D01*
X9327205Y-12124293D02*
X9317682Y-12162388D01*
X9317682Y-12162388D02*
X9308158Y-12181436D01*
X9308158Y-12181436D02*
X9298634Y-12190960D01*
X9298634Y-12190960D02*
X9279586Y-12200484D01*
X9279586Y-12200484D02*
X9260539Y-12200484D01*
X9260539Y-12200484D02*
X9241491Y-12190960D01*
X9241491Y-12190960D02*
X9231967Y-12181436D01*
X9231967Y-12181436D02*
X9222444Y-12162388D01*
X9222444Y-12162388D02*
X9212920Y-12124293D01*
X9212920Y-12124293D02*
X9212920Y-12076674D01*
X9212920Y-12076674D02*
X9222444Y-12038579D01*
X9222444Y-12038579D02*
X9231967Y-12019531D01*
X9231967Y-12019531D02*
X9241491Y-12010008D01*
X9241491Y-12010008D02*
X9260539Y-12000484D01*
X9412920Y-12200484D02*
X9412920Y-12067150D01*
X9412920Y-12086198D02*
X9422444Y-12076674D01*
X9422444Y-12076674D02*
X9441491Y-12067150D01*
X9441491Y-12067150D02*
X9470063Y-12067150D01*
X9470063Y-12067150D02*
X9489110Y-12076674D01*
X9489110Y-12076674D02*
X9498634Y-12095722D01*
X9498634Y-12095722D02*
X9498634Y-12200484D01*
X9498634Y-12095722D02*
X9508158Y-12076674D01*
X9508158Y-12076674D02*
X9527205Y-12067150D01*
X9527205Y-12067150D02*
X9555777Y-12067150D01*
X9555777Y-12067150D02*
X9574825Y-12076674D01*
X9574825Y-12076674D02*
X9584348Y-12095722D01*
X9584348Y-12095722D02*
X9584348Y-12200484D01*
X9679586Y-12200484D02*
X9679586Y-12067150D01*
X9679586Y-12086198D02*
X9689110Y-12076674D01*
X9689110Y-12076674D02*
X9708158Y-12067150D01*
X9708158Y-12067150D02*
X9736729Y-12067150D01*
X9736729Y-12067150D02*
X9755777Y-12076674D01*
X9755777Y-12076674D02*
X9765301Y-12095722D01*
X9765301Y-12095722D02*
X9765301Y-12200484D01*
X9765301Y-12095722D02*
X9774825Y-12076674D01*
X9774825Y-12076674D02*
X9793872Y-12067150D01*
X9793872Y-12067150D02*
X9822444Y-12067150D01*
X9822444Y-12067150D02*
X9841491Y-12076674D01*
X9841491Y-12076674D02*
X9851015Y-12095722D01*
X9851015Y-12095722D02*
X9851015Y-12200484D01*
X10241491Y-11990960D02*
X10070063Y-12248103D01*
X10498634Y-12000484D02*
X10517682Y-12000484D01*
X10517682Y-12000484D02*
X10536729Y-12010008D01*
X10536729Y-12010008D02*
X10546253Y-12019531D01*
X10546253Y-12019531D02*
X10555777Y-12038579D01*
X10555777Y-12038579D02*
X10565301Y-12076674D01*
X10565301Y-12076674D02*
X10565301Y-12124293D01*
X10565301Y-12124293D02*
X10555777Y-12162388D01*
X10555777Y-12162388D02*
X10546253Y-12181436D01*
X10546253Y-12181436D02*
X10536729Y-12190960D01*
X10536729Y-12190960D02*
X10517682Y-12200484D01*
X10517682Y-12200484D02*
X10498634Y-12200484D01*
X10498634Y-12200484D02*
X10479587Y-12190960D01*
X10479587Y-12190960D02*
X10470063Y-12181436D01*
X10470063Y-12181436D02*
X10460539Y-12162388D01*
X10460539Y-12162388D02*
X10451015Y-12124293D01*
X10451015Y-12124293D02*
X10451015Y-12076674D01*
X10451015Y-12076674D02*
X10460539Y-12038579D01*
X10460539Y-12038579D02*
X10470063Y-12019531D01*
X10470063Y-12019531D02*
X10479587Y-12010008D01*
X10479587Y-12010008D02*
X10498634Y-12000484D01*
X10651015Y-12181436D02*
X10660539Y-12190960D01*
X10660539Y-12190960D02*
X10651015Y-12200484D01*
X10651015Y-12200484D02*
X10641491Y-12190960D01*
X10641491Y-12190960D02*
X10651015Y-12181436D01*
X10651015Y-12181436D02*
X10651015Y-12200484D01*
X10784348Y-12000484D02*
X10803396Y-12000484D01*
X10803396Y-12000484D02*
X10822444Y-12010008D01*
X10822444Y-12010008D02*
X10831968Y-12019531D01*
X10831968Y-12019531D02*
X10841491Y-12038579D01*
X10841491Y-12038579D02*
X10851015Y-12076674D01*
X10851015Y-12076674D02*
X10851015Y-12124293D01*
X10851015Y-12124293D02*
X10841491Y-12162388D01*
X10841491Y-12162388D02*
X10831968Y-12181436D01*
X10831968Y-12181436D02*
X10822444Y-12190960D01*
X10822444Y-12190960D02*
X10803396Y-12200484D01*
X10803396Y-12200484D02*
X10784348Y-12200484D01*
X10784348Y-12200484D02*
X10765301Y-12190960D01*
X10765301Y-12190960D02*
X10755777Y-12181436D01*
X10755777Y-12181436D02*
X10746253Y-12162388D01*
X10746253Y-12162388D02*
X10736729Y-12124293D01*
X10736729Y-12124293D02*
X10736729Y-12076674D01*
X10736729Y-12076674D02*
X10746253Y-12038579D01*
X10746253Y-12038579D02*
X10755777Y-12019531D01*
X10755777Y-12019531D02*
X10765301Y-12010008D01*
X10765301Y-12010008D02*
X10784348Y-12000484D01*
X10927206Y-12019531D02*
X10936729Y-12010008D01*
X10936729Y-12010008D02*
X10955777Y-12000484D01*
X10955777Y-12000484D02*
X11003396Y-12000484D01*
X11003396Y-12000484D02*
X11022444Y-12010008D01*
X11022444Y-12010008D02*
X11031968Y-12019531D01*
X11031968Y-12019531D02*
X11041491Y-12038579D01*
X11041491Y-12038579D02*
X11041491Y-12057627D01*
X11041491Y-12057627D02*
X11031968Y-12086198D01*
X11031968Y-12086198D02*
X10917682Y-12200484D01*
X10917682Y-12200484D02*
X11041491Y-12200484D01*
X11108158Y-12000484D02*
X11241491Y-12000484D01*
X11241491Y-12000484D02*
X11155777Y-12200484D01*
X11403396Y-12000484D02*
X11365301Y-12000484D01*
X11365301Y-12000484D02*
X11346253Y-12010008D01*
X11346253Y-12010008D02*
X11336729Y-12019531D01*
X11336729Y-12019531D02*
X11317682Y-12048103D01*
X11317682Y-12048103D02*
X11308158Y-12086198D01*
X11308158Y-12086198D02*
X11308158Y-12162388D01*
X11308158Y-12162388D02*
X11317682Y-12181436D01*
X11317682Y-12181436D02*
X11327206Y-12190960D01*
X11327206Y-12190960D02*
X11346253Y-12200484D01*
X11346253Y-12200484D02*
X11384348Y-12200484D01*
X11384348Y-12200484D02*
X11403396Y-12190960D01*
X11403396Y-12190960D02*
X11412920Y-12181436D01*
X11412920Y-12181436D02*
X11422444Y-12162388D01*
X11422444Y-12162388D02*
X11422444Y-12114769D01*
X11422444Y-12114769D02*
X11412920Y-12095722D01*
X11412920Y-12095722D02*
X11403396Y-12086198D01*
X11403396Y-12086198D02*
X11384348Y-12076674D01*
X11384348Y-12076674D02*
X11346253Y-12076674D01*
X11346253Y-12076674D02*
X11327206Y-12086198D01*
X11327206Y-12086198D02*
X11317682Y-12095722D01*
X11317682Y-12095722D02*
X11308158Y-12114769D01*
X11498634Y-12000484D02*
X11498634Y-12038579D01*
X11574825Y-12000484D02*
X11574825Y-12038579D01*
X11870063Y-12276674D02*
X11860539Y-12267150D01*
X11860539Y-12267150D02*
X11841491Y-12238579D01*
X11841491Y-12238579D02*
X11831968Y-12219531D01*
X11831968Y-12219531D02*
X11822444Y-12190960D01*
X11822444Y-12190960D02*
X11812920Y-12143341D01*
X11812920Y-12143341D02*
X11812920Y-12105246D01*
X11812920Y-12105246D02*
X11822444Y-12057627D01*
X11822444Y-12057627D02*
X11831968Y-12029055D01*
X11831968Y-12029055D02*
X11841491Y-12010008D01*
X11841491Y-12010008D02*
X11860539Y-11981436D01*
X11860539Y-11981436D02*
X11870063Y-11971912D01*
X12051015Y-12200484D02*
X11936729Y-12200484D01*
X11993872Y-12200484D02*
X11993872Y-12000484D01*
X11993872Y-12000484D02*
X11974825Y-12029055D01*
X11974825Y-12029055D02*
X11955777Y-12048103D01*
X11955777Y-12048103D02*
X11936729Y-12057627D01*
X12127206Y-12019531D02*
X12136729Y-12010008D01*
X12136729Y-12010008D02*
X12155777Y-12000484D01*
X12155777Y-12000484D02*
X12203396Y-12000484D01*
X12203396Y-12000484D02*
X12222444Y-12010008D01*
X12222444Y-12010008D02*
X12231968Y-12019531D01*
X12231968Y-12019531D02*
X12241491Y-12038579D01*
X12241491Y-12038579D02*
X12241491Y-12057627D01*
X12241491Y-12057627D02*
X12231968Y-12086198D01*
X12231968Y-12086198D02*
X12117682Y-12200484D01*
X12117682Y-12200484D02*
X12241491Y-12200484D01*
X12479587Y-12200484D02*
X12479587Y-12000484D01*
X12565301Y-12200484D02*
X12565301Y-12095722D01*
X12565301Y-12095722D02*
X12555777Y-12076674D01*
X12555777Y-12076674D02*
X12536730Y-12067150D01*
X12536730Y-12067150D02*
X12508158Y-12067150D01*
X12508158Y-12067150D02*
X12489110Y-12076674D01*
X12489110Y-12076674D02*
X12479587Y-12086198D01*
X12689110Y-12200484D02*
X12670063Y-12190960D01*
X12670063Y-12190960D02*
X12660539Y-12181436D01*
X12660539Y-12181436D02*
X12651015Y-12162388D01*
X12651015Y-12162388D02*
X12651015Y-12105246D01*
X12651015Y-12105246D02*
X12660539Y-12086198D01*
X12660539Y-12086198D02*
X12670063Y-12076674D01*
X12670063Y-12076674D02*
X12689110Y-12067150D01*
X12689110Y-12067150D02*
X12717682Y-12067150D01*
X12717682Y-12067150D02*
X12736730Y-12076674D01*
X12736730Y-12076674D02*
X12746253Y-12086198D01*
X12746253Y-12086198D02*
X12755777Y-12105246D01*
X12755777Y-12105246D02*
X12755777Y-12162388D01*
X12755777Y-12162388D02*
X12746253Y-12181436D01*
X12746253Y-12181436D02*
X12736730Y-12190960D01*
X12736730Y-12190960D02*
X12717682Y-12200484D01*
X12717682Y-12200484D02*
X12689110Y-12200484D01*
X12870063Y-12200484D02*
X12851015Y-12190960D01*
X12851015Y-12190960D02*
X12841491Y-12171912D01*
X12841491Y-12171912D02*
X12841491Y-12000484D01*
X13022444Y-12190960D02*
X13003396Y-12200484D01*
X13003396Y-12200484D02*
X12965301Y-12200484D01*
X12965301Y-12200484D02*
X12946253Y-12190960D01*
X12946253Y-12190960D02*
X12936730Y-12171912D01*
X12936730Y-12171912D02*
X12936730Y-12095722D01*
X12936730Y-12095722D02*
X12946253Y-12076674D01*
X12946253Y-12076674D02*
X12965301Y-12067150D01*
X12965301Y-12067150D02*
X13003396Y-12067150D01*
X13003396Y-12067150D02*
X13022444Y-12076674D01*
X13022444Y-12076674D02*
X13031968Y-12095722D01*
X13031968Y-12095722D02*
X13031968Y-12114769D01*
X13031968Y-12114769D02*
X12936730Y-12133817D01*
X13108158Y-12190960D02*
X13127206Y-12200484D01*
X13127206Y-12200484D02*
X13165301Y-12200484D01*
X13165301Y-12200484D02*
X13184349Y-12190960D01*
X13184349Y-12190960D02*
X13193872Y-12171912D01*
X13193872Y-12171912D02*
X13193872Y-12162388D01*
X13193872Y-12162388D02*
X13184349Y-12143341D01*
X13184349Y-12143341D02*
X13165301Y-12133817D01*
X13165301Y-12133817D02*
X13136730Y-12133817D01*
X13136730Y-12133817D02*
X13117682Y-12124293D01*
X13117682Y-12124293D02*
X13108158Y-12105246D01*
X13108158Y-12105246D02*
X13108158Y-12095722D01*
X13108158Y-12095722D02*
X13117682Y-12076674D01*
X13117682Y-12076674D02*
X13136730Y-12067150D01*
X13136730Y-12067150D02*
X13165301Y-12067150D01*
X13165301Y-12067150D02*
X13184349Y-12076674D01*
X13260539Y-12276674D02*
X13270063Y-12267150D01*
X13270063Y-12267150D02*
X13289111Y-12238579D01*
X13289111Y-12238579D02*
X13298634Y-12219531D01*
X13298634Y-12219531D02*
X13308158Y-12190960D01*
X13308158Y-12190960D02*
X13317682Y-12143341D01*
X13317682Y-12143341D02*
X13317682Y-12105246D01*
X13317682Y-12105246D02*
X13308158Y-12057627D01*
X13308158Y-12057627D02*
X13298634Y-12029055D01*
X13298634Y-12029055D02*
X13289111Y-12010008D01*
X13289111Y-12010008D02*
X13270063Y-11981436D01*
X13270063Y-11981436D02*
X13260539Y-11971912D01*
D10*
X8255000Y-12333000D02*
X8255000Y-12413000D01*
X8215000Y-12373000D02*
X8295000Y-12373000D01*
D11*
X8593872Y-12264484D02*
X8612920Y-12264484D01*
X8612920Y-12264484D02*
X8631967Y-12274008D01*
X8631967Y-12274008D02*
X8641491Y-12283531D01*
X8641491Y-12283531D02*
X8651015Y-12302579D01*
X8651015Y-12302579D02*
X8660539Y-12340674D01*
X8660539Y-12340674D02*
X8660539Y-12388293D01*
X8660539Y-12388293D02*
X8651015Y-12426388D01*
X8651015Y-12426388D02*
X8641491Y-12445436D01*
X8641491Y-12445436D02*
X8631967Y-12454960D01*
X8631967Y-12454960D02*
X8612920Y-12464484D01*
X8612920Y-12464484D02*
X8593872Y-12464484D01*
X8593872Y-12464484D02*
X8574824Y-12454960D01*
X8574824Y-12454960D02*
X8565301Y-12445436D01*
X8565301Y-12445436D02*
X8555777Y-12426388D01*
X8555777Y-12426388D02*
X8546253Y-12388293D01*
X8546253Y-12388293D02*
X8546253Y-12340674D01*
X8546253Y-12340674D02*
X8555777Y-12302579D01*
X8555777Y-12302579D02*
X8565301Y-12283531D01*
X8565301Y-12283531D02*
X8574824Y-12274008D01*
X8574824Y-12274008D02*
X8593872Y-12264484D01*
X8746253Y-12445436D02*
X8755777Y-12454960D01*
X8755777Y-12454960D02*
X8746253Y-12464484D01*
X8746253Y-12464484D02*
X8736729Y-12454960D01*
X8736729Y-12454960D02*
X8746253Y-12445436D01*
X8746253Y-12445436D02*
X8746253Y-12464484D01*
X8870063Y-12350198D02*
X8851015Y-12340674D01*
X8851015Y-12340674D02*
X8841491Y-12331150D01*
X8841491Y-12331150D02*
X8831967Y-12312103D01*
X8831967Y-12312103D02*
X8831967Y-12302579D01*
X8831967Y-12302579D02*
X8841491Y-12283531D01*
X8841491Y-12283531D02*
X8851015Y-12274008D01*
X8851015Y-12274008D02*
X8870063Y-12264484D01*
X8870063Y-12264484D02*
X8908158Y-12264484D01*
X8908158Y-12264484D02*
X8927205Y-12274008D01*
X8927205Y-12274008D02*
X8936729Y-12283531D01*
X8936729Y-12283531D02*
X8946253Y-12302579D01*
X8946253Y-12302579D02*
X8946253Y-12312103D01*
X8946253Y-12312103D02*
X8936729Y-12331150D01*
X8936729Y-12331150D02*
X8927205Y-12340674D01*
X8927205Y-12340674D02*
X8908158Y-12350198D01*
X8908158Y-12350198D02*
X8870063Y-12350198D01*
X8870063Y-12350198D02*
X8851015Y-12359722D01*
X8851015Y-12359722D02*
X8841491Y-12369246D01*
X8841491Y-12369246D02*
X8831967Y-12388293D01*
X8831967Y-12388293D02*
X8831967Y-12426388D01*
X8831967Y-12426388D02*
X8841491Y-12445436D01*
X8841491Y-12445436D02*
X8851015Y-12454960D01*
X8851015Y-12454960D02*
X8870063Y-12464484D01*
X8870063Y-12464484D02*
X8908158Y-12464484D01*
X8908158Y-12464484D02*
X8927205Y-12454960D01*
X8927205Y-12454960D02*
X8936729Y-12445436D01*
X8936729Y-12445436D02*
X8946253Y-12426388D01*
X8946253Y-12426388D02*
X8946253Y-12388293D01*
X8946253Y-12388293D02*
X8936729Y-12369246D01*
X8936729Y-12369246D02*
X8927205Y-12359722D01*
X8927205Y-12359722D02*
X8908158Y-12350198D01*
X9070063Y-12264484D02*
X9089110Y-12264484D01*
X9089110Y-12264484D02*
X9108158Y-12274008D01*
X9108158Y-12274008D02*
X9117682Y-12283531D01*
X9117682Y-12283531D02*
X9127205Y-12302579D01*
X9127205Y-12302579D02*
X9136729Y-12340674D01*
X9136729Y-12340674D02*
X9136729Y-12388293D01*
X9136729Y-12388293D02*
X9127205Y-12426388D01*
X9127205Y-12426388D02*
X9117682Y-12445436D01*
X9117682Y-12445436D02*
X9108158Y-12454960D01*
X9108158Y-12454960D02*
X9089110Y-12464484D01*
X9089110Y-12464484D02*
X9070063Y-12464484D01*
X9070063Y-12464484D02*
X9051015Y-12454960D01*
X9051015Y-12454960D02*
X9041491Y-12445436D01*
X9041491Y-12445436D02*
X9031967Y-12426388D01*
X9031967Y-12426388D02*
X9022444Y-12388293D01*
X9022444Y-12388293D02*
X9022444Y-12340674D01*
X9022444Y-12340674D02*
X9031967Y-12302579D01*
X9031967Y-12302579D02*
X9041491Y-12283531D01*
X9041491Y-12283531D02*
X9051015Y-12274008D01*
X9051015Y-12274008D02*
X9070063Y-12264484D01*
X9260539Y-12264484D02*
X9279586Y-12264484D01*
X9279586Y-12264484D02*
X9298634Y-12274008D01*
X9298634Y-12274008D02*
X9308158Y-12283531D01*
X9308158Y-12283531D02*
X9317682Y-12302579D01*
X9317682Y-12302579D02*
X9327205Y-12340674D01*
X9327205Y-12340674D02*
X9327205Y-12388293D01*
X9327205Y-12388293D02*
X9317682Y-12426388D01*
X9317682Y-12426388D02*
X9308158Y-12445436D01*
X9308158Y-12445436D02*
X9298634Y-12454960D01*
X9298634Y-12454960D02*
X9279586Y-12464484D01*
X9279586Y-12464484D02*
X9260539Y-12464484D01*
X9260539Y-12464484D02*
X9241491Y-12454960D01*
X9241491Y-12454960D02*
X9231967Y-12445436D01*
X9231967Y-12445436D02*
X9222444Y-12426388D01*
X9222444Y-12426388D02*
X9212920Y-12388293D01*
X9212920Y-12388293D02*
X9212920Y-12340674D01*
X9212920Y-12340674D02*
X9222444Y-12302579D01*
X9222444Y-12302579D02*
X9231967Y-12283531D01*
X9231967Y-12283531D02*
X9241491Y-12274008D01*
X9241491Y-12274008D02*
X9260539Y-12264484D01*
X9412920Y-12464484D02*
X9412920Y-12331150D01*
X9412920Y-12350198D02*
X9422444Y-12340674D01*
X9422444Y-12340674D02*
X9441491Y-12331150D01*
X9441491Y-12331150D02*
X9470063Y-12331150D01*
X9470063Y-12331150D02*
X9489110Y-12340674D01*
X9489110Y-12340674D02*
X9498634Y-12359722D01*
X9498634Y-12359722D02*
X9498634Y-12464484D01*
X9498634Y-12359722D02*
X9508158Y-12340674D01*
X9508158Y-12340674D02*
X9527205Y-12331150D01*
X9527205Y-12331150D02*
X9555777Y-12331150D01*
X9555777Y-12331150D02*
X9574825Y-12340674D01*
X9574825Y-12340674D02*
X9584348Y-12359722D01*
X9584348Y-12359722D02*
X9584348Y-12464484D01*
X9679586Y-12464484D02*
X9679586Y-12331150D01*
X9679586Y-12350198D02*
X9689110Y-12340674D01*
X9689110Y-12340674D02*
X9708158Y-12331150D01*
X9708158Y-12331150D02*
X9736729Y-12331150D01*
X9736729Y-12331150D02*
X9755777Y-12340674D01*
X9755777Y-12340674D02*
X9765301Y-12359722D01*
X9765301Y-12359722D02*
X9765301Y-12464484D01*
X9765301Y-12359722D02*
X9774825Y-12340674D01*
X9774825Y-12340674D02*
X9793872Y-12331150D01*
X9793872Y-12331150D02*
X9822444Y-12331150D01*
X9822444Y-12331150D02*
X9841491Y-12340674D01*
X9841491Y-12340674D02*
X9851015Y-12359722D01*
X9851015Y-12359722D02*
X9851015Y-12464484D01*
X10241491Y-12254960D02*
X10070063Y-12512103D01*
X10498634Y-12264484D02*
X10517682Y-12264484D01*
X10517682Y-12264484D02*
X10536729Y-12274008D01*
X10536729Y-12274008D02*
X10546253Y-12283531D01*
X10546253Y-12283531D02*
X10555777Y-12302579D01*
X10555777Y-12302579D02*
X10565301Y-12340674D01*
X10565301Y-12340674D02*
X10565301Y-12388293D01*
X10565301Y-12388293D02*
X10555777Y-12426388D01*
X10555777Y-12426388D02*
X10546253Y-12445436D01*
X10546253Y-12445436D02*
X10536729Y-12454960D01*
X10536729Y-12454960D02*
X10517682Y-12464484D01*
X10517682Y-12464484D02*
X10498634Y-12464484D01*
X10498634Y-12464484D02*
X10479587Y-12454960D01*
X10479587Y-12454960D02*
X10470063Y-12445436D01*
X10470063Y-12445436D02*
X10460539Y-12426388D01*
X10460539Y-12426388D02*
X10451015Y-12388293D01*
X10451015Y-12388293D02*
X10451015Y-12340674D01*
X10451015Y-12340674D02*
X10460539Y-12302579D01*
X10460539Y-12302579D02*
X10470063Y-12283531D01*
X10470063Y-12283531D02*
X10479587Y-12274008D01*
X10479587Y-12274008D02*
X10498634Y-12264484D01*
X10651015Y-12445436D02*
X10660539Y-12454960D01*
X10660539Y-12454960D02*
X10651015Y-12464484D01*
X10651015Y-12464484D02*
X10641491Y-12454960D01*
X10641491Y-12454960D02*
X10651015Y-12445436D01*
X10651015Y-12445436D02*
X10651015Y-12464484D01*
X10784348Y-12264484D02*
X10803396Y-12264484D01*
X10803396Y-12264484D02*
X10822444Y-12274008D01*
X10822444Y-12274008D02*
X10831968Y-12283531D01*
X10831968Y-12283531D02*
X10841491Y-12302579D01*
X10841491Y-12302579D02*
X10851015Y-12340674D01*
X10851015Y-12340674D02*
X10851015Y-12388293D01*
X10851015Y-12388293D02*
X10841491Y-12426388D01*
X10841491Y-12426388D02*
X10831968Y-12445436D01*
X10831968Y-12445436D02*
X10822444Y-12454960D01*
X10822444Y-12454960D02*
X10803396Y-12464484D01*
X10803396Y-12464484D02*
X10784348Y-12464484D01*
X10784348Y-12464484D02*
X10765301Y-12454960D01*
X10765301Y-12454960D02*
X10755777Y-12445436D01*
X10755777Y-12445436D02*
X10746253Y-12426388D01*
X10746253Y-12426388D02*
X10736729Y-12388293D01*
X10736729Y-12388293D02*
X10736729Y-12340674D01*
X10736729Y-12340674D02*
X10746253Y-12302579D01*
X10746253Y-12302579D02*
X10755777Y-12283531D01*
X10755777Y-12283531D02*
X10765301Y-12274008D01*
X10765301Y-12274008D02*
X10784348Y-12264484D01*
X10917682Y-12264484D02*
X11041491Y-12264484D01*
X11041491Y-12264484D02*
X10974825Y-12340674D01*
X10974825Y-12340674D02*
X11003396Y-12340674D01*
X11003396Y-12340674D02*
X11022444Y-12350198D01*
X11022444Y-12350198D02*
X11031968Y-12359722D01*
X11031968Y-12359722D02*
X11041491Y-12378769D01*
X11041491Y-12378769D02*
X11041491Y-12426388D01*
X11041491Y-12426388D02*
X11031968Y-12445436D01*
X11031968Y-12445436D02*
X11022444Y-12454960D01*
X11022444Y-12454960D02*
X11003396Y-12464484D01*
X11003396Y-12464484D02*
X10946253Y-12464484D01*
X10946253Y-12464484D02*
X10927206Y-12454960D01*
X10927206Y-12454960D02*
X10917682Y-12445436D01*
X11231967Y-12464484D02*
X11117682Y-12464484D01*
X11174825Y-12464484D02*
X11174825Y-12264484D01*
X11174825Y-12264484D02*
X11155777Y-12293055D01*
X11155777Y-12293055D02*
X11136729Y-12312103D01*
X11136729Y-12312103D02*
X11117682Y-12321627D01*
X11412920Y-12264484D02*
X11317682Y-12264484D01*
X11317682Y-12264484D02*
X11308158Y-12359722D01*
X11308158Y-12359722D02*
X11317682Y-12350198D01*
X11317682Y-12350198D02*
X11336729Y-12340674D01*
X11336729Y-12340674D02*
X11384348Y-12340674D01*
X11384348Y-12340674D02*
X11403396Y-12350198D01*
X11403396Y-12350198D02*
X11412920Y-12359722D01*
X11412920Y-12359722D02*
X11422444Y-12378769D01*
X11422444Y-12378769D02*
X11422444Y-12426388D01*
X11422444Y-12426388D02*
X11412920Y-12445436D01*
X11412920Y-12445436D02*
X11403396Y-12454960D01*
X11403396Y-12454960D02*
X11384348Y-12464484D01*
X11384348Y-12464484D02*
X11336729Y-12464484D01*
X11336729Y-12464484D02*
X11317682Y-12454960D01*
X11317682Y-12454960D02*
X11308158Y-12445436D01*
X11498634Y-12264484D02*
X11498634Y-12302579D01*
X11574825Y-12264484D02*
X11574825Y-12302579D01*
X11870063Y-12540674D02*
X11860539Y-12531150D01*
X11860539Y-12531150D02*
X11841491Y-12502579D01*
X11841491Y-12502579D02*
X11831968Y-12483531D01*
X11831968Y-12483531D02*
X11822444Y-12454960D01*
X11822444Y-12454960D02*
X11812920Y-12407341D01*
X11812920Y-12407341D02*
X11812920Y-12369246D01*
X11812920Y-12369246D02*
X11822444Y-12321627D01*
X11822444Y-12321627D02*
X11831968Y-12293055D01*
X11831968Y-12293055D02*
X11841491Y-12274008D01*
X11841491Y-12274008D02*
X11860539Y-12245436D01*
X11860539Y-12245436D02*
X11870063Y-12235912D01*
X12051015Y-12464484D02*
X11936729Y-12464484D01*
X11993872Y-12464484D02*
X11993872Y-12264484D01*
X11993872Y-12264484D02*
X11974825Y-12293055D01*
X11974825Y-12293055D02*
X11955777Y-12312103D01*
X11955777Y-12312103D02*
X11936729Y-12321627D01*
X12174825Y-12264484D02*
X12193872Y-12264484D01*
X12193872Y-12264484D02*
X12212920Y-12274008D01*
X12212920Y-12274008D02*
X12222444Y-12283531D01*
X12222444Y-12283531D02*
X12231968Y-12302579D01*
X12231968Y-12302579D02*
X12241491Y-12340674D01*
X12241491Y-12340674D02*
X12241491Y-12388293D01*
X12241491Y-12388293D02*
X12231968Y-12426388D01*
X12231968Y-12426388D02*
X12222444Y-12445436D01*
X12222444Y-12445436D02*
X12212920Y-12454960D01*
X12212920Y-12454960D02*
X12193872Y-12464484D01*
X12193872Y-12464484D02*
X12174825Y-12464484D01*
X12174825Y-12464484D02*
X12155777Y-12454960D01*
X12155777Y-12454960D02*
X12146253Y-12445436D01*
X12146253Y-12445436D02*
X12136729Y-12426388D01*
X12136729Y-12426388D02*
X12127206Y-12388293D01*
X12127206Y-12388293D02*
X12127206Y-12340674D01*
X12127206Y-12340674D02*
X12136729Y-12302579D01*
X12136729Y-12302579D02*
X12146253Y-12283531D01*
X12146253Y-12283531D02*
X12155777Y-12274008D01*
X12155777Y-12274008D02*
X12174825Y-12264484D01*
X12355777Y-12350198D02*
X12336729Y-12340674D01*
X12336729Y-12340674D02*
X12327206Y-12331150D01*
X12327206Y-12331150D02*
X12317682Y-12312103D01*
X12317682Y-12312103D02*
X12317682Y-12302579D01*
X12317682Y-12302579D02*
X12327206Y-12283531D01*
X12327206Y-12283531D02*
X12336729Y-12274008D01*
X12336729Y-12274008D02*
X12355777Y-12264484D01*
X12355777Y-12264484D02*
X12393872Y-12264484D01*
X12393872Y-12264484D02*
X12412920Y-12274008D01*
X12412920Y-12274008D02*
X12422444Y-12283531D01*
X12422444Y-12283531D02*
X12431968Y-12302579D01*
X12431968Y-12302579D02*
X12431968Y-12312103D01*
X12431968Y-12312103D02*
X12422444Y-12331150D01*
X12422444Y-12331150D02*
X12412920Y-12340674D01*
X12412920Y-12340674D02*
X12393872Y-12350198D01*
X12393872Y-12350198D02*
X12355777Y-12350198D01*
X12355777Y-12350198D02*
X12336729Y-12359722D01*
X12336729Y-12359722D02*
X12327206Y-12369246D01*
X12327206Y-12369246D02*
X12317682Y-12388293D01*
X12317682Y-12388293D02*
X12317682Y-12426388D01*
X12317682Y-12426388D02*
X12327206Y-12445436D01*
X12327206Y-12445436D02*
X12336729Y-12454960D01*
X12336729Y-12454960D02*
X12355777Y-12464484D01*
X12355777Y-12464484D02*
X12393872Y-12464484D01*
X12393872Y-12464484D02*
X12412920Y-12454960D01*
X12412920Y-12454960D02*
X12422444Y-12445436D01*
X12422444Y-12445436D02*
X12431968Y-12426388D01*
X12431968Y-12426388D02*
X12431968Y-12388293D01*
X12431968Y-12388293D02*
X12422444Y-12369246D01*
X12422444Y-12369246D02*
X12412920Y-12359722D01*
X12412920Y-12359722D02*
X12393872Y-12350198D01*
X12670063Y-12464484D02*
X12670063Y-12264484D01*
X12755777Y-12464484D02*
X12755777Y-12359722D01*
X12755777Y-12359722D02*
X12746253Y-12340674D01*
X12746253Y-12340674D02*
X12727206Y-12331150D01*
X12727206Y-12331150D02*
X12698634Y-12331150D01*
X12698634Y-12331150D02*
X12679587Y-12340674D01*
X12679587Y-12340674D02*
X12670063Y-12350198D01*
X12879587Y-12464484D02*
X12860539Y-12454960D01*
X12860539Y-12454960D02*
X12851015Y-12445436D01*
X12851015Y-12445436D02*
X12841491Y-12426388D01*
X12841491Y-12426388D02*
X12841491Y-12369246D01*
X12841491Y-12369246D02*
X12851015Y-12350198D01*
X12851015Y-12350198D02*
X12860539Y-12340674D01*
X12860539Y-12340674D02*
X12879587Y-12331150D01*
X12879587Y-12331150D02*
X12908158Y-12331150D01*
X12908158Y-12331150D02*
X12927206Y-12340674D01*
X12927206Y-12340674D02*
X12936730Y-12350198D01*
X12936730Y-12350198D02*
X12946253Y-12369246D01*
X12946253Y-12369246D02*
X12946253Y-12426388D01*
X12946253Y-12426388D02*
X12936730Y-12445436D01*
X12936730Y-12445436D02*
X12927206Y-12454960D01*
X12927206Y-12454960D02*
X12908158Y-12464484D01*
X12908158Y-12464484D02*
X12879587Y-12464484D01*
X13060539Y-12464484D02*
X13041491Y-12454960D01*
X13041491Y-12454960D02*
X13031968Y-12435912D01*
X13031968Y-12435912D02*
X13031968Y-12264484D01*
X13212920Y-12454960D02*
X13193872Y-12464484D01*
X13193872Y-12464484D02*
X13155777Y-12464484D01*
X13155777Y-12464484D02*
X13136730Y-12454960D01*
X13136730Y-12454960D02*
X13127206Y-12435912D01*
X13127206Y-12435912D02*
X13127206Y-12359722D01*
X13127206Y-12359722D02*
X13136730Y-12340674D01*
X13136730Y-12340674D02*
X13155777Y-12331150D01*
X13155777Y-12331150D02*
X13193872Y-12331150D01*
X13193872Y-12331150D02*
X13212920Y-12340674D01*
X13212920Y-12340674D02*
X13222444Y-12359722D01*
X13222444Y-12359722D02*
X13222444Y-12378769D01*
X13222444Y-12378769D02*
X13127206Y-12397817D01*
X13298634Y-12454960D02*
X13317682Y-12464484D01*
X13317682Y-12464484D02*
X13355777Y-12464484D01*
X13355777Y-12464484D02*
X13374825Y-12454960D01*
X13374825Y-12454960D02*
X13384349Y-12435912D01*
X13384349Y-12435912D02*
X13384349Y-12426388D01*
X13384349Y-12426388D02*
X13374825Y-12407341D01*
X13374825Y-12407341D02*
X13355777Y-12397817D01*
X13355777Y-12397817D02*
X13327206Y-12397817D01*
X13327206Y-12397817D02*
X13308158Y-12388293D01*
X13308158Y-12388293D02*
X13298634Y-12369246D01*
X13298634Y-12369246D02*
X13298634Y-12359722D01*
X13298634Y-12359722D02*
X13308158Y-12340674D01*
X13308158Y-12340674D02*
X13327206Y-12331150D01*
X13327206Y-12331150D02*
X13355777Y-12331150D01*
X13355777Y-12331150D02*
X13374825Y-12340674D01*
X13622444Y-12388293D02*
X13774825Y-12388293D01*
X13698634Y-12464484D02*
X13698634Y-12312103D01*
X14003396Y-12264484D02*
X14127206Y-12264484D01*
X14127206Y-12264484D02*
X14060539Y-12340674D01*
X14060539Y-12340674D02*
X14089111Y-12340674D01*
X14089111Y-12340674D02*
X14108158Y-12350198D01*
X14108158Y-12350198D02*
X14117682Y-12359722D01*
X14117682Y-12359722D02*
X14127206Y-12378769D01*
X14127206Y-12378769D02*
X14127206Y-12426388D01*
X14127206Y-12426388D02*
X14117682Y-12445436D01*
X14117682Y-12445436D02*
X14108158Y-12454960D01*
X14108158Y-12454960D02*
X14089111Y-12464484D01*
X14089111Y-12464484D02*
X14031968Y-12464484D01*
X14031968Y-12464484D02*
X14012920Y-12454960D01*
X14012920Y-12454960D02*
X14003396Y-12445436D01*
X14355777Y-12454960D02*
X14374825Y-12464484D01*
X14374825Y-12464484D02*
X14412920Y-12464484D01*
X14412920Y-12464484D02*
X14431968Y-12454960D01*
X14431968Y-12454960D02*
X14441492Y-12435912D01*
X14441492Y-12435912D02*
X14441492Y-12426388D01*
X14441492Y-12426388D02*
X14431968Y-12407341D01*
X14431968Y-12407341D02*
X14412920Y-12397817D01*
X14412920Y-12397817D02*
X14384349Y-12397817D01*
X14384349Y-12397817D02*
X14365301Y-12388293D01*
X14365301Y-12388293D02*
X14355777Y-12369246D01*
X14355777Y-12369246D02*
X14355777Y-12359722D01*
X14355777Y-12359722D02*
X14365301Y-12340674D01*
X14365301Y-12340674D02*
X14384349Y-12331150D01*
X14384349Y-12331150D02*
X14412920Y-12331150D01*
X14412920Y-12331150D02*
X14431968Y-12340674D01*
X14555777Y-12464484D02*
X14536730Y-12454960D01*
X14536730Y-12454960D02*
X14527206Y-12435912D01*
X14527206Y-12435912D02*
X14527206Y-12264484D01*
X14660539Y-12464484D02*
X14641492Y-12454960D01*
X14641492Y-12454960D02*
X14631968Y-12445436D01*
X14631968Y-12445436D02*
X14622444Y-12426388D01*
X14622444Y-12426388D02*
X14622444Y-12369246D01*
X14622444Y-12369246D02*
X14631968Y-12350198D01*
X14631968Y-12350198D02*
X14641492Y-12340674D01*
X14641492Y-12340674D02*
X14660539Y-12331150D01*
X14660539Y-12331150D02*
X14689111Y-12331150D01*
X14689111Y-12331150D02*
X14708158Y-12340674D01*
X14708158Y-12340674D02*
X14717682Y-12350198D01*
X14717682Y-12350198D02*
X14727206Y-12369246D01*
X14727206Y-12369246D02*
X14727206Y-12426388D01*
X14727206Y-12426388D02*
X14717682Y-12445436D01*
X14717682Y-12445436D02*
X14708158Y-12454960D01*
X14708158Y-12454960D02*
X14689111Y-12464484D01*
X14689111Y-12464484D02*
X14660539Y-12464484D01*
X14784349Y-12331150D02*
X14860539Y-12331150D01*
X14812920Y-12264484D02*
X14812920Y-12435912D01*
X14812920Y-12435912D02*
X14822444Y-12454960D01*
X14822444Y-12454960D02*
X14841492Y-12464484D01*
X14841492Y-12464484D02*
X14860539Y-12464484D01*
X14917682Y-12454960D02*
X14936730Y-12464484D01*
X14936730Y-12464484D02*
X14974825Y-12464484D01*
X14974825Y-12464484D02*
X14993873Y-12454960D01*
X14993873Y-12454960D02*
X15003396Y-12435912D01*
X15003396Y-12435912D02*
X15003396Y-12426388D01*
X15003396Y-12426388D02*
X14993873Y-12407341D01*
X14993873Y-12407341D02*
X14974825Y-12397817D01*
X14974825Y-12397817D02*
X14946254Y-12397817D01*
X14946254Y-12397817D02*
X14927206Y-12388293D01*
X14927206Y-12388293D02*
X14917682Y-12369246D01*
X14917682Y-12369246D02*
X14917682Y-12359722D01*
X14917682Y-12359722D02*
X14927206Y-12340674D01*
X14927206Y-12340674D02*
X14946254Y-12331150D01*
X14946254Y-12331150D02*
X14974825Y-12331150D01*
X14974825Y-12331150D02*
X14993873Y-12340674D01*
X15070063Y-12540674D02*
X15079587Y-12531150D01*
X15079587Y-12531150D02*
X15098635Y-12502579D01*
X15098635Y-12502579D02*
X15108158Y-12483531D01*
X15108158Y-12483531D02*
X15117682Y-12454960D01*
X15117682Y-12454960D02*
X15127206Y-12407341D01*
X15127206Y-12407341D02*
X15127206Y-12369246D01*
X15127206Y-12369246D02*
X15117682Y-12321627D01*
X15117682Y-12321627D02*
X15108158Y-12293055D01*
X15108158Y-12293055D02*
X15098635Y-12274008D01*
X15098635Y-12274008D02*
X15079587Y-12245436D01*
X15079587Y-12245436D02*
X15070063Y-12235912D01*
D10*
X8281820Y-12668820D02*
X8281820Y-12605180D01*
X8218180Y-12605180D01*
X8218180Y-12668820D01*
X8281820Y-12668820D01*
D11*
X8593872Y-12528484D02*
X8612920Y-12528484D01*
X8612920Y-12528484D02*
X8631967Y-12538008D01*
X8631967Y-12538008D02*
X8641491Y-12547531D01*
X8641491Y-12547531D02*
X8651015Y-12566579D01*
X8651015Y-12566579D02*
X8660539Y-12604674D01*
X8660539Y-12604674D02*
X8660539Y-12652293D01*
X8660539Y-12652293D02*
X8651015Y-12690388D01*
X8651015Y-12690388D02*
X8641491Y-12709436D01*
X8641491Y-12709436D02*
X8631967Y-12718960D01*
X8631967Y-12718960D02*
X8612920Y-12728484D01*
X8612920Y-12728484D02*
X8593872Y-12728484D01*
X8593872Y-12728484D02*
X8574824Y-12718960D01*
X8574824Y-12718960D02*
X8565301Y-12709436D01*
X8565301Y-12709436D02*
X8555777Y-12690388D01*
X8555777Y-12690388D02*
X8546253Y-12652293D01*
X8546253Y-12652293D02*
X8546253Y-12604674D01*
X8546253Y-12604674D02*
X8555777Y-12566579D01*
X8555777Y-12566579D02*
X8565301Y-12547531D01*
X8565301Y-12547531D02*
X8574824Y-12538008D01*
X8574824Y-12538008D02*
X8593872Y-12528484D01*
X8746253Y-12709436D02*
X8755777Y-12718960D01*
X8755777Y-12718960D02*
X8746253Y-12728484D01*
X8746253Y-12728484D02*
X8736729Y-12718960D01*
X8736729Y-12718960D02*
X8746253Y-12709436D01*
X8746253Y-12709436D02*
X8746253Y-12728484D01*
X8851015Y-12728484D02*
X8889110Y-12728484D01*
X8889110Y-12728484D02*
X8908158Y-12718960D01*
X8908158Y-12718960D02*
X8917682Y-12709436D01*
X8917682Y-12709436D02*
X8936729Y-12680865D01*
X8936729Y-12680865D02*
X8946253Y-12642769D01*
X8946253Y-12642769D02*
X8946253Y-12566579D01*
X8946253Y-12566579D02*
X8936729Y-12547531D01*
X8936729Y-12547531D02*
X8927205Y-12538008D01*
X8927205Y-12538008D02*
X8908158Y-12528484D01*
X8908158Y-12528484D02*
X8870063Y-12528484D01*
X8870063Y-12528484D02*
X8851015Y-12538008D01*
X8851015Y-12538008D02*
X8841491Y-12547531D01*
X8841491Y-12547531D02*
X8831967Y-12566579D01*
X8831967Y-12566579D02*
X8831967Y-12614198D01*
X8831967Y-12614198D02*
X8841491Y-12633246D01*
X8841491Y-12633246D02*
X8851015Y-12642769D01*
X8851015Y-12642769D02*
X8870063Y-12652293D01*
X8870063Y-12652293D02*
X8908158Y-12652293D01*
X8908158Y-12652293D02*
X8927205Y-12642769D01*
X8927205Y-12642769D02*
X8936729Y-12633246D01*
X8936729Y-12633246D02*
X8946253Y-12614198D01*
X9070063Y-12528484D02*
X9089110Y-12528484D01*
X9089110Y-12528484D02*
X9108158Y-12538008D01*
X9108158Y-12538008D02*
X9117682Y-12547531D01*
X9117682Y-12547531D02*
X9127205Y-12566579D01*
X9127205Y-12566579D02*
X9136729Y-12604674D01*
X9136729Y-12604674D02*
X9136729Y-12652293D01*
X9136729Y-12652293D02*
X9127205Y-12690388D01*
X9127205Y-12690388D02*
X9117682Y-12709436D01*
X9117682Y-12709436D02*
X9108158Y-12718960D01*
X9108158Y-12718960D02*
X9089110Y-12728484D01*
X9089110Y-12728484D02*
X9070063Y-12728484D01*
X9070063Y-12728484D02*
X9051015Y-12718960D01*
X9051015Y-12718960D02*
X9041491Y-12709436D01*
X9041491Y-12709436D02*
X9031967Y-12690388D01*
X9031967Y-12690388D02*
X9022444Y-12652293D01*
X9022444Y-12652293D02*
X9022444Y-12604674D01*
X9022444Y-12604674D02*
X9031967Y-12566579D01*
X9031967Y-12566579D02*
X9041491Y-12547531D01*
X9041491Y-12547531D02*
X9051015Y-12538008D01*
X9051015Y-12538008D02*
X9070063Y-12528484D01*
X9260539Y-12528484D02*
X9279586Y-12528484D01*
X9279586Y-12528484D02*
X9298634Y-12538008D01*
X9298634Y-12538008D02*
X9308158Y-12547531D01*
X9308158Y-12547531D02*
X9317682Y-12566579D01*
X9317682Y-12566579D02*
X9327205Y-12604674D01*
X9327205Y-12604674D02*
X9327205Y-12652293D01*
X9327205Y-12652293D02*
X9317682Y-12690388D01*
X9317682Y-12690388D02*
X9308158Y-12709436D01*
X9308158Y-12709436D02*
X9298634Y-12718960D01*
X9298634Y-12718960D02*
X9279586Y-12728484D01*
X9279586Y-12728484D02*
X9260539Y-12728484D01*
X9260539Y-12728484D02*
X9241491Y-12718960D01*
X9241491Y-12718960D02*
X9231967Y-12709436D01*
X9231967Y-12709436D02*
X9222444Y-12690388D01*
X9222444Y-12690388D02*
X9212920Y-12652293D01*
X9212920Y-12652293D02*
X9212920Y-12604674D01*
X9212920Y-12604674D02*
X9222444Y-12566579D01*
X9222444Y-12566579D02*
X9231967Y-12547531D01*
X9231967Y-12547531D02*
X9241491Y-12538008D01*
X9241491Y-12538008D02*
X9260539Y-12528484D01*
X9412920Y-12728484D02*
X9412920Y-12595150D01*
X9412920Y-12614198D02*
X9422444Y-12604674D01*
X9422444Y-12604674D02*
X9441491Y-12595150D01*
X9441491Y-12595150D02*
X9470063Y-12595150D01*
X9470063Y-12595150D02*
X9489110Y-12604674D01*
X9489110Y-12604674D02*
X9498634Y-12623722D01*
X9498634Y-12623722D02*
X9498634Y-12728484D01*
X9498634Y-12623722D02*
X9508158Y-12604674D01*
X9508158Y-12604674D02*
X9527205Y-12595150D01*
X9527205Y-12595150D02*
X9555777Y-12595150D01*
X9555777Y-12595150D02*
X9574825Y-12604674D01*
X9574825Y-12604674D02*
X9584348Y-12623722D01*
X9584348Y-12623722D02*
X9584348Y-12728484D01*
X9679586Y-12728484D02*
X9679586Y-12595150D01*
X9679586Y-12614198D02*
X9689110Y-12604674D01*
X9689110Y-12604674D02*
X9708158Y-12595150D01*
X9708158Y-12595150D02*
X9736729Y-12595150D01*
X9736729Y-12595150D02*
X9755777Y-12604674D01*
X9755777Y-12604674D02*
X9765301Y-12623722D01*
X9765301Y-12623722D02*
X9765301Y-12728484D01*
X9765301Y-12623722D02*
X9774825Y-12604674D01*
X9774825Y-12604674D02*
X9793872Y-12595150D01*
X9793872Y-12595150D02*
X9822444Y-12595150D01*
X9822444Y-12595150D02*
X9841491Y-12604674D01*
X9841491Y-12604674D02*
X9851015Y-12623722D01*
X9851015Y-12623722D02*
X9851015Y-12728484D01*
X10241491Y-12518960D02*
X10070063Y-12776103D01*
X10498634Y-12528484D02*
X10517682Y-12528484D01*
X10517682Y-12528484D02*
X10536729Y-12538008D01*
X10536729Y-12538008D02*
X10546253Y-12547531D01*
X10546253Y-12547531D02*
X10555777Y-12566579D01*
X10555777Y-12566579D02*
X10565301Y-12604674D01*
X10565301Y-12604674D02*
X10565301Y-12652293D01*
X10565301Y-12652293D02*
X10555777Y-12690388D01*
X10555777Y-12690388D02*
X10546253Y-12709436D01*
X10546253Y-12709436D02*
X10536729Y-12718960D01*
X10536729Y-12718960D02*
X10517682Y-12728484D01*
X10517682Y-12728484D02*
X10498634Y-12728484D01*
X10498634Y-12728484D02*
X10479587Y-12718960D01*
X10479587Y-12718960D02*
X10470063Y-12709436D01*
X10470063Y-12709436D02*
X10460539Y-12690388D01*
X10460539Y-12690388D02*
X10451015Y-12652293D01*
X10451015Y-12652293D02*
X10451015Y-12604674D01*
X10451015Y-12604674D02*
X10460539Y-12566579D01*
X10460539Y-12566579D02*
X10470063Y-12547531D01*
X10470063Y-12547531D02*
X10479587Y-12538008D01*
X10479587Y-12538008D02*
X10498634Y-12528484D01*
X10651015Y-12709436D02*
X10660539Y-12718960D01*
X10660539Y-12718960D02*
X10651015Y-12728484D01*
X10651015Y-12728484D02*
X10641491Y-12718960D01*
X10641491Y-12718960D02*
X10651015Y-12709436D01*
X10651015Y-12709436D02*
X10651015Y-12728484D01*
X10784348Y-12528484D02*
X10803396Y-12528484D01*
X10803396Y-12528484D02*
X10822444Y-12538008D01*
X10822444Y-12538008D02*
X10831968Y-12547531D01*
X10831968Y-12547531D02*
X10841491Y-12566579D01*
X10841491Y-12566579D02*
X10851015Y-12604674D01*
X10851015Y-12604674D02*
X10851015Y-12652293D01*
X10851015Y-12652293D02*
X10841491Y-12690388D01*
X10841491Y-12690388D02*
X10831968Y-12709436D01*
X10831968Y-12709436D02*
X10822444Y-12718960D01*
X10822444Y-12718960D02*
X10803396Y-12728484D01*
X10803396Y-12728484D02*
X10784348Y-12728484D01*
X10784348Y-12728484D02*
X10765301Y-12718960D01*
X10765301Y-12718960D02*
X10755777Y-12709436D01*
X10755777Y-12709436D02*
X10746253Y-12690388D01*
X10746253Y-12690388D02*
X10736729Y-12652293D01*
X10736729Y-12652293D02*
X10736729Y-12604674D01*
X10736729Y-12604674D02*
X10746253Y-12566579D01*
X10746253Y-12566579D02*
X10755777Y-12547531D01*
X10755777Y-12547531D02*
X10765301Y-12538008D01*
X10765301Y-12538008D02*
X10784348Y-12528484D01*
X10917682Y-12528484D02*
X11041491Y-12528484D01*
X11041491Y-12528484D02*
X10974825Y-12604674D01*
X10974825Y-12604674D02*
X11003396Y-12604674D01*
X11003396Y-12604674D02*
X11022444Y-12614198D01*
X11022444Y-12614198D02*
X11031968Y-12623722D01*
X11031968Y-12623722D02*
X11041491Y-12642769D01*
X11041491Y-12642769D02*
X11041491Y-12690388D01*
X11041491Y-12690388D02*
X11031968Y-12709436D01*
X11031968Y-12709436D02*
X11022444Y-12718960D01*
X11022444Y-12718960D02*
X11003396Y-12728484D01*
X11003396Y-12728484D02*
X10946253Y-12728484D01*
X10946253Y-12728484D02*
X10927206Y-12718960D01*
X10927206Y-12718960D02*
X10917682Y-12709436D01*
X11222444Y-12528484D02*
X11127206Y-12528484D01*
X11127206Y-12528484D02*
X11117682Y-12623722D01*
X11117682Y-12623722D02*
X11127206Y-12614198D01*
X11127206Y-12614198D02*
X11146253Y-12604674D01*
X11146253Y-12604674D02*
X11193872Y-12604674D01*
X11193872Y-12604674D02*
X11212920Y-12614198D01*
X11212920Y-12614198D02*
X11222444Y-12623722D01*
X11222444Y-12623722D02*
X11231967Y-12642769D01*
X11231967Y-12642769D02*
X11231967Y-12690388D01*
X11231967Y-12690388D02*
X11222444Y-12709436D01*
X11222444Y-12709436D02*
X11212920Y-12718960D01*
X11212920Y-12718960D02*
X11193872Y-12728484D01*
X11193872Y-12728484D02*
X11146253Y-12728484D01*
X11146253Y-12728484D02*
X11127206Y-12718960D01*
X11127206Y-12718960D02*
X11117682Y-12709436D01*
X11403396Y-12595150D02*
X11403396Y-12728484D01*
X11355777Y-12518960D02*
X11308158Y-12661817D01*
X11308158Y-12661817D02*
X11431967Y-12661817D01*
X11498634Y-12528484D02*
X11498634Y-12566579D01*
X11574825Y-12528484D02*
X11574825Y-12566579D01*
X11870063Y-12804674D02*
X11860539Y-12795150D01*
X11860539Y-12795150D02*
X11841491Y-12766579D01*
X11841491Y-12766579D02*
X11831968Y-12747531D01*
X11831968Y-12747531D02*
X11822444Y-12718960D01*
X11822444Y-12718960D02*
X11812920Y-12671341D01*
X11812920Y-12671341D02*
X11812920Y-12633246D01*
X11812920Y-12633246D02*
X11822444Y-12585627D01*
X11822444Y-12585627D02*
X11831968Y-12557055D01*
X11831968Y-12557055D02*
X11841491Y-12538008D01*
X11841491Y-12538008D02*
X11860539Y-12509436D01*
X11860539Y-12509436D02*
X11870063Y-12499912D01*
X11974825Y-12614198D02*
X11955777Y-12604674D01*
X11955777Y-12604674D02*
X11946253Y-12595150D01*
X11946253Y-12595150D02*
X11936729Y-12576103D01*
X11936729Y-12576103D02*
X11936729Y-12566579D01*
X11936729Y-12566579D02*
X11946253Y-12547531D01*
X11946253Y-12547531D02*
X11955777Y-12538008D01*
X11955777Y-12538008D02*
X11974825Y-12528484D01*
X11974825Y-12528484D02*
X12012920Y-12528484D01*
X12012920Y-12528484D02*
X12031968Y-12538008D01*
X12031968Y-12538008D02*
X12041491Y-12547531D01*
X12041491Y-12547531D02*
X12051015Y-12566579D01*
X12051015Y-12566579D02*
X12051015Y-12576103D01*
X12051015Y-12576103D02*
X12041491Y-12595150D01*
X12041491Y-12595150D02*
X12031968Y-12604674D01*
X12031968Y-12604674D02*
X12012920Y-12614198D01*
X12012920Y-12614198D02*
X11974825Y-12614198D01*
X11974825Y-12614198D02*
X11955777Y-12623722D01*
X11955777Y-12623722D02*
X11946253Y-12633246D01*
X11946253Y-12633246D02*
X11936729Y-12652293D01*
X11936729Y-12652293D02*
X11936729Y-12690388D01*
X11936729Y-12690388D02*
X11946253Y-12709436D01*
X11946253Y-12709436D02*
X11955777Y-12718960D01*
X11955777Y-12718960D02*
X11974825Y-12728484D01*
X11974825Y-12728484D02*
X12012920Y-12728484D01*
X12012920Y-12728484D02*
X12031968Y-12718960D01*
X12031968Y-12718960D02*
X12041491Y-12709436D01*
X12041491Y-12709436D02*
X12051015Y-12690388D01*
X12051015Y-12690388D02*
X12051015Y-12652293D01*
X12051015Y-12652293D02*
X12041491Y-12633246D01*
X12041491Y-12633246D02*
X12031968Y-12623722D01*
X12031968Y-12623722D02*
X12012920Y-12614198D01*
X12289110Y-12728484D02*
X12289110Y-12528484D01*
X12374825Y-12728484D02*
X12374825Y-12623722D01*
X12374825Y-12623722D02*
X12365301Y-12604674D01*
X12365301Y-12604674D02*
X12346253Y-12595150D01*
X12346253Y-12595150D02*
X12317682Y-12595150D01*
X12317682Y-12595150D02*
X12298634Y-12604674D01*
X12298634Y-12604674D02*
X12289110Y-12614198D01*
X12498634Y-12728484D02*
X12479587Y-12718960D01*
X12479587Y-12718960D02*
X12470063Y-12709436D01*
X12470063Y-12709436D02*
X12460539Y-12690388D01*
X12460539Y-12690388D02*
X12460539Y-12633246D01*
X12460539Y-12633246D02*
X12470063Y-12614198D01*
X12470063Y-12614198D02*
X12479587Y-12604674D01*
X12479587Y-12604674D02*
X12498634Y-12595150D01*
X12498634Y-12595150D02*
X12527206Y-12595150D01*
X12527206Y-12595150D02*
X12546253Y-12604674D01*
X12546253Y-12604674D02*
X12555777Y-12614198D01*
X12555777Y-12614198D02*
X12565301Y-12633246D01*
X12565301Y-12633246D02*
X12565301Y-12690388D01*
X12565301Y-12690388D02*
X12555777Y-12709436D01*
X12555777Y-12709436D02*
X12546253Y-12718960D01*
X12546253Y-12718960D02*
X12527206Y-12728484D01*
X12527206Y-12728484D02*
X12498634Y-12728484D01*
X12679587Y-12728484D02*
X12660539Y-12718960D01*
X12660539Y-12718960D02*
X12651015Y-12699912D01*
X12651015Y-12699912D02*
X12651015Y-12528484D01*
X12831968Y-12718960D02*
X12812920Y-12728484D01*
X12812920Y-12728484D02*
X12774825Y-12728484D01*
X12774825Y-12728484D02*
X12755777Y-12718960D01*
X12755777Y-12718960D02*
X12746253Y-12699912D01*
X12746253Y-12699912D02*
X12746253Y-12623722D01*
X12746253Y-12623722D02*
X12755777Y-12604674D01*
X12755777Y-12604674D02*
X12774825Y-12595150D01*
X12774825Y-12595150D02*
X12812920Y-12595150D01*
X12812920Y-12595150D02*
X12831968Y-12604674D01*
X12831968Y-12604674D02*
X12841491Y-12623722D01*
X12841491Y-12623722D02*
X12841491Y-12642769D01*
X12841491Y-12642769D02*
X12746253Y-12661817D01*
X12917682Y-12718960D02*
X12936730Y-12728484D01*
X12936730Y-12728484D02*
X12974825Y-12728484D01*
X12974825Y-12728484D02*
X12993872Y-12718960D01*
X12993872Y-12718960D02*
X13003396Y-12699912D01*
X13003396Y-12699912D02*
X13003396Y-12690388D01*
X13003396Y-12690388D02*
X12993872Y-12671341D01*
X12993872Y-12671341D02*
X12974825Y-12661817D01*
X12974825Y-12661817D02*
X12946253Y-12661817D01*
X12946253Y-12661817D02*
X12927206Y-12652293D01*
X12927206Y-12652293D02*
X12917682Y-12633246D01*
X12917682Y-12633246D02*
X12917682Y-12623722D01*
X12917682Y-12623722D02*
X12927206Y-12604674D01*
X12927206Y-12604674D02*
X12946253Y-12595150D01*
X12946253Y-12595150D02*
X12974825Y-12595150D01*
X12974825Y-12595150D02*
X12993872Y-12604674D01*
X13070063Y-12804674D02*
X13079587Y-12795150D01*
X13079587Y-12795150D02*
X13098634Y-12766579D01*
X13098634Y-12766579D02*
X13108158Y-12747531D01*
X13108158Y-12747531D02*
X13117682Y-12718960D01*
X13117682Y-12718960D02*
X13127206Y-12671341D01*
X13127206Y-12671341D02*
X13127206Y-12633246D01*
X13127206Y-12633246D02*
X13117682Y-12585627D01*
X13117682Y-12585627D02*
X13108158Y-12557055D01*
X13108158Y-12557055D02*
X13098634Y-12538008D01*
X13098634Y-12538008D02*
X13079587Y-12509436D01*
X13079587Y-12509436D02*
X13070063Y-12499912D01*
D10*
X8245000Y-12951000D02*
X8295000Y-12901000D01*
X8245000Y-12851000D01*
X8195000Y-12901000D01*
X8245000Y-12951000D01*
D11*
X8660539Y-12992484D02*
X8546253Y-12992484D01*
X8603396Y-12992484D02*
X8603396Y-12792484D01*
X8603396Y-12792484D02*
X8584348Y-12821055D01*
X8584348Y-12821055D02*
X8565301Y-12840103D01*
X8565301Y-12840103D02*
X8546253Y-12849627D01*
X8746253Y-12973436D02*
X8755777Y-12982960D01*
X8755777Y-12982960D02*
X8746253Y-12992484D01*
X8746253Y-12992484D02*
X8736729Y-12982960D01*
X8736729Y-12982960D02*
X8746253Y-12973436D01*
X8746253Y-12973436D02*
X8746253Y-12992484D01*
X8879586Y-12792484D02*
X8898634Y-12792484D01*
X8898634Y-12792484D02*
X8917682Y-12802008D01*
X8917682Y-12802008D02*
X8927205Y-12811531D01*
X8927205Y-12811531D02*
X8936729Y-12830579D01*
X8936729Y-12830579D02*
X8946253Y-12868674D01*
X8946253Y-12868674D02*
X8946253Y-12916293D01*
X8946253Y-12916293D02*
X8936729Y-12954388D01*
X8936729Y-12954388D02*
X8927205Y-12973436D01*
X8927205Y-12973436D02*
X8917682Y-12982960D01*
X8917682Y-12982960D02*
X8898634Y-12992484D01*
X8898634Y-12992484D02*
X8879586Y-12992484D01*
X8879586Y-12992484D02*
X8860539Y-12982960D01*
X8860539Y-12982960D02*
X8851015Y-12973436D01*
X8851015Y-12973436D02*
X8841491Y-12954388D01*
X8841491Y-12954388D02*
X8831967Y-12916293D01*
X8831967Y-12916293D02*
X8831967Y-12868674D01*
X8831967Y-12868674D02*
X8841491Y-12830579D01*
X8841491Y-12830579D02*
X8851015Y-12811531D01*
X8851015Y-12811531D02*
X8860539Y-12802008D01*
X8860539Y-12802008D02*
X8879586Y-12792484D01*
X9070063Y-12792484D02*
X9089110Y-12792484D01*
X9089110Y-12792484D02*
X9108158Y-12802008D01*
X9108158Y-12802008D02*
X9117682Y-12811531D01*
X9117682Y-12811531D02*
X9127205Y-12830579D01*
X9127205Y-12830579D02*
X9136729Y-12868674D01*
X9136729Y-12868674D02*
X9136729Y-12916293D01*
X9136729Y-12916293D02*
X9127205Y-12954388D01*
X9127205Y-12954388D02*
X9117682Y-12973436D01*
X9117682Y-12973436D02*
X9108158Y-12982960D01*
X9108158Y-12982960D02*
X9089110Y-12992484D01*
X9089110Y-12992484D02*
X9070063Y-12992484D01*
X9070063Y-12992484D02*
X9051015Y-12982960D01*
X9051015Y-12982960D02*
X9041491Y-12973436D01*
X9041491Y-12973436D02*
X9031967Y-12954388D01*
X9031967Y-12954388D02*
X9022444Y-12916293D01*
X9022444Y-12916293D02*
X9022444Y-12868674D01*
X9022444Y-12868674D02*
X9031967Y-12830579D01*
X9031967Y-12830579D02*
X9041491Y-12811531D01*
X9041491Y-12811531D02*
X9051015Y-12802008D01*
X9051015Y-12802008D02*
X9070063Y-12792484D01*
X9260539Y-12792484D02*
X9279586Y-12792484D01*
X9279586Y-12792484D02*
X9298634Y-12802008D01*
X9298634Y-12802008D02*
X9308158Y-12811531D01*
X9308158Y-12811531D02*
X9317682Y-12830579D01*
X9317682Y-12830579D02*
X9327205Y-12868674D01*
X9327205Y-12868674D02*
X9327205Y-12916293D01*
X9327205Y-12916293D02*
X9317682Y-12954388D01*
X9317682Y-12954388D02*
X9308158Y-12973436D01*
X9308158Y-12973436D02*
X9298634Y-12982960D01*
X9298634Y-12982960D02*
X9279586Y-12992484D01*
X9279586Y-12992484D02*
X9260539Y-12992484D01*
X9260539Y-12992484D02*
X9241491Y-12982960D01*
X9241491Y-12982960D02*
X9231967Y-12973436D01*
X9231967Y-12973436D02*
X9222444Y-12954388D01*
X9222444Y-12954388D02*
X9212920Y-12916293D01*
X9212920Y-12916293D02*
X9212920Y-12868674D01*
X9212920Y-12868674D02*
X9222444Y-12830579D01*
X9222444Y-12830579D02*
X9231967Y-12811531D01*
X9231967Y-12811531D02*
X9241491Y-12802008D01*
X9241491Y-12802008D02*
X9260539Y-12792484D01*
X9412920Y-12992484D02*
X9412920Y-12859150D01*
X9412920Y-12878198D02*
X9422444Y-12868674D01*
X9422444Y-12868674D02*
X9441491Y-12859150D01*
X9441491Y-12859150D02*
X9470063Y-12859150D01*
X9470063Y-12859150D02*
X9489110Y-12868674D01*
X9489110Y-12868674D02*
X9498634Y-12887722D01*
X9498634Y-12887722D02*
X9498634Y-12992484D01*
X9498634Y-12887722D02*
X9508158Y-12868674D01*
X9508158Y-12868674D02*
X9527205Y-12859150D01*
X9527205Y-12859150D02*
X9555777Y-12859150D01*
X9555777Y-12859150D02*
X9574825Y-12868674D01*
X9574825Y-12868674D02*
X9584348Y-12887722D01*
X9584348Y-12887722D02*
X9584348Y-12992484D01*
X9679586Y-12992484D02*
X9679586Y-12859150D01*
X9679586Y-12878198D02*
X9689110Y-12868674D01*
X9689110Y-12868674D02*
X9708158Y-12859150D01*
X9708158Y-12859150D02*
X9736729Y-12859150D01*
X9736729Y-12859150D02*
X9755777Y-12868674D01*
X9755777Y-12868674D02*
X9765301Y-12887722D01*
X9765301Y-12887722D02*
X9765301Y-12992484D01*
X9765301Y-12887722D02*
X9774825Y-12868674D01*
X9774825Y-12868674D02*
X9793872Y-12859150D01*
X9793872Y-12859150D02*
X9822444Y-12859150D01*
X9822444Y-12859150D02*
X9841491Y-12868674D01*
X9841491Y-12868674D02*
X9851015Y-12887722D01*
X9851015Y-12887722D02*
X9851015Y-12992484D01*
X10241491Y-12782960D02*
X10070063Y-13040103D01*
X10498634Y-12792484D02*
X10517682Y-12792484D01*
X10517682Y-12792484D02*
X10536729Y-12802008D01*
X10536729Y-12802008D02*
X10546253Y-12811531D01*
X10546253Y-12811531D02*
X10555777Y-12830579D01*
X10555777Y-12830579D02*
X10565301Y-12868674D01*
X10565301Y-12868674D02*
X10565301Y-12916293D01*
X10565301Y-12916293D02*
X10555777Y-12954388D01*
X10555777Y-12954388D02*
X10546253Y-12973436D01*
X10546253Y-12973436D02*
X10536729Y-12982960D01*
X10536729Y-12982960D02*
X10517682Y-12992484D01*
X10517682Y-12992484D02*
X10498634Y-12992484D01*
X10498634Y-12992484D02*
X10479587Y-12982960D01*
X10479587Y-12982960D02*
X10470063Y-12973436D01*
X10470063Y-12973436D02*
X10460539Y-12954388D01*
X10460539Y-12954388D02*
X10451015Y-12916293D01*
X10451015Y-12916293D02*
X10451015Y-12868674D01*
X10451015Y-12868674D02*
X10460539Y-12830579D01*
X10460539Y-12830579D02*
X10470063Y-12811531D01*
X10470063Y-12811531D02*
X10479587Y-12802008D01*
X10479587Y-12802008D02*
X10498634Y-12792484D01*
X10651015Y-12973436D02*
X10660539Y-12982960D01*
X10660539Y-12982960D02*
X10651015Y-12992484D01*
X10651015Y-12992484D02*
X10641491Y-12982960D01*
X10641491Y-12982960D02*
X10651015Y-12973436D01*
X10651015Y-12973436D02*
X10651015Y-12992484D01*
X10784348Y-12792484D02*
X10803396Y-12792484D01*
X10803396Y-12792484D02*
X10822444Y-12802008D01*
X10822444Y-12802008D02*
X10831968Y-12811531D01*
X10831968Y-12811531D02*
X10841491Y-12830579D01*
X10841491Y-12830579D02*
X10851015Y-12868674D01*
X10851015Y-12868674D02*
X10851015Y-12916293D01*
X10851015Y-12916293D02*
X10841491Y-12954388D01*
X10841491Y-12954388D02*
X10831968Y-12973436D01*
X10831968Y-12973436D02*
X10822444Y-12982960D01*
X10822444Y-12982960D02*
X10803396Y-12992484D01*
X10803396Y-12992484D02*
X10784348Y-12992484D01*
X10784348Y-12992484D02*
X10765301Y-12982960D01*
X10765301Y-12982960D02*
X10755777Y-12973436D01*
X10755777Y-12973436D02*
X10746253Y-12954388D01*
X10746253Y-12954388D02*
X10736729Y-12916293D01*
X10736729Y-12916293D02*
X10736729Y-12868674D01*
X10736729Y-12868674D02*
X10746253Y-12830579D01*
X10746253Y-12830579D02*
X10755777Y-12811531D01*
X10755777Y-12811531D02*
X10765301Y-12802008D01*
X10765301Y-12802008D02*
X10784348Y-12792484D01*
X10917682Y-12792484D02*
X11041491Y-12792484D01*
X11041491Y-12792484D02*
X10974825Y-12868674D01*
X10974825Y-12868674D02*
X11003396Y-12868674D01*
X11003396Y-12868674D02*
X11022444Y-12878198D01*
X11022444Y-12878198D02*
X11031968Y-12887722D01*
X11031968Y-12887722D02*
X11041491Y-12906769D01*
X11041491Y-12906769D02*
X11041491Y-12954388D01*
X11041491Y-12954388D02*
X11031968Y-12973436D01*
X11031968Y-12973436D02*
X11022444Y-12982960D01*
X11022444Y-12982960D02*
X11003396Y-12992484D01*
X11003396Y-12992484D02*
X10946253Y-12992484D01*
X10946253Y-12992484D02*
X10927206Y-12982960D01*
X10927206Y-12982960D02*
X10917682Y-12973436D01*
X11136729Y-12992484D02*
X11174825Y-12992484D01*
X11174825Y-12992484D02*
X11193872Y-12982960D01*
X11193872Y-12982960D02*
X11203396Y-12973436D01*
X11203396Y-12973436D02*
X11222444Y-12944865D01*
X11222444Y-12944865D02*
X11231967Y-12906769D01*
X11231967Y-12906769D02*
X11231967Y-12830579D01*
X11231967Y-12830579D02*
X11222444Y-12811531D01*
X11222444Y-12811531D02*
X11212920Y-12802008D01*
X11212920Y-12802008D02*
X11193872Y-12792484D01*
X11193872Y-12792484D02*
X11155777Y-12792484D01*
X11155777Y-12792484D02*
X11136729Y-12802008D01*
X11136729Y-12802008D02*
X11127206Y-12811531D01*
X11127206Y-12811531D02*
X11117682Y-12830579D01*
X11117682Y-12830579D02*
X11117682Y-12878198D01*
X11117682Y-12878198D02*
X11127206Y-12897246D01*
X11127206Y-12897246D02*
X11136729Y-12906769D01*
X11136729Y-12906769D02*
X11155777Y-12916293D01*
X11155777Y-12916293D02*
X11193872Y-12916293D01*
X11193872Y-12916293D02*
X11212920Y-12906769D01*
X11212920Y-12906769D02*
X11222444Y-12897246D01*
X11222444Y-12897246D02*
X11231967Y-12878198D01*
X11403396Y-12859150D02*
X11403396Y-12992484D01*
X11355777Y-12782960D02*
X11308158Y-12925817D01*
X11308158Y-12925817D02*
X11431967Y-12925817D01*
X11498634Y-12792484D02*
X11498634Y-12830579D01*
X11574825Y-12792484D02*
X11574825Y-12830579D01*
X11870063Y-13068674D02*
X11860539Y-13059150D01*
X11860539Y-13059150D02*
X11841491Y-13030579D01*
X11841491Y-13030579D02*
X11831968Y-13011531D01*
X11831968Y-13011531D02*
X11822444Y-12982960D01*
X11822444Y-12982960D02*
X11812920Y-12935341D01*
X11812920Y-12935341D02*
X11812920Y-12897246D01*
X11812920Y-12897246D02*
X11822444Y-12849627D01*
X11822444Y-12849627D02*
X11831968Y-12821055D01*
X11831968Y-12821055D02*
X11841491Y-12802008D01*
X11841491Y-12802008D02*
X11860539Y-12773436D01*
X11860539Y-12773436D02*
X11870063Y-12763912D01*
X12051015Y-12992484D02*
X11936729Y-12992484D01*
X11993872Y-12992484D02*
X11993872Y-12792484D01*
X11993872Y-12792484D02*
X11974825Y-12821055D01*
X11974825Y-12821055D02*
X11955777Y-12840103D01*
X11955777Y-12840103D02*
X11936729Y-12849627D01*
X12117682Y-12792484D02*
X12251015Y-12792484D01*
X12251015Y-12792484D02*
X12165301Y-12992484D01*
X12479587Y-12992484D02*
X12479587Y-12792484D01*
X12565301Y-12992484D02*
X12565301Y-12887722D01*
X12565301Y-12887722D02*
X12555777Y-12868674D01*
X12555777Y-12868674D02*
X12536730Y-12859150D01*
X12536730Y-12859150D02*
X12508158Y-12859150D01*
X12508158Y-12859150D02*
X12489110Y-12868674D01*
X12489110Y-12868674D02*
X12479587Y-12878198D01*
X12689110Y-12992484D02*
X12670063Y-12982960D01*
X12670063Y-12982960D02*
X12660539Y-12973436D01*
X12660539Y-12973436D02*
X12651015Y-12954388D01*
X12651015Y-12954388D02*
X12651015Y-12897246D01*
X12651015Y-12897246D02*
X12660539Y-12878198D01*
X12660539Y-12878198D02*
X12670063Y-12868674D01*
X12670063Y-12868674D02*
X12689110Y-12859150D01*
X12689110Y-12859150D02*
X12717682Y-12859150D01*
X12717682Y-12859150D02*
X12736730Y-12868674D01*
X12736730Y-12868674D02*
X12746253Y-12878198D01*
X12746253Y-12878198D02*
X12755777Y-12897246D01*
X12755777Y-12897246D02*
X12755777Y-12954388D01*
X12755777Y-12954388D02*
X12746253Y-12973436D01*
X12746253Y-12973436D02*
X12736730Y-12982960D01*
X12736730Y-12982960D02*
X12717682Y-12992484D01*
X12717682Y-12992484D02*
X12689110Y-12992484D01*
X12870063Y-12992484D02*
X12851015Y-12982960D01*
X12851015Y-12982960D02*
X12841491Y-12963912D01*
X12841491Y-12963912D02*
X12841491Y-12792484D01*
X13022444Y-12982960D02*
X13003396Y-12992484D01*
X13003396Y-12992484D02*
X12965301Y-12992484D01*
X12965301Y-12992484D02*
X12946253Y-12982960D01*
X12946253Y-12982960D02*
X12936730Y-12963912D01*
X12936730Y-12963912D02*
X12936730Y-12887722D01*
X12936730Y-12887722D02*
X12946253Y-12868674D01*
X12946253Y-12868674D02*
X12965301Y-12859150D01*
X12965301Y-12859150D02*
X13003396Y-12859150D01*
X13003396Y-12859150D02*
X13022444Y-12868674D01*
X13022444Y-12868674D02*
X13031968Y-12887722D01*
X13031968Y-12887722D02*
X13031968Y-12906769D01*
X13031968Y-12906769D02*
X12936730Y-12925817D01*
X13108158Y-12982960D02*
X13127206Y-12992484D01*
X13127206Y-12992484D02*
X13165301Y-12992484D01*
X13165301Y-12992484D02*
X13184349Y-12982960D01*
X13184349Y-12982960D02*
X13193872Y-12963912D01*
X13193872Y-12963912D02*
X13193872Y-12954388D01*
X13193872Y-12954388D02*
X13184349Y-12935341D01*
X13184349Y-12935341D02*
X13165301Y-12925817D01*
X13165301Y-12925817D02*
X13136730Y-12925817D01*
X13136730Y-12925817D02*
X13117682Y-12916293D01*
X13117682Y-12916293D02*
X13108158Y-12897246D01*
X13108158Y-12897246D02*
X13108158Y-12887722D01*
X13108158Y-12887722D02*
X13117682Y-12868674D01*
X13117682Y-12868674D02*
X13136730Y-12859150D01*
X13136730Y-12859150D02*
X13165301Y-12859150D01*
X13165301Y-12859150D02*
X13184349Y-12868674D01*
X13431968Y-12916293D02*
X13584349Y-12916293D01*
X13508158Y-12992484D02*
X13508158Y-12840103D01*
X13936730Y-12992484D02*
X13822444Y-12992484D01*
X13879587Y-12992484D02*
X13879587Y-12792484D01*
X13879587Y-12792484D02*
X13860539Y-12821055D01*
X13860539Y-12821055D02*
X13841492Y-12840103D01*
X13841492Y-12840103D02*
X13822444Y-12849627D01*
X14051015Y-12878198D02*
X14031968Y-12868674D01*
X14031968Y-12868674D02*
X14022444Y-12859150D01*
X14022444Y-12859150D02*
X14012920Y-12840103D01*
X14012920Y-12840103D02*
X14012920Y-12830579D01*
X14012920Y-12830579D02*
X14022444Y-12811531D01*
X14022444Y-12811531D02*
X14031968Y-12802008D01*
X14031968Y-12802008D02*
X14051015Y-12792484D01*
X14051015Y-12792484D02*
X14089111Y-12792484D01*
X14089111Y-12792484D02*
X14108158Y-12802008D01*
X14108158Y-12802008D02*
X14117682Y-12811531D01*
X14117682Y-12811531D02*
X14127206Y-12830579D01*
X14127206Y-12830579D02*
X14127206Y-12840103D01*
X14127206Y-12840103D02*
X14117682Y-12859150D01*
X14117682Y-12859150D02*
X14108158Y-12868674D01*
X14108158Y-12868674D02*
X14089111Y-12878198D01*
X14089111Y-12878198D02*
X14051015Y-12878198D01*
X14051015Y-12878198D02*
X14031968Y-12887722D01*
X14031968Y-12887722D02*
X14022444Y-12897246D01*
X14022444Y-12897246D02*
X14012920Y-12916293D01*
X14012920Y-12916293D02*
X14012920Y-12954388D01*
X14012920Y-12954388D02*
X14022444Y-12973436D01*
X14022444Y-12973436D02*
X14031968Y-12982960D01*
X14031968Y-12982960D02*
X14051015Y-12992484D01*
X14051015Y-12992484D02*
X14089111Y-12992484D01*
X14089111Y-12992484D02*
X14108158Y-12982960D01*
X14108158Y-12982960D02*
X14117682Y-12973436D01*
X14117682Y-12973436D02*
X14127206Y-12954388D01*
X14127206Y-12954388D02*
X14127206Y-12916293D01*
X14127206Y-12916293D02*
X14117682Y-12897246D01*
X14117682Y-12897246D02*
X14108158Y-12887722D01*
X14108158Y-12887722D02*
X14089111Y-12878198D01*
X14355777Y-12982960D02*
X14374825Y-12992484D01*
X14374825Y-12992484D02*
X14412920Y-12992484D01*
X14412920Y-12992484D02*
X14431968Y-12982960D01*
X14431968Y-12982960D02*
X14441492Y-12963912D01*
X14441492Y-12963912D02*
X14441492Y-12954388D01*
X14441492Y-12954388D02*
X14431968Y-12935341D01*
X14431968Y-12935341D02*
X14412920Y-12925817D01*
X14412920Y-12925817D02*
X14384349Y-12925817D01*
X14384349Y-12925817D02*
X14365301Y-12916293D01*
X14365301Y-12916293D02*
X14355777Y-12897246D01*
X14355777Y-12897246D02*
X14355777Y-12887722D01*
X14355777Y-12887722D02*
X14365301Y-12868674D01*
X14365301Y-12868674D02*
X14384349Y-12859150D01*
X14384349Y-12859150D02*
X14412920Y-12859150D01*
X14412920Y-12859150D02*
X14431968Y-12868674D01*
X14555777Y-12992484D02*
X14536730Y-12982960D01*
X14536730Y-12982960D02*
X14527206Y-12963912D01*
X14527206Y-12963912D02*
X14527206Y-12792484D01*
X14660539Y-12992484D02*
X14641492Y-12982960D01*
X14641492Y-12982960D02*
X14631968Y-12973436D01*
X14631968Y-12973436D02*
X14622444Y-12954388D01*
X14622444Y-12954388D02*
X14622444Y-12897246D01*
X14622444Y-12897246D02*
X14631968Y-12878198D01*
X14631968Y-12878198D02*
X14641492Y-12868674D01*
X14641492Y-12868674D02*
X14660539Y-12859150D01*
X14660539Y-12859150D02*
X14689111Y-12859150D01*
X14689111Y-12859150D02*
X14708158Y-12868674D01*
X14708158Y-12868674D02*
X14717682Y-12878198D01*
X14717682Y-12878198D02*
X14727206Y-12897246D01*
X14727206Y-12897246D02*
X14727206Y-12954388D01*
X14727206Y-12954388D02*
X14717682Y-12973436D01*
X14717682Y-12973436D02*
X14708158Y-12982960D01*
X14708158Y-12982960D02*
X14689111Y-12992484D01*
X14689111Y-12992484D02*
X14660539Y-12992484D01*
X14784349Y-12859150D02*
X14860539Y-12859150D01*
X14812920Y-12792484D02*
X14812920Y-12963912D01*
X14812920Y-12963912D02*
X14822444Y-12982960D01*
X14822444Y-12982960D02*
X14841492Y-12992484D01*
X14841492Y-12992484D02*
X14860539Y-12992484D01*
X14917682Y-12982960D02*
X14936730Y-12992484D01*
X14936730Y-12992484D02*
X14974825Y-12992484D01*
X14974825Y-12992484D02*
X14993873Y-12982960D01*
X14993873Y-12982960D02*
X15003396Y-12963912D01*
X15003396Y-12963912D02*
X15003396Y-12954388D01*
X15003396Y-12954388D02*
X14993873Y-12935341D01*
X14993873Y-12935341D02*
X14974825Y-12925817D01*
X14974825Y-12925817D02*
X14946254Y-12925817D01*
X14946254Y-12925817D02*
X14927206Y-12916293D01*
X14927206Y-12916293D02*
X14917682Y-12897246D01*
X14917682Y-12897246D02*
X14917682Y-12887722D01*
X14917682Y-12887722D02*
X14927206Y-12868674D01*
X14927206Y-12868674D02*
X14946254Y-12859150D01*
X14946254Y-12859150D02*
X14974825Y-12859150D01*
X14974825Y-12859150D02*
X14993873Y-12868674D01*
X15070063Y-13068674D02*
X15079587Y-13059150D01*
X15079587Y-13059150D02*
X15098635Y-13030579D01*
X15098635Y-13030579D02*
X15108158Y-13011531D01*
X15108158Y-13011531D02*
X15117682Y-12982960D01*
X15117682Y-12982960D02*
X15127206Y-12935341D01*
X15127206Y-12935341D02*
X15127206Y-12897246D01*
X15127206Y-12897246D02*
X15117682Y-12849627D01*
X15117682Y-12849627D02*
X15108158Y-12821055D01*
X15108158Y-12821055D02*
X15098635Y-12802008D01*
X15098635Y-12802008D02*
X15079587Y-12773436D01*
X15079587Y-12773436D02*
X15070063Y-12763912D01*
D12*
X8185000Y-13110000D02*
X8295000Y-13220000D01*
X8295000Y-13110000D02*
X8185000Y-13220000D01*
X8295000Y-13165000D02*
G75*
G02*
X8185000Y-13165000I-55000J0D01*
G01*
X8185000Y-13165000D02*
G75*
G02*
X8295000Y-13165000I55000J0D01*
G01*
D11*
X8660539Y-13256484D02*
X8546253Y-13256484D01*
X8603396Y-13256484D02*
X8603396Y-13056484D01*
X8603396Y-13056484D02*
X8584348Y-13085055D01*
X8584348Y-13085055D02*
X8565301Y-13104103D01*
X8565301Y-13104103D02*
X8546253Y-13113627D01*
X8746253Y-13237436D02*
X8755777Y-13246960D01*
X8755777Y-13246960D02*
X8746253Y-13256484D01*
X8746253Y-13256484D02*
X8736729Y-13246960D01*
X8736729Y-13246960D02*
X8746253Y-13237436D01*
X8746253Y-13237436D02*
X8746253Y-13256484D01*
X8946253Y-13256484D02*
X8831967Y-13256484D01*
X8889110Y-13256484D02*
X8889110Y-13056484D01*
X8889110Y-13056484D02*
X8870063Y-13085055D01*
X8870063Y-13085055D02*
X8851015Y-13104103D01*
X8851015Y-13104103D02*
X8831967Y-13113627D01*
X9070063Y-13056484D02*
X9089110Y-13056484D01*
X9089110Y-13056484D02*
X9108158Y-13066008D01*
X9108158Y-13066008D02*
X9117682Y-13075531D01*
X9117682Y-13075531D02*
X9127205Y-13094579D01*
X9127205Y-13094579D02*
X9136729Y-13132674D01*
X9136729Y-13132674D02*
X9136729Y-13180293D01*
X9136729Y-13180293D02*
X9127205Y-13218388D01*
X9127205Y-13218388D02*
X9117682Y-13237436D01*
X9117682Y-13237436D02*
X9108158Y-13246960D01*
X9108158Y-13246960D02*
X9089110Y-13256484D01*
X9089110Y-13256484D02*
X9070063Y-13256484D01*
X9070063Y-13256484D02*
X9051015Y-13246960D01*
X9051015Y-13246960D02*
X9041491Y-13237436D01*
X9041491Y-13237436D02*
X9031967Y-13218388D01*
X9031967Y-13218388D02*
X9022444Y-13180293D01*
X9022444Y-13180293D02*
X9022444Y-13132674D01*
X9022444Y-13132674D02*
X9031967Y-13094579D01*
X9031967Y-13094579D02*
X9041491Y-13075531D01*
X9041491Y-13075531D02*
X9051015Y-13066008D01*
X9051015Y-13066008D02*
X9070063Y-13056484D01*
X9260539Y-13056484D02*
X9279586Y-13056484D01*
X9279586Y-13056484D02*
X9298634Y-13066008D01*
X9298634Y-13066008D02*
X9308158Y-13075531D01*
X9308158Y-13075531D02*
X9317682Y-13094579D01*
X9317682Y-13094579D02*
X9327205Y-13132674D01*
X9327205Y-13132674D02*
X9327205Y-13180293D01*
X9327205Y-13180293D02*
X9317682Y-13218388D01*
X9317682Y-13218388D02*
X9308158Y-13237436D01*
X9308158Y-13237436D02*
X9298634Y-13246960D01*
X9298634Y-13246960D02*
X9279586Y-13256484D01*
X9279586Y-13256484D02*
X9260539Y-13256484D01*
X9260539Y-13256484D02*
X9241491Y-13246960D01*
X9241491Y-13246960D02*
X9231967Y-13237436D01*
X9231967Y-13237436D02*
X9222444Y-13218388D01*
X9222444Y-13218388D02*
X9212920Y-13180293D01*
X9212920Y-13180293D02*
X9212920Y-13132674D01*
X9212920Y-13132674D02*
X9222444Y-13094579D01*
X9222444Y-13094579D02*
X9231967Y-13075531D01*
X9231967Y-13075531D02*
X9241491Y-13066008D01*
X9241491Y-13066008D02*
X9260539Y-13056484D01*
X9412920Y-13256484D02*
X9412920Y-13123150D01*
X9412920Y-13142198D02*
X9422444Y-13132674D01*
X9422444Y-13132674D02*
X9441491Y-13123150D01*
X9441491Y-13123150D02*
X9470063Y-13123150D01*
X9470063Y-13123150D02*
X9489110Y-13132674D01*
X9489110Y-13132674D02*
X9498634Y-13151722D01*
X9498634Y-13151722D02*
X9498634Y-13256484D01*
X9498634Y-13151722D02*
X9508158Y-13132674D01*
X9508158Y-13132674D02*
X9527205Y-13123150D01*
X9527205Y-13123150D02*
X9555777Y-13123150D01*
X9555777Y-13123150D02*
X9574825Y-13132674D01*
X9574825Y-13132674D02*
X9584348Y-13151722D01*
X9584348Y-13151722D02*
X9584348Y-13256484D01*
X9679586Y-13256484D02*
X9679586Y-13123150D01*
X9679586Y-13142198D02*
X9689110Y-13132674D01*
X9689110Y-13132674D02*
X9708158Y-13123150D01*
X9708158Y-13123150D02*
X9736729Y-13123150D01*
X9736729Y-13123150D02*
X9755777Y-13132674D01*
X9755777Y-13132674D02*
X9765301Y-13151722D01*
X9765301Y-13151722D02*
X9765301Y-13256484D01*
X9765301Y-13151722D02*
X9774825Y-13132674D01*
X9774825Y-13132674D02*
X9793872Y-13123150D01*
X9793872Y-13123150D02*
X9822444Y-13123150D01*
X9822444Y-13123150D02*
X9841491Y-13132674D01*
X9841491Y-13132674D02*
X9851015Y-13151722D01*
X9851015Y-13151722D02*
X9851015Y-13256484D01*
X10241491Y-13046960D02*
X10070063Y-13304103D01*
X10498634Y-13056484D02*
X10517682Y-13056484D01*
X10517682Y-13056484D02*
X10536729Y-13066008D01*
X10536729Y-13066008D02*
X10546253Y-13075531D01*
X10546253Y-13075531D02*
X10555777Y-13094579D01*
X10555777Y-13094579D02*
X10565301Y-13132674D01*
X10565301Y-13132674D02*
X10565301Y-13180293D01*
X10565301Y-13180293D02*
X10555777Y-13218388D01*
X10555777Y-13218388D02*
X10546253Y-13237436D01*
X10546253Y-13237436D02*
X10536729Y-13246960D01*
X10536729Y-13246960D02*
X10517682Y-13256484D01*
X10517682Y-13256484D02*
X10498634Y-13256484D01*
X10498634Y-13256484D02*
X10479587Y-13246960D01*
X10479587Y-13246960D02*
X10470063Y-13237436D01*
X10470063Y-13237436D02*
X10460539Y-13218388D01*
X10460539Y-13218388D02*
X10451015Y-13180293D01*
X10451015Y-13180293D02*
X10451015Y-13132674D01*
X10451015Y-13132674D02*
X10460539Y-13094579D01*
X10460539Y-13094579D02*
X10470063Y-13075531D01*
X10470063Y-13075531D02*
X10479587Y-13066008D01*
X10479587Y-13066008D02*
X10498634Y-13056484D01*
X10651015Y-13237436D02*
X10660539Y-13246960D01*
X10660539Y-13246960D02*
X10651015Y-13256484D01*
X10651015Y-13256484D02*
X10641491Y-13246960D01*
X10641491Y-13246960D02*
X10651015Y-13237436D01*
X10651015Y-13237436D02*
X10651015Y-13256484D01*
X10784348Y-13056484D02*
X10803396Y-13056484D01*
X10803396Y-13056484D02*
X10822444Y-13066008D01*
X10822444Y-13066008D02*
X10831968Y-13075531D01*
X10831968Y-13075531D02*
X10841491Y-13094579D01*
X10841491Y-13094579D02*
X10851015Y-13132674D01*
X10851015Y-13132674D02*
X10851015Y-13180293D01*
X10851015Y-13180293D02*
X10841491Y-13218388D01*
X10841491Y-13218388D02*
X10831968Y-13237436D01*
X10831968Y-13237436D02*
X10822444Y-13246960D01*
X10822444Y-13246960D02*
X10803396Y-13256484D01*
X10803396Y-13256484D02*
X10784348Y-13256484D01*
X10784348Y-13256484D02*
X10765301Y-13246960D01*
X10765301Y-13246960D02*
X10755777Y-13237436D01*
X10755777Y-13237436D02*
X10746253Y-13218388D01*
X10746253Y-13218388D02*
X10736729Y-13180293D01*
X10736729Y-13180293D02*
X10736729Y-13132674D01*
X10736729Y-13132674D02*
X10746253Y-13094579D01*
X10746253Y-13094579D02*
X10755777Y-13075531D01*
X10755777Y-13075531D02*
X10765301Y-13066008D01*
X10765301Y-13066008D02*
X10784348Y-13056484D01*
X11022444Y-13123150D02*
X11022444Y-13256484D01*
X10974825Y-13046960D02*
X10927206Y-13189817D01*
X10927206Y-13189817D02*
X11051015Y-13189817D01*
X11108158Y-13056484D02*
X11231967Y-13056484D01*
X11231967Y-13056484D02*
X11165301Y-13132674D01*
X11165301Y-13132674D02*
X11193872Y-13132674D01*
X11193872Y-13132674D02*
X11212920Y-13142198D01*
X11212920Y-13142198D02*
X11222444Y-13151722D01*
X11222444Y-13151722D02*
X11231967Y-13170769D01*
X11231967Y-13170769D02*
X11231967Y-13218388D01*
X11231967Y-13218388D02*
X11222444Y-13237436D01*
X11222444Y-13237436D02*
X11212920Y-13246960D01*
X11212920Y-13246960D02*
X11193872Y-13256484D01*
X11193872Y-13256484D02*
X11136729Y-13256484D01*
X11136729Y-13256484D02*
X11117682Y-13246960D01*
X11117682Y-13246960D02*
X11108158Y-13237436D01*
X11298634Y-13056484D02*
X11422444Y-13056484D01*
X11422444Y-13056484D02*
X11355777Y-13132674D01*
X11355777Y-13132674D02*
X11384348Y-13132674D01*
X11384348Y-13132674D02*
X11403396Y-13142198D01*
X11403396Y-13142198D02*
X11412920Y-13151722D01*
X11412920Y-13151722D02*
X11422444Y-13170769D01*
X11422444Y-13170769D02*
X11422444Y-13218388D01*
X11422444Y-13218388D02*
X11412920Y-13237436D01*
X11412920Y-13237436D02*
X11403396Y-13246960D01*
X11403396Y-13246960D02*
X11384348Y-13256484D01*
X11384348Y-13256484D02*
X11327206Y-13256484D01*
X11327206Y-13256484D02*
X11308158Y-13246960D01*
X11308158Y-13246960D02*
X11298634Y-13237436D01*
X11498634Y-13056484D02*
X11498634Y-13094579D01*
X11574825Y-13056484D02*
X11574825Y-13094579D01*
X11870063Y-13332674D02*
X11860539Y-13323150D01*
X11860539Y-13323150D02*
X11841491Y-13294579D01*
X11841491Y-13294579D02*
X11831968Y-13275531D01*
X11831968Y-13275531D02*
X11822444Y-13246960D01*
X11822444Y-13246960D02*
X11812920Y-13199341D01*
X11812920Y-13199341D02*
X11812920Y-13161246D01*
X11812920Y-13161246D02*
X11822444Y-13113627D01*
X11822444Y-13113627D02*
X11831968Y-13085055D01*
X11831968Y-13085055D02*
X11841491Y-13066008D01*
X11841491Y-13066008D02*
X11860539Y-13037436D01*
X11860539Y-13037436D02*
X11870063Y-13027912D01*
X12031968Y-13123150D02*
X12031968Y-13256484D01*
X11984348Y-13046960D02*
X11936729Y-13189817D01*
X11936729Y-13189817D02*
X12060539Y-13189817D01*
X12231968Y-13056484D02*
X12136729Y-13056484D01*
X12136729Y-13056484D02*
X12127206Y-13151722D01*
X12127206Y-13151722D02*
X12136729Y-13142198D01*
X12136729Y-13142198D02*
X12155777Y-13132674D01*
X12155777Y-13132674D02*
X12203396Y-13132674D01*
X12203396Y-13132674D02*
X12222444Y-13142198D01*
X12222444Y-13142198D02*
X12231968Y-13151722D01*
X12231968Y-13151722D02*
X12241491Y-13170769D01*
X12241491Y-13170769D02*
X12241491Y-13218388D01*
X12241491Y-13218388D02*
X12231968Y-13237436D01*
X12231968Y-13237436D02*
X12222444Y-13246960D01*
X12222444Y-13246960D02*
X12203396Y-13256484D01*
X12203396Y-13256484D02*
X12155777Y-13256484D01*
X12155777Y-13256484D02*
X12136729Y-13246960D01*
X12136729Y-13246960D02*
X12127206Y-13237436D01*
X12479587Y-13256484D02*
X12479587Y-13056484D01*
X12565301Y-13256484D02*
X12565301Y-13151722D01*
X12565301Y-13151722D02*
X12555777Y-13132674D01*
X12555777Y-13132674D02*
X12536730Y-13123150D01*
X12536730Y-13123150D02*
X12508158Y-13123150D01*
X12508158Y-13123150D02*
X12489110Y-13132674D01*
X12489110Y-13132674D02*
X12479587Y-13142198D01*
X12689110Y-13256484D02*
X12670063Y-13246960D01*
X12670063Y-13246960D02*
X12660539Y-13237436D01*
X12660539Y-13237436D02*
X12651015Y-13218388D01*
X12651015Y-13218388D02*
X12651015Y-13161246D01*
X12651015Y-13161246D02*
X12660539Y-13142198D01*
X12660539Y-13142198D02*
X12670063Y-13132674D01*
X12670063Y-13132674D02*
X12689110Y-13123150D01*
X12689110Y-13123150D02*
X12717682Y-13123150D01*
X12717682Y-13123150D02*
X12736730Y-13132674D01*
X12736730Y-13132674D02*
X12746253Y-13142198D01*
X12746253Y-13142198D02*
X12755777Y-13161246D01*
X12755777Y-13161246D02*
X12755777Y-13218388D01*
X12755777Y-13218388D02*
X12746253Y-13237436D01*
X12746253Y-13237436D02*
X12736730Y-13246960D01*
X12736730Y-13246960D02*
X12717682Y-13256484D01*
X12717682Y-13256484D02*
X12689110Y-13256484D01*
X12870063Y-13256484D02*
X12851015Y-13246960D01*
X12851015Y-13246960D02*
X12841491Y-13227912D01*
X12841491Y-13227912D02*
X12841491Y-13056484D01*
X13022444Y-13246960D02*
X13003396Y-13256484D01*
X13003396Y-13256484D02*
X12965301Y-13256484D01*
X12965301Y-13256484D02*
X12946253Y-13246960D01*
X12946253Y-13246960D02*
X12936730Y-13227912D01*
X12936730Y-13227912D02*
X12936730Y-13151722D01*
X12936730Y-13151722D02*
X12946253Y-13132674D01*
X12946253Y-13132674D02*
X12965301Y-13123150D01*
X12965301Y-13123150D02*
X13003396Y-13123150D01*
X13003396Y-13123150D02*
X13022444Y-13132674D01*
X13022444Y-13132674D02*
X13031968Y-13151722D01*
X13031968Y-13151722D02*
X13031968Y-13170769D01*
X13031968Y-13170769D02*
X12936730Y-13189817D01*
X13108158Y-13246960D02*
X13127206Y-13256484D01*
X13127206Y-13256484D02*
X13165301Y-13256484D01*
X13165301Y-13256484D02*
X13184349Y-13246960D01*
X13184349Y-13246960D02*
X13193872Y-13227912D01*
X13193872Y-13227912D02*
X13193872Y-13218388D01*
X13193872Y-13218388D02*
X13184349Y-13199341D01*
X13184349Y-13199341D02*
X13165301Y-13189817D01*
X13165301Y-13189817D02*
X13136730Y-13189817D01*
X13136730Y-13189817D02*
X13117682Y-13180293D01*
X13117682Y-13180293D02*
X13108158Y-13161246D01*
X13108158Y-13161246D02*
X13108158Y-13151722D01*
X13108158Y-13151722D02*
X13117682Y-13132674D01*
X13117682Y-13132674D02*
X13136730Y-13123150D01*
X13136730Y-13123150D02*
X13165301Y-13123150D01*
X13165301Y-13123150D02*
X13184349Y-13132674D01*
X13260539Y-13332674D02*
X13270063Y-13323150D01*
X13270063Y-13323150D02*
X13289111Y-13294579D01*
X13289111Y-13294579D02*
X13298634Y-13275531D01*
X13298634Y-13275531D02*
X13308158Y-13246960D01*
X13308158Y-13246960D02*
X13317682Y-13199341D01*
X13317682Y-13199341D02*
X13317682Y-13161246D01*
X13317682Y-13161246D02*
X13308158Y-13113627D01*
X13308158Y-13113627D02*
X13298634Y-13085055D01*
X13298634Y-13085055D02*
X13289111Y-13066008D01*
X13289111Y-13066008D02*
X13270063Y-13037436D01*
X13270063Y-13037436D02*
X13260539Y-13027912D01*
D13*
X8145000Y-13354000D02*
X8295000Y-13504000D01*
X8295000Y-13354000D02*
X8145000Y-13504000D01*
X8220000Y-13354000D02*
X8220000Y-13504000D01*
X8145000Y-13429000D02*
X8295000Y-13429000D01*
D11*
X8660539Y-13520484D02*
X8546253Y-13520484D01*
X8603396Y-13520484D02*
X8603396Y-13320484D01*
X8603396Y-13320484D02*
X8584348Y-13349055D01*
X8584348Y-13349055D02*
X8565301Y-13368103D01*
X8565301Y-13368103D02*
X8546253Y-13377627D01*
X8746253Y-13501436D02*
X8755777Y-13510960D01*
X8755777Y-13510960D02*
X8746253Y-13520484D01*
X8746253Y-13520484D02*
X8736729Y-13510960D01*
X8736729Y-13510960D02*
X8746253Y-13501436D01*
X8746253Y-13501436D02*
X8746253Y-13520484D01*
X8936729Y-13320484D02*
X8841491Y-13320484D01*
X8841491Y-13320484D02*
X8831967Y-13415722D01*
X8831967Y-13415722D02*
X8841491Y-13406198D01*
X8841491Y-13406198D02*
X8860539Y-13396674D01*
X8860539Y-13396674D02*
X8908158Y-13396674D01*
X8908158Y-13396674D02*
X8927205Y-13406198D01*
X8927205Y-13406198D02*
X8936729Y-13415722D01*
X8936729Y-13415722D02*
X8946253Y-13434769D01*
X8946253Y-13434769D02*
X8946253Y-13482388D01*
X8946253Y-13482388D02*
X8936729Y-13501436D01*
X8936729Y-13501436D02*
X8927205Y-13510960D01*
X8927205Y-13510960D02*
X8908158Y-13520484D01*
X8908158Y-13520484D02*
X8860539Y-13520484D01*
X8860539Y-13520484D02*
X8841491Y-13510960D01*
X8841491Y-13510960D02*
X8831967Y-13501436D01*
X9070063Y-13320484D02*
X9089110Y-13320484D01*
X9089110Y-13320484D02*
X9108158Y-13330008D01*
X9108158Y-13330008D02*
X9117682Y-13339531D01*
X9117682Y-13339531D02*
X9127205Y-13358579D01*
X9127205Y-13358579D02*
X9136729Y-13396674D01*
X9136729Y-13396674D02*
X9136729Y-13444293D01*
X9136729Y-13444293D02*
X9127205Y-13482388D01*
X9127205Y-13482388D02*
X9117682Y-13501436D01*
X9117682Y-13501436D02*
X9108158Y-13510960D01*
X9108158Y-13510960D02*
X9089110Y-13520484D01*
X9089110Y-13520484D02*
X9070063Y-13520484D01*
X9070063Y-13520484D02*
X9051015Y-13510960D01*
X9051015Y-13510960D02*
X9041491Y-13501436D01*
X9041491Y-13501436D02*
X9031967Y-13482388D01*
X9031967Y-13482388D02*
X9022444Y-13444293D01*
X9022444Y-13444293D02*
X9022444Y-13396674D01*
X9022444Y-13396674D02*
X9031967Y-13358579D01*
X9031967Y-13358579D02*
X9041491Y-13339531D01*
X9041491Y-13339531D02*
X9051015Y-13330008D01*
X9051015Y-13330008D02*
X9070063Y-13320484D01*
X9260539Y-13320484D02*
X9279586Y-13320484D01*
X9279586Y-13320484D02*
X9298634Y-13330008D01*
X9298634Y-13330008D02*
X9308158Y-13339531D01*
X9308158Y-13339531D02*
X9317682Y-13358579D01*
X9317682Y-13358579D02*
X9327205Y-13396674D01*
X9327205Y-13396674D02*
X9327205Y-13444293D01*
X9327205Y-13444293D02*
X9317682Y-13482388D01*
X9317682Y-13482388D02*
X9308158Y-13501436D01*
X9308158Y-13501436D02*
X9298634Y-13510960D01*
X9298634Y-13510960D02*
X9279586Y-13520484D01*
X9279586Y-13520484D02*
X9260539Y-13520484D01*
X9260539Y-13520484D02*
X9241491Y-13510960D01*
X9241491Y-13510960D02*
X9231967Y-13501436D01*
X9231967Y-13501436D02*
X9222444Y-13482388D01*
X9222444Y-13482388D02*
X9212920Y-13444293D01*
X9212920Y-13444293D02*
X9212920Y-13396674D01*
X9212920Y-13396674D02*
X9222444Y-13358579D01*
X9222444Y-13358579D02*
X9231967Y-13339531D01*
X9231967Y-13339531D02*
X9241491Y-13330008D01*
X9241491Y-13330008D02*
X9260539Y-13320484D01*
X9412920Y-13520484D02*
X9412920Y-13387150D01*
X9412920Y-13406198D02*
X9422444Y-13396674D01*
X9422444Y-13396674D02*
X9441491Y-13387150D01*
X9441491Y-13387150D02*
X9470063Y-13387150D01*
X9470063Y-13387150D02*
X9489110Y-13396674D01*
X9489110Y-13396674D02*
X9498634Y-13415722D01*
X9498634Y-13415722D02*
X9498634Y-13520484D01*
X9498634Y-13415722D02*
X9508158Y-13396674D01*
X9508158Y-13396674D02*
X9527205Y-13387150D01*
X9527205Y-13387150D02*
X9555777Y-13387150D01*
X9555777Y-13387150D02*
X9574825Y-13396674D01*
X9574825Y-13396674D02*
X9584348Y-13415722D01*
X9584348Y-13415722D02*
X9584348Y-13520484D01*
X9679586Y-13520484D02*
X9679586Y-13387150D01*
X9679586Y-13406198D02*
X9689110Y-13396674D01*
X9689110Y-13396674D02*
X9708158Y-13387150D01*
X9708158Y-13387150D02*
X9736729Y-13387150D01*
X9736729Y-13387150D02*
X9755777Y-13396674D01*
X9755777Y-13396674D02*
X9765301Y-13415722D01*
X9765301Y-13415722D02*
X9765301Y-13520484D01*
X9765301Y-13415722D02*
X9774825Y-13396674D01*
X9774825Y-13396674D02*
X9793872Y-13387150D01*
X9793872Y-13387150D02*
X9822444Y-13387150D01*
X9822444Y-13387150D02*
X9841491Y-13396674D01*
X9841491Y-13396674D02*
X9851015Y-13415722D01*
X9851015Y-13415722D02*
X9851015Y-13520484D01*
X10241491Y-13310960D02*
X10070063Y-13568103D01*
X10498634Y-13320484D02*
X10517682Y-13320484D01*
X10517682Y-13320484D02*
X10536729Y-13330008D01*
X10536729Y-13330008D02*
X10546253Y-13339531D01*
X10546253Y-13339531D02*
X10555777Y-13358579D01*
X10555777Y-13358579D02*
X10565301Y-13396674D01*
X10565301Y-13396674D02*
X10565301Y-13444293D01*
X10565301Y-13444293D02*
X10555777Y-13482388D01*
X10555777Y-13482388D02*
X10546253Y-13501436D01*
X10546253Y-13501436D02*
X10536729Y-13510960D01*
X10536729Y-13510960D02*
X10517682Y-13520484D01*
X10517682Y-13520484D02*
X10498634Y-13520484D01*
X10498634Y-13520484D02*
X10479587Y-13510960D01*
X10479587Y-13510960D02*
X10470063Y-13501436D01*
X10470063Y-13501436D02*
X10460539Y-13482388D01*
X10460539Y-13482388D02*
X10451015Y-13444293D01*
X10451015Y-13444293D02*
X10451015Y-13396674D01*
X10451015Y-13396674D02*
X10460539Y-13358579D01*
X10460539Y-13358579D02*
X10470063Y-13339531D01*
X10470063Y-13339531D02*
X10479587Y-13330008D01*
X10479587Y-13330008D02*
X10498634Y-13320484D01*
X10651015Y-13501436D02*
X10660539Y-13510960D01*
X10660539Y-13510960D02*
X10651015Y-13520484D01*
X10651015Y-13520484D02*
X10641491Y-13510960D01*
X10641491Y-13510960D02*
X10651015Y-13501436D01*
X10651015Y-13501436D02*
X10651015Y-13520484D01*
X10784348Y-13320484D02*
X10803396Y-13320484D01*
X10803396Y-13320484D02*
X10822444Y-13330008D01*
X10822444Y-13330008D02*
X10831968Y-13339531D01*
X10831968Y-13339531D02*
X10841491Y-13358579D01*
X10841491Y-13358579D02*
X10851015Y-13396674D01*
X10851015Y-13396674D02*
X10851015Y-13444293D01*
X10851015Y-13444293D02*
X10841491Y-13482388D01*
X10841491Y-13482388D02*
X10831968Y-13501436D01*
X10831968Y-13501436D02*
X10822444Y-13510960D01*
X10822444Y-13510960D02*
X10803396Y-13520484D01*
X10803396Y-13520484D02*
X10784348Y-13520484D01*
X10784348Y-13520484D02*
X10765301Y-13510960D01*
X10765301Y-13510960D02*
X10755777Y-13501436D01*
X10755777Y-13501436D02*
X10746253Y-13482388D01*
X10746253Y-13482388D02*
X10736729Y-13444293D01*
X10736729Y-13444293D02*
X10736729Y-13396674D01*
X10736729Y-13396674D02*
X10746253Y-13358579D01*
X10746253Y-13358579D02*
X10755777Y-13339531D01*
X10755777Y-13339531D02*
X10765301Y-13330008D01*
X10765301Y-13330008D02*
X10784348Y-13320484D01*
X11031968Y-13320484D02*
X10936729Y-13320484D01*
X10936729Y-13320484D02*
X10927206Y-13415722D01*
X10927206Y-13415722D02*
X10936729Y-13406198D01*
X10936729Y-13406198D02*
X10955777Y-13396674D01*
X10955777Y-13396674D02*
X11003396Y-13396674D01*
X11003396Y-13396674D02*
X11022444Y-13406198D01*
X11022444Y-13406198D02*
X11031968Y-13415722D01*
X11031968Y-13415722D02*
X11041491Y-13434769D01*
X11041491Y-13434769D02*
X11041491Y-13482388D01*
X11041491Y-13482388D02*
X11031968Y-13501436D01*
X11031968Y-13501436D02*
X11022444Y-13510960D01*
X11022444Y-13510960D02*
X11003396Y-13520484D01*
X11003396Y-13520484D02*
X10955777Y-13520484D01*
X10955777Y-13520484D02*
X10936729Y-13510960D01*
X10936729Y-13510960D02*
X10927206Y-13501436D01*
X11136729Y-13520484D02*
X11174825Y-13520484D01*
X11174825Y-13520484D02*
X11193872Y-13510960D01*
X11193872Y-13510960D02*
X11203396Y-13501436D01*
X11203396Y-13501436D02*
X11222444Y-13472865D01*
X11222444Y-13472865D02*
X11231967Y-13434769D01*
X11231967Y-13434769D02*
X11231967Y-13358579D01*
X11231967Y-13358579D02*
X11222444Y-13339531D01*
X11222444Y-13339531D02*
X11212920Y-13330008D01*
X11212920Y-13330008D02*
X11193872Y-13320484D01*
X11193872Y-13320484D02*
X11155777Y-13320484D01*
X11155777Y-13320484D02*
X11136729Y-13330008D01*
X11136729Y-13330008D02*
X11127206Y-13339531D01*
X11127206Y-13339531D02*
X11117682Y-13358579D01*
X11117682Y-13358579D02*
X11117682Y-13406198D01*
X11117682Y-13406198D02*
X11127206Y-13425246D01*
X11127206Y-13425246D02*
X11136729Y-13434769D01*
X11136729Y-13434769D02*
X11155777Y-13444293D01*
X11155777Y-13444293D02*
X11193872Y-13444293D01*
X11193872Y-13444293D02*
X11212920Y-13434769D01*
X11212920Y-13434769D02*
X11222444Y-13425246D01*
X11222444Y-13425246D02*
X11231967Y-13406198D01*
X11422444Y-13520484D02*
X11308158Y-13520484D01*
X11365301Y-13520484D02*
X11365301Y-13320484D01*
X11365301Y-13320484D02*
X11346253Y-13349055D01*
X11346253Y-13349055D02*
X11327206Y-13368103D01*
X11327206Y-13368103D02*
X11308158Y-13377627D01*
X11498634Y-13320484D02*
X11498634Y-13358579D01*
X11574825Y-13320484D02*
X11574825Y-13358579D01*
X11870063Y-13596674D02*
X11860539Y-13587150D01*
X11860539Y-13587150D02*
X11841491Y-13558579D01*
X11841491Y-13558579D02*
X11831968Y-13539531D01*
X11831968Y-13539531D02*
X11822444Y-13510960D01*
X11822444Y-13510960D02*
X11812920Y-13463341D01*
X11812920Y-13463341D02*
X11812920Y-13425246D01*
X11812920Y-13425246D02*
X11822444Y-13377627D01*
X11822444Y-13377627D02*
X11831968Y-13349055D01*
X11831968Y-13349055D02*
X11841491Y-13330008D01*
X11841491Y-13330008D02*
X11860539Y-13301436D01*
X11860539Y-13301436D02*
X11870063Y-13291912D01*
X11984348Y-13320484D02*
X12003396Y-13320484D01*
X12003396Y-13320484D02*
X12022444Y-13330008D01*
X12022444Y-13330008D02*
X12031968Y-13339531D01*
X12031968Y-13339531D02*
X12041491Y-13358579D01*
X12041491Y-13358579D02*
X12051015Y-13396674D01*
X12051015Y-13396674D02*
X12051015Y-13444293D01*
X12051015Y-13444293D02*
X12041491Y-13482388D01*
X12041491Y-13482388D02*
X12031968Y-13501436D01*
X12031968Y-13501436D02*
X12022444Y-13510960D01*
X12022444Y-13510960D02*
X12003396Y-13520484D01*
X12003396Y-13520484D02*
X11984348Y-13520484D01*
X11984348Y-13520484D02*
X11965301Y-13510960D01*
X11965301Y-13510960D02*
X11955777Y-13501436D01*
X11955777Y-13501436D02*
X11946253Y-13482388D01*
X11946253Y-13482388D02*
X11936729Y-13444293D01*
X11936729Y-13444293D02*
X11936729Y-13396674D01*
X11936729Y-13396674D02*
X11946253Y-13358579D01*
X11946253Y-13358579D02*
X11955777Y-13339531D01*
X11955777Y-13339531D02*
X11965301Y-13330008D01*
X11965301Y-13330008D02*
X11984348Y-13320484D01*
X12289110Y-13520484D02*
X12289110Y-13320484D01*
X12374825Y-13520484D02*
X12374825Y-13415722D01*
X12374825Y-13415722D02*
X12365301Y-13396674D01*
X12365301Y-13396674D02*
X12346253Y-13387150D01*
X12346253Y-13387150D02*
X12317682Y-13387150D01*
X12317682Y-13387150D02*
X12298634Y-13396674D01*
X12298634Y-13396674D02*
X12289110Y-13406198D01*
X12498634Y-13520484D02*
X12479587Y-13510960D01*
X12479587Y-13510960D02*
X12470063Y-13501436D01*
X12470063Y-13501436D02*
X12460539Y-13482388D01*
X12460539Y-13482388D02*
X12460539Y-13425246D01*
X12460539Y-13425246D02*
X12470063Y-13406198D01*
X12470063Y-13406198D02*
X12479587Y-13396674D01*
X12479587Y-13396674D02*
X12498634Y-13387150D01*
X12498634Y-13387150D02*
X12527206Y-13387150D01*
X12527206Y-13387150D02*
X12546253Y-13396674D01*
X12546253Y-13396674D02*
X12555777Y-13406198D01*
X12555777Y-13406198D02*
X12565301Y-13425246D01*
X12565301Y-13425246D02*
X12565301Y-13482388D01*
X12565301Y-13482388D02*
X12555777Y-13501436D01*
X12555777Y-13501436D02*
X12546253Y-13510960D01*
X12546253Y-13510960D02*
X12527206Y-13520484D01*
X12527206Y-13520484D02*
X12498634Y-13520484D01*
X12679587Y-13520484D02*
X12660539Y-13510960D01*
X12660539Y-13510960D02*
X12651015Y-13491912D01*
X12651015Y-13491912D02*
X12651015Y-13320484D01*
X12831968Y-13510960D02*
X12812920Y-13520484D01*
X12812920Y-13520484D02*
X12774825Y-13520484D01*
X12774825Y-13520484D02*
X12755777Y-13510960D01*
X12755777Y-13510960D02*
X12746253Y-13491912D01*
X12746253Y-13491912D02*
X12746253Y-13415722D01*
X12746253Y-13415722D02*
X12755777Y-13396674D01*
X12755777Y-13396674D02*
X12774825Y-13387150D01*
X12774825Y-13387150D02*
X12812920Y-13387150D01*
X12812920Y-13387150D02*
X12831968Y-13396674D01*
X12831968Y-13396674D02*
X12841491Y-13415722D01*
X12841491Y-13415722D02*
X12841491Y-13434769D01*
X12841491Y-13434769D02*
X12746253Y-13453817D01*
X12917682Y-13510960D02*
X12936730Y-13520484D01*
X12936730Y-13520484D02*
X12974825Y-13520484D01*
X12974825Y-13520484D02*
X12993872Y-13510960D01*
X12993872Y-13510960D02*
X13003396Y-13491912D01*
X13003396Y-13491912D02*
X13003396Y-13482388D01*
X13003396Y-13482388D02*
X12993872Y-13463341D01*
X12993872Y-13463341D02*
X12974825Y-13453817D01*
X12974825Y-13453817D02*
X12946253Y-13453817D01*
X12946253Y-13453817D02*
X12927206Y-13444293D01*
X12927206Y-13444293D02*
X12917682Y-13425246D01*
X12917682Y-13425246D02*
X12917682Y-13415722D01*
X12917682Y-13415722D02*
X12927206Y-13396674D01*
X12927206Y-13396674D02*
X12946253Y-13387150D01*
X12946253Y-13387150D02*
X12974825Y-13387150D01*
X12974825Y-13387150D02*
X12993872Y-13396674D01*
X13241492Y-13444293D02*
X13393873Y-13444293D01*
X13317682Y-13520484D02*
X13317682Y-13368103D01*
X13727206Y-13387150D02*
X13727206Y-13520484D01*
X13679587Y-13310960D02*
X13631968Y-13453817D01*
X13631968Y-13453817D02*
X13755777Y-13453817D01*
X13974825Y-13510960D02*
X13993873Y-13520484D01*
X13993873Y-13520484D02*
X14031968Y-13520484D01*
X14031968Y-13520484D02*
X14051015Y-13510960D01*
X14051015Y-13510960D02*
X14060539Y-13491912D01*
X14060539Y-13491912D02*
X14060539Y-13482388D01*
X14060539Y-13482388D02*
X14051015Y-13463341D01*
X14051015Y-13463341D02*
X14031968Y-13453817D01*
X14031968Y-13453817D02*
X14003396Y-13453817D01*
X14003396Y-13453817D02*
X13984349Y-13444293D01*
X13984349Y-13444293D02*
X13974825Y-13425246D01*
X13974825Y-13425246D02*
X13974825Y-13415722D01*
X13974825Y-13415722D02*
X13984349Y-13396674D01*
X13984349Y-13396674D02*
X14003396Y-13387150D01*
X14003396Y-13387150D02*
X14031968Y-13387150D01*
X14031968Y-13387150D02*
X14051015Y-13396674D01*
X14174825Y-13520484D02*
X14155777Y-13510960D01*
X14155777Y-13510960D02*
X14146254Y-13491912D01*
X14146254Y-13491912D02*
X14146254Y-13320484D01*
X14279587Y-13520484D02*
X14260539Y-13510960D01*
X14260539Y-13510960D02*
X14251015Y-13501436D01*
X14251015Y-13501436D02*
X14241492Y-13482388D01*
X14241492Y-13482388D02*
X14241492Y-13425246D01*
X14241492Y-13425246D02*
X14251015Y-13406198D01*
X14251015Y-13406198D02*
X14260539Y-13396674D01*
X14260539Y-13396674D02*
X14279587Y-13387150D01*
X14279587Y-13387150D02*
X14308158Y-13387150D01*
X14308158Y-13387150D02*
X14327206Y-13396674D01*
X14327206Y-13396674D02*
X14336730Y-13406198D01*
X14336730Y-13406198D02*
X14346254Y-13425246D01*
X14346254Y-13425246D02*
X14346254Y-13482388D01*
X14346254Y-13482388D02*
X14336730Y-13501436D01*
X14336730Y-13501436D02*
X14327206Y-13510960D01*
X14327206Y-13510960D02*
X14308158Y-13520484D01*
X14308158Y-13520484D02*
X14279587Y-13520484D01*
X14403396Y-13387150D02*
X14479587Y-13387150D01*
X14431968Y-13320484D02*
X14431968Y-13491912D01*
X14431968Y-13491912D02*
X14441492Y-13510960D01*
X14441492Y-13510960D02*
X14460539Y-13520484D01*
X14460539Y-13520484D02*
X14479587Y-13520484D01*
X14536730Y-13510960D02*
X14555777Y-13520484D01*
X14555777Y-13520484D02*
X14593873Y-13520484D01*
X14593873Y-13520484D02*
X14612920Y-13510960D01*
X14612920Y-13510960D02*
X14622444Y-13491912D01*
X14622444Y-13491912D02*
X14622444Y-13482388D01*
X14622444Y-13482388D02*
X14612920Y-13463341D01*
X14612920Y-13463341D02*
X14593873Y-13453817D01*
X14593873Y-13453817D02*
X14565301Y-13453817D01*
X14565301Y-13453817D02*
X14546254Y-13444293D01*
X14546254Y-13444293D02*
X14536730Y-13425246D01*
X14536730Y-13425246D02*
X14536730Y-13415722D01*
X14536730Y-13415722D02*
X14546254Y-13396674D01*
X14546254Y-13396674D02*
X14565301Y-13387150D01*
X14565301Y-13387150D02*
X14593873Y-13387150D01*
X14593873Y-13387150D02*
X14612920Y-13396674D01*
X14689111Y-13596674D02*
X14698635Y-13587150D01*
X14698635Y-13587150D02*
X14717682Y-13558579D01*
X14717682Y-13558579D02*
X14727206Y-13539531D01*
X14727206Y-13539531D02*
X14736730Y-13510960D01*
X14736730Y-13510960D02*
X14746254Y-13463341D01*
X14746254Y-13463341D02*
X14746254Y-13425246D01*
X14746254Y-13425246D02*
X14736730Y-13377627D01*
X14736730Y-13377627D02*
X14727206Y-13349055D01*
X14727206Y-13349055D02*
X14717682Y-13330008D01*
X14717682Y-13330008D02*
X14698635Y-13301436D01*
X14698635Y-13301436D02*
X14689111Y-13291912D01*
M02*
