M48
; DRILL file {KiCad 9.0.5} date 2026-03-31T17:20:41-0400
; FORMAT={-:-/ absolute / metric / decimal}
; #@! TF.CreationDate,2026-03-31T17:20:41-04:00
; #@! TF.GenerationSoftware,Kicad,Pcbnew,9.0.5
; #@! TF.FileFunction,Plated,1,2,PTH
FMAT,2
METRIC
; #@! TA.AperFunction,Plated,PTH,ViaDrill
T1C0.400
; #@! TA.AperFunction,Plated,PTH,ComponentDrill
T2C0.700
; #@! TA.AperFunction,Plated,PTH,ComponentDrill
T3C0.800
; #@! TA.AperFunction,Plated,PTH,ComponentDrill
T4C0.900
; #@! TA.AperFunction,Plated,PTH,ComponentDrill
T5C1.000
; #@! TA.AperFunction,Plated,PTH,ComponentDrill
T6C1.100
; #@! TA.AperFunction,Plated,PTH,ComponentDrill
T7C1.500
%
G90
G05
T1
X91.0Y-64.0
X91.0Y-79.0
X93.0Y-66.0
X94.0Y-82.0
X105.5Y-92.0
X107.5Y-92.0
X112.0Y-85.5
X113.0Y-86.5
X117.5Y-72.0
X132.0Y-77.0
X140.5Y-92.0
X148.0Y-72.0
X151.0Y-77.0
X156.0Y-86.0
X156.0Y-88.0
X159.0Y-87.0
X161.0Y-87.0
X165.0Y-77.5
X166.0Y-78.5
X167.0Y-79.5
X173.5Y-80.5
X181.0Y-91.0
X182.0Y-76.0
X182.5Y-69.5
X191.0Y-68.5
X191.0Y-71.0
T2
X89.96Y-93.0
X95.04Y-93.0
X100.5Y-82.46
X100.5Y-87.54
X108.0Y-82.46
X108.0Y-87.54
X168.0Y-82.46
X168.0Y-87.54
X175.5Y-82.46
X175.5Y-87.54
X180.96Y-93.0
X186.04Y-93.0
T3
X85.0Y-110.0
X87.0Y-107.0
X97.19Y-97.0
X97.19Y-105.0
X103.0Y-83.75
X103.0Y-86.25
X104.81Y-97.0
X104.81Y-105.0
X105.5Y-83.75
X105.5Y-86.25
X106.0Y-110.5
X108.19Y-107.0
X110.0Y-110.5
X110.19Y-104.0
X112.0Y-93.19
X112.0Y-100.81
X114.0Y-110.5
X115.0Y-93.19
X115.0Y-100.81
X115.81Y-107.0
X117.81Y-104.0
X119.0Y-96.0
X119.0Y-109.0
X120.5Y-104.0
X121.0Y-96.0
X121.0Y-109.0
X124.19Y-94.0
X124.19Y-97.0
X124.19Y-100.0
X124.19Y-109.5
X125.5Y-104.0
X128.0Y-94.0
X128.19Y-70.0
X129.0Y-105.0
X129.5Y-63.0
X131.0Y-105.0
X131.81Y-94.0
X131.81Y-97.0
X131.81Y-100.0
X131.81Y-109.5
X132.0Y-63.0
X134.195Y-94.38
X134.195Y-96.92
X134.195Y-99.46
X134.195Y-102.0
X134.195Y-104.54
X134.195Y-107.08
X134.195Y-109.62
X135.81Y-70.0
X137.0Y-59.19
X137.0Y-66.81
X138.0Y-69.0
X138.0Y-102.0
X138.005Y-110.0
X140.0Y-59.19
X140.0Y-66.81
X141.815Y-94.38
X141.815Y-96.92
X141.815Y-99.46
X141.815Y-102.0
X141.815Y-104.54
X141.815Y-107.08
X141.815Y-109.62
X144.0Y-64.0
X144.0Y-69.0
X144.19Y-94.0
X144.19Y-97.0
X144.19Y-100.0
X144.19Y-109.5
X145.0Y-105.0
X146.0Y-54.0
X146.0Y-59.0
X146.5Y-64.0
X147.0Y-105.0
X148.0Y-94.0
X150.5Y-104.0
X151.0Y-63.5
X151.0Y-68.5
X151.81Y-94.0
X151.81Y-97.0
X151.81Y-100.0
X151.81Y-109.5
X155.0Y-96.0
X155.0Y-109.0
X155.5Y-104.0
X157.0Y-96.0
X157.0Y-109.0
X158.19Y-104.0
X160.19Y-107.0
X161.0Y-93.19
X161.0Y-100.81
X162.0Y-110.5
X164.0Y-93.19
X164.0Y-100.81
X165.81Y-104.0
X166.0Y-110.5
X167.81Y-107.0
X170.0Y-110.5
X170.5Y-83.75
X170.5Y-86.25
X171.19Y-97.0
X171.19Y-105.0
X173.0Y-83.75
X173.0Y-86.25
X178.81Y-97.0
X178.81Y-105.0
X189.0Y-107.0
X191.0Y-110.0
T4
X97.5Y-101.0
X97.5Y-109.0
X100.04Y-101.0
X100.04Y-109.0
X175.96Y-101.0
X175.96Y-109.0
X178.5Y-101.0
X178.5Y-109.0
T5
X90.0Y-74.0
X90.0Y-88.5
X92.5Y-74.0
X95.0Y-74.0
X95.0Y-88.5
X171.525Y-62.86
X171.525Y-65.4
X171.525Y-67.94
X171.525Y-70.48
X171.525Y-73.02
X171.525Y-75.56
X171.525Y-78.1
X181.0Y-74.0
X181.0Y-88.5
X183.5Y-74.0
X186.0Y-74.0
X186.0Y-88.5
T6
X114.495Y-74.38
X114.495Y-89.62
X117.035Y-74.38
X117.035Y-89.62
X119.575Y-74.38
X119.575Y-89.62
X122.115Y-74.38
X122.115Y-89.62
X124.655Y-74.38
X124.655Y-89.62
X127.195Y-74.38
X127.195Y-89.62
X129.735Y-74.38
X129.735Y-89.62
X132.275Y-74.38
X132.275Y-89.62
X134.815Y-74.38
X134.815Y-89.62
X137.355Y-74.38
X137.355Y-89.62
X139.895Y-74.38
X139.895Y-89.62
X140.46Y-51.0
X142.435Y-74.38
X142.435Y-89.62
X143.0Y-51.0
X144.975Y-74.38
X144.975Y-89.62
X145.54Y-51.0
X147.515Y-74.38
X147.515Y-89.62
X150.055Y-74.38
X150.055Y-89.62
X151.0Y-52.19
X151.0Y-59.81
X152.595Y-74.38
X152.595Y-89.62
X155.135Y-74.38
X155.135Y-89.62
X157.675Y-74.38
X157.675Y-89.62
X160.215Y-74.38
X160.215Y-89.62
X162.755Y-74.38
X162.755Y-89.62
T3
X128.2Y-56.5G85X128.2Y-54.3
G05
X131.9Y-51.9G85X134.1Y-51.9
G05
X131.9Y-58.0G85X134.1Y-58.0
G05
T5
X92.75Y-100.3G85X92.25Y-100.3
G05
X92.75Y-105.0G85X92.25Y-105.0
G05
X92.75Y-109.7G85X92.25Y-109.7
G05
X95.0Y-62.75G85X95.0Y-61.25
G05
X95.0Y-70.25G85X95.0Y-68.75
G05
X97.5Y-55.25G85X97.5Y-53.75
G05
X115.0Y-62.75G85X115.0Y-61.25
G05
X115.0Y-70.25G85X115.0Y-68.75
G05
X117.5Y-55.25G85X117.5Y-53.75
G05
X156.0Y-62.75G85X156.0Y-61.25
G05
X156.0Y-70.25G85X156.0Y-68.75
G05
X158.5Y-55.25G85X158.5Y-53.75
G05
X176.0Y-62.75G85X176.0Y-61.25
G05
X176.0Y-70.25G85X176.0Y-68.75
G05
X178.5Y-55.25G85X178.5Y-53.75
G05
X183.25Y-100.3G85X183.75Y-100.3
G05
X183.25Y-105.0G85X183.75Y-105.0
G05
X183.25Y-109.7G85X183.75Y-109.7
G05
T7
X86.9Y-80.85G85X86.9Y-82.15
G05
X98.1Y-80.85G85X98.1Y-82.15
G05
X177.9Y-80.85G85X177.9Y-82.15
G05
X189.1Y-80.85G85X189.1Y-82.15
G05
M30
